<svg xmlns="http://www.w3.org/2000/svg" width="258" height="367" fill="none" viewBox="0 0 258 367"><g filter="url(#filter0_d)"><mask id="path-1-inside-1" fill="#fff"><path fill-rule="evenodd" d="M65 268H40V314.817L65 326.722V268Z" clip-rule="evenodd"/></mask><path fill="#F91D1D" fill-rule="evenodd" d="M65 268H40V314.817L65 326.722V268Z" clip-rule="evenodd"/><path fill="#000" d="M40 268V266H38V268H40ZM65 268H67V266H65V268ZM40 314.817H38V316.08L39.1401 316.623L40 314.817ZM65 326.722L64.1401 328.528L67 329.889V326.722H65ZM40 270H65V266H40V270ZM42 314.817V268H38V314.817H42ZM39.1401 316.623L64.1401 328.528L65.8599 324.916L40.8599 313.011L39.1401 316.623ZM63 268V326.722H67V268H63Z" mask="url(#path-1-inside-1)"/><path fill="#33BEEA" stroke="#000" stroke-width="2" d="M11 6H213C220.732 6 227 12.268 227 20V277C227 284.732 220.732 291 213 291H11V6Z"/><rect width="40" height="285" x="11" y="6" fill="url(#paint0_linear)" stroke="#000" stroke-width="2"/><rect width="216" height="88" x="11" y="101" fill="#E6C5F5" stroke="#000" stroke-width="2"/><g filter="url(#filter1_d)"><rect width="14" height="297" x="185" fill="#C5F245"/><rect width="12" height="295" x="186" y="1" stroke="#000" stroke-width="2"/></g></g><defs><filter id="filter0_d" width="258" height="366.722" x="0" y="0" color-interpolation-filters="sRGB" filterUnits="userSpaceOnUse"><feFlood flood-opacity="0" result="BackgroundImageFix"/><feColorMatrix in="SourceAlpha" type="matrix" values="0 0 0 0 0 0 0 0 0 0 0 0 0 0 0 0 0 0 127 0"/><feOffset dx="10" dy="20"/><feGaussianBlur stdDeviation="10"/><feColorMatrix type="matrix" values="0 0 0 0 0 0 0 0 0 0 0 0 0 0 0 0 0 0 0.25 0"/><feBlend in2="BackgroundImageFix" mode="normal" result="effect1_dropShadow"/><feBlend in="SourceGraphic" in2="effect1_dropShadow" mode="normal" result="shape"/></filter><filter id="filter1_d" width="22" height="305" x="181" y="0" color-interpolation-filters="sRGB" filterUnits="userSpaceOnUse"><feFlood flood-opacity="0" result="BackgroundImageFix"/><feColorMatrix in="SourceAlpha" type="matrix" values="0 0 0 0 0 0 0 0 0 0 0 0 0 0 0 0 0 0 127 0"/><feOffset dy="4"/><feGaussianBlur stdDeviation="2"/><feColorMatrix type="matrix" values="0 0 0 0 0 0 0 0 0 0 0 0 0 0 0 0 0 0 0.25 0"/><feBlend in2="BackgroundImageFix" mode="normal" result="effect1_dropShadow"/><feBlend in="SourceGraphic" in2="effect1_dropShadow" mode="normal" result="shape"/></filter><linearGradient id="paint0_linear" x1="14.5" x2="52" y1="148" y2="148" gradientUnits="userSpaceOnUse"><stop stop-color="#106986"/><stop offset="1" stop-color="#33BEEA" stop-opacity="0"/></linearGradient></defs></svg>