<svg width="128" height="68" viewBox="0 0 128 68" fill="none" xmlns="http://www.w3.org/2000/svg">
<g filter="url(#filter0_d)">
<circle cx="44" cy="20" r="20" fill="#9A94FF"/>
<circle cx="64" cy="20" r="20" fill="#9A94FF"/>
<circle cx="24" cy="31" r="20" fill="#9A94FF"/>
<circle cx="84" cy="20" r="20" fill="#9A94FF"/>
<path d="M124 31C124 42.0457 115.046 51 104 51C92.9543 51 84 42.0457 84 31C84 19.9543 92.9543 11 104 11C115.046 11 124 19.9543 124 31Z" fill="#9A94FF"/>
<circle cx="64" cy="40" r="20" fill="#9A94FF"/>
<circle cx="84" cy="40" r="20" fill="#9A94FF"/>
<circle cx="44" cy="40" r="20" fill="#9A94FF"/>
</g>
<g filter="url(#filter1_d)">
<path d="M30.642 42.349C30.048 42.349 29.463 42.178 28.887 41.836C28.311 41.512 28.023 40.882 28.023 39.946C28.023 39.514 28.104 38.938 28.266 38.218C28.446 37.498 28.761 36.418 29.211 34.978L29.562 33.844C30.138 31.99 30.561 30.433 30.831 29.173C31.119 27.913 31.263 26.536 31.263 25.042C31.263 23.89 31.137 23.035 30.885 22.477C30.651 21.919 30.228 21.64 29.616 21.64C28.806 21.64 28.167 22.045 27.699 22.855C27.249 23.665 27.024 24.583 27.024 25.609C27.024 26.401 27.159 27.058 27.429 27.58C26.583 27.58 25.953 27.382 25.539 26.986C25.125 26.59 24.918 26.068 24.918 25.42C24.918 24.682 25.152 23.935 25.62 23.179C26.106 22.423 26.745 21.802 27.537 21.316C28.347 20.812 29.211 20.56 30.129 20.56C31.335 20.56 32.262 21.01 32.91 21.91C33.558 22.81 33.882 24.088 33.882 25.744C33.882 26.878 33.738 28.075 33.45 29.335C33.162 30.577 32.721 32.134 32.127 34.006C32.073 34.204 32.01 34.402 31.938 34.6C31.866 34.798 31.794 35.014 31.722 35.248C31.362 36.274 31.074 37.174 30.858 37.948C30.66 38.722 30.561 39.478 30.561 40.216C30.561 40.558 30.597 40.792 30.669 40.918C30.759 41.062 30.921 41.134 31.155 41.134C32.055 41.134 33.081 40.414 34.233 38.974C35.403 37.516 36.447 35.815 37.365 33.871C38.301 31.927 38.859 30.334 39.039 29.092C39.669 29.092 40.182 29.272 40.578 29.632C40.992 29.992 41.199 30.361 41.199 30.739C41.199 31.081 40.866 32.026 40.2 33.574C39.588 35.014 39.102 36.256 38.742 37.3C38.4 38.326 38.229 39.262 38.229 40.108C38.229 40.486 38.274 40.747 38.364 40.891C38.472 41.053 38.661 41.134 38.931 41.134C39.921 41.134 41.163 40.234 42.657 38.434C44.169 36.616 45.492 34.483 46.626 32.035C47.76 29.569 48.327 27.454 48.327 25.69C48.327 24.772 48.165 24.097 47.841 23.665C47.517 23.215 47.067 22.891 46.491 22.693C46.797 22.189 47.13 21.811 47.49 21.559C47.868 21.307 48.21 21.181 48.516 21.181C48.822 21.181 49.119 21.307 49.407 21.559C49.713 21.793 49.965 22.162 50.163 22.666C50.361 23.17 50.46 23.773 50.46 24.475C50.46 26.383 49.776 28.777 48.408 31.657C47.04 34.519 45.384 37.021 43.44 39.163C41.496 41.287 39.723 42.349 38.121 42.349C37.419 42.349 36.834 42.133 36.366 41.701C35.916 41.287 35.691 40.729 35.691 40.027C35.691 39.649 35.781 39.19 35.961 38.65C33.999 41.116 32.226 42.349 30.642 42.349ZM54.2284 40.702C53.5624 40.702 53.0224 40.522 52.6084 40.162C52.1944 39.82 51.9874 39.352 51.9874 38.758C51.9874 38.416 52.0504 38.047 52.1764 37.651C52.3204 37.237 52.5274 36.742 52.7974 36.166C53.0314 35.662 53.2114 35.239 53.3374 34.897C53.4634 34.537 53.5264 34.222 53.5264 33.952C53.5264 33.268 53.0764 32.692 52.1764 32.224C51.8164 33.124 51.3934 34.033 50.9074 34.951C50.4394 35.869 50.0164 36.643 49.6384 37.273L49.2334 36.49C50.0614 35.014 50.7904 33.385 51.4204 31.603C51.2404 31.423 51.1504 31.18 51.1504 30.874C51.1504 30.406 51.2944 29.965 51.5824 29.551C51.8704 29.137 52.1494 28.93 52.4194 28.93C52.5994 28.93 52.7434 29.038 52.8514 29.254C52.9774 29.47 53.0404 29.65 53.0404 29.794C53.0404 29.866 52.9954 30.028 52.9054 30.28C52.8334 30.514 52.7794 30.685 52.7434 30.793C52.7614 30.919 52.8334 31.045 52.9594 31.171C53.0854 31.279 53.3194 31.441 53.6614 31.657C54.2914 32.071 54.7774 32.476 55.1194 32.872C55.4794 33.25 55.6594 33.763 55.6594 34.411C55.6594 34.807 55.5874 35.203 55.4434 35.599C55.3174 35.995 55.1194 36.472 54.8494 37.03C54.4534 37.822 54.2554 38.389 54.2554 38.731C54.2554 39.145 54.4804 39.352 54.9304 39.352C55.4704 39.352 56.0554 39.136 56.6854 38.704C57.3334 38.272 57.9184 37.75 58.4404 37.138C58.9804 36.508 59.3764 35.923 59.6284 35.383L60.2764 35.869C59.9164 36.679 59.4124 37.453 58.7644 38.191C58.1164 38.929 57.3874 39.532 56.5774 40C55.7854 40.468 55.0024 40.702 54.2284 40.702ZM64.388 28.633C64.01 28.633 63.686 28.543 63.416 28.363C63.164 28.183 63.038 27.922 63.038 27.58C63.038 27.166 63.263 26.806 63.713 26.5C64.181 26.176 64.676 26.014 65.198 26.014C65.972 26.014 66.359 26.347 66.359 27.013C66.359 27.391 66.152 27.76 65.738 28.12C65.324 28.462 64.874 28.633 64.388 28.633ZM61.202 40.81C60.446 40.81 59.861 40.585 59.447 40.135C59.033 39.685 58.826 39.109 58.826 38.407C58.826 37.687 59.024 36.715 59.42 35.491C59.834 34.249 60.347 33.16 60.959 32.224C61.589 31.288 62.219 30.82 62.849 30.82C63.083 30.82 63.272 30.892 63.416 31.036C63.578 31.162 63.659 31.351 63.659 31.603C63.659 31.765 63.587 31.99 63.443 32.278C63.299 32.548 63.065 32.944 62.741 33.466C62.165 34.42 61.706 35.266 61.364 36.004C61.04 36.724 60.878 37.408 60.878 38.056C60.878 38.614 60.977 38.992 61.175 39.19C61.373 39.388 61.679 39.487 62.093 39.487C63.515 39.487 64.928 38.11 66.332 35.356L66.737 35.788C66.107 37.372 65.306 38.605 64.334 39.487C63.362 40.369 62.318 40.81 61.202 40.81ZM68.0908 41.242C67.2628 41.242 66.6148 40.999 66.1468 40.513C65.6788 40.045 65.4448 39.343 65.4448 38.407C65.4448 37.705 65.5798 36.814 65.8498 35.734C66.1198 34.636 66.4798 33.475 66.9298 32.251C66.4618 32.161 66.1468 32.08 65.9848 32.008V31.171C66.4168 31.225 66.8488 31.27 67.2808 31.306C68.0908 29.272 68.9548 27.526 69.8728 26.068C70.8088 24.61 71.5648 23.881 72.1408 23.881C72.3388 23.881 72.5098 23.953 72.6538 24.097C72.8158 24.241 72.8968 24.43 72.8968 24.664C72.8968 24.952 72.7708 25.339 72.5188 25.825C72.2668 26.311 71.8528 27.049 71.2768 28.039C70.4848 29.371 69.8638 30.487 69.4138 31.387C71.4838 31.387 73.1308 31.324 74.3548 31.198V32.089C72.2308 32.305 70.4218 32.413 68.9278 32.413C67.9918 34.627 67.5238 36.436 67.5238 37.84C67.5238 38.578 67.6408 39.1 67.8748 39.406C68.1088 39.712 68.4778 39.865 68.9818 39.865C69.8818 39.865 70.7998 39.46 71.7358 38.65C72.6898 37.822 73.5178 36.706 74.2198 35.302L74.5978 35.572C73.8598 37.246 72.9058 38.614 71.7358 39.676C70.5658 40.72 69.3508 41.242 68.0908 41.242ZM76.5441 41.188C75.4101 41.188 74.5281 40.882 73.8981 40.27C73.2681 39.658 72.9531 38.875 72.9531 37.921C72.9531 36.877 73.3041 35.752 74.0061 34.546C74.7081 33.322 75.6081 32.305 76.7061 31.495C77.8041 30.667 78.8841 30.253 79.9461 30.253C80.5041 30.253 80.9721 30.397 81.3501 30.685C81.7281 30.955 81.9171 31.414 81.9171 32.062C81.9171 32.926 81.5841 33.745 80.9181 34.519C80.2521 35.275 79.3881 35.896 78.3261 36.382C77.2821 36.868 76.2111 37.174 75.1131 37.3C75.0771 37.48 75.0591 37.687 75.0591 37.921C75.0591 38.389 75.1851 38.857 75.4371 39.325C75.7071 39.793 76.2741 40.027 77.1381 40.027C78.2361 40.027 79.3521 39.586 80.4861 38.704C81.6381 37.804 82.5651 36.688 83.2671 35.356L83.8071 35.788C83.0871 37.408 82.0521 38.713 80.7021 39.703C79.3701 40.693 77.9841 41.188 76.5441 41.188ZM75.4101 36.301C76.0581 36.229 76.7781 35.968 77.5701 35.518C78.3801 35.068 79.0641 34.519 79.6221 33.871C80.1801 33.205 80.4591 32.557 80.4591 31.927C80.4591 31.729 80.4231 31.594 80.3511 31.522C80.2791 31.45 80.1621 31.414 80.0001 31.414C79.4781 31.414 78.9021 31.666 78.2721 32.17C77.6601 32.656 77.0931 33.277 76.5711 34.033C76.0491 34.789 75.6621 35.545 75.4101 36.301ZM84.5583 40.27C84.1623 40.27 83.8653 40.171 83.6673 39.973C83.4693 39.757 83.3703 39.514 83.3703 39.244C83.3703 38.938 83.5593 38.623 83.9373 38.299C84.3333 37.975 84.7113 37.813 85.0713 37.813C85.3053 37.813 85.5123 37.885 85.6923 38.029C85.8723 38.155 85.9623 38.362 85.9623 38.65C85.9623 38.812 85.8993 39.028 85.7733 39.298C85.6653 39.55 85.5033 39.775 85.2873 39.973C85.0893 40.171 84.8463 40.27 84.5583 40.27ZM94.4993 28.633C94.1213 28.633 93.7973 28.543 93.5273 28.363C93.2753 28.183 93.1493 27.922 93.1493 27.58C93.1493 27.166 93.3743 26.806 93.8243 26.5C94.2923 26.176 94.7873 26.014 95.3093 26.014C96.0833 26.014 96.4703 26.347 96.4703 27.013C96.4703 27.391 96.2633 27.76 95.8493 28.12C95.4353 28.462 94.9853 28.633 94.4993 28.633ZM91.3133 40.81C90.5573 40.81 89.9723 40.585 89.5583 40.135C89.1443 39.685 88.9373 39.109 88.9373 38.407C88.9373 37.687 89.1353 36.715 89.5313 35.491C89.9453 34.249 90.4583 33.16 91.0703 32.224C91.7003 31.288 92.3303 30.82 92.9603 30.82C93.1943 30.82 93.3833 30.892 93.5273 31.036C93.6893 31.162 93.7703 31.351 93.7703 31.603C93.7703 31.765 93.6983 31.99 93.5543 32.278C93.4103 32.548 93.1763 32.944 92.8523 33.466C92.2763 34.42 91.8173 35.266 91.4753 36.004C91.1513 36.724 90.9893 37.408 90.9893 38.056C90.9893 38.614 91.0883 38.992 91.2863 39.19C91.4843 39.388 91.7903 39.487 92.2043 39.487C93.6263 39.487 95.0393 38.11 96.4433 35.356L96.8483 35.788C96.2183 37.372 95.4173 38.605 94.4453 39.487C93.4733 40.369 92.4293 40.81 91.3133 40.81ZM98.2021 41.242C97.3741 41.242 96.7261 40.999 96.2581 40.513C95.7901 40.045 95.5561 39.343 95.5561 38.407C95.5561 37.705 95.6911 36.814 95.9611 35.734C96.2311 34.636 96.5911 33.475 97.0411 32.251C96.5731 32.161 96.2581 32.08 96.0961 32.008V31.171C96.5281 31.225 96.9601 31.27 97.3921 31.306C98.2021 29.272 99.0661 27.526 99.9841 26.068C100.92 24.61 101.676 23.881 102.252 23.881C102.45 23.881 102.621 23.953 102.765 24.097C102.927 24.241 103.008 24.43 103.008 24.664C103.008 24.952 102.882 25.339 102.63 25.825C102.378 26.311 101.964 27.049 101.388 28.039C100.596 29.371 99.9751 30.487 99.5251 31.387C101.595 31.387 103.242 31.324 104.466 31.198V32.089C102.342 32.305 100.533 32.413 99.0391 32.413C98.1031 34.627 97.6351 36.436 97.6351 37.84C97.6351 38.578 97.7521 39.1 97.9861 39.406C98.2201 39.712 98.5891 39.865 99.0931 39.865C99.9931 39.865 100.911 39.46 101.847 38.65C102.801 37.822 103.629 36.706 104.331 35.302L104.709 35.572C103.971 37.246 103.017 38.614 101.847 39.676C100.677 40.72 99.4621 41.242 98.2021 41.242Z" fill="white"/>
<path d="M28.887 41.836L28.9381 41.75L28.936 41.7488L28.887 41.836ZM28.266 38.218L28.169 38.1937L28.1684 38.196L28.266 38.218ZM29.211 34.978L29.3064 35.0078L29.3065 35.0076L29.211 34.978ZM29.562 33.844L29.4665 33.8143L29.4665 33.8144L29.562 33.844ZM30.831 29.173L30.7335 29.1507L30.7332 29.152L30.831 29.173ZM30.885 22.477L30.7927 22.5157L30.7939 22.5182L30.885 22.477ZM27.699 22.855L27.6124 22.805L27.6116 22.8064L27.699 22.855ZM27.429 27.58V27.68H27.5933L27.5178 27.5341L27.429 27.58ZM25.539 26.986L25.6081 26.9137L25.6081 26.9137L25.539 26.986ZM25.62 23.179L25.5359 23.1249L25.535 23.1264L25.62 23.179ZM27.537 21.316L27.5893 21.4012L27.5898 21.4009L27.537 21.316ZM33.45 29.335L33.5474 29.3576L33.5475 29.3573L33.45 29.335ZM32.127 34.006L32.0316 33.9757L32.0305 33.9797L32.127 34.006ZM31.938 34.6L31.844 34.5658L31.844 34.5658L31.938 34.6ZM31.722 35.248L31.8164 35.2811L31.8176 35.2774L31.722 35.248ZM30.858 37.948L30.7617 37.9211L30.7611 37.9232L30.858 37.948ZM30.669 40.918L30.5821 40.9677L30.5842 40.971L30.669 40.918ZM34.233 38.974L34.155 38.9114L34.1549 38.9115L34.233 38.974ZM37.365 33.871L37.2749 33.8276L37.2746 33.8283L37.365 33.871ZM39.039 29.092V28.992H38.9524L38.94 29.0777L39.039 29.092ZM40.578 29.632L40.5107 29.706L40.5124 29.7075L40.578 29.632ZM40.2 33.574L40.1081 33.5345L40.108 33.5349L40.2 33.574ZM38.742 37.3L38.6475 37.2674L38.6471 37.2684L38.742 37.3ZM38.364 40.891L38.2792 40.944L38.2808 40.9465L38.364 40.891ZM42.657 38.434L42.5801 38.3701L42.5801 38.3701L42.657 38.434ZM46.626 32.035L46.7167 32.077L46.7169 32.0768L46.626 32.035ZM47.841 23.665L47.7598 23.7234L47.761 23.725L47.841 23.665ZM46.491 22.693L46.4055 22.6411L46.3411 22.7472L46.4585 22.7876L46.491 22.693ZM47.49 21.559L47.4345 21.4758L47.4327 21.4771L47.49 21.559ZM49.407 21.559L49.341 21.6344L49.3463 21.6384L49.407 21.559ZM48.408 31.657L48.4982 31.7001L48.4983 31.6999L48.408 31.657ZM43.44 39.163L43.5138 39.2305L43.5141 39.2302L43.44 39.163ZM36.366 41.701L36.4338 41.6275L36.4337 41.6274L36.366 41.701ZM35.961 38.65L36.0559 38.6816L35.8827 38.5877L35.961 38.65ZM30.642 42.249C30.0682 42.249 29.5006 42.084 28.9381 41.75L28.8359 41.922C29.4254 42.272 30.0278 42.449 30.642 42.449V42.249ZM28.936 41.7488C28.4039 41.4495 28.123 40.8627 28.123 39.946H27.923C27.923 40.9013 28.2181 41.5745 28.838 41.9232L28.936 41.7488ZM28.123 39.946C28.123 39.5248 28.2022 38.957 28.3636 38.24L28.1684 38.196C28.0058 38.919 27.923 39.5032 27.923 39.946H28.123ZM28.363 38.2423C28.5423 37.5252 28.8566 36.4475 29.3064 35.0078L29.1156 34.9482C28.6654 36.3885 28.3497 37.4708 28.169 38.1937L28.363 38.2423ZM29.3065 35.0076L29.6575 33.8736L29.4665 33.8144L29.1155 34.9484L29.3065 35.0076ZM29.6575 33.8737C30.234 32.0181 30.6579 30.458 30.9288 29.194L30.7332 29.152C30.4641 30.408 30.042 31.9619 29.4665 33.8143L29.6575 33.8737ZM30.9285 29.1953C31.2184 27.9269 31.363 26.5424 31.363 25.042H31.163C31.163 26.5296 31.0196 27.8991 30.7335 29.1507L30.9285 29.1953ZM31.363 25.042C31.363 23.8861 31.2371 23.0137 30.9761 22.4358L30.7939 22.5182C31.0369 23.0563 31.163 23.8939 31.163 25.042H31.363ZM30.9772 22.4383C30.8541 22.1446 30.6784 21.9182 30.4473 21.7658C30.2163 21.6134 29.9375 21.54 29.616 21.54V21.74C29.9065 21.74 30.1452 21.8061 30.3372 21.9327C30.5291 22.0593 30.6819 22.2514 30.7928 22.5157L30.9772 22.4383ZM29.616 21.54C28.7641 21.54 28.095 21.9698 27.6124 22.805L27.7856 22.905C28.239 22.1202 28.8479 21.74 29.616 21.74V21.54ZM27.6116 22.8064C27.1525 23.6328 26.924 24.5679 26.924 25.609H27.124C27.124 24.5981 27.3455 23.6972 27.7864 22.9036L27.6116 22.8064ZM26.924 25.609C26.924 26.4117 27.0607 27.0857 27.3402 27.6259L27.5178 27.5341C27.2573 27.0303 27.124 26.3903 27.124 25.609H26.924ZM27.429 27.48C26.5966 27.48 25.9963 27.285 25.6081 26.9137L25.4699 27.0583C25.9097 27.479 26.5694 27.68 27.429 27.68V27.48ZM25.6081 26.9137C25.2165 26.5392 25.018 26.0446 25.018 25.42H24.818C24.818 26.0914 25.0335 26.6408 25.4699 27.0583L25.6081 26.9137ZM25.018 25.42C25.018 24.7041 25.2448 23.9751 25.705 23.2316L25.535 23.1264C25.0592 23.8949 24.818 24.6599 24.818 25.42H25.018ZM25.7041 23.2331C26.1817 22.4902 26.8097 21.8796 27.5893 21.4012L27.4847 21.2308C26.6803 21.7244 26.0303 22.3558 25.5359 23.1249L25.7041 23.2331ZM27.5898 21.4009C28.3846 20.9064 29.2304 20.66 30.129 20.66V20.46C29.1916 20.46 28.3094 20.7176 27.4842 21.2311L27.5898 21.4009ZM30.129 20.66C31.3061 20.66 32.2015 21.0971 32.8288 21.9684L32.9912 21.8516C32.3225 20.9229 31.3639 20.46 30.129 20.46V20.66ZM32.8288 21.9684C33.4599 22.8449 33.782 24.0992 33.782 25.744H33.982C33.982 24.0768 33.6561 22.7751 32.9912 21.8516L32.8288 21.9684ZM33.782 25.744C33.782 26.8695 33.6391 28.059 33.3525 29.3127L33.5475 29.3573C33.8369 28.091 33.982 26.8865 33.982 25.744H33.782ZM33.3526 29.3124C33.0654 30.5509 32.6253 32.1051 32.0317 33.9758L32.2223 34.0362C32.8167 32.1629 33.2586 30.6031 33.5474 29.3576L33.3526 29.3124ZM32.0305 33.9797C31.9773 34.175 31.9151 34.3703 31.844 34.5658L32.032 34.6342C32.1049 34.4337 32.1687 34.233 32.2235 34.0323L32.0305 33.9797ZM31.844 34.5658C31.7714 34.7656 31.6988 34.9832 31.6264 35.2186L31.8176 35.2774C31.8892 35.0448 31.9606 34.8304 32.032 34.6342L31.844 34.5658ZM31.6276 35.2149C31.2672 36.2423 30.9784 37.1444 30.7617 37.9211L30.9543 37.9749C31.1696 37.2036 31.4568 36.3057 31.8164 35.2811L31.6276 35.2149ZM30.7611 37.9232C30.5612 38.7047 30.461 39.469 30.461 40.216H30.661C30.661 39.487 30.7588 38.7393 30.9549 37.9728L30.7611 37.9232ZM30.461 40.216C30.461 40.3901 30.4701 40.5395 30.4892 40.6632C30.508 40.7856 30.5375 40.8894 30.5822 40.9676L30.7558 40.8684C30.7285 40.8206 30.704 40.7444 30.6868 40.6328C30.6699 40.5225 30.661 40.3839 30.661 40.216H30.461ZM30.5842 40.971C30.699 41.1547 30.901 41.234 31.155 41.234V41.034C30.941 41.034 30.819 40.9693 30.7538 40.865L30.5842 40.971ZM31.155 41.234C31.6322 41.234 32.1335 41.0432 32.6569 40.6759C33.1804 40.3085 33.7317 39.7607 34.3111 39.0365L34.1549 38.9115C33.5823 39.6273 33.0446 40.1595 32.5421 40.5121C32.0395 40.8648 31.5778 41.034 31.155 41.034V41.234ZM34.311 39.0366C35.4866 37.5716 36.5346 35.8638 37.4554 33.9137L37.2746 33.8283C36.3594 35.7662 35.3194 37.4604 34.155 38.9114L34.311 39.0366ZM37.4551 33.9144C38.3928 31.9668 38.9558 30.3631 39.138 29.1063L38.94 29.0777C38.7622 30.3049 38.2092 31.8872 37.2749 33.8276L37.4551 33.9144ZM39.039 29.192C39.6488 29.192 40.1363 29.3656 40.5107 29.706L40.6453 29.558C40.2277 29.1784 39.6892 28.992 39.039 28.992V29.192ZM40.5124 29.7075C40.9146 30.0572 41.099 30.4011 41.099 30.739H41.299C41.299 30.3209 41.0694 29.9268 40.6436 29.5565L40.5124 29.7075ZM41.099 30.739C41.099 30.8114 41.0809 30.9247 41.0398 31.0835C40.9991 31.2406 40.9377 31.4363 40.8549 31.671C40.6895 32.1404 40.4408 32.7614 40.1081 33.5345L40.2919 33.6135C40.6252 32.8386 40.876 32.213 41.0436 31.7375C41.1273 31.4997 41.1908 31.2983 41.2334 31.1336C41.2755 30.9707 41.299 30.8376 41.299 30.739H41.099ZM40.108 33.5349C39.4954 34.9762 39.0085 36.2205 38.6475 37.2674L38.8365 37.3326C39.1955 36.2915 39.6806 35.0518 40.292 33.6131L40.108 33.5349ZM38.6471 37.2684C38.3026 38.3019 38.129 39.2487 38.129 40.108H38.329C38.329 39.2753 38.4974 38.3501 38.8369 37.3316L38.6471 37.2684ZM38.129 40.108C38.129 40.4869 38.1728 40.7738 38.2792 40.944L38.4488 40.838C38.3752 40.7202 38.329 40.4851 38.329 40.108H38.129ZM38.2808 40.9465C38.414 41.1463 38.6417 41.234 38.931 41.234V41.034C38.6803 41.034 38.53 40.9597 38.4472 40.8355L38.2808 40.9465ZM38.931 41.234C39.4558 41.234 40.0344 40.996 40.6637 40.54C41.294 40.0832 41.9841 39.4013 42.7339 38.4979L42.5801 38.3701C41.8359 39.2667 41.158 39.9348 40.5463 40.378C39.9336 40.822 39.3962 41.034 38.931 41.034V41.234ZM42.7339 38.4979C44.2521 36.6724 45.5796 34.5318 46.7167 32.077L46.5353 31.993C45.4044 34.4342 44.0859 36.5596 42.5801 38.3701L42.7339 38.4979ZM46.7169 32.0768C47.854 29.604 48.427 27.4741 48.427 25.69H48.227C48.227 27.4339 47.666 29.534 46.5351 31.9932L46.7169 32.0768ZM48.427 25.69C48.427 24.764 48.2643 24.0627 47.921 23.605L47.761 23.725C48.0657 24.1313 48.227 24.78 48.227 25.69H48.427ZM47.9222 23.6066C47.5849 23.1381 47.1171 22.8025 46.5235 22.5984L46.4585 22.7876C47.017 22.9795 47.4491 23.2919 47.7598 23.7234L47.9222 23.6066ZM46.5765 22.7449C46.8776 22.2489 47.2019 21.8828 47.5473 21.6409L47.4327 21.4771C47.0581 21.7392 46.7164 22.1291 46.4055 22.6411L46.5765 22.7449ZM47.5455 21.6422C47.9145 21.3962 48.2372 21.281 48.516 21.281V21.081C48.1828 21.081 47.8215 21.2178 47.4345 21.4758L47.5455 21.6422ZM48.516 21.281C48.7922 21.281 49.0667 21.3941 49.3412 21.6343L49.4729 21.4837C49.1714 21.2199 48.8518 21.081 48.516 21.081V21.281ZM49.3463 21.6384C49.633 21.8577 49.876 22.209 50.0699 22.7026L50.2561 22.6294C50.054 22.115 49.793 21.7283 49.4677 21.4796L49.3463 21.6384ZM50.0699 22.7026C50.2622 23.192 50.36 23.782 50.36 24.475H50.56C50.56 23.764 50.4598 23.148 50.2561 22.6294L50.0699 22.7026ZM50.36 24.475C50.36 26.3614 49.683 28.7396 48.3177 31.6141L48.4983 31.6999C49.869 28.8144 50.56 26.4046 50.56 24.475H50.36ZM48.3178 31.6139C46.9536 34.4679 45.3028 36.9617 43.366 39.0958L43.5141 39.2302C45.4652 37.0803 47.1264 34.5701 48.4982 31.7001L48.3178 31.6139ZM43.3662 39.0955C41.4272 41.2141 39.6794 42.249 38.121 42.249V42.449C39.7666 42.449 41.5648 41.3599 43.5138 39.2305L43.3662 39.0955ZM38.121 42.249C37.4414 42.249 36.8814 42.0407 36.4338 41.6275L36.2982 41.7745C36.7866 42.2253 37.3966 42.449 38.121 42.449V42.249ZM36.4337 41.6274C36.0074 41.2352 35.791 40.7056 35.791 40.027H35.591C35.591 40.7524 35.8246 41.3388 36.2983 41.7746L36.4337 41.6274ZM35.791 40.027C35.791 39.6637 35.8777 39.216 36.0559 38.6816L35.8661 38.6184C35.6843 39.164 35.591 39.6343 35.591 40.027H35.791ZM35.8827 38.5877C33.9228 41.0512 32.176 42.249 30.642 42.249V42.449C32.276 42.449 34.0752 41.1808 36.0393 38.7123L35.8827 38.5877ZM52.6084 40.162L52.674 40.0865L52.6721 40.0849L52.6084 40.162ZM52.1764 37.651L52.0819 37.6181L52.0811 37.6207L52.1764 37.651ZM52.7974 36.166L52.8879 36.2084L52.8881 36.2081L52.7974 36.166ZM53.3374 34.897L53.4312 34.9316L53.4318 34.93L53.3374 34.897ZM52.1764 32.224L52.2225 32.1353L52.1246 32.0843L52.0836 32.1869L52.1764 32.224ZM50.9074 34.951L50.819 34.9042L50.8183 34.9056L50.9074 34.951ZM49.6384 37.273L49.5496 37.3189L49.6319 37.4782L49.7241 37.3244L49.6384 37.273ZM49.2334 36.49L49.1462 36.4411L49.1198 36.4881L49.1446 36.5359L49.2334 36.49ZM51.4204 31.603L51.5147 31.6363L51.5357 31.5769L51.4911 31.5323L51.4204 31.603ZM52.8514 29.254L52.7618 29.2988L52.765 29.3044L52.8514 29.254ZM52.9054 30.28L52.8111 30.2463L52.8098 30.2506L52.9054 30.28ZM52.7434 30.793L52.6485 30.7614L52.6411 30.7838L52.6444 30.8071L52.7434 30.793ZM52.9594 31.171L52.8885 31.2419L52.8943 31.2469L52.9594 31.171ZM53.6614 31.657L53.7163 31.5734L53.7148 31.5725L53.6614 31.657ZM55.1194 32.872L55.0436 32.9374L55.047 32.941L55.1194 32.872ZM55.4434 35.599L55.3493 35.5648L55.3481 35.5687L55.4434 35.599ZM54.8494 37.03L54.9388 37.0747L54.9394 37.0736L54.8494 37.03ZM56.6854 38.704L56.6299 38.6208L56.6288 38.6215L56.6854 38.704ZM58.4404 37.138L58.3645 37.0729L58.3643 37.0731L58.4404 37.138ZM59.6284 35.383L59.6884 35.303L59.5899 35.2291L59.5378 35.3407L59.6284 35.383ZM60.2764 35.869L60.3678 35.9096L60.4001 35.8368L60.3364 35.789L60.2764 35.869ZM56.5774 40L56.5274 39.9134L56.5265 39.9139L56.5774 40ZM54.2284 40.602C53.5811 40.602 53.0661 40.4275 52.674 40.0865L52.5428 40.2375C52.9787 40.6165 53.5437 40.802 54.2284 40.802V40.602ZM52.6721 40.0849C52.2837 39.7641 52.0874 39.3258 52.0874 38.758H51.8874C51.8874 39.3782 52.1051 39.8759 52.5447 40.2391L52.6721 40.0849ZM52.0874 38.758C52.0874 38.4282 52.1482 38.0695 52.2717 37.6813L52.0811 37.6207C51.9526 38.0245 51.8874 38.4038 51.8874 38.758H52.0874ZM52.2708 37.6839C52.4133 37.2742 52.6188 36.7826 52.8879 36.2084L52.7069 36.1236C52.436 36.7014 52.2275 37.1998 52.0819 37.6181L52.2708 37.6839ZM52.8881 36.2081C53.1227 35.7028 53.3039 35.2771 53.4312 34.9316L53.2436 34.8624C53.1189 35.2009 52.9401 35.6212 52.7067 36.1239L52.8881 36.2081ZM53.4318 34.93C53.5601 34.5634 53.6264 34.2368 53.6264 33.952H53.4264C53.4264 34.2072 53.3667 34.5106 53.243 34.864L53.4318 34.93ZM53.6264 33.952C53.6264 33.2142 53.1378 32.6112 52.2225 32.1353L52.1303 32.3127C53.015 32.7728 53.4264 33.3218 53.4264 33.952H53.6264ZM52.0836 32.1869C51.725 33.0833 51.3035 33.9891 50.819 34.9042L50.9958 34.9978C51.4833 34.0769 51.9078 33.1647 52.2692 32.2611L52.0836 32.1869ZM50.8183 34.9056C50.351 35.8223 49.9291 36.5941 49.5526 37.2216L49.7241 37.3244C50.1037 36.6919 50.5278 35.9157 50.9965 34.9964L50.8183 34.9056ZM49.7272 37.2271L49.3222 36.4441L49.1446 36.5359L49.5496 37.3189L49.7272 37.2271ZM49.3206 36.5389C50.1517 35.0574 50.883 33.4231 51.5147 31.6363L51.3261 31.5697C50.6978 33.3469 49.9711 34.9706 49.1462 36.4411L49.3206 36.5389ZM51.4911 31.5323C51.3336 31.3747 51.2504 31.1592 51.2504 30.874H51.0504C51.0504 31.2008 51.1472 31.4713 51.3497 31.6737L51.4911 31.5323ZM51.2504 30.874C51.2504 30.428 51.3872 30.0067 51.6645 29.6081L51.5003 29.4939C51.2016 29.9233 51.0504 30.384 51.0504 30.874H51.2504ZM51.6645 29.6081C51.9492 29.1988 52.2021 29.03 52.4194 29.03V28.83C52.0967 28.83 51.7916 29.0752 51.5003 29.4939L51.6645 29.6081ZM52.4194 29.03C52.5485 29.03 52.6641 29.1031 52.762 29.2987L52.9408 29.2093C52.8227 28.9729 52.6503 28.83 52.4194 28.83V29.03ZM52.765 29.3044C52.8878 29.5149 52.9404 29.6764 52.9404 29.794H53.1404C53.1404 29.6236 53.067 29.4251 52.9378 29.2036L52.765 29.3044ZM52.9404 29.794C52.9404 29.8151 52.9327 29.862 52.9103 29.9427C52.8887 30.0205 52.8558 30.1215 52.8112 30.2464L52.9996 30.3136C53.045 30.1865 53.0796 30.0805 53.103 29.9963C53.1256 29.915 53.1404 29.8449 53.1404 29.794H52.9404ZM52.8098 30.2506C52.7379 30.4845 52.6841 30.6546 52.6485 30.7614L52.8383 30.8246C52.8747 30.7154 52.9289 30.5435 53.001 30.3094L52.8098 30.2506ZM52.6444 30.8071C52.6665 30.9616 52.7534 31.1064 52.8887 31.2417L53.0301 31.1003C52.9134 30.9836 52.8563 30.8764 52.8424 30.7789L52.6444 30.8071ZM52.8943 31.2469C53.0264 31.3602 53.2661 31.5256 53.608 31.7415L53.7148 31.5725C53.3727 31.3564 53.1444 31.1978 53.0245 31.0951L52.8943 31.2469ZM53.6065 31.7406C54.2318 32.1515 54.7098 32.5507 55.0437 32.9374L55.1951 32.8066C54.845 32.4013 54.351 31.9905 53.7163 31.5734L53.6065 31.7406ZM55.047 32.941C55.3852 33.2961 55.5594 33.7822 55.5594 34.411H55.7594C55.7594 33.7438 55.5736 33.2039 55.1918 32.803L55.047 32.941ZM55.5594 34.411C55.5594 34.7946 55.4897 35.1791 55.3494 35.5648L55.5374 35.6332C55.6851 35.2269 55.7594 34.8194 55.7594 34.411H55.5594ZM55.3481 35.5687C55.2241 35.9585 55.0282 36.4309 54.7594 36.9864L54.9394 37.0736C55.2106 36.5131 55.4107 36.0315 55.5387 35.6293L55.3481 35.5687ZM54.76 36.9853C54.5609 37.3835 54.4104 37.7274 54.3095 38.0163C54.2091 38.3036 54.1554 38.5434 54.1554 38.731H54.3554C54.3554 38.5766 54.4007 38.3619 54.4983 38.0822C54.5954 37.8041 54.7419 37.4685 54.9388 37.0747L54.76 36.9853ZM54.1554 38.731C54.1554 38.9557 54.2168 39.1419 54.3564 39.2703C54.4945 39.3973 54.692 39.452 54.9304 39.452V39.252C54.7188 39.252 54.5788 39.2032 54.4919 39.1232C54.4065 39.0446 54.3554 38.9203 54.3554 38.731H54.1554ZM54.9304 39.452C55.4974 39.452 56.1019 39.2253 56.742 38.7865L56.6288 38.6215C56.0089 39.0467 55.4434 39.252 54.9304 39.252V39.452ZM56.7409 38.7872C57.3968 38.3499 57.9887 37.8217 58.5165 37.2029L58.3643 37.0731C57.8481 37.6783 57.27 38.1941 56.6299 38.6208L56.7409 38.7872ZM58.5163 37.2031C59.0601 36.5687 59.462 35.976 59.719 35.4253L59.5378 35.3407C59.2908 35.87 58.9007 36.4473 58.3645 37.0729L58.5163 37.2031ZM59.5684 35.463L60.2164 35.949L60.3364 35.789L59.6884 35.303L59.5684 35.463ZM60.185 35.8284C59.8295 36.6282 59.3313 37.3938 58.6893 38.125L58.8395 38.257C59.4935 37.5122 60.0033 36.7298 60.3678 35.9096L60.185 35.8284ZM58.6893 38.125C58.0481 38.8552 57.3275 39.4511 56.5274 39.9134L56.6274 40.0866C57.4473 39.6129 58.1847 39.0028 58.8395 38.257L58.6893 38.125ZM56.5265 39.9139C55.747 40.3745 54.9814 40.602 54.2284 40.602V40.802C55.0234 40.802 55.8238 40.5615 56.6283 40.0861L56.5265 39.9139ZM63.416 28.363L63.3578 28.4444L63.3605 28.4462L63.416 28.363ZM63.713 26.5L63.7692 26.5827L63.7699 26.5822L63.713 26.5ZM65.738 28.12L65.8017 28.1971L65.8036 28.1955L65.738 28.12ZM59.447 40.135L59.3734 40.2027L59.3734 40.2027L59.447 40.135ZM59.42 35.491L59.3251 35.4594L59.3248 35.4602L59.42 35.491ZM60.959 32.224L60.876 32.1682L60.8753 32.1693L60.959 32.224ZM63.416 31.036L63.3447 31.1073L63.3546 31.1149L63.416 31.036ZM63.443 32.278L63.5313 32.3251L63.5324 32.3227L63.443 32.278ZM62.741 33.466L62.656 33.4133L62.6554 33.4143L62.741 33.466ZM61.364 36.004L61.2733 35.962L61.2728 35.963L61.364 36.004ZM66.332 35.356L66.4049 35.2876L66.3076 35.1837L66.2429 35.3106L66.332 35.356ZM66.737 35.788L66.8299 35.825L66.8534 35.7659L66.8099 35.7196L66.737 35.788ZM64.334 39.487L64.4012 39.5611L64.4012 39.5611L64.334 39.487ZM64.388 28.533C64.0264 28.533 63.7225 28.4471 63.4715 28.2798L63.3605 28.4462C63.6495 28.6389 63.9936 28.733 64.388 28.733V28.533ZM63.4741 28.2816C63.2514 28.1226 63.138 27.8936 63.138 27.58H62.938C62.938 27.9504 63.0766 28.2434 63.3579 28.4444L63.4741 28.2816ZM63.138 27.58C63.138 27.2092 63.337 26.8766 63.7692 26.5827L63.6568 26.4173C63.1889 26.7354 62.938 27.1228 62.938 27.58H63.138ZM63.7699 26.5822C64.2228 26.2687 64.6982 26.114 65.198 26.114V25.914C64.6538 25.914 64.1392 26.0833 63.6561 26.4178L63.7699 26.5822ZM65.198 26.114C65.573 26.114 65.8355 26.195 66.0035 26.3396C66.1687 26.4816 66.259 26.6997 66.259 27.013H66.459C66.459 26.6603 66.3558 26.3789 66.134 26.1879C65.915 25.9995 65.597 25.914 65.198 25.914V26.114ZM66.259 27.013C66.259 27.3509 66.0746 27.6948 65.6724 28.0445L65.8036 28.1955C66.2294 27.8252 66.459 27.4311 66.459 27.013H66.259ZM65.6743 28.0429C65.2762 28.3718 64.8483 28.533 64.388 28.533V28.733C64.8997 28.733 65.3718 28.5522 65.8017 28.1971L65.6743 28.0429ZM61.202 40.71C60.4669 40.71 59.9113 40.492 59.5206 40.0673L59.3734 40.2027C59.8107 40.678 60.4251 40.91 61.202 40.91V40.71ZM59.5206 40.0673C59.1261 39.6385 58.926 39.0879 58.926 38.407H58.726C58.726 39.1301 58.9399 39.7315 59.3734 40.2027L59.5206 40.0673ZM58.926 38.407C58.926 37.7026 59.1202 36.7424 59.5151 35.5218L59.3248 35.4602C58.9277 36.6876 58.726 37.6714 58.726 38.407H58.926ZM59.5149 35.5226C59.9266 34.2874 60.4361 33.2064 61.0427 32.2787L60.8753 32.1693C60.2579 33.1136 59.7414 34.2106 59.3251 35.4594L59.5149 35.5226ZM61.042 32.2798C61.6677 31.3501 62.2716 30.92 62.849 30.92V30.72C62.1664 30.72 61.5103 31.2259 60.876 32.1682L61.042 32.2798ZM62.849 30.92C63.0608 30.92 63.2229 30.9843 63.3453 31.1067L63.4867 30.9653C63.3211 30.7997 63.1052 30.72 62.849 30.72V30.92ZM63.3546 31.1149C63.4867 31.2177 63.559 31.3741 63.559 31.603H63.759C63.759 31.3279 63.6693 31.1063 63.4774 30.9571L63.3546 31.1149ZM63.559 31.603C63.559 31.7406 63.4962 31.9481 63.3535 32.2333L63.5324 32.3227C63.6778 32.0319 63.759 31.7894 63.759 31.603H63.559ZM63.3548 32.2309C63.2124 32.4979 62.9798 32.8917 62.656 33.4133L62.826 33.5187C63.1502 32.9963 63.3856 32.5981 63.5312 32.3251L63.3548 32.2309ZM62.6554 33.4143C62.0781 34.3704 61.6172 35.2197 61.2733 35.962L61.4547 36.046C61.7948 35.3123 62.2518 34.4696 62.8266 33.5177L62.6554 33.4143ZM61.2728 35.963C60.9442 36.6931 60.778 37.3911 60.778 38.056H60.978C60.978 37.4249 61.1357 36.7549 61.4552 36.045L61.2728 35.963ZM60.778 38.056C60.778 38.6176 60.8759 39.0324 61.1043 39.2607L61.2457 39.1193C61.0781 38.9516 60.978 38.6104 60.978 38.056H60.778ZM61.1043 39.2607C61.3284 39.4848 61.6651 39.587 62.093 39.587V39.387C61.6929 39.387 61.4176 39.2912 61.2457 39.1193L61.1043 39.2607ZM62.093 39.587C62.8388 39.587 63.5712 39.2254 64.289 38.5259C65.0065 37.8267 65.7166 36.7833 66.4211 35.4014L66.2429 35.3106C65.5434 36.6827 64.845 37.7048 64.1494 38.3826C63.4543 39.0601 62.7692 39.387 62.093 39.387V39.587ZM66.259 35.4244L66.664 35.8564L66.8099 35.7196L66.4049 35.2876L66.259 35.4244ZM66.6441 35.751C66.0181 37.325 65.2247 38.5438 64.2668 39.4129L64.4012 39.5611C65.3873 38.6662 66.1959 37.419 66.8299 35.825L66.6441 35.751ZM64.2668 39.4129C63.3098 40.2814 62.2889 40.71 61.202 40.71V40.91C62.3471 40.91 63.4142 40.4566 64.4012 39.5611L64.2668 39.4129ZM66.1468 40.513L66.2188 40.4436L66.2175 40.4423L66.1468 40.513ZM65.8498 35.734L65.9468 35.7583L65.9469 35.7579L65.8498 35.734ZM66.9298 32.251L67.0236 32.2855L67.0643 32.175L66.9487 32.1528L66.9298 32.251ZM65.9848 32.008H65.8848V32.073L65.9442 32.0994L65.9848 32.008ZM65.9848 31.171L65.9972 31.0718L65.8848 31.0577V31.171H65.9848ZM67.2808 31.306L67.2725 31.4057L67.3463 31.4118L67.3737 31.343L67.2808 31.306ZM69.8728 26.068L69.7886 26.014L69.7882 26.0147L69.8728 26.068ZM72.6538 24.097L72.583 24.1678L72.5874 24.1717L72.6538 24.097ZM72.5188 25.825L72.6076 25.871L72.6076 25.871L72.5188 25.825ZM71.2768 28.039L71.3627 28.0901L71.3632 28.0893L71.2768 28.039ZM69.4138 31.387L69.3243 31.3423L69.252 31.487H69.4138V31.387ZM74.3548 31.198H74.4548V31.0872L74.3445 31.0985L74.3548 31.198ZM74.3548 32.089L74.3649 32.1885L74.4548 32.1793V32.089H74.3548ZM68.9278 32.413V32.313H68.8615L68.8357 32.3741L68.9278 32.413ZM67.8748 39.406L67.9542 39.3453L67.9542 39.3453L67.8748 39.406ZM71.7358 38.65L71.8012 38.7256L71.8013 38.7255L71.7358 38.65ZM74.2198 35.302L74.2779 35.2206L74.1827 35.1526L74.1303 35.2573L74.2198 35.302ZM74.5978 35.572L74.6893 35.6123L74.7221 35.5379L74.6559 35.4906L74.5978 35.572ZM71.7358 39.676L71.8024 39.7506L71.803 39.75L71.7358 39.676ZM68.0908 41.142C67.2834 41.142 66.6638 40.9058 66.2188 40.4436L66.0748 40.5824C66.5657 41.0922 67.2422 41.342 68.0908 41.342V41.142ZM66.2175 40.4423C65.7749 39.9997 65.5448 39.3276 65.5448 38.407H65.3448C65.3448 39.3584 65.5827 40.0903 66.0761 40.5837L66.2175 40.4423ZM65.5448 38.407C65.5448 37.7165 65.6778 36.8344 65.9468 35.7583L65.7528 35.7097C65.4818 36.7936 65.3448 37.6935 65.3448 38.407H65.5448ZM65.9469 35.7579C66.2159 34.664 66.5747 33.5065 67.0236 32.2855L66.8359 32.2165C66.3848 33.4435 66.0237 34.608 65.7527 35.7101L65.9469 35.7579ZM66.9487 32.1528C66.4797 32.0626 66.1755 31.9833 66.0254 31.9166L65.9442 32.0994C66.1181 32.1767 66.4439 32.2594 66.9109 32.3492L66.9487 32.1528ZM66.0848 32.008V31.171H65.8848V32.008H66.0848ZM65.9724 31.2702C66.4057 31.3244 66.8391 31.3695 67.2725 31.4057L67.2891 31.2063C66.8585 31.1705 66.4278 31.1256 65.9972 31.0718L65.9724 31.2702ZM67.3737 31.343C68.182 29.3132 69.0434 27.573 69.9574 26.1213L69.7882 26.0147C68.8662 27.479 67.9996 29.2308 67.1879 31.269L67.3737 31.343ZM69.9569 26.122C70.4231 25.3959 70.8412 24.8565 71.2112 24.4997C71.5844 24.1398 71.893 23.981 72.1408 23.981V23.781C71.8125 23.781 71.4552 23.9867 71.0724 24.3558C70.6864 24.728 70.2585 25.2821 69.7886 26.014L69.9569 26.122ZM72.1408 23.981C72.3114 23.981 72.4572 24.0419 72.5831 24.1677L72.7245 24.0263C72.5623 23.8641 72.3661 23.781 72.1408 23.781V23.981ZM72.5874 24.1717C72.7262 24.2951 72.7968 24.456 72.7968 24.664H72.9968C72.9968 24.404 72.9054 24.1869 72.7202 24.0223L72.5874 24.1717ZM72.7968 24.664C72.7968 24.9272 72.6801 25.2966 72.43 25.779L72.6076 25.871C72.8614 25.3814 72.9968 24.9768 72.9968 24.664H72.7968ZM72.43 25.779C72.1792 26.2627 71.7662 26.9989 71.1904 27.9887L71.3632 28.0893C71.9394 27.0991 72.3544 26.3593 72.6076 25.871L72.43 25.779ZM71.1908 27.9879C70.3982 29.321 69.7758 30.4393 69.3243 31.3423L69.5032 31.4317C69.9517 30.5347 70.5714 29.421 71.3627 28.0901L71.1908 27.9879ZM69.4138 31.487C71.4852 31.487 73.1361 31.424 74.365 31.2975L74.3445 31.0985C73.1255 31.224 71.4823 31.287 69.4138 31.287V31.487ZM74.2548 31.198V32.089H74.4548V31.198H74.2548ZM74.3447 31.9895C72.2227 32.2053 70.4173 32.313 68.9278 32.313V32.513C70.4263 32.513 72.2388 32.4047 74.3649 32.1885L74.3447 31.9895ZM68.8357 32.3741C67.8977 34.5928 67.4238 36.4163 67.4238 37.84H67.6238C67.6238 36.4557 68.0859 34.6612 69.0199 32.4519L68.8357 32.3741ZM67.4238 37.84C67.4238 38.5827 67.5404 39.1333 67.7954 39.4667L67.9542 39.3453C67.7412 39.0667 67.6238 38.5733 67.6238 37.84H67.4238ZM67.7954 39.4667C68.0538 39.8047 68.4571 39.965 68.9818 39.965V39.765C68.4985 39.765 68.1638 39.6193 67.9542 39.3453L67.7954 39.4667ZM68.9818 39.965C69.9135 39.965 70.8539 39.5454 71.8012 38.7256L71.6704 38.5744C70.7457 39.3746 69.8501 39.765 68.9818 39.765V39.965ZM71.8013 38.7255C72.7673 37.8871 73.6027 36.7597 74.3092 35.3467L74.1303 35.2573C73.4328 36.6523 72.6122 37.7569 71.6702 38.5745L71.8013 38.7255ZM74.1617 35.3834L74.5397 35.6534L74.6559 35.4906L74.2779 35.2206L74.1617 35.3834ZM74.5063 35.5317C73.7731 37.1949 72.8267 38.5507 71.6686 39.602L71.803 39.75C72.9849 38.6773 73.9465 37.2971 74.6893 35.6123L74.5063 35.5317ZM71.6692 39.6014C70.5129 40.6332 69.3206 41.142 68.0908 41.142V41.342C69.3809 41.342 70.6187 40.8068 71.8024 39.7506L71.6692 39.6014ZM73.8981 40.27L73.9678 40.1983L73.9678 40.1983L73.8981 40.27ZM74.0061 34.546L74.0925 34.5963L74.0929 34.5958L74.0061 34.546ZM76.7061 31.495L76.7655 31.5755L76.7663 31.5748L76.7061 31.495ZM81.3501 30.685L81.2895 30.7646L81.292 30.7664L81.3501 30.685ZM80.9181 34.519L80.9932 34.5851L80.9939 34.5842L80.9181 34.519ZM78.3261 36.382L78.2845 36.2911L78.2839 36.2913L78.3261 36.382ZM75.1131 37.3L75.1017 37.2007L75.0293 37.209L75.0151 37.2804L75.1131 37.3ZM75.4371 39.325L75.349 39.3724L75.3505 39.375L75.4371 39.325ZM80.4861 38.704L80.5475 38.7829L80.5477 38.7828L80.4861 38.704ZM83.2671 35.356L83.3296 35.2779L83.2351 35.2023L83.1786 35.3094L83.2671 35.356ZM83.8071 35.788L83.8985 35.8286L83.9298 35.7581L83.8696 35.7099L83.8071 35.788ZM80.7021 39.703L80.643 39.6224L80.6425 39.6227L80.7021 39.703ZM75.4101 36.301L75.3152 36.2694L75.2658 36.4176L75.4212 36.4004L75.4101 36.301ZM77.5701 35.518L77.5215 35.4306L77.5207 35.4311L77.5701 35.518ZM79.6221 33.871L79.6979 33.9363L79.6988 33.9352L79.6221 33.871ZM80.3511 31.522L80.2804 31.5927L80.2804 31.5927L80.3511 31.522ZM78.2721 32.17L78.3343 32.2483L78.3346 32.2481L78.2721 32.17ZM76.5711 34.033L76.4888 33.9762L76.4888 33.9762L76.5711 34.033ZM76.5441 41.088C75.4283 41.088 74.5741 40.7873 73.9678 40.1983L73.8284 40.3417C74.4821 40.9767 75.392 41.288 76.5441 41.288V41.088ZM73.9678 40.1983C73.3589 39.6068 73.0531 38.8506 73.0531 37.921H72.8531C72.8531 38.8994 73.1773 39.7092 73.8284 40.3417L73.9678 40.1983ZM73.0531 37.921C73.0531 36.8997 73.3965 35.792 74.0925 34.5963L73.9197 34.4957C73.2117 35.712 72.8531 36.8543 72.8531 37.921H73.0531ZM74.0929 34.5958C74.7882 33.3834 75.679 32.377 76.7655 31.5755L76.6467 31.4145C75.5372 32.233 74.628 33.2606 73.9194 34.4962L74.0929 34.5958ZM76.7663 31.5748C77.8521 30.7561 78.9115 30.353 79.9461 30.353V30.153C78.8567 30.153 77.7561 30.5779 76.6459 31.4152L76.7663 31.5748ZM79.9461 30.353C80.4862 30.353 80.9318 30.492 81.2895 30.7645L81.4107 30.6055C81.0124 30.302 80.522 30.153 79.9461 30.153V30.353ZM81.292 30.7664C81.6342 31.0108 81.8171 31.4326 81.8171 32.062H82.0171C82.0171 31.3954 81.822 30.8992 81.4082 30.6036L81.292 30.7664ZM81.8171 32.062C81.8171 32.8979 81.4957 33.6944 80.8423 34.4538L80.9939 34.5842C81.6725 33.7955 82.0171 32.9541 82.0171 32.062H81.8171ZM80.8431 34.4529C80.1877 35.1968 79.3358 35.81 78.2845 36.2911L78.3677 36.4729C79.4405 35.982 80.3165 35.3532 80.9931 34.5851L80.8431 34.4529ZM78.2839 36.2913C77.2492 36.773 76.1886 37.0759 75.1017 37.2007L75.1245 37.3993C76.2336 37.2721 77.315 36.963 78.3683 36.4727L78.2839 36.2913ZM75.0151 37.2804C74.9775 37.4683 74.9591 37.6821 74.9591 37.921H75.1591C75.1591 37.6919 75.1768 37.4917 75.2112 37.3196L75.0151 37.2804ZM74.9591 37.921C74.9591 38.4077 75.0903 38.8918 75.3491 39.3724L75.5252 39.2776C75.2799 38.8222 75.1591 38.3703 75.1591 37.921H74.9591ZM75.3505 39.375C75.6473 39.8895 76.261 40.127 77.1381 40.127V39.927C76.2872 39.927 75.7669 39.6965 75.5237 39.275L75.3505 39.375ZM77.1381 40.127C78.2644 40.127 79.4014 39.6744 80.5475 38.7829L80.4247 38.6251C79.3028 39.4976 78.2078 39.927 77.1381 39.927V40.127ZM80.5477 38.7828C81.7112 37.8738 82.6472 36.7467 83.3556 35.4026L83.1786 35.3094C82.483 36.6293 81.5651 37.7342 80.4245 38.6252L80.5477 38.7828ZM83.2046 35.4341L83.7446 35.8661L83.8696 35.7099L83.3296 35.2779L83.2046 35.4341ZM83.7157 35.7474C83.0024 37.3524 81.9781 38.6433 80.643 39.6224L80.7612 39.7836C82.1261 38.7827 83.1718 37.4636 83.8985 35.8286L83.7157 35.7474ZM80.6425 39.6227C79.325 40.602 77.9594 41.088 76.5441 41.088V41.288C78.0088 41.288 79.4153 40.784 80.7618 39.7833L80.6425 39.6227ZM75.4212 36.4004C76.0869 36.3264 76.8201 36.0592 77.6195 35.6049L77.5207 35.4311C76.7361 35.8768 76.0293 36.1316 75.3991 36.2016L75.4212 36.4004ZM77.6187 35.6054C78.4381 35.1502 79.1316 34.5939 79.6979 33.9363L79.5463 33.8057C78.9966 34.4441 78.3221 34.9858 77.5215 35.4306L77.6187 35.6054ZM79.6988 33.9352C80.2662 33.258 80.5591 32.588 80.5591 31.927H80.3591C80.3591 32.526 80.0941 33.152 79.5455 33.8068L79.6988 33.9352ZM80.5591 31.927C80.5591 31.7245 80.5239 31.5533 80.4218 31.4513L80.2804 31.5927C80.3224 31.6347 80.3591 31.7335 80.3591 31.927H80.5591ZM80.4218 31.4513C80.3226 31.352 80.1735 31.314 80.0001 31.314V31.514C80.1507 31.514 80.2357 31.548 80.2804 31.5927L80.4218 31.4513ZM80.0001 31.314C79.4459 31.314 78.8482 31.5811 78.2096 32.0919L78.3346 32.2481C78.956 31.7509 79.5103 31.514 80.0001 31.514V31.314ZM78.2099 32.0917C77.589 32.5848 77.0155 33.2134 76.4888 33.9762L76.6534 34.0898C77.1708 33.3405 77.7312 32.7272 78.3343 32.2483L78.2099 32.0917ZM76.4888 33.9762C75.9623 34.7388 75.5706 35.5032 75.3152 36.2694L75.505 36.3326C75.7536 35.5868 76.136 34.8392 76.6534 34.0898L76.4888 33.9762ZM83.6673 39.973L83.5935 40.0406L83.5965 40.0437L83.6673 39.973ZM83.9373 38.299L83.8739 38.2216L83.8722 38.2231L83.9373 38.299ZM85.6923 38.029L85.6297 38.1072L85.6349 38.1109L85.6923 38.029ZM85.7733 39.298L85.6826 39.2557L85.6813 39.2586L85.7733 39.298ZM85.2873 39.973L85.2196 39.8992L85.2165 39.9023L85.2873 39.973ZM84.5583 40.17C84.1777 40.17 83.9106 40.0749 83.738 39.9023L83.5965 40.0437C83.8199 40.2671 84.1468 40.37 84.5583 40.37V40.17ZM83.741 39.9054C83.5583 39.7062 83.4703 39.4868 83.4703 39.244H83.2703C83.2703 39.5412 83.3802 39.8078 83.5935 40.0406L83.741 39.9054ZM83.4703 39.244C83.4703 38.9813 83.6329 38.6916 84.0023 38.3749L83.8722 38.2231C83.4856 38.5544 83.2703 38.8947 83.2703 39.244H83.4703ZM84.0006 38.3764C84.3861 38.061 84.7424 37.913 85.0713 37.913V37.713C84.6802 37.713 84.2804 37.889 83.8739 38.2216L84.0006 38.3764ZM85.0713 37.913C85.2829 37.913 85.4678 37.9775 85.6298 38.1071L85.7547 37.9509C85.5567 37.7925 85.3276 37.713 85.0713 37.713V37.913ZM85.6349 38.1109C85.7802 38.2126 85.8623 38.3834 85.8623 38.65H86.0623C86.0623 38.3406 85.9644 38.0974 85.7496 37.9471L85.6349 38.1109ZM85.8623 38.65C85.8623 38.7898 85.8068 38.9897 85.6826 39.2557L85.8639 39.3403C85.9917 39.0663 86.0623 38.8342 86.0623 38.65H85.8623ZM85.6813 39.2586C85.5793 39.4967 85.426 39.7102 85.2197 39.8993L85.3548 40.0467C85.5806 39.8398 85.7512 39.6033 85.8652 39.3374L85.6813 39.2586ZM85.2165 39.9023C85.0379 40.0809 84.8206 40.17 84.5583 40.17V40.37C84.8719 40.37 85.1406 40.2611 85.358 40.0437L85.2165 39.9023ZM93.5273 28.363L93.4692 28.4444L93.4719 28.4462L93.5273 28.363ZM93.8243 26.5L93.8806 26.5827L93.8812 26.5822L93.8243 26.5ZM95.8493 28.12L95.913 28.1971L95.9149 28.1955L95.8493 28.12ZM89.5583 40.135L89.4847 40.2027L89.4847 40.2027L89.5583 40.135ZM89.5313 35.491L89.4364 35.4594L89.4362 35.4602L89.5313 35.491ZM91.0703 32.224L90.9874 32.1682L90.9866 32.1693L91.0703 32.224ZM93.5273 31.036L93.4561 31.1073L93.4659 31.1149L93.5273 31.036ZM93.5543 32.278L93.6426 32.3251L93.6438 32.3227L93.5543 32.278ZM92.8523 33.466L92.7674 33.4133L92.7667 33.4143L92.8523 33.466ZM91.4753 36.004L91.3846 35.962L91.3841 35.963L91.4753 36.004ZM96.4433 35.356L96.5163 35.2876L96.4189 35.1837L96.3542 35.3106L96.4433 35.356ZM96.8483 35.788L96.9412 35.825L96.9647 35.7659L96.9213 35.7196L96.8483 35.788ZM94.4453 39.487L94.5125 39.5611L94.5125 39.5611L94.4453 39.487ZM94.4993 28.533C94.1377 28.533 93.8338 28.4471 93.5828 28.2798L93.4719 28.4462C93.7608 28.6389 94.1049 28.733 94.4993 28.733V28.533ZM93.5854 28.2816C93.3628 28.1226 93.2493 27.8936 93.2493 27.58H93.0493C93.0493 27.9504 93.1879 28.2434 93.4692 28.4444L93.5854 28.2816ZM93.2493 27.58C93.2493 27.2092 93.4484 26.8766 93.8806 26.5827L93.7681 26.4173C93.3003 26.7354 93.0493 27.1228 93.0493 27.58H93.2493ZM93.8812 26.5822C94.3341 26.2687 94.8095 26.114 95.3093 26.114V25.914C94.7651 25.914 94.2505 26.0833 93.7674 26.4178L93.8812 26.5822ZM95.3093 26.114C95.6843 26.114 95.9468 26.195 96.1148 26.3396C96.28 26.4816 96.3703 26.6997 96.3703 27.013H96.5703C96.5703 26.6603 96.4672 26.3789 96.2453 26.1879C96.0263 25.9995 95.7084 25.914 95.3093 25.914V26.114ZM96.3703 27.013C96.3703 27.3509 96.186 27.6948 95.7837 28.0445L95.9149 28.1955C96.3407 27.8252 96.5703 27.4311 96.5703 27.013H96.3703ZM95.7856 28.0429C95.3875 28.3718 94.9596 28.533 94.4993 28.533V28.733C95.011 28.733 95.4831 28.5522 95.913 28.1971L95.7856 28.0429ZM91.3133 40.71C90.5782 40.71 90.0227 40.492 89.6319 40.0673L89.4847 40.2027C89.922 40.678 90.5365 40.91 91.3133 40.91V40.71ZM89.6319 40.0673C89.2374 39.6385 89.0373 39.0879 89.0373 38.407H88.8373C88.8373 39.1301 89.0512 39.7315 89.4847 40.2027L89.6319 40.0673ZM89.0373 38.407C89.0373 37.7026 89.2316 36.7424 89.6265 35.5218L89.4362 35.4602C89.0391 36.6876 88.8373 37.6714 88.8373 38.407H89.0373ZM89.6262 35.5226C90.0379 34.2874 90.5474 33.2064 91.154 32.2787L90.9866 32.1693C90.3692 33.1136 89.8527 34.2106 89.4365 35.4594L89.6262 35.5226ZM91.1533 32.2798C91.7791 31.3501 92.383 30.92 92.9603 30.92V30.72C92.2777 30.72 91.6216 31.2259 90.9874 32.1682L91.1533 32.2798ZM92.9603 30.92C93.1721 30.92 93.3342 30.9843 93.4566 31.1067L93.598 30.9653C93.4324 30.7997 93.2166 30.72 92.9603 30.72V30.92ZM93.4659 31.1149C93.598 31.2177 93.6703 31.3741 93.6703 31.603H93.8703C93.8703 31.3279 93.7806 31.1063 93.5887 30.9571L93.4659 31.1149ZM93.6703 31.603C93.6703 31.7406 93.6075 31.9481 93.4649 32.2333L93.6438 32.3227C93.7892 32.0319 93.8703 31.7894 93.8703 31.603H93.6703ZM93.4661 32.2309C93.3237 32.4979 93.0911 32.8917 92.7674 33.4133L92.9373 33.5187C93.2615 32.9963 93.497 32.5981 93.6426 32.3251L93.4661 32.2309ZM92.7667 33.4143C92.1895 34.3704 91.7286 35.2197 91.3846 35.962L91.5661 36.046C91.9061 35.3123 92.3632 34.4696 92.9379 33.5177L92.7667 33.4143ZM91.3841 35.963C91.0556 36.6931 90.8893 37.3911 90.8893 38.056H91.0893C91.0893 37.4249 91.2471 36.7549 91.5665 36.045L91.3841 35.963ZM90.8893 38.056C90.8893 38.6176 90.9873 39.0324 91.2156 39.2607L91.357 39.1193C91.1894 38.9516 91.0893 38.6104 91.0893 38.056H90.8893ZM91.2156 39.2607C91.4397 39.4848 91.7764 39.587 92.2043 39.587V39.387C91.8042 39.387 91.5289 39.2912 91.357 39.1193L91.2156 39.2607ZM92.2043 39.587C92.9501 39.587 93.6825 39.2254 94.4004 38.5259C95.1178 37.8267 95.8279 36.7833 96.5324 35.4014L96.3542 35.3106C95.6547 36.6827 94.9563 37.7048 94.2608 38.3826C93.5656 39.0601 92.8805 39.387 92.2043 39.387V39.587ZM96.3704 35.4244L96.7754 35.8564L96.9213 35.7196L96.5163 35.2876L96.3704 35.4244ZM96.7554 35.751C96.1294 37.325 95.336 38.5438 94.3781 39.4129L94.5125 39.5611C95.4987 38.6662 96.3072 37.419 96.9412 35.825L96.7554 35.751ZM94.3781 39.4129C93.4211 40.2814 92.4002 40.71 91.3133 40.71V40.91C92.4584 40.91 93.5256 40.4566 94.5125 39.5611L94.3781 39.4129ZM96.2581 40.513L96.3302 40.4436L96.3288 40.4423L96.2581 40.513ZM95.9611 35.734L96.0581 35.7583L96.0582 35.7579L95.9611 35.734ZM97.0411 32.251L97.135 32.2855L97.1756 32.175L97.06 32.1528L97.0411 32.251ZM96.0961 32.008H95.9961V32.073L96.0555 32.0994L96.0961 32.008ZM96.0961 31.171L96.1085 31.0718L95.9961 31.0577V31.171H96.0961ZM97.3921 31.306L97.3838 31.4057L97.4576 31.4118L97.485 31.343L97.3921 31.306ZM99.9841 26.068L99.9 26.014L99.8995 26.0147L99.9841 26.068ZM102.765 24.097L102.694 24.1678L102.699 24.1717L102.765 24.097ZM102.63 25.825L102.719 25.871L102.719 25.871L102.63 25.825ZM101.388 28.039L101.474 28.0901L101.475 28.0893L101.388 28.039ZM99.5251 31.387L99.4357 31.3423L99.3633 31.487H99.5251V31.387ZM104.466 31.198H104.566V31.0872L104.456 31.0985L104.466 31.198ZM104.466 32.089L104.476 32.1885L104.566 32.1793V32.089H104.466ZM99.0391 32.413V32.313H98.9728L98.947 32.3741L99.0391 32.413ZM97.9861 39.406L98.0656 39.3453L98.0656 39.3453L97.9861 39.406ZM101.847 38.65L101.913 38.7256L101.913 38.7255L101.847 38.65ZM104.331 35.302L104.389 35.2206L104.294 35.1526L104.242 35.2573L104.331 35.302ZM104.709 35.572L104.801 35.6123L104.833 35.5379L104.767 35.4906L104.709 35.572ZM101.847 39.676L101.914 39.7506L101.914 39.75L101.847 39.676ZM98.2021 41.142C97.3947 41.142 96.7752 40.9058 96.3301 40.4436L96.1861 40.5824C96.6771 41.0922 97.3535 41.342 98.2021 41.342V41.142ZM96.3288 40.4423C95.8862 39.9997 95.6561 39.3276 95.6561 38.407H95.4561C95.4561 39.3584 95.694 40.0903 96.1874 40.5837L96.3288 40.4423ZM95.6561 38.407C95.6561 37.7165 95.7891 36.8344 96.0581 35.7583L95.8641 35.7097C95.5931 36.7936 95.4561 37.6935 95.4561 38.407H95.6561ZM96.0582 35.7579C96.3272 34.664 96.6861 33.5065 97.135 32.2855L96.9473 32.2165C96.4962 33.4435 96.135 34.608 95.864 35.7101L96.0582 35.7579ZM97.06 32.1528C96.591 32.0626 96.2868 31.9833 96.1367 31.9166L96.0555 32.0994C96.2294 32.1767 96.5552 32.2594 97.0222 32.3492L97.06 32.1528ZM96.1961 32.008V31.171H95.9961V32.008H96.1961ZM96.0837 31.2702C96.5171 31.3244 96.9504 31.3695 97.3838 31.4057L97.4004 31.2063C96.9698 31.1705 96.5392 31.1256 96.1085 31.0718L96.0837 31.2702ZM97.485 31.343C98.2933 29.3132 99.1547 27.573 100.069 26.1213L99.8995 26.0147C98.9775 27.479 98.1109 29.2308 97.2992 31.269L97.485 31.343ZM100.068 26.122C100.534 25.3959 100.953 24.8565 101.323 24.4997C101.696 24.1398 102.004 23.981 102.252 23.981V23.781C101.924 23.781 101.566 23.9867 101.184 24.3558C100.798 24.728 100.37 25.2821 99.9 26.014L100.068 26.122ZM102.252 23.981C102.423 23.981 102.569 24.0419 102.694 24.1677L102.836 24.0263C102.674 23.8641 102.477 23.781 102.252 23.781V23.981ZM102.699 24.1717C102.837 24.2951 102.908 24.456 102.908 24.664H103.108C103.108 24.404 103.017 24.1869 102.832 24.0223L102.699 24.1717ZM102.908 24.664C102.908 24.9272 102.791 25.2966 102.541 25.779L102.719 25.871C102.973 25.3814 103.108 24.9768 103.108 24.664H102.908ZM102.541 25.779C102.291 26.2627 101.878 26.9989 101.302 27.9887L101.475 28.0893C102.051 27.0991 102.466 26.3593 102.719 25.871L102.541 25.779ZM101.302 27.9879C100.51 29.321 99.8872 30.4393 99.4357 31.3423L99.6146 31.4317C100.063 30.5347 100.683 29.421 101.474 28.0901L101.302 27.9879ZM99.5251 31.487C101.597 31.487 103.247 31.424 104.476 31.2975L104.456 31.0985C103.237 31.224 101.594 31.287 99.5251 31.287V31.487ZM104.366 31.198V32.089H104.566V31.198H104.366ZM104.456 31.9895C102.334 32.2053 100.529 32.313 99.0391 32.313V32.513C100.538 32.513 102.35 32.4047 104.476 32.1885L104.456 31.9895ZM98.947 32.3741C98.009 34.5928 97.5351 36.4163 97.5351 37.84H97.7351C97.7351 36.4557 98.1972 34.6612 99.1312 32.4519L98.947 32.3741ZM97.5351 37.84C97.5351 38.5827 97.6517 39.1333 97.9067 39.4667L98.0656 39.3453C97.8525 39.0667 97.7351 38.5733 97.7351 37.84H97.5351ZM97.9067 39.4667C98.1652 39.8047 98.5684 39.965 99.0931 39.965V39.765C98.6098 39.765 98.2751 39.6193 98.0656 39.3453L97.9067 39.4667ZM99.0931 39.965C100.025 39.965 100.965 39.5454 101.913 38.7256L101.782 38.5744C100.857 39.3746 99.9614 39.765 99.0931 39.765V39.965ZM101.913 38.7255C102.879 37.8871 103.714 36.7597 104.421 35.3467L104.242 35.2573C103.544 36.6523 102.724 37.7569 101.782 38.5745L101.913 38.7255ZM104.273 35.3834L104.651 35.6534L104.767 35.4906L104.389 35.2206L104.273 35.3834ZM104.618 35.5317C103.884 37.1949 102.938 38.5507 101.78 39.602L101.914 39.75C103.096 38.6773 104.058 37.2971 104.801 35.6123L104.618 35.5317ZM101.781 39.6014C100.624 40.6332 99.432 41.142 98.2021 41.142V41.342C99.4923 41.342 100.73 40.8068 101.914 39.7506L101.781 39.6014Z" fill="black"/>
</g>
<defs>
<filter id="filter0_d" x="0" y="0" width="128" height="68" filterUnits="userSpaceOnUse" color-interpolation-filters="sRGB">
<feFlood flood-opacity="0" result="BackgroundImageFix"/>
<feColorMatrix in="SourceAlpha" type="matrix" values="0 0 0 0 0 0 0 0 0 0 0 0 0 0 0 0 0 0 127 0"/>
<feOffset dy="4"/>
<feGaussianBlur stdDeviation="2"/>
<feColorMatrix type="matrix" values="0 0 0 0 0 0 0 0 0 0 0 0 0 0 0 0 0 0 0.25 0"/>
<feBlend mode="normal" in2="BackgroundImageFix" result="effect1_dropShadow"/>
<feBlend mode="normal" in="SourceGraphic" in2="effect1_dropShadow" result="shape"/>
</filter>
<filter id="filter1_d" x="18.818" y="18.46" width="92.0154" height="33.989" filterUnits="userSpaceOnUse" color-interpolation-filters="sRGB">
<feFlood flood-opacity="0" result="BackgroundImageFix"/>
<feColorMatrix in="SourceAlpha" type="matrix" values="0 0 0 0 0 0 0 0 0 0 0 0 0 0 0 0 0 0 127 0"/>
<feOffset dy="4"/>
<feGaussianBlur stdDeviation="3"/>
<feColorMatrix type="matrix" values="0 0 0 0 0 0 0 0 0 0 0 0 0 0 0 0 0 0 0.5 0"/>
<feBlend mode="normal" in2="BackgroundImageFix" result="effect1_dropShadow"/>
<feBlend mode="normal" in="SourceGraphic" in2="effect1_dropShadow" result="shape"/>
</filter>
</defs>
</svg>
