<?xml version="1.0" standalone="no"?>
<!DOCTYPE svg PUBLIC "-//W3C//DTD SVG 20010904//EN"
 "http://www.w3.org/TR/2001/REC-SVG-20010904/DTD/svg10.dtd">
<svg version="1.0" xmlns="http://www.w3.org/2000/svg"
 width="1920.000000pt" height="946.000000pt" viewBox="0 0 1920.000000 946.000000"
 preserveAspectRatio="xMidYMid meet">

<g transform="translate(0.000000,946.000000) scale(0.100000,-0.100000)"
fill="#000000" stroke="none">
<path d="M0 4730 l0 -4730 1502 0 c924 0 1498 4 1493 9 -6 5 -34 19 -64 31
-105 41 -108 34 48 151 139 103 171 124 156 99 -6 -9 -4 -11 4 -6 7 5 10 10 7
13 -7 7 43 48 95 78 24 14 38 25 30 25 -20 0 -215 -132 -346 -234 -60 -47
-113 -86 -116 -86 -4 0 -9 7 -12 14 -4 10 -1 13 8 10 15 -6 -21 89 -69 185
l-27 53 22 24 c27 29 18 42 -21 27 -16 -6 -32 -7 -37 -2 -5 5 -425 10 -943 11
l-934 3 3 70 c2 39 4 89 4 113 1 23 0 42 -3 42 -3 0 -4 37 -2 82 3 97 3 140
-3 303 -2 83 0 124 8 134 9 12 9 13 -1 7 -14 -9 -15 4 -3 57 5 20 6 37 2 37
-3 0 -6 155 -6 344 0 189 -4 342 -8 339 -4 -2 -5 8 -1 24 13 48 8 312 -6 328
-10 12 -9 15 4 15 20 0 21 14 1 34 -17 16 -21 61 -5 51 14 -9 12 8 -2 24 -11
11 -10 12 2 6 13 -8 13 -6 2 7 -10 13 -10 17 0 22 10 5 10 7 1 12 -10 4 -10
11 -2 26 7 13 7 18 1 14 -7 -4 -10 10 -9 38 1 24 5 42 10 39 4 -2 7 12 7 31 0
22 -5 36 -12 36 -10 0 -10 2 0 9 15 9 13 52 -3 63 -6 5 -4 12 5 18 10 6 11 10
3 10 -7 0 -13 7 -13 16 0 9 5 12 12 8 8 -5 9 -2 3 12 -4 10 -10 30 -12 44 -4
20 -2 22 6 10 9 -13 11 -13 11 2 0 9 -6 19 -12 21 -10 4 -9 8 2 16 10 7 11 11
3 11 -7 0 -13 5 -13 11 0 5 4 8 9 4 6 -3 7 8 4 27 -6 41 -6 56 2 90 4 15 4 36
0 45 -12 26 -14 74 -4 67 5 -3 9 0 9 5 0 6 -5 11 -10 11 -14 0 -10 263 4 272
8 5 7 8 -1 8 -7 0 -13 7 -13 16 0 8 4 13 8 10 5 -3 9 1 9 9 0 8 -5 15 -11 15
-6 0 -5 5 2 12 15 15 16 32 2 23 -5 -3 -10 -2 -10 4 0 5 6 12 12 14 9 4 9 8 3
14 -14 11 -18 53 -6 53 6 0 11 5 11 11 0 5 -4 7 -10 4 -6 -4 -10 7 -10 27 0
21 3 28 8 20 6 -8 9 -2 9 18 0 20 -3 26 -9 18 -5 -8 -8 15 -7 55 1 37 6 67 10
67 5 0 9 5 9 11 0 5 -4 8 -10 4 -5 -3 -9 30 -9 87 0 61 4 95 12 100 9 6 9 8 0
8 -10 0 -12 304 -13 1388 0 763 0 1810 0 2326 0 889 1 941 17 950 24 13 32 15
153 25 307 27 786 31 3741 31 l3067 0 6 -22 c3 -13 6 -42 6 -65 0 -30 7 -50
24 -70 l24 -28 479 0 c263 0 583 2 710 5 l233 5 27 27 c21 22 27 39 31 86 l4
58 40 3 c51 3 68 -12 68 -60 0 -54 17 -85 57 -104 29 -14 76 -16 331 -14 163
1 319 5 346 9 65 10 94 44 98 115 3 47 5 50 32 53 15 2 39 1 52 -2 20 -5 24
-13 24 -47 0 -46 22 -94 49 -109 20 -10 710 -15 699 -5 -2 3 -152 5 -333 5
-188 1 -335 5 -346 10 -24 13 -42 74 -35 116 l7 34 387 -2 387 -3 3 -39 c4
-48 -13 -90 -41 -104 -12 -6 -16 -11 -9 -11 29 -2 60 46 67 103 l7 56 48 0
c52 0 60 -8 60 -60 0 -44 19 -77 55 -95 28 -12 83 -15 342 -15 169 0 326 5
348 10 53 12 81 47 90 109 l7 51 48 0 c53 0 60 -8 60 -67 0 -25 8 -43 29 -64
l29 -29 342 0 c384 0 399 2 425 64 8 20 15 49 15 66 l0 31 52 -3 53 -3 7 -50
c8 -57 41 -94 86 -96 78 -4 661 2 684 7 36 7 66 50 70 100 l3 39 52 3 52 3 6
-38 c8 -53 26 -85 55 -100 19 -10 108 -13 377 -11 l353 3 26 26 c18 18 28 41
31 73 l6 46 53 0 53 0 7 -45 c4 -33 14 -52 36 -70 l30 -25 348 0 c376 0 390 2
416 51 21 42 17 59 -6 22 -10 -17 -29 -37 -40 -43 -16 -8 -124 -11 -368 -11
l-347 1 -23 26 c-16 18 -22 36 -20 58 l3 31 465 0 465 0 3 -25 c5 -46 25 -81
53 -95 23 -12 83 -15 313 -15 200 0 287 3 292 11 5 8 -67 10 -271 7 -153 -3
-289 -3 -302 0 -29 5 -55 53 -51 90 l3 27 462 3 461 2 7 -40 c9 -53 32 -79 80
-90 54 -13 641 -13 684 0 34 10 81 46 81 62 0 5 -15 -2 -32 -16 l-33 -24 -345
-7 c-345 -6 -346 -6 -373 16 -23 17 -28 28 -25 58 l3 36 423 -1 c232 -1 438
-5 457 -8 29 -6 37 -12 41 -36 15 -73 67 -88 322 -89 125 -1 156 -4 169 -17
13 -12 13 -19 4 -37 -7 -13 -10 -39 -8 -60 2 -20 0 -37 -4 -37 -5 0 -9 -13 -9
-28 0 -15 -4 -32 -9 -38 -5 -5 -12 -65 -15 -133 -4 -68 -7 -127 -8 -130 0 -3
0 -8 2 -11 9 -24 8 -50 -3 -50 -8 0 -8 -3 2 -9 9 -6 11 -15 6 -27 -4 -11 -6
-37 -5 -59 2 -22 2 -47 2 -55 -1 -8 -3 -55 -5 -103 -2 -64 -6 -90 -17 -97 -13
-8 -12 -10 3 -10 10 0 15 -4 12 -10 -3 -5 2 -10 13 -10 20 0 42 -37 42 -71 0
-11 11 -24 27 -32 24 -11 13 -13 -92 -17 -66 -3 -284 -7 -483 -8 -293 -2 -369
-5 -392 -17 -54 -28 -58 -55 -66 -478 -6 -354 -6 -388 10 -412 9 -14 28 -30
41 -35 13 -5 190 -10 392 -11 202 -2 420 -5 483 -8 l115 -6 2 -83 c2 -77 1
-83 -20 -91 -12 -5 -112 -12 -222 -15 -110 -3 -238 -9 -285 -13 -76 -6 -81 -7
-45 -14 22 -4 60 -8 85 -10 25 -1 56 -7 70 -12 14 -5 42 -10 64 -12 46 -5 186
-54 186 -66 0 -5 7 -9 16 -9 8 0 12 -4 9 -10 -3 -5 1 -10 9 -10 9 0 16 -7 16
-16 0 -8 4 -13 9 -10 12 8 22 -45 28 -147 2 -48 8 -85 12 -82 5 2 9 -20 9 -50
0 -36 -4 -55 -11 -55 -7 0 -6 -4 2 -9 12 -8 12 -12 2 -25 -9 -11 -10 -16 -2
-16 15 0 14 -27 0 -32 -9 -3 -9 -9 0 -25 15 -29 14 -100 -1 -106 -10 -4 -10
-6 -1 -6 17 -1 18 -681 1 -681 -7 0 -7 -4 1 -13 10 -13 9 -36 -4 -69 -4 -11
-3 -18 4 -18 6 0 11 -12 11 -26 0 -14 -4 -23 -10 -19 -6 3 -10 -4 -10 -17 0
-18 2 -20 10 -8 8 12 10 9 10 -13 0 -16 -4 -26 -10 -22 -5 3 -10 1 -10 -4 0
-6 5 -11 10 -11 6 0 10 -20 10 -45 0 -27 -5 -45 -11 -45 -8 0 -7 -5 2 -16 10
-13 10 -17 0 -23 -10 -7 -10 -13 -2 -29 14 -26 14 -35 1 -27 -14 8 -13 -18 1
-32 8 -8 8 -13 0 -17 -6 -4 -11 -16 -11 -27 0 -14 4 -18 13 -13 8 5 8 2 -2 -9
-9 -11 -10 -17 -2 -17 6 0 11 -5 11 -11 0 -5 -6 -7 -12 -3 -10 6 -10 4 0 -8
10 -13 10 -17 0 -21 -10 -3 -10 -9 -2 -23 7 -12 8 -28 3 -41 -5 -13 -4 -25 1
-28 13 -8 13 -45 0 -45 -5 0 -10 -16 -10 -35 0 -19 5 -35 10 -35 6 0 10 -5 10
-11 0 -5 -4 -7 -10 -4 -6 4 -10 -9 -9 -32 0 -30 2 -34 9 -18 7 16 9 14 9 -15
1 -25 -2 -31 -9 -20 -6 10 -9 5 -8 -18 1 -18 5 -35 10 -38 4 -3 8 -11 8 -17 0
-7 -4 -6 -10 3 -8 12 -10 11 -10 -7 0 -13 5 -23 12 -23 9 0 9 -3 0 -12 -7 -7
-12 -26 -11 -42 0 -27 2 -28 9 -11 7 16 9 17 9 3 1 -9 -3 -19 -7 -22 -14 -9
-13 -269 1 -278 9 -6 9 -8 0 -8 -12 0 -13 -4 -15 -310 0 -83 -4 -136 -9 -125
-6 16 -8 17 -8 3 -1 -9 3 -19 7 -22 14 -9 13 -86 -1 -86 -8 0 -8 -3 -1 -8 5
-4 11 -43 12 -87 0 -52 -2 -74 -8 -65 -8 13 -10 12 -10 -2 0 -10 3 -18 8 -18
13 0 13 -123 -1 -132 -9 -6 -9 -8 1 -8 16 0 17 -107 0 -112 -7 -3 -9 -11 -3
-24 12 -28 15 -163 4 -169 -5 -4 -9 -15 -9 -26 0 -11 4 -18 9 -15 10 7 9 -13
-2 -31 -4 -6 -3 -14 3 -18 5 -3 10 -14 10 -23 0 -15 -2 -15 -10 -2 -7 11 -10
4 -10 -25 0 -29 3 -36 10 -25 8 13 10 13 10 -2 0 -9 -4 -20 -10 -23 -5 -3 -10
-20 -10 -36 0 -18 4 -28 10 -24 6 3 10 1 10 -4 0 -6 -4 -11 -10 -11 -9 0 -10
-59 -11 -705 0 -134 -4 -214 -11 -222 -7 -9 -7 -13 0 -13 16 0 15 -232 -1
-242 -9 -6 -9 -10 0 -16 14 -9 16 -112 2 -112 -5 0 -9 -5 -9 -11 0 -5 5 -7 10
-4 6 4 10 -10 10 -35 0 -25 -4 -39 -10 -35 -6 4 -10 -7 -10 -24 0 -17 4 -31 8
-31 5 0 9 -7 9 -15 0 -8 -4 -12 -9 -9 -4 3 -8 0 -8 -5 0 -6 5 -11 10 -11 6 0
10 -5 10 -11 0 -5 -4 -7 -10 -4 -12 7 -12 2 -10 -173 l1 -132 -1145 0 c-910 0
-1146 -3 -1146 -12 0 -8 -3 -9 -8 -3 -11 16 -44 18 -53 3 -7 -10 -9 -10 -9 0
0 19 -235 15 -255 -4 -10 -11 -14 -11 -18 -1 -2 6 -2 1 0 -13 4 -34 -11 -57
-29 -43 -7 6 -25 10 -40 8 -26 -3 -27 -1 -17 18 7 12 13 23 15 25 1 2 12 -6
23 -17 12 -12 27 -21 34 -21 6 1 1 7 -13 15 -14 8 -21 14 -16 15 5 0 3 7 -4
15 -11 13 -35 16 -126 14 -63 -1 -112 -5 -109 -9 3 -4 -2 -13 -10 -20 -12 -10
-19 -10 -32 1 -16 13 -17 12 -5 -3 16 -20 6 -42 -15 -34 -8 3 -11 1 -8 -5 4
-5 1 -16 -5 -24 -15 -18 -34 -20 -24 -3 4 7 3 8 -5 4 -6 -4 -9 -11 -6 -16 8
-12 -86 -126 -99 -122 -6 2 -8 1 -4 -3 4 -4 -7 -25 -23 -48 -31 -43 -38 -77
-15 -77 7 0 25 -9 38 -20 25 -19 47 -20 1972 -20 l1946 0 0 4730 0 4730 -9600
0 -9600 0 0 -4730z m15961 4350 l0 -170 -466 0 -466 0 0 170 c0 93 1 171 1
173 0 1 209 1 466 0 l465 -3 0 -170z m-12999 143 c24 -21 23 -74 -2 -155 -33
-106 -24 -125 30 -60 17 20 36 54 42 75 10 35 30 48 42 29 3 -5 -4 -32 -14
-61 -24 -61 -25 -81 -5 -81 22 0 82 88 102 148 14 44 15 57 4 74 -17 27 1 47
25 27 52 -43 -73 -269 -150 -269 -14 0 -29 7 -32 15 -5 13 -8 13 -27 0 -28
-20 -66 -19 -74 1 -3 8 4 48 16 89 24 84 28 165 8 165 -22 0 -37 -22 -37 -53
0 -25 -2 -28 -15 -17 -23 19 -18 46 11 69 32 25 51 26 76 4z m538 -40 c0 -5
-9 -21 -20 -38 -26 -39 -25 -45 5 -45 14 0 25 -4 25 -10 0 -5 -15 -10 -34 -10
-22 0 -36 -6 -40 -16 -7 -18 -8 -84 -2 -84 20 0 42 21 71 66 33 52 70 75 94
59 30 -18 1 -64 -51 -84 -19 -7 -26 -15 -22 -26 10 -24 43 -17 76 15 38 39 48
33 13 -8 -32 -38 -69 -48 -101 -27 -22 14 -27 14 -46 0 -28 -19 -43 -19 -63 1
-12 13 -19 14 -28 5 -14 -14 -50 -14 -63 -1 -6 6 -21 6 -42 -2 -46 -18 -61 -1
-43 48 17 46 0 69 -19 25 -20 -49 -29 -36 -11 17 15 42 30 64 32 45 0 -5 10
-18 22 -31 19 -20 20 -26 9 -54 -24 -66 21 -45 57 25 13 26 30 47 38 47 17 0
16 -20 -2 -44 -20 -26 -19 -66 0 -66 20 0 47 43 49 77 0 16 8 35 16 44 8 9 23
30 32 47 15 28 48 45 48 25z m390 -4 c0 -7 -9 -27 -21 -45 l-21 -34 31 0 c17
0 31 -4 31 -10 0 -5 -16 -10 -35 -10 -39 0 -46 -10 -49 -61 -2 -43 18 -47 54
-11 16 17 30 26 30 20 0 -17 -58 -68 -78 -68 -11 0 -25 6 -31 14 -9 11 -18 12
-41 3 -38 -14 -62 4 -53 42 10 43 33 81 48 81 19 0 19 -19 0 -44 -20 -26 -19
-66 0 -66 21 0 46 43 47 79 1 17 5 31 9 31 4 0 10 9 14 19 13 43 65 90 65 60z
m-484 -20 c9 -16 -12 -33 -31 -25 -14 5 -15 9 -5 21 15 18 26 19 36 4z m399
-10 c0 -8 -10 -15 -22 -17 -25 -4 -33 22 -10 31 18 8 32 2 32 -14z m8485 -12
c0 -18 5 -23 28 -22 22 0 28 -5 30 -28 4 -37 -13 -57 -49 -57 -29 0 -29 0 -29
65 0 37 4 65 10 65 6 0 10 -10 10 -23z m-76 5 c18 -30 44 -112 35 -112 -6 0
-13 9 -16 20 -3 13 -14 20 -28 20 -15 0 -26 -8 -30 -20 -3 -11 -10 -20 -15
-20 -5 0 1 27 12 60 21 57 31 70 42 52z m376 -7 c0 -8 6 -15 13 -16 10 0 10
-2 0 -6 -7 -2 -13 -20 -13 -38 0 -18 6 -36 13 -39 6 -3 3 -5 -8 -3 -15 2 -21
12 -25 42 -3 22 -4 48 -2 58 5 21 22 23 22 2z m460 6 c0 -4 -11 -6 -24 -4 -30
6 -58 -31 -49 -65 6 -23 43 -39 62 -27 6 3 11 1 11 -4 0 -17 -57 -13 -74 5
-21 20 -20 63 1 86 16 18 73 26 73 9z m248 -22 c15 -1 15 -2 0 -6 -12 -3 -18
-14 -18 -33 0 -17 7 -33 18 -39 15 -9 15 -10 -5 -11 -20 0 -23 5 -23 40 0 25
-5 40 -12 41 -10 0 -10 2 0 6 6 2 13 12 13 21 1 15 2 15 6 0 2 -10 12 -19 21
-19z m212 16 c0 -8 6 -15 13 -16 10 0 10 -2 0 -6 -7 -2 -13 -20 -13 -38 0 -18
6 -36 13 -39 6 -3 3 -5 -8 -3 -15 2 -21 12 -25 42 -3 22 -4 48 -2 58 5 21 22
23 22 2z m570 -54 c0 -43 3 -50 23 -54 16 -3 13 -5 -10 -6 l-33 -1 0 55 c0 30
5 55 10 55 6 0 10 -22 10 -49z m135 29 l18 -20 14 20 c14 20 73 29 73 11 0 -4
-11 -6 -25 -4 -19 4 -27 0 -36 -20 -13 -29 2 -67 26 -67 18 0 20 36 3 43 -7 3
-3 6 10 6 18 1 22 -4 22 -29 0 -26 -4 -30 -27 -30 -14 0 -35 7 -45 17 -17 15
-19 15 -36 0 -10 -10 -27 -17 -37 -17 -24 0 -55 28 -55 49 0 28 30 61 54 61
13 0 31 -9 41 -20z m155 -35 c0 -30 -4 -55 -10 -55 -5 0 -10 25 -10 55 0 30 5
55 10 55 6 0 10 -25 10 -55z m67 17 l22 -37 1 38 c0 20 5 37 10 37 6 0 10 -25
10 -55 0 -66 -15 -72 -47 -17 l-22 37 -1 -37 c0 -21 -4 -38 -10 -38 -5 0 -10
25 -10 55 0 66 15 72 47 17z m-1999 16 c17 -17 15 -53 -3 -68 -8 -7 -25 -10
-40 -6 -21 5 -25 12 -25 40 0 19 6 37 13 39 22 9 43 7 55 -5z m62 -63 c10 0
16 12 18 38 5 53 22 46 22 -9 0 -45 0 -45 -32 -42 -32 3 -33 5 -34 48 l-2 45
7 -40 c4 -26 11 -40 21 -40z m638 63 c7 -7 12 -21 12 -33 0 -47 -62 -63 -81
-21 -22 47 33 90 69 54z m100 -35 c2 -26 -1 -43 -7 -43 -6 0 -11 18 -11 40 0
45 -26 58 -34 18 -3 -13 -7 -32 -9 -43 -3 -11 -5 1 -6 26 -1 46 -1 46 32 45
30 -1 32 -3 35 -43z m140 35 c7 -7 12 -26 12 -43 0 -29 -3 -32 -35 -33 -31 -1
-35 2 -35 23 0 18 7 26 25 31 14 3 22 11 19 16 -4 5 -15 8 -25 5 -11 -3 -17
-1 -13 4 8 13 38 11 52 -3z m92 4 c0 -5 -10 -8 -22 -8 -19 1 -23 -4 -23 -29 0
-25 4 -30 23 -29 12 0 22 -3 22 -8 0 -4 -11 -8 -25 -8 -33 0 -52 38 -36 69 11
20 61 31 61 13z m-9800 -117 c0 -8 -9 -15 -20 -15 -20 0 -26 11 -13 23 12 13
33 7 33 -8z m5590 -313 c0 -44 -5 -66 -19 -83 l-19 -24 -696 -3 -696 -3 -25
25 c-21 21 -25 34 -25 84 l0 60 740 1 740 2 0 -59z m950 7 c0 -63 -11 -84 -51
-98 -41 -14 -645 -16 -682 -2 -32 13 -47 46 -47 107 l0 44 390 0 390 0 0 -51z
m1892 34 c5 -61 -8 -99 -39 -112 -19 -7 -144 -12 -366 -13 l-339 -3 -19 24
c-13 16 -19 39 -19 72 l0 49 390 0 c364 0 390 -1 392 -17z m958 -12 c0 -43
-16 -78 -42 -92 -24 -13 -656 -27 -702 -15 -35 9 -57 54 -49 100 l6 36 393 0
394 0 0 -29z m956 -13 c-4 -28 -15 -51 -32 -65 -24 -22 -32 -23 -242 -23 -119
-1 -268 -3 -330 -7 -155 -8 -192 10 -192 90 0 18 3 37 7 40 3 4 184 7 401 7
l395 0 -7 -42z m964 17 c0 -38 -21 -75 -52 -91 -22 -11 -64 -15 -179 -13 -83
0 -152 -1 -154 -3 -2 -1 -87 -1 -190 2 -181 5 -187 6 -206 29 -18 22 -26 81
-12 94 3 4 183 7 400 7 l393 0 0 -25z m3315 -5 c103 -9 135 -16 135 -30 0 -10
-112 -21 -235 -23 -73 -2 -96 2 -119 16 -22 15 -25 21 -15 33 13 16 84 18 234
4z m75 -1186 c83 -6 96 -9 96 -25 0 -9 -4 -15 -8 -13 -4 2 -7 -27 -6 -66 0
-38 4 -70 9 -70 5 0 9 -9 9 -21 0 -11 -4 -18 -8 -15 -4 2 -9 -5 -9 -17 -2 -16
0 -18 6 -8 6 9 9 -5 9 -38 1 -37 -2 -50 -11 -44 -8 4 -7 1 1 -10 17 -21 18
-290 1 -296 -7 -2 -6 -7 2 -12 11 -7 9 -9 -6 -9 -12 0 -26 -5 -33 -12 -19 -19
-14 -66 8 -80 15 -10 20 -24 21 -63 1 -44 2 -46 9 -20 7 28 8 28 9 5 1 -30 -8
-44 -32 -53 -25 -9 -804 -40 -846 -33 -18 3 -42 13 -52 22 -18 16 -19 38 -19
410 0 271 4 401 11 418 11 23 38 39 84 49 32 7 650 8 755 1z m-2273 -7176 c-3
-7 -5 -2 -5 12 0 14 2 19 5 13 2 -7 2 -19 0 -25z m603 0 c0 -10 -36 7 -45 22
-4 6 5 5 19 -2 14 -6 26 -15 26 -20z m-950 -42 c0 -7 -6 -20 -12 -29 -11 -15
-13 -13 -11 15 2 42 1 40 13 33 6 -3 10 -12 10 -19z m1120 -186 c17 -34 35
-58 40 -55 14 8 21 -11 12 -34 -6 -18 -14 -8 -50 64 -23 47 -40 85 -37 85 3 0
18 -27 35 -60z m25 -1 c9 -17 15 -33 13 -35 -3 -2 -12 12 -21 31 -21 43 -13
47 8 4z m-1632 -44 c-3 -9 -8 -14 -10 -11 -3 3 -2 9 2 15 9 16 15 13 8 -4z"/>
<path d="M15243 9075 c0 -27 2 -38 4 -22 2 15 2 37 0 50 -2 12 -4 0 -4 -28z"/>
<path d="M15296 9104 c-9 -8 -15 -27 -15 -42 l2 -27 4 25 c7 36 24 52 50 47
12 -2 20 0 17 4 -8 14 -41 10 -58 -7z"/>
<path d="M15450 9111 c0 -5 7 -15 17 -22 15 -13 15 -12 4 9 -12 23 -21 28 -21
13z"/>
<path d="M15673 9080 c0 -25 2 -35 4 -22 2 12 2 32 0 45 -2 12 -4 2 -4 -23z"/>
<path d="M15728 9113 c7 -3 16 -2 19 1 4 3 -2 6 -13 5 -11 0 -14 -3 -6 -6z"/>
<path d="M15700 9090 c0 -5 11 -17 25 -26 33 -21 32 -42 -2 -47 l-28 -4 28 -2
c42 -2 46 25 8 59 -17 16 -31 25 -31 20z"/>
<path d="M15362 9065 c0 -16 2 -22 5 -12 2 9 2 23 0 30 -3 6 -5 -1 -5 -18z"/>
<path d="M15489 9055 c17 -33 31 -51 31 -40 0 6 -10 21 -21 35 -13 17 -17 18
-10 5z"/>
<path d="M15617 9018 c2 -5 13 -8 23 -8 10 0 21 3 23 8 3 4 -8 7 -23 7 -15 0
-26 -3 -23 -7z"/>
<path d="M15318 9013 c7 -3 16 -2 19 1 4 3 -2 6 -13 5 -11 0 -14 -3 -6 -6z"/>
<path d="M3558 9073 c-25 -30 -33 -47 -17 -38 24 14 49 38 49 47 0 14 -16 9
-32 -9z"/>
<path d="M12294 9096 c-8 -21 -1 -49 13 -53 15 -5 35 31 27 51 -8 20 -33 21
-40 2z"/>
<path d="M12197 9113 c-12 -12 -7 -33 8 -33 17 0 19 9 7 28 -5 7 -11 9 -15 5z"/>
<path d="M14149 9099 c-13 -26 2 -69 25 -69 24 0 40 38 27 66 -13 30 -37 31
-52 3z"/>
<path d="M12385 9091 c-7 -24 3 -51 21 -51 20 0 34 32 23 53 -13 22 -36 22
-44 -2z"/>
<path d="M13084 9096 c-10 -26 0 -51 21 -51 16 0 20 7 20 30 0 33 -30 49 -41
21z"/>
<path d="M13334 9069 c-8 -14 11 -33 25 -25 6 4 11 14 11 22 0 16 -26 19 -36
3z"/>
<path d="M16889 8654 c-9 -8 -33 -21 -54 -28 -21 -7 -34 -16 -29 -19 16 -9 77
17 92 41 17 26 13 29 -9 6z"/>
<path d="M17583 8479 c-57 -17 -66 -43 -74 -218 -4 -86 -8 -241 -8 -344 l-1
-189 29 -29 29 -29 139 0 c76 -1 228 -2 338 -3 110 -2 215 0 233 4 40 9 82 45
82 71 0 17 -1 17 -20 -2 -11 -11 -30 -20 -42 -20 -13 0 -104 -5 -203 -10 -452
-25 -513 -24 -537 14 -10 15 -9 635 0 672 6 21 20 35 52 52 45 23 48 23 388
20 188 -2 342 0 342 3 0 4 -10 9 -22 13 -37 9 -690 5 -725 -5z"/>
<path d="M15688 8472 c-41 -3 -52 -8 -75 -39 l-28 -36 -3 -334 c-4 -374 -4
-373 65 -393 26 -8 147 -10 368 -8 297 3 334 5 358 21 15 9 27 23 27 29 0 6
-10 2 -23 -10 -23 -21 -30 -22 -288 -23 -145 0 -306 0 -356 0 -135 1 -128 -17
-124 340 3 329 6 378 23 399 32 38 67 42 410 43 199 0 325 4 313 9 -18 8 -556
10 -667 2z"/>
<path d="M16605 8469 c-54 -26 -65 -102 -65 -466 l0 -281 31 -26 31 -26 357 0
c347 0 359 1 385 21 35 28 33 45 -2 19 -27 -20 -44 -22 -378 -27 l-350 -6 -23
29 -23 29 5 330 c3 182 9 338 12 347 4 9 23 25 43 35 33 16 75 19 372 23 l335
6 -355 1 c-218 1 -363 -2 -375 -8z"/>
<path d="M13761 8460 c-54 -6 -80 -37 -92 -107 -13 -77 -11 -618 2 -646 23
-50 37 -52 398 -52 185 0 349 4 364 8 15 4 36 22 47 40 19 30 20 52 20 366 0
184 -2 332 -5 330 -2 -3 -5 -146 -5 -318 -1 -183 -6 -325 -12 -342 -5 -16 -21
-38 -35 -49 -23 -18 -43 -19 -372 -20 -342 0 -348 0 -367 21 -18 20 -19 40
-20 333 0 171 3 327 8 347 8 38 34 61 79 72 51 13 670 9 685 -4 8 -7 17 -9 21
-6 3 4 -11 14 -32 23 -32 13 -82 15 -339 12 -165 -2 -321 -5 -345 -8z"/>
<path d="M14660 8442 c-36 -37 -39 -62 -42 -425 l-3 -299 33 -29 33 -30 359 3
c289 2 362 6 372 17 11 11 8 12 -17 5 -16 -5 -184 -9 -372 -9 -316 0 -344 1
-360 18 -17 17 -18 42 -15 360 4 330 4 343 24 364 12 13 36 26 55 29 19 4 177
10 351 14 l317 7 -353 1 -354 2 -28 -28z"/>
<path d="M11844 8451 c-81 -20 -83 -28 -85 -414 0 -241 3 -330 12 -344 28 -46
41 -48 299 -48 135 -1 296 2 358 5 109 5 115 6 138 33 22 25 24 36 22 115 l-1
87 -6 -88 c-6 -81 -8 -91 -34 -113 l-28 -24 -340 0 -340 0 -25 25 -25 25 3
335 3 335 28 27 27 28 338 3 c333 4 337 4 365 -18 l27 -21 0 -246 c0 -136 2
-244 5 -241 3 3 9 102 12 220 7 243 1 277 -51 309 -29 18 -52 19 -351 18 -176
-1 -334 -4 -351 -8z"/>
<path d="M12756 8439 c-15 -12 -31 -32 -36 -44 -5 -13 -10 -169 -11 -348 -3
-295 -1 -327 15 -351 9 -15 28 -31 42 -36 35 -14 617 -12 584 1 -15 6 -133 10
-293 10 l-267 -1 -25 24 -25 25 0 320 c0 179 4 331 10 345 19 52 43 58 263 63
111 3 204 7 206 9 2 2 -95 4 -216 4 -210 0 -222 -1 -247 -21z"/>
<path d="M13255 8454 c69 -8 243 -8 238 -1 -2 4 -64 6 -136 5 -73 0 -118 -3
-102 -4z"/>
<path d="M9232 8440 l-244 -5 -29 -33 -29 -32 0 -341 0 -340 24 -24 c34 -34
75 -37 419 -33 292 3 307 4 334 24 50 38 54 69 51 409 -3 329 -5 339 -53 365
-25 13 -162 16 -473 10z m453 -26 c41 -16 45 -48 45 -387 0 -305 -1 -326 -19
-348 l-19 -24 -345 -3 c-328 -3 -345 -2 -368 17 l-24 19 -3 336 -3 337 30 29
29 30 330 0 c182 0 338 -3 347 -6z"/>
<path d="M9930 8432 c-59 -29 -60 -34 -60 -400 l0 -334 30 -29 29 -30 355 3
356 3 27 28 28 27 3 341 3 340 -35 35 -34 34 -333 0 c-298 0 -338 -2 -369 -18z
m694 -12 c56 -21 55 -18 56 -377 0 -182 -3 -339 -6 -348 -16 -41 -47 -45 -392
-45 -310 0 -331 1 -353 19 -23 18 -24 27 -29 158 -3 76 -3 231 0 345 4 181 7
210 23 225 15 15 41 19 150 23 292 11 523 11 551 0z"/>
<path d="M10873 8440 c-12 -5 -30 -21 -40 -36 -16 -25 -18 -60 -21 -354 -4
-362 -1 -378 61 -399 19 -7 153 -11 354 -11 356 0 380 3 402 58 7 17 12 146
14 360 l2 333 -33 30 -32 29 -343 -1 c-188 0 -352 -4 -364 -9z m728 -29 l24
-19 3 -316 c3 -329 -2 -381 -37 -403 -15 -9 -110 -13 -363 -13 l-343 -1 -22
26 c-23 26 -23 28 -23 348 0 344 2 360 50 384 19 9 111 13 356 13 312 0 333
-1 355 -19z"/>
<path d="M7968 8430 c-208 -7 -201 -1 -208 -183 -3 -72 -5 -228 -5 -345 l0
-214 33 -29 32 -29 450 0 c485 0 503 2 532 52 10 17 14 96 16 318 4 329 1 369
-33 408 l-23 27 -319 0 c-175 0 -389 -2 -475 -5z m803 -40 l30 -30 -3 -327
c-2 -181 -7 -335 -11 -345 -18 -36 -51 -38 -514 -36 -418 3 -454 4 -470 21
-24 24 -29 128 -23 454 5 253 5 255 29 274 22 18 45 19 478 19 l455 0 29 -30z"/>
<path d="M13539 8213 c0 -87 -2 -173 -4 -190 -2 -18 1 -33 6 -33 5 0 9 81 9
190 0 105 -2 190 -5 190 -3 0 -5 -71 -6 -157z"/>
<path d="M13530 7954 c0 -8 5 -12 10 -9 6 3 10 10 10 16 0 5 -4 9 -10 9 -5 0
-10 -7 -10 -16z"/>
<path d="M18193 7934 c26 -14 46 -28 43 -33 -3 -4 -23 -16 -46 -26 -22 -10
-40 -22 -40 -26 0 -7 75 24 108 44 21 14 13 24 -39 46 -70 29 -85 26 -26 -5z"/>
<path d="M13530 7831 c0 -44 -4 -91 -10 -105 -12 -34 -52 -58 -95 -58 -19 0
-38 -4 -41 -9 -8 -14 63 -11 99 4 18 8 37 25 44 38 14 26 23 209 11 209 -5 0
-8 -36 -8 -79z"/>
<path d="M13173 7530 l-1353 -5 -25 -26 c-15 -14 -30 -43 -35 -65 -5 -21 -10
-206 -10 -411 l0 -372 24 -28 24 -28 239 -5 c260 -6 1104 -4 3618 5 1543 6
1641 7 1664 24 34 24 42 48 10 28 -19 -12 -69 -17 -224 -21 -145 -4 -3027 -21
-3100 -18 -5 0 -496 1 -1091 1 -1061 1 -1081 1 -1102 21 -32 30 -35 82 -27
463 7 385 8 387 67 405 21 7 566 13 1533 16 1677 7 2928 16 2934 22 5 5 -656
3 -3146 -6z"/>
<path d="M16523 7533 c104 -2 270 -2 370 0 100 1 16 2 -188 2 -203 0 -285 -1
-182 -2z"/>
<path d="M17148 7533 c34 -2 88 -2 120 0 31 2 3 3 -63 3 -66 0 -92 -1 -57 -3z"/>
<path d="M10803 7520 l-412 -5 -23 -23 c-31 -30 -35 -93 -34 -515 l1 -339 27
-23 c15 -13 47 -27 71 -30 24 -4 289 -5 588 -3 428 2 549 6 567 16 49 28 52
53 52 461 0 217 -4 390 -10 405 -5 14 -21 33 -36 42 -31 21 -116 22 -791 14z
m794 -43 c17 -16 18 -49 21 -406 2 -239 -1 -398 -7 -414 -22 -58 -5 -56 -631
-58 l-574 -1 -24 27 -23 27 3 399 3 398 23 23 c22 23 24 23 400 28 207 3 470
3 584 0 182 -4 210 -7 225 -23z"/>
<path d="M8063 7510 c-245 -5 -253 -6 -275 -27 -30 -31 -36 -110 -33 -448 4
-435 1 -392 34 -426 l29 -29 582 0 582 0 34 34 34 34 0 394 c0 370 -1 395 -19
424 -12 19 -34 37 -54 43 -34 12 -366 12 -914 1z m927 -35 c20 -10 32 -27 39
-53 6 -22 9 -188 8 -410 -3 -370 -3 -372 -25 -394 l-22 -23 -574 -3 -574 -2
-29 24 c-27 24 -28 28 -33 143 -3 65 -3 245 0 399 6 329 3 321 99 327 31 2
287 4 569 5 440 2 517 0 542 -13z"/>
<path d="M9222 7505 c-60 -26 -62 -40 -62 -470 l0 -385 29 -32 29 -33 472 0
472 0 29 33 29 32 1 278 c0 152 1 322 3 377 3 122 -5 163 -39 193 l-26 22
-452 0 c-369 -1 -458 -3 -485 -15z m953 -31 c18 -14 20 -30 25 -207 3 -106 3
-291 0 -411 l-5 -219 -25 -18 c-23 -17 -60 -18 -483 -21 l-459 -3 -19 24 c-15
18 -19 40 -19 105 0 44 -1 224 -3 399 l-2 319 28 24 28 24 457 0 c392 -1 460
-3 477 -16z"/>
<path d="M2773 7434 c-25 -25 -25 -30 -20 -107 7 -123 36 -177 94 -177 23 0
42 8 60 26 24 24 25 30 21 100 -3 41 -10 80 -17 87 -6 6 -11 21 -11 33 0 28
-44 64 -77 64 -13 0 -36 -12 -50 -26z"/>
<path d="M3205 7280 c-10 -17 19 -64 48 -78 38 -18 43 -10 21 34 -19 37 -58
62 -69 44z"/>
<path d="M5294 6923 c21 -65 45 -117 52 -113 10 6 10 8 -18 78 -12 28 -26 52
-31 52 -4 0 -6 -8 -3 -17z"/>
<path d="M4569 5631 c-32 -32 -35 -47 -18 -84 22 -48 89 -61 133 -26 37 29 37
89 0 118 -38 30 -80 27 -115 -8z"/>
<path d="M6045 5635 c-52 -51 -15 -135 60 -135 46 0 85 36 85 80 0 44 -39 80
-85 80 -25 0 -44 -8 -60 -25z"/>
<path d="M2860 5643 c0 -5 13 -15 28 -24 30 -17 26 -7 220 -483 53 -132 102
-241 108 -243 7 -2 53 94 109 224 53 125 100 232 104 236 4 4 48 -97 97 -225
55 -143 95 -233 103 -233 8 0 59 121 135 320 155 404 150 393 180 407 47 21
27 28 -74 28 -60 0 -100 -4 -100 -10 0 -5 8 -10 18 -10 27 0 62 -29 62 -51 0
-17 -91 -272 -136 -377 l-15 -37 -69 179 c-96 245 -99 255 -75 272 10 8 29 14
42 14 13 0 23 5 23 10 0 6 -68 10 -185 10 -117 0 -185 -4 -185 -10 0 -5 10
-10 23 -10 40 0 64 -28 101 -116 l36 -87 -57 -138 c-31 -76 -60 -135 -64 -131
-14 16 -169 412 -169 432 0 15 9 25 30 33 17 6 30 15 30 19 0 4 -72 8 -160 8
-88 0 -160 -3 -160 -7z"/>
<path d="M4970 5549 c-19 -29 -65 -79 -102 -113 -37 -33 -68 -64 -68 -68 0 -5
16 -8 35 -8 l35 0 0 -195 0 -195 34 -38 c32 -35 38 -37 94 -37 66 0 104 20
132 68 20 36 7 43 -24 12 -15 -15 -34 -25 -43 -23 -35 7 -43 47 -43 231 l0
177 65 0 c63 0 65 1 65 25 0 24 -2 25 -65 25 l-65 0 0 95 c0 52 -3 95 -7 95
-5 0 -24 -23 -43 -51z"/>
<path d="M6435 5533 c-27 -37 -75 -87 -105 -112 -30 -24 -56 -48 -58 -52 -2
-5 12 -9 32 -9 l36 0 1 -177 c0 -111 5 -191 12 -213 34 -99 188 -107 248 -13
25 39 10 51 -21 18 -28 -30 -56 -32 -70 -6 -6 12 -10 96 -10 205 l0 186 60 0
c57 0 60 1 60 25 0 24 -3 25 -60 25 l-60 0 0 95 c0 52 -3 95 -7 95 -5 0 -30
-30 -58 -67z"/>
<path d="M4310 5399 c-19 -11 -49 -37 -67 -57 l-32 -37 -1 53 0 52 -105 0
c-63 0 -105 -4 -105 -10 0 -5 6 -10 14 -10 8 0 22 -10 30 -22 13 -18 16 -57
16 -213 0 -156 -3 -195 -16 -213 -8 -12 -22 -22 -30 -22 -8 0 -14 -4 -14 -10
0 -6 53 -10 140 -10 87 0 140 4 140 10 0 6 -7 10 -15 10 -8 0 -24 9 -35 20
-17 17 -20 33 -20 120 0 208 50 305 119 231 54 -58 111 -31 111 51 0 76 -56
101 -130 57z"/>
<path d="M5350 5405 c-46 -21 -96 -70 -123 -120 -18 -33 -22 -57 -22 -135 0
-83 3 -102 26 -145 15 -30 42 -62 68 -80 38 -27 51 -30 115 -30 62 0 78 4 114
28 42 27 106 122 95 140 -3 5 -22 -10 -42 -33 -28 -32 -45 -43 -76 -47 -70 -9
-137 57 -152 151 l-6 36 143 0 143 0 -6 51 c-8 63 -41 123 -90 162 -46 38
-130 47 -187 22z m116 -46 c12 -14 19 -40 22 -85 l4 -64 -71 0 -71 0 0 39 c0
102 66 165 116 110z"/>
<path d="M4490 5401 c0 -5 9 -13 21 -16 33 -11 39 -47 39 -241 0 -171 -1 -185
-20 -204 -11 -11 -24 -20 -30 -20 -5 0 -10 -4 -10 -10 0 -6 53 -10 140 -10 77
0 140 4 140 8 0 4 -13 13 -30 19 l-30 11 0 236 0 236 -110 0 c-61 0 -110 -4
-110 -9z"/>
<path d="M5960 5402 c0 -4 14 -13 30 -19 l30 -11 0 -217 0 -217 -30 -11 c-16
-6 -30 -15 -30 -19 0 -4 63 -8 140 -8 130 0 171 9 119 25 -11 4 -24 18 -30 32
-5 13 -9 121 -9 239 l0 214 -110 0 c-60 0 -110 -4 -110 -8z"/>
<path d="M5739 5041 c-20 -20 -29 -39 -29 -61 0 -22 9 -41 29 -61 37 -37 79
-38 120 -3 25 20 31 34 31 64 0 30 -6 44 -31 64 -41 35 -83 34 -120 -3z"/>
<path d="M18451 5054 c0 -11 3 -14 6 -6 3 7 2 16 -1 19 -3 4 -6 -2 -5 -13z"/>
<path d="M7090 4190 c0 -167 4 -260 10 -260 6 0 10 93 10 260 0 167 -4 260
-10 260 -6 0 -10 -93 -10 -260z"/>
<path d="M3330 4175 c0 -122 2 -145 15 -145 13 0 15 23 15 145 0 122 -2 145
-15 145 -13 0 -15 -23 -15 -145z"/>
<path d="M3430 4175 c0 -122 2 -145 15 -145 13 0 15 23 15 145 0 122 -2 145
-15 145 -13 0 -15 -23 -15 -145z"/>
<path d="M4450 4265 c0 -51 -10 -69 -25 -45 -13 21 -66 10 -96 -19 -24 -24
-29 -38 -29 -76 0 -78 68 -121 128 -79 20 14 22 14 22 0 0 -9 7 -16 15 -16 13
0 15 23 15 145 0 122 -2 145 -15 145 -12 0 -15 -13 -15 -55z m-16 -87 c48 -69
-26 -156 -86 -101 -41 36 -11 123 42 123 18 0 34 -8 44 -22z"/>
<path d="M2941 4273 c-14 -49 -14 -53 4 -53 8 0 15 6 15 14 0 7 3 28 6 45 9
45 -13 39 -25 -6z"/>
<path d="M2997 4265 c-13 -38 -14 -45 -2 -45 8 0 19 17 24 38 13 46 13 52 2
52 -5 0 -16 -20 -24 -45z"/>
<path d="M3155 4298 c-2 -7 -25 -67 -50 -133 -25 -66 -45 -124 -45 -128 0 -23
35 3 45 33 11 34 13 35 69 38 l57 3 16 -40 c11 -27 22 -41 34 -41 18 0 18 2 4
38 -8 20 -32 82 -53 137 -25 67 -44 101 -55 103 -9 2 -19 -2 -22 -10z m41 -80
c9 -29 19 -59 22 -65 3 -9 -9 -13 -43 -13 -33 0 -46 4 -43 13 3 6 13 36 23 65
11 28 20 52 21 52 1 0 10 -24 20 -52z"/>
<path d="M3658 4215 c-55 -30 -58 -133 -5 -170 52 -36 130 -7 147 55 26 95
-56 161 -142 115z m102 -34 c5 -11 10 -34 10 -51 0 -50 -16 -70 -55 -70 -44 0
-65 22 -65 70 0 22 7 45 16 54 22 23 81 21 94 -3z"/>
<path d="M3850 4159 c0 -68 11 -106 34 -121 19 -13 59 -9 78 9 17 15 18 15 18
0 0 -10 7 -17 15 -17 12 0 15 18 15 100 0 82 -3 100 -15 100 -12 0 -15 -14
-15 -66 0 -81 -11 -104 -50 -104 -39 0 -50 23 -50 104 0 52 -3 66 -15 66 -12
0 -15 -15 -15 -71z"/>
<path d="M4070 4130 c0 -82 3 -100 15 -100 12 0 15 13 15 58 0 67 17 106 48
110 25 4 30 32 5 32 -9 0 -25 -7 -35 -17 -17 -15 -18 -15 -18 0 0 10 -7 17
-15 17 -12 0 -15 -18 -15 -100z"/>
<path d="M4540 4130 c0 -82 3 -100 15 -100 12 0 15 13 15 58 0 67 17 106 48
110 25 4 30 32 5 32 -9 0 -25 -7 -35 -17 -17 -15 -18 -15 -18 0 0 10 -7 17
-15 17 -12 0 -15 -18 -15 -100z"/>
<path d="M4704 4215 c-51 -35 -55 -127 -7 -165 41 -32 123 -22 123 16 0 12 -4
13 -20 4 -35 -18 -83 -8 -97 20 l-12 25 69 3 70 3 0 30 c0 61 -76 100 -126 64z
m90 -37 c15 -24 5 -30 -53 -26 l-52 3 17 23 c19 27 71 27 88 0z"/>
<path d="M4898 4219 c-26 -15 -24 -43 1 -29 31 16 69 12 81 -9 9 -18 6 -20
-36 -27 -76 -11 -107 -61 -64 -104 23 -23 51 -25 83 -9 16 9 22 9 25 0 2 -6
11 -11 19 -11 13 0 14 14 12 86 -3 71 -7 88 -23 100 -23 16 -73 18 -98 3z m92
-102 c0 -42 -60 -73 -88 -45 -16 16 -15 23 4 42 19 19 84 22 84 3z"/>
<path d="M5080 4130 c0 -82 3 -100 15 -100 12 0 15 15 15 73 0 78 9 97 47 97
31 0 43 -28 43 -104 0 -52 3 -66 15 -66 12 0 15 14 15 66 0 80 11 104 49 104
36 0 41 -13 41 -101 0 -55 3 -69 15 -69 22 0 21 147 -1 178 -18 25 -59 29 -90
8 -17 -12 -22 -12 -39 0 -25 19 -60 18 -79 -2 -15 -14 -16 -14 -16 0 0 9 -7
16 -15 16 -12 0 -15 -18 -15 -100z"/>
<path d="M5423 4215 c-43 -30 -25 -75 40 -103 45 -19 32 -47 -21 -47 -32 0
-42 -4 -40 -15 4 -21 64 -25 94 -5 45 29 27 75 -39 103 -44 19 -32 46 21 50
28 2 42 7 39 15 -6 19 -69 20 -94 2z"/>
<path d="M5700 4201 c-54 -54 -35 -149 34 -167 36 -9 70 -1 74 17 2 12 -5 14
-33 11 -66 -8 -99 59 -59 117 13 19 24 22 56 19 30 -3 38 0 36 12 -2 9 -17 16
-41 18 -30 3 -43 -2 -67 -27z"/>
<path d="M5878 4219 c-26 -15 -24 -43 1 -29 31 16 69 12 81 -9 9 -18 6 -20
-36 -27 -76 -11 -107 -61 -64 -104 23 -23 51 -25 83 -9 16 9 22 9 25 0 2 -6
11 -11 19 -11 13 0 14 14 12 86 -3 71 -7 88 -23 100 -23 16 -73 18 -98 3z m92
-102 c0 -42 -60 -73 -88 -45 -16 16 -15 23 4 42 19 19 84 22 84 3z"/>
<path d="M6060 4130 c0 -82 3 -100 15 -100 12 0 15 15 15 73 0 81 9 97 52 97
36 0 48 -28 48 -111 0 -46 3 -59 15 -59 12 0 15 15 15 74 0 59 -4 78 -21 100
-24 30 -63 34 -91 9 -17 -15 -18 -15 -18 0 0 10 -7 17 -15 17 -12 0 -15 -18
-15 -100z"/>
<path d="M6400 4201 c-54 -54 -35 -149 34 -167 36 -9 70 -1 74 17 2 12 -5 14
-33 11 -66 -8 -99 59 -59 117 13 19 24 22 56 19 30 -3 38 0 36 12 -2 9 -17 16
-41 18 -30 3 -43 -2 -67 -27z"/>
<path d="M6581 4204 c-27 -22 -31 -32 -31 -72 0 -26 6 -54 13 -63 34 -44 102
-51 144 -15 24 21 28 32 28 76 0 44 -4 55 -28 76 -38 32 -86 32 -126 -2z m108
-17 c21 -26 24 -75 7 -102 -20 -30 -69 -34 -98 -8 -23 20 -24 80 -1 105 19 21
75 24 92 5z"/>
<path d="M6790 4130 c0 -82 3 -100 15 -100 12 0 15 15 15 73 0 78 9 97 47 97
31 0 43 -28 43 -104 0 -52 3 -66 15 -66 12 0 15 14 15 66 0 80 11 104 49 104
36 0 41 -13 41 -101 0 -55 3 -69 15 -69 22 0 21 147 -1 178 -18 25 -59 29 -90
8 -17 -12 -22 -12 -39 0 -25 19 -60 18 -79 -2 -15 -14 -16 -14 -16 0 0 9 -7
16 -15 16 -12 0 -15 -18 -15 -100z"/>
<path d="M2862 3298 c-17 -17 -17 -569 0 -586 17 -17 1669 -17 1686 0 17 17
17 569 0 586 -17 17 -1669 17 -1686 0z m338 -260 l1 -23 18 23 c29 33 45 27
19 -8 l-22 -30 29 -30 c33 -35 14 -42 -22 -8 l-23 21 0 -21 c0 -12 -4 -22 -10
-22 -6 0 -10 27 -10 60 0 33 4 60 10 60 6 0 10 -10 10 -22z m133 -15 l22 -38
3 38 c2 24 8 37 18 37 11 0 14 -14 14 -60 0 -72 -19 -80 -53 -22 l-22 37 -3
-37 c-2 -25 -8 -38 -18 -38 -11 0 -14 14 -14 60 0 72 19 80 53 23z m187 5 c13
-25 13 -31 0 -55 -31 -56 -110 -36 -110 27 0 63 79 83 110 28z m46 -3 c3 -19
10 -35 14 -35 4 0 11 16 14 35 9 46 33 46 42 0 7 -40 19 -38 27 5 4 16 12 30
18 30 7 0 9 -12 4 -36 -17 -93 -48 -114 -61 -41 l-7 42 -9 -35 c-19 -71 -37
-66 -62 18 -13 44 -13 52 -1 52 8 0 17 -15 21 -35z m240 -6 l20 -41 18 41 c28
61 46 54 46 -19 0 -64 -19 -85 -21 -22 l-1 37 -16 -37 c-10 -21 -21 -38 -27
-38 -5 0 -17 17 -27 38 l-16 37 -1 -37 c-2 -63 -21 -42 -21 22 0 73 17 79 46
19z m205 31 c24 -13 26 -72 3 -94 -23 -24 -70 -20 -88 6 -42 60 19 123 85 88z
m117 -19 c2 -13 -1 -27 -7 -31 -8 -4 -5 -15 9 -33 29 -37 3 -36 -27 1 l-22 27
-1 -27 c0 -18 -5 -28 -15 -28 -12 0 -15 13 -15 61 l0 60 38 -3 c30 -2 38 -7
40 -27z m80 22 c-20 -3 -28 -10 -28 -24 0 -14 7 -19 28 -20 l27 -2 -27 -4
c-22 -3 -28 -10 -28 -28 0 -18 6 -25 28 -28 22 -3 20 -4 -10 -6 l-38 -1 0 60
0 60 38 -1 c30 -2 32 -3 10 -6z"/>
<path d="M3438 3025 c-21 -46 18 -95 50 -63 18 18 15 75 -4 82 -26 10 -34 7
-46 -19z"/>
<path d="M3952 3038 c-17 -17 -15 -63 4 -79 22 -18 48 0 52 35 6 45 -29 71
-56 44z"/>
<path d="M4080 3025 c0 -17 5 -25 13 -22 6 2 12 12 12 22 0 10 -6 20 -12 23
-8 2 -13 -6 -13 -23z"/>
<path d="M781 3224 c0 -11 3 -14 6 -6 3 7 2 16 -1 19 -3 4 -6 -2 -5 -13z"/>
<path d="M3595 388 c-2 -7 -11 -35 -21 -63 -9 -27 -16 -58 -16 -67 0 -10 -11
-39 -25 -65 -44 -83 -92 -193 -84 -193 4 0 34 56 66 125 32 69 62 125 67 125
5 0 7 4 3 9 -3 5 6 22 19 38 l25 28 -10 -45 c-5 -25 -27 -97 -49 -160 -21 -63
-37 -116 -35 -118 2 -2 16 -2 31 0 26 3 27 4 11 20 -16 16 -16 22 12 110 41
129 61 209 50 202 -5 -3 -9 -1 -9 4 0 6 7 12 15 16 8 3 15 15 15 26 0 16 -7
20 -30 20 -17 0 -32 -6 -35 -12z"/>
<path d="M3701 397 c2 -1 13 -9 24 -17 19 -14 19 -14 6 3 -7 9 -18 17 -24 17
-6 0 -8 -1 -6 -3z"/>
<path d="M3837 378 c25 -29 83 -114 83 -124 0 -3 -6 -3 -13 2 -7 5 0 -2 15
-16 27 -24 98 -164 98 -192 0 -14 29 -59 30 -47 0 12 -31 95 -59 154 -33 69
-151 245 -165 245 -5 0 0 -10 11 -22z"/>
<path d="M4386 377 c4 -12 17 -40 29 -62 32 -55 59 -125 91 -227 l26 -88 838
0 837 0 -23 103 c-13 56 -28 115 -34 131 -5 16 -8 32 -5 34 11 11 43 -31 55
-71 7 -23 19 -60 26 -82 7 -22 15 -57 19 -78 4 -22 13 -37 21 -37 8 0 14 5 14
11 0 5 -4 8 -8 5 -4 -2 -8 3 -9 12 -5 53 -27 121 -37 115 -7 -4 -7 -2 1 8 7 9
8 20 3 29 -5 8 -6 18 -4 22 3 4 1 8 -5 8 -6 0 -7 7 -4 17 5 11 3 14 -6 8 -10
-6 -11 -2 -6 15 5 15 4 20 -4 16 -6 -4 -11 -2 -11 3 0 15 27 14 33 -2 4 -7 6
-6 6 5 1 19 49 33 83 23 18 -5 20 -4 8 4 -9 6 -10 11 -3 11 6 0 20 3 30 7 15
6 16 5 5 -9 -9 -11 -10 -18 -2 -23 5 -3 10 -1 10 5 0 6 5 8 10 5 6 -3 10 3 10
14 0 22 33 30 44 12 4 -5 -3 -7 -14 -4 -15 4 -20 0 -20 -15 0 -11 7 -23 16
-26 21 -8 24 -8 24 4 0 6 -7 10 -15 10 -8 0 -15 4 -15 10 0 6 9 6 26 0 33 -13
61 5 43 26 -14 17 3 18 20 1 10 -10 11 -9 6 4 -4 10 -2 20 4 24 6 3 11 -2 11
-12 0 -13 3 -14 8 -5 9 13 64 32 95 32 10 0 15 -4 12 -10 -3 -5 -2 -10 3 -10
6 0 12 6 15 13 3 7 23 14 45 15 l40 3 -19 -83 c-10 -46 -19 -100 -19 -120 0
-21 -4 -38 -9 -38 -4 0 -42 -25 -85 -55 -78 -56 -97 -63 -48 -18 l27 25 -29
-17 c-26 -16 -28 -16 -23 -1 4 9 3 16 -1 17 -4 1 -23 2 -42 4 -55 4 -56 5 -40
15 8 5 10 10 4 10 -6 0 -13 -3 -17 -6 -7 -8 13 -54 25 -54 4 0 8 -5 8 -11 0
-8 -5 -8 -15 1 -13 11 -15 9 -13 -10 2 -17 -2 -23 -19 -25 -12 -1 -20 2 -17 7
3 4 1 8 -5 8 -6 0 -8 6 -5 14 3 7 -2 16 -11 20 -13 4 -15 1 -10 -13 4 -13 0
-23 -12 -30 -10 -5 -15 -12 -12 -16 4 -3 14 1 23 10 14 15 16 15 16 1 0 -18
46 -19 69 -2 11 8 13 8 7 -1 -6 -10 155 -13 788 -13 l795 0 -6 82 c-5 68 -4
80 8 73 8 -4 5 1 -7 12 -11 11 -31 24 -45 28 -13 4 -31 13 -39 20 -23 18 -235
135 -246 135 -5 0 -26 11 -46 25 -34 23 -45 25 -155 24 -75 0 -111 -4 -98 -9
18 -8 17 -9 -8 -9 -16 -1 -26 3 -22 9 4 6 -23 10 -75 10 -63 0 -82 -3 -87 -15
-5 -14 -8 -14 -29 0 -29 19 -99 21 -88 3 6 -10 4 -10 -7 -2 -9 7 -104 11 -286
12 -228 1 -272 -1 -277 -14 -3 -7 -13 -13 -23 -13 -17 1 -17 2 0 6 9 2 17 9
17 14 0 14 -58 11 -63 -3 -4 -10 -6 -10 -6 0 -1 6 -10 12 -20 12 -11 0 -26 -6
-33 -12 -7 -7 -17 -13 -23 -14 -24 -1 -65 -17 -65 -25 0 -5 -6 -9 -14 -9 -8 0
-22 -7 -30 -16 -9 -8 -16 -13 -16 -10 0 7 -74 -25 -80 -35 -4 -5 -58 20 -122
56 l-116 65 -346 -1 c-323 0 -349 -1 -391 -20 -35 -15 -49 -17 -63 -9 -15 10
-15 10 4 5 11 -3 28 1 38 8 16 12 16 13 -4 14 -11 1 -18 -2 -15 -8 8 -11 3
-11 -28 0 -22 8 -24 7 -20 -10 3 -10 10 -19 17 -20 6 0 -22 -16 -62 -34 -40
-19 -94 -49 -118 -66 -25 -17 -52 -32 -61 -33 -8 -1 -18 -9 -23 -16 -6 -10
-14 -11 -28 -4 -19 8 -19 10 -4 24 14 13 15 12 9 -3 -8 -21 6 -22 23 -2 7 8
16 13 20 10 4 -2 16 3 26 11 19 15 19 15 -1 10 -13 -4 -9 2 13 19 39 32 40 40
7 41 -22 2 -25 -1 -19 -20 5 -20 5 -20 -11 3 -15 19 -15 25 -4 32 8 4 19 3 26
-3 8 -7 13 -7 13 0 0 5 9 12 19 15 15 3 18 1 14 -11 -4 -10 -2 -13 5 -8 7 4
12 1 12 -8 0 -22 16 -20 40 4 12 12 25 18 29 15 5 -2 12 2 15 11 4 10 13 13
28 9 16 -4 19 -3 10 3 -8 5 -13 12 -13 16 3 20 -1 26 -16 26 -15 0 -14 -2 3
-15 26 -19 -3 -21 -31 -1 -15 10 -73 14 -249 15 -203 2 -230 0 -247 -15 -16
-15 -19 -15 -19 -2 0 12 -15 15 -75 16 -74 1 -76 0 -69 -21z m544 -7 c24 13
30 13 30 0 0 -5 -7 -10 -15 -10 -8 0 -15 -5 -15 -10 0 -7 -6 -7 -20 0 -11 6
-20 18 -20 28 1 16 1 16 11 -1 8 -13 14 -15 29 -7z m105 10 c3 -5 1 -10 -4
-10 -6 0 -11 5 -11 10 0 6 2 10 4 10 3 0 8 -4 11 -10z m2488 3 c-18 -2 -48 -2
-65 0 -18 2 -4 4 32 4 36 0 50 -2 33 -4z m-2073 -7 c0 -3 -4 -8 -10 -11 -5 -3
-10 -1 -10 4 0 6 5 11 10 11 6 0 10 -2 10 -4z m1584 -12 c34 -4 52 -10 45 -15
-7 -4 -17 -5 -23 -2 -5 3 -6 1 -3 -5 4 -5 16 -8 27 -5 38 10 20 -14 -19 -25
-33 -10 -47 -9 -99 10 -34 12 -59 25 -56 30 3 4 -2 5 -10 2 -8 -3 -21 -2 -28
2 -7 5 -19 9 -26 10 -8 2 -17 6 -20 9 -7 7 107 1 212 -11z m-2037 0 c-3 -3
-12 -4 -19 -1 -8 3 -5 6 6 6 11 1 17 -2 13 -5z m63 1 c0 -8 -62 -37 -67 -31
-4 3 9 12 28 20 39 18 39 17 39 11z m1345 -5 c-3 -5 -12 -10 -18 -10 -7 0 -6
4 3 10 19 12 23 12 15 0z m400 -10 c-2 -4 5 -8 18 -8 12 0 51 -10 87 -22 66
-22 97 -40 70 -40 -8 0 -64 -23 -124 -50 -60 -28 -110 -49 -112 -48 -2 3 24
144 32 170 3 10 11 15 19 11 8 -3 13 -9 10 -13z m355 3 c0 -1 -9 -7 -19 -12
-14 -8 -20 -7 -24 3 -4 10 2 13 19 12 13 0 24 -2 24 -3z m-815 -13 c-3 -5 -11
-10 -16 -10 -6 0 -7 5 -4 10 3 6 11 10 16 10 6 0 7 -4 4 -10z m1051 -26 c-20
-14 -52 -11 -71 8 -6 5 2 5 17 -1 30 -11 58 -5 58 12 0 6 3 7 7 3 5 -4 -1 -14
-11 -22z m115 2 c-19 -7 -37 -18 -39 -24 -5 -15 -22 -16 -22 -2 0 12 57 39 80
39 8 0 0 -6 -19 -13z m-2011 -6 c11 -8 7 -9 -15 -4 -37 8 -45 14 -19 14 10 0
26 -5 34 -10z m1932 -17 c-6 -2 -9 -10 -5 -16 4 -7 0 -8 -11 -4 -10 4 -21 7
-24 8 -10 1 31 18 43 18 6 -1 4 -3 -3 -6z m-1927 -11 c-3 -3 7 -18 22 -34 15
-15 25 -28 22 -28 -3 0 -20 15 -37 33 -22 23 -28 34 -17 34 8 0 13 -3 10 -5z
m40 -10 c-3 -3 -11 0 -18 7 -9 10 -8 11 6 5 10 -3 15 -9 12 -12z m1966 -2 c-5
-8 -6 -21 -4 -28 3 -7 -1 -10 -11 -6 -9 3 -13 11 -9 17 3 5 1 7 -5 4 -12 -8
-42 2 -42 14 0 4 6 6 14 3 8 -3 17 -1 20 5 4 5 15 9 25 8 14 -1 17 -5 12 -17z
m-2644 -6 c-3 -3 -12 -4 -19 -1 -8 3 -5 6 6 6 11 1 17 -2 13 -5z m2688 -8 c6
3 12 -2 12 -10 0 -8 -5 -14 -11 -13 -6 1 -10 -3 -9 -10 2 -7 -4 -10 -12 -6
-12 4 -13 9 -4 19 8 10 8 14 0 14 -6 0 -11 5 -11 12 0 9 3 9 11 1 6 -6 17 -9
24 -7z m-2070 -6 c3 -6 -1 -7 -9 -4 -18 7 -21 14 -7 14 6 0 13 -4 16 -10z
m101 -39 c-4 -5 -1 -12 4 -14 6 -3 5 -4 -2 -3 -15 3 -23 26 -8 26 6 0 9 -4 6
-9z m1628 -16 c3 -8 1 -15 -4 -15 -6 0 -10 7 -10 15 0 8 2 15 4 15 2 0 6 -7
10 -15z m-2384 -9 c0 -2 -7 -7 -16 -10 -8 -3 -12 -2 -9 4 6 10 25 14 25 6z
m2396 -53 c-3 -8 -2 -12 3 -9 5 3 14 -1 21 -9 8 -10 17 -12 24 -6 7 6 16 4 24
-5 8 -8 9 -14 2 -14 -6 0 -4 -10 5 -24 12 -18 13 -26 4 -32 -8 -4 -9 -3 -5 4
10 16 -7 15 -23 -1 -11 -9 -13 -9 -7 1 4 7 2 12 -6 13 -7 0 -4 4 7 9 11 5 14
9 6 9 -11 1 -11 4 0 17 12 15 11 16 -9 10 -13 -5 -22 -3 -22 3 0 6 -5 11 -10
11 -7 0 -7 -7 0 -21 15 -28 -4 -53 -28 -38 -20 13 -27 76 -11 95 14 17 32 7
25 -13z m84 -8 c13 -14 21 -25 18 -25 -2 0 -15 11 -28 25 -13 14 -21 25 -18
25 2 0 15 -11 28 -25z m-181 -29 c-7 -14 -16 -26 -22 -26 -5 0 -7 -6 -4 -13 3
-8 -1 -14 -9 -14 -12 0 -12 4 1 21 8 12 20 31 27 44 16 31 22 21 7 -12z m-644
-36 c-6 -9 -9 -9 -16 1 -10 17 0 34 13 21 6 -6 7 -16 3 -22z m696 -1 c-9 -22
-10 -22 -10 -3 -1 11 2 24 6 27 12 12 14 0 4 -24z m-676 -39 c-3 -5 -12 -10
-18 -10 -7 0 -6 4 3 10 19 12 23 12 15 0z"/>
<path d="M7215 70 c3 -5 8 -10 11 -10 2 0 4 5 4 10 0 6 -5 10 -11 10 -5 0 -7
-4 -4 -10z"/>
<path d="M8920 378 c-1 -16 -4 -32 -5 -38 -1 -5 -3 -28 -4 -50 -1 -27 -5 -40
-15 -40 -11 0 -15 -19 -18 -84 -2 -46 0 -82 5 -79 17 11 5 -16 -18 -37 -14
-13 -25 -27 -25 -31 0 -5 20 11 45 35 40 40 45 49 45 90 0 25 4 46 8 46 4 0
14 16 21 35 11 31 10 38 -8 63 -11 16 -21 48 -24 73 -2 30 -4 35 -7 17z m26
-152 c-12 -23 -14 -24 -18 -8 -3 10 -3 33 0 52 l5 33 13 -26 c12 -21 12 -29 0
-51z"/>
<path d="M10762 384 c14 -15 15 -23 6 -32 -8 -8 -15 -8 -24 -1 -7 6 -25 9 -41
6 -26 -4 -26 -4 5 -6 22 0 32 -5 29 -13 -2 -7 3 -18 11 -24 12 -9 12 -14 1
-32 -16 -26 -28 -27 -76 -7 -42 18 -43 18 -43 6 0 -5 22 -15 49 -22 44 -11 49
-15 40 -31 -5 -10 -22 -19 -37 -19 -19 -1 -21 -3 -8 -6 10 -3 38 0 63 7 25 6
47 9 49 7 2 -1 -31 -39 -72 -83 -42 -43 -73 -70 -69 -59 10 31 -6 9 -27 -37
-18 -40 -12 -35 77 57 56 58 94 91 90 78 -3 -12 -2 -24 3 -27 6 -3 13 -30 16
-60 6 -41 12 -55 26 -59 18 -5 19 0 16 60 -1 35 0 66 4 68 8 5 97 -97 111
-129 7 -14 16 -26 20 -26 5 0 -14 45 -42 101 -28 55 -48 103 -45 107 3 3 32 1
63 -4 56 -9 58 -10 63 -43 7 -45 38 -66 67 -46 12 8 24 29 28 46 7 31 7 31 58
25 58 -7 115 -38 168 -91 11 -11 23 -20 27 -20 4 0 20 -10 36 -23 16 -12 25
-22 20 -22 -5 0 4 -7 20 -15 56 -29 48 -9 -15 41 -79 63 -155 110 -236 148
-57 27 -63 33 -64 60 0 17 -3 24 -6 16 -3 -8 -14 -26 -24 -39 -11 -13 -19 -34
-19 -47 0 -12 -5 -26 -11 -30 -6 -3 -10 1 -9 12 5 47 0 64 -20 64 -12 0 -20
-7 -20 -16 0 -13 -10 -15 -67 -9 -38 4 -71 9 -75 12 -19 11 -5 23 32 29 22 4
37 10 35 15 -3 4 -23 2 -45 -6 -22 -8 -42 -10 -45 -5 -8 14 17 61 31 56 7 -3
10 2 7 14 -7 25 1 27 95 35 l82 8 0 -27 c0 -18 -7 -30 -22 -37 -21 -9 -21 -9
5 -4 21 4 27 2 28 -12 1 -12 3 -9 8 7 8 29 -7 100 -21 100 -5 0 -6 -4 -3 -10
4 -6 -6 -10 -22 -10 -15 0 -52 -3 -81 -7 -48 -5 -52 -4 -46 13 3 10 -5 3 -17
-16 -13 -19 -29 -41 -35 -47 -7 -7 -15 -18 -17 -25 -4 -10 -8 -9 -16 2 -17 23
-9 43 19 51 24 7 24 7 -4 8 l-29 1 19 23 19 22 -26 -23 -26 -22 -29 22 c-25
19 -27 19 -12 2z m23 -75 c10 -30 0 -33 -13 -4 -6 14 -7 25 -2 25 5 0 12 -9
15 -21z m-9 -75 c-11 -8 -27 -14 -35 -14 -20 0 -2 17 24 23 17 4 17 5 -4 6
-20 1 -22 3 -11 17 12 13 15 13 29 -1 15 -15 14 -17 -3 -31z m122 -79 c18 -36
31 -65 29 -65 -1 0 -20 22 -41 50 -21 27 -43 47 -48 44 -6 -4 -5 3 1 15 7 11
15 21 19 21 4 0 22 -30 40 -65z m277 45 c2 -4 -7 -5 -20 -2 -14 2 -25 8 -25
12 0 10 38 1 45 -10z"/>
<path d="M11090 393 c0 -22 22 -83 32 -89 6 -4 9 -1 6 7 -3 8 4 20 16 27 l21
13 -21 -6 c-18 -5 -22 0 -27 25 -4 16 -11 30 -17 30 -5 0 -10 -3 -10 -7z"/>
<path d="M12050 391 c-8 -6 -18 -7 -24 -4 -5 3 -6 2 -3 -4 6 -10 -70 -41 -86
-35 -5 1 -6 -2 -2 -8 3 -5 -3 -10 -14 -10 -12 0 -21 -4 -21 -8 0 -5 -27 -23
-60 -42 -56 -31 -60 -36 -60 -69 0 -34 -14 -140 -25 -188 l-5 -23 879 0 879 0
16 68 c10 37 33 105 52 152 19 46 34 92 34 102 0 10 -15 32 -32 48 l-33 29
-740 1 c-433 0 -746 -4 -755 -9z"/>
<path d="M14279 363 c-19 -22 -24 -29 -9 -18 40 32 53 46 48 50 -2 3 -20 -12
-39 -32z"/>
<path d="M14346 373 c4 -16 17 -48 30 -73 13 -25 44 -101 70 -170 25 -69 47
-126 49 -128 11 -12 -1 61 -16 89 -39 78 -59 143 -46 151 9 6 8 8 -2 8 -8 0
-12 3 -9 6 7 7 -9 68 -29 112 -20 42 -57 46 -47 5z"/>
<path d="M14658 393 c7 -3 16 -2 19 1 4 3 -2 6 -13 5 -11 0 -14 -3 -6 -6z"/>
<path d="M3900 386 c0 -2 9 -6 20 -9 11 -3 20 -1 20 4 0 5 -9 9 -20 9 -11 0
-20 -2 -20 -4z"/>
<path d="M11220 380 c-13 -8 -12 -10 3 -10 9 0 17 5 17 10 0 12 -1 12 -20 0z"/>
<path d="M3975 370 c48 -16 137 -28 127 -18 -6 6 -23 11 -38 13 -16 1 -49 5
-74 9 -39 5 -41 5 -15 -4z"/>
<path d="M3750 366 c0 -2 8 -10 18 -17 15 -13 16 -12 3 4 -13 16 -21 21 -21
13z"/>
<path d="M10488 363 c23 -2 61 -2 85 0 23 2 4 4 -43 4 -47 0 -66 -2 -42 -4z"/>
<path d="M11180 360 c-9 -6 -10 -10 -3 -10 6 0 15 5 18 10 8 12 4 12 -15 0z"/>
<path d="M9298 353 c7 -3 16 -2 19 1 4 3 -2 6 -13 5 -11 0 -14 -3 -6 -6z"/>
<path d="M10390 357 c0 -7 122 -48 127 -43 3 2 -20 12 -49 21 -29 10 -59 20
-65 23 -7 2 -13 2 -13 -1z"/>
<path d="M15700 350 c0 -5 5 -10 11 -10 5 0 7 5 4 10 -3 6 -8 10 -11 10 -2 0
-4 -4 -4 -10z"/>
<path d="M6548 343 c6 -2 18 -2 25 0 6 3 1 5 -13 5 -14 0 -19 -2 -12 -5z"/>
<path d="M3790 336 c0 -2 8 -10 18 -17 15 -13 16 -12 3 4 -13 16 -21 21 -21
13z"/>
<path d="M8975 331 c-3 -5 -1 -12 4 -15 5 -3 7 -25 4 -49 -7 -58 -7 -232 1
-252 3 -9 10 -14 15 -11 11 7 26 119 22 164 -2 23 2 32 13 32 8 0 17 -4 21
-10 3 -5 12 -7 19 -4 8 3 23 -9 36 -30 12 -20 24 -36 26 -36 6 0 -56 111 -73
131 -7 8 -13 21 -13 27 0 7 -4 12 -10 12 -5 0 -10 -7 -10 -15 0 -22 4 -30 13
-27 12 4 8 -16 -5 -21 -7 -3 -1 -6 15 -6 15 -1 27 -5 27 -11 0 -12 0 -12 -37
0 -32 12 -32 11 -17 93 6 35 5 37 -19 37 -14 0 -28 -4 -32 -9z"/>
<path d="M11519 325 c18 -8 41 -15 50 -14 9 0 0 7 -19 14 -47 18 -74 18 -31 0z"/>
<path d="M4180 293 c25 -21 105 -96 179 -168 74 -72 125 -116 113 -99 -27 39
-221 220 -288 269 l-49 36 45 -38z"/>
<path d="M9046 308 c3 -5 10 -6 15 -3 13 9 11 12 -6 12 -8 0 -12 -4 -9 -9z"/>
<path d="M4939 284 l-24 -27 33 17 c18 9 30 21 27 26 -8 13 -8 13 -36 -16z"/>
<path d="M10935 291 c17 -10 34 -16 39 -13 5 2 -6 11 -24 18 -45 19 -51 17
-15 -5z"/>
<path d="M11000 290 c-8 -5 -12 -12 -9 -15 4 -3 12 1 19 10 14 17 11 19 -10 5z"/>
<path d="M11633 290 c21 -14 77 -31 77 -24 0 5 -31 18 -70 28 -22 6 -22 5 -7
-4z"/>
<path d="M6270 279 c0 -5 5 -7 10 -4 6 3 10 8 10 11 0 2 -4 4 -10 4 -5 0 -10
-5 -10 -11z"/>
<path d="M10605 280 c3 -5 8 -10 11 -10 2 0 4 5 4 10 0 6 -5 10 -11 10 -5 0
-7 -4 -4 -10z"/>
<path d="M6336 268 c3 -4 19 -8 35 -8 21 0 28 -4 23 -12 -5 -8 -2 -9 9 -5 10
3 17 2 17 -3 0 -6 4 -10 10 -10 22 0 -4 29 -33 36 -47 11 -67 12 -61 2z"/>
<path d="M6451 250 c14 -38 16 -38 15 0 -1 16 -6 30 -13 30 -9 0 -9 -8 -2 -30z"/>
<path d="M9158 263 c6 -2 18 -2 25 0 6 3 1 5 -13 5 -14 0 -19 -2 -12 -5z"/>
<path d="M11040 260 c8 -5 22 -9 30 -9 10 0 8 3 -5 9 -27 12 -43 12 -25 0z"/>
<path d="M11738 254 c12 -8 19 -20 16 -26 -4 -7 -2 -8 4 -4 7 4 12 9 12 11 0
9 -32 35 -43 35 -6 0 -1 -7 11 -16z"/>
<path d="M8810 256 c0 -2 13 -6 29 -8 17 -2 28 -1 25 4 -5 8 -54 12 -54 4z"/>
<path d="M14129 243 c-13 -16 -12 -17 4 -4 9 7 17 15 17 17 0 8 -8 3 -21 -13z"/>
<path d="M9108 243 c7 -3 16 -2 19 1 4 3 -2 6 -13 5 -11 0 -14 -3 -6 -6z"/>
<path d="M14960 225 c0 -2 48 -37 108 -76 59 -40 109 -75 112 -78 3 -3 14 -12
25 -20 11 -7 1 4 -22 25 -41 37 -223 159 -223 149z"/>
<path d="M6435 209 c-4 -6 -5 -12 -2 -15 2 -3 7 2 10 11 7 17 1 20 -8 4z"/>
<path d="M10387 172 c-86 -47 -242 -160 -233 -170 3 -2 25 12 49 32 24 20 46
36 49 36 3 0 19 12 36 28 48 44 91 59 202 73 58 6 100 14 94 16 -6 2 -44 0
-85 -5 -41 -5 -76 -8 -78 -6 -2 2 16 13 40 24 24 11 37 19 29 19 -8 0 -55 -21
-103 -47z"/>
<path d="M9337 189 c7 -7 15 -10 18 -7 3 3 -2 9 -12 12 -14 6 -15 5 -6 -5z"/>
<path d="M10613 193 c9 -2 23 -2 30 0 6 3 -1 5 -18 5 -16 0 -22 -2 -12 -5z"/>
<path d="M10692 178 c-14 -18 -43 -78 -38 -78 2 0 16 20 29 45 25 45 29 57 9
33z"/>
<path d="M8828 173 c7 -3 16 -2 19 1 4 3 -2 6 -13 5 -11 0 -14 -3 -6 -6z"/>
<path d="M9178 173 c6 -2 18 -2 25 0 6 3 1 5 -13 5 -14 0 -19 -2 -12 -5z"/>
<path d="M9925 170 c-3 -6 1 -7 9 -4 18 7 21 14 7 14 -6 0 -13 -4 -16 -10z"/>
<path d="M9238 163 c6 -2 18 -2 25 0 6 3 1 5 -13 5 -14 0 -19 -2 -12 -5z"/>
<path d="M8600 150 c-8 -5 -10 -10 -5 -10 6 0 17 5 25 10 8 5 11 10 5 10 -5 0
-17 -5 -25 -10z"/>
<path d="M9398 153 c7 -3 16 -2 19 1 4 3 -2 6 -13 5 -11 0 -14 -3 -6 -6z"/>
<path d="M6625 130 c-3 -5 -1 -10 4 -10 6 0 11 5 11 10 0 6 -2 10 -4 10 -3 0
-8 -4 -11 -10z"/>
<path d="M6596 103 c-6 -14 -5 -15 5 -6 7 7 10 15 7 18 -3 3 -9 -2 -12 -12z"/>
<path d="M8510 99 c-22 -18 -22 -19 -3 -10 12 6 25 16 28 21 9 15 3 12 -25
-11z"/>
<path d="M9495 103 c26 -24 88 -65 73 -47 -9 10 -32 28 -50 38 -18 10 -28 15
-23 9z"/>
<path d="M6260 83 c1 -28 26 -68 34 -54 4 6 2 11 -3 11 -6 0 -11 5 -11 11 0 6
7 9 15 5 8 -3 15 -1 15 4 0 9 -14 14 -32 11 -4 0 -5 6 -2 14 4 8 1 15 -5 15
-6 0 -11 -8 -11 -17z"/>
<path d="M9150 57 c41 -43 68 -65 41 -34 -6 8 -9 17 -6 20 3 4 2 5 -2 2 -4 -3
-23 9 -42 27 -24 22 -21 17 9 -15z"/>
<path d="M6406 64 c-6 -16 0 -34 12 -34 4 0 7 11 7 25 0 28 -10 33 -19 9z"/>
<path d="M8459 63 c-13 -16 -12 -17 4 -4 9 7 17 15 17 17 0 8 -8 3 -21 -13z"/>
<path d="M11371 65 c25 -55 34 -65 58 -64 l26 1 -27 10 c-16 5 -28 15 -28 23
0 7 -7 19 -17 26 -9 8 -14 10 -12 4z"/>
<path d="M8405 24 c-19 -15 -22 -21 -9 -15 18 9 52 41 43 41 -2 0 -17 -12 -34
-26z"/>
<path d="M9607 19 c12 -12 25 -20 28 -17 3 3 -7 13 -22 23 l-28 17 22 -23z"/>
<path d="M10820 10 c0 -5 7 -10 16 -10 8 0 12 5 9 10 -3 6 -10 10 -16 10 -5 0
-9 -4 -9 -10z"/>
</g>
</svg>
