<?xml version="1.0" standalone="no"?>
<!DOCTYPE svg PUBLIC "-//W3C//DTD SVG 20010904//EN"
 "http://www.w3.org/TR/2001/REC-SVG-20010904/DTD/svg10.dtd">
<svg version="1.0" xmlns="http://www.w3.org/2000/svg"
 width="1908.000000pt" height="942.000000pt" viewBox="0 0 1908.000000 942.000000"
 preserveAspectRatio="xMidYMid meet">

<g transform="translate(0.000000,942.000000) scale(0.100000,-0.100000)"
fill="#000000" stroke="none">
<path d="M0 9075 l0 -345 8375 0 8375 0 0 270 0 270 620 0 619 0 48 30 c55 35
102 50 158 50 56 0 103 -15 158 -50 46 -29 51 -30 172 -30 l125 0 0 -270 0
-270 170 0 170 0 0 345 0 345 -9495 0 -9495 0 0 -345z m2962 138 c24 -21 23
-74 -2 -155 -33 -106 -24 -125 30 -60 17 20 36 54 42 75 10 35 30 48 42 29 3
-5 -4 -32 -14 -61 -24 -61 -25 -81 -5 -81 22 0 82 88 102 148 14 44 15 57 4
74 -17 27 1 47 25 27 52 -43 -73 -269 -150 -269 -14 0 -29 7 -32 15 -5 13 -8
13 -27 0 -28 -20 -66 -19 -74 1 -3 8 4 48 16 89 24 84 28 165 8 165 -22 0 -37
-22 -37 -53 0 -25 -2 -28 -15 -17 -23 19 -18 46 11 69 32 25 51 26 76 4z m538
-40 c0 -5 -9 -21 -20 -38 -26 -39 -25 -45 5 -45 14 0 25 -4 25 -10 0 -5 -15
-10 -34 -10 -22 0 -36 -6 -40 -16 -7 -18 -8 -84 -2 -84 20 0 42 21 71 66 33
52 70 75 94 59 30 -18 1 -64 -51 -84 -19 -7 -26 -15 -22 -26 10 -24 43 -17 76
15 38 39 48 33 13 -8 -32 -38 -69 -48 -101 -27 -22 14 -27 14 -46 0 -28 -19
-43 -19 -63 1 -12 13 -19 14 -28 5 -14 -14 -50 -14 -63 -1 -6 6 -21 6 -42 -2
-46 -18 -61 -1 -43 48 17 46 0 69 -19 25 -20 -49 -29 -36 -11 17 15 42 30 64
32 45 0 -5 10 -18 22 -31 19 -20 20 -26 9 -54 -24 -66 21 -45 57 25 13 26 30
47 38 47 17 0 16 -20 -2 -44 -20 -26 -19 -66 0 -66 20 0 47 43 49 77 0 16 8
35 16 44 8 9 23 30 32 47 15 28 48 45 48 25z m390 -4 c0 -7 -9 -27 -21 -45
l-21 -34 31 0 c17 0 31 -4 31 -10 0 -5 -16 -10 -35 -10 -39 0 -46 -10 -49 -61
-2 -43 18 -47 54 -11 16 17 30 26 30 20 0 -17 -58 -68 -78 -68 -11 0 -25 6
-31 14 -9 11 -18 12 -41 3 -38 -14 -62 4 -53 42 10 43 33 81 48 81 19 0 19
-19 0 -44 -20 -26 -19 -66 0 -66 21 0 46 43 47 79 1 17 5 31 9 31 4 0 10 9 14
19 13 43 65 90 65 60z m-3390 -16 c0 -4 -12 -20 -27 -35 l-27 -28 67 0 c53 0
67 -3 67 -15 0 -12 -14 -15 -67 -15 l-67 0 27 -28 c29 -31 33 -42 15 -42 -15
0 -88 70 -88 84 0 15 72 86 87 86 7 0 13 -3 13 -7z m2906 -4 c9 -16 -12 -33
-31 -25 -14 5 -15 9 -5 21 15 18 26 19 36 4z m399 -10 c0 -8 -10 -15 -22 -17
-25 -4 -33 22 -10 31 18 8 32 2 32 -14z m11955 -14 c0 -33 2 -35 35 -35 24 0
35 -5 35 -15 0 -10 -11 -15 -35 -15 -33 0 -35 -2 -35 -35 0 -24 -5 -35 -15
-35 -10 0 -15 11 -15 35 0 33 -2 35 -35 35 -24 0 -35 5 -35 15 0 10 11 15 35
15 33 0 35 2 35 35 0 24 5 35 15 35 10 0 15 -11 15 -35z m-12090 -140 c0 -8
-9 -15 -20 -15 -20 0 -26 11 -13 23 12 13 33 7 33 -8z"/>
<path d="M3558 9063 c-25 -30 -33 -47 -17 -38 24 14 49 38 49 47 0 14 -16 9
-32 -9z"/>
<path d="M19062 9348 c-6 -6 -12 -19 -12 -27 0 -13 2 -13 16 1 9 9 15 21 13
27 -3 9 -8 8 -17 -1z"/>
<path d="M18136 9282 c-2 -4 22 -7 54 -7 32 0 56 3 54 7 -3 5 -27 8 -54 8 -27
0 -51 -3 -54 -8z"/>
<path d="M4800 8223 c-49 -7 -110 -26 -110 -34 0 -17 19 -18 55 -3 45 18 47
34 -24 -152 -63 -163 -71 -208 -43 -223 22 -12 28 1 63 143 l12 49 69 -7 c95
-9 128 -27 128 -70 0 -73 -87 -125 -228 -135 l-82 -6 15 -22 c13 -19 26 -23
65 -23 63 0 161 31 205 65 90 68 83 167 -15 196 l-39 12 42 21 c61 31 83 66
71 113 -6 25 -18 42 -39 54 -31 17 -102 28 -145 22z m118 -39 c35 -24 31 -85
-8 -118 -17 -14 -47 -30 -68 -36 -38 -10 -82 -13 -82 -6 0 3 14 43 31 90 l31
86 37 0 c20 0 47 -7 59 -16z"/>
<path d="M5171 8199 c-43 -45 -127 -217 -148 -302 -16 -62 -16 -70 -2 -95 20
-34 69 -35 105 -1 l25 23 5 -22 c11 -41 67 -40 114 3 14 13 42 25 63 27 33 4
40 1 47 -18 16 -41 56 -44 99 -8 23 19 31 22 31 11 0 -32 -14 -48 -62 -74 -57
-31 -84 -72 -68 -103 24 -44 93 -3 135 79 14 28 39 58 62 73 l38 25 23 -29
c25 -29 71 -38 102 -18 52 32 120 95 120 110 0 6 -12 -2 -26 -19 -14 -17 -29
-31 -32 -31 -8 0 -43 130 -47 169 -2 30 -23 39 -31 14 -18 -56 -30 -75 -70
-117 -24 -26 -44 -50 -44 -55 0 -10 -50 -45 -56 -39 -2 2 3 24 10 48 29 98 29
102 5 98 -15 -2 -26 -14 -32 -33 -5 -16 -23 -45 -40 -62 -54 -57 -94 -36 -62
31 25 52 69 86 112 86 42 0 41 23 -1 28 -48 6 -114 -35 -152 -94 -23 -35 -41
-54 -54 -54 -24 0 -24 3 -4 41 20 40 15 103 -9 107 -33 6 -63 -7 -75 -33 -6
-14 -20 -25 -30 -25 -23 0 -44 -23 -67 -73 -20 -43 -57 -72 -80 -63 -10 3 -15
19 -15 44 0 31 8 47 45 87 50 56 113 172 121 225 3 22 0 42 -9 54 -14 19 -16
19 -46 -15z m3 -109 c-31 -69 -100 -171 -89 -130 9 29 70 153 93 189 27 41 25
5 -4 -59z m154 -138 c4 -26 -25 -85 -38 -77 -14 9 -12 79 2 93 17 17 32 10 36
-16z m408 -69 c7 -60 0 -66 -41 -30 l-27 23 24 36 c12 20 26 33 30 30 4 -4 10
-31 14 -59z m-469 -24 c12 -15 11 -19 -13 -38 -50 -39 -67 -8 -38 67 l17 47
10 -30 c5 -17 16 -37 24 -46z m427 -30 c38 -22 39 -39 2 -39 -27 0 -46 18 -46
42 0 23 1 22 44 -3z m-233 -131 c-22 -36 -47 -56 -56 -46 -12 12 5 43 32 60
41 26 47 22 24 -14z"/>
<path d="M3018 8204 c-54 -29 -73 -105 -42 -165 8 -17 14 -32 12 -32 -109 -54
-138 -86 -138 -156 0 -64 40 -103 113 -109 90 -7 143 31 230 168 27 42 47 45
59 8 8 -23 3 -34 -36 -83 -25 -31 -46 -60 -46 -65 0 -21 20 -9 51 30 36 44 49
50 49 20 0 -11 11 -27 24 -35 26 -17 49 -11 89 23 23 20 22 8 -9 -89 -18 -59
-23 -84 -15 -92 21 -21 41 17 67 123 29 117 40 144 79 183 48 48 93 27 81 -37
-8 -43 -53 -87 -103 -102 -30 -9 -34 -13 -20 -19 54 -22 145 38 167 110 29 99
-58 147 -136 74 -21 -19 -21 -19 -16 10 3 22 -1 32 -16 40 -26 14 -29 9 -41
-67 -11 -70 -19 -88 -55 -121 -23 -22 -28 -23 -40 -10 -7 8 -16 31 -19 51 -5
34 -2 40 39 78 24 22 44 43 44 45 0 15 -30 1 -55 -25 -34 -35 -41 -37 -50 -11
-7 23 -37 35 -65 26 -11 -3 -38 -37 -60 -75 -45 -78 -85 -115 -137 -129 -67
-19 -122 33 -108 100 9 42 69 106 105 114 l29 6 -19 37 c-30 55 -24 117 15
155 21 22 81 22 89 1 9 -25 8 -31 -20 -63 -14 -17 -23 -38 -20 -46 12 -32 43
-11 61 41 13 40 6 81 -18 96 -20 13 -90 8 -119 -8z"/>
<path d="M3800 8178 c-103 -141 -169 -348 -124 -392 22 -22 45 -20 87 8 35 24
36 24 42 5 13 -41 97 -27 128 21 8 14 23 20 50 20 46 0 91 41 102 91 7 32 22
34 39 6 8 -12 7 -26 -3 -49 -19 -46 -23 -81 -12 -97 14 -22 68 -17 102 9 25
18 33 20 40 9 5 -8 9 -17 9 -21 0 -16 64 -28 102 -17 43 11 118 79 118 106 0
12 -9 6 -31 -20 -49 -59 -117 -85 -147 -55 -24 24 -13 45 28 57 61 18 110 66
110 106 0 90 -140 28 -186 -81 -15 -35 -70 -87 -88 -81 -13 5 -12 27 6 85 13
44 13 44 -22 75 -19 17 -34 36 -32 41 2 5 0 16 -3 24 -9 24 -35 -6 -35 -42 -1
-49 -35 -114 -64 -122 -34 -8 -49 3 -42 35 20 94 20 90 -10 101 -43 17 -110
-29 -147 -100 -47 -91 -85 -121 -106 -82 -16 30 0 75 46 126 61 68 115 182
111 232 -4 55 -29 56 -68 2z m41 -35 c-11 -39 -66 -143 -91 -173 l-21 -25 7
25 c13 50 96 200 109 200 2 0 0 -12 -4 -27z m569 -181 c0 -10 -10 -28 -22 -40
-26 -23 -80 -53 -86 -47 -2 2 6 20 18 39 35 58 90 87 90 48z m-495 -61 c0 -43
-5 -64 -19 -80 -39 -43 -66 -14 -41 45 13 31 52 94 59 94 1 0 2 -27 1 -59z"/>
<path d="M4630 7427 c-65 -34 -90 -88 -90 -192 0 -104 25 -158 90 -192 l43
-23 602 0 602 0 43 23 c65 34 90 88 90 192 0 104 -25 158 -90 192 l-43 23
-602 0 -602 0 -43 -23z m1296 -13 c61 -45 69 -67 69 -179 0 -112 -8 -134 -69
-179 -27 -21 -37 -21 -651 -21 -614 0 -624 0 -651 21 -54 40 -68 70 -72 150
-5 96 3 136 35 175 51 60 31 59 700 56 600 -2 612 -2 639 -23z"/>
<path d="M5660 7300 c0 -5 5 -10 10 -10 6 0 10 5 10 10 0 6 -4 10 -10 10 -5 0
-10 -4 -10 -10z"/>
<path d="M4620 7178 c0 -45 4 -78 10 -78 6 0 10 13 10 29 0 25 3 28 25 23 34
-6 55 14 55 53 0 41 -15 54 -62 52 l-38 -1 0 -78z m83 42 c7 -26 -15 -53 -39
-48 -25 4 -31 48 -9 64 21 16 41 9 48 -16z"/>
<path d="M4750 7203 c0 -29 5 -53 10 -53 6 0 10 18 10 41 0 32 4 42 20 46 30
8 24 22 -10 21 -29 -1 -30 -2 -30 -55z"/>
<path d="M4837 7242 c-22 -24 -21 -55 1 -75 36 -33 92 -8 92 41 0 47 -61 69
-93 34z m73 -37 c0 -29 -28 -47 -53 -34 -40 23 -6 90 35 68 10 -5 18 -21 18
-34z"/>
<path d="M4965 7244 c-19 -20 -19 -68 0 -84 8 -7 26 -10 40 -7 20 3 25 1 23
-12 -2 -10 -15 -17 -36 -19 -36 -4 -34 -22 3 -22 40 0 55 25 55 94 l0 63 -35
1 c-19 1 -41 -5 -50 -14z m60 -39 c0 -25 -4 -30 -25 -30 -16 0 -26 6 -28 18
-6 30 6 49 30 45 18 -2 23 -9 23 -33z"/>
<path d="M5092 7205 c0 -55 1 -57 8 -21 4 22 16 45 25 53 10 7 16 16 12 19 -4
4 -13 2 -21 -5 -11 -9 -15 -9 -19 1 -3 7 -5 -14 -5 -47z"/>
<path d="M5175 7251 c-4 -7 4 -11 19 -11 35 0 33 -13 -5 -27 -24 -9 -30 -17
-27 -35 2 -19 9 -23 41 -23 l38 -1 -3 51 c-3 46 -5 50 -30 53 -14 2 -29 -2
-33 -7z m45 -65 c0 -19 -26 -27 -39 -12 -13 15 -4 26 21 26 10 0 18 -6 18 -14z"/>
<path d="M5281 7200 c1 -58 4 -58 14 3 4 28 11 37 25 37 19 0 24 -10 33 -70 4
-21 5 -20 6 7 2 45 11 63 32 63 18 0 22 -9 33 -70 2 -14 3 0 2 30 l-1 55 -72
0 -73 1 1 -56z"/>
<path d="M5471 7200 c1 -58 4 -58 14 3 4 28 11 37 25 37 19 0 24 -10 33 -70 4
-21 5 -20 6 7 2 45 11 63 32 63 18 0 22 -9 33 -70 2 -14 3 0 2 30 l-1 55 -72
0 -73 1 1 -56z"/>
<path d="M5663 7205 c0 -33 2 -45 4 -27 2 18 2 45 0 60 -2 15 -4 0 -4 -33z"/>
<path d="M5710 7203 c0 -63 17 -72 22 -10 2 35 7 43 25 45 23 3 25 -2 37 -68
2 -14 3 0 2 30 l-1 55 -42 1 -43 1 0 -54z"/>
<path d="M5842 7248 c-17 -17 -15 -73 3 -88 9 -7 25 -10 41 -6 21 6 25 4 22
-11 -3 -13 -13 -18 -41 -18 -44 0 -44 -19 0 -23 43 -4 63 27 63 99 l0 56 -38
1 c-21 1 -44 -4 -50 -10z m66 -40 c4 -36 -29 -56 -53 -32 -9 9 -14 23 -11 31
3 8 6 19 6 24 0 6 12 9 28 7 21 -2 28 -9 30 -30z"/>
<path d="M6180 7427 c-65 -34 -90 -88 -90 -192 0 -104 25 -158 90 -192 43 -23
45 -23 435 -23 390 0 392 0 435 23 65 34 90 88 90 192 0 104 -25 158 -90 192
-43 23 -45 23 -435 23 -390 0 -392 0 -435 -23z m876 -13 c61 -45 69 -67 69
-179 0 -112 -8 -134 -69 -179 -27 -20 -39 -21 -441 -21 -402 0 -414 1 -441 21
-54 40 -68 70 -72 150 -5 96 3 136 35 175 50 59 50 59 490 56 388 -2 402 -3
429 -23z"/>
<path d="M6170 7300 c0 -5 5 -10 10 -10 6 0 10 5 10 10 0 6 -4 10 -10 10 -5 0
-10 -4 -10 -10z"/>
<path d="M6830 7300 c0 -5 5 -10 10 -10 6 0 10 5 10 10 0 6 -4 10 -10 10 -5 0
-10 -4 -10 -10z"/>
<path d="M7020 7276 c0 -8 -6 -17 -12 -20 -10 -5 -10 -7 0 -12 6 -3 12 -23 12
-45 0 -42 21 -62 43 -40 8 8 7 11 -6 11 -23 0 -23 58 1 76 16 13 16 13 0 14
-10 0 -18 7 -18 15 0 8 -4 15 -10 15 -5 0 -10 -6 -10 -14z"/>
<path d="M6170 7190 c0 -63 -2 -70 -20 -70 -11 0 -20 -4 -20 -10 0 -14 33 -13
48 2 15 15 16 148 2 148 -6 0 -10 -30 -10 -70z"/>
<path d="M6237 7253 c-14 -13 -6 -23 11 -14 11 6 24 6 32 1 17 -10 15 -13 -25
-26 -23 -7 -30 -16 -30 -34 0 -22 4 -25 43 -26 l42 -2 0 42 c0 23 -5 47 -12
54 -13 13 -50 16 -61 5z m50 -68 c-8 -19 -47 -20 -47 -1 0 8 10 16 23 18 28 5
31 3 24 -17z"/>
<path d="M6330 7251 c0 -20 40 -101 50 -101 5 0 10 2 10 5 0 2 9 27 20 56 13
32 16 49 8 47 -6 -2 -16 -18 -22 -35 -17 -48 -24 -49 -37 -4 -11 36 -29 56
-29 32z"/>
<path d="M6457 7253 c-14 -14 -6 -23 11 -14 13 7 23 6 30 -1 9 -9 4 -15 -21
-22 -25 -9 -32 -17 -32 -36 0 -23 4 -25 43 -26 41 -1 42 0 42 33 0 19 -5 43
-10 54 -10 18 -50 26 -63 12z m51 -65 c-7 -20 -48 -23 -48 -4 0 11 9 16 26 16
16 0 24 -5 22 -12z"/>
<path d="M6559 7244 c-11 -14 -8 -20 21 -45 35 -28 31 -34 -15 -29 -15 1 -17
-1 -9 -10 19 -19 59 -8 62 17 3 17 -3 26 -22 33 -33 12 -34 30 -1 30 14 0 25
5 25 10 0 16 -46 11 -61 -6z"/>
<path d="M6672 7253 c-25 -10 -34 -53 -17 -79 16 -25 58 -33 70 -14 4 6 -6 10
-24 10 -20 0 -32 6 -36 19 -9 31 5 51 36 51 16 0 29 5 29 10 0 10 -35 12 -58
3z"/>
<path d="M6750 7205 c0 -65 16 -74 22 -12 5 46 1 67 -13 67 -5 0 -9 -25 -9
-55z"/>
<path d="M6785 7250 c-3 -5 1 -10 9 -10 9 0 16 5 16 10 0 6 -4 10 -9 10 -6 0
-13 -4 -16 -10z"/>
<path d="M6830 7205 c0 -30 5 -55 10 -55 6 0 10 25 10 55 0 30 -4 55 -10 55
-5 0 -10 -25 -10 -55z"/>
<path d="M6880 7180 c0 -47 4 -80 10 -80 6 0 10 13 10 30 0 27 2 29 28 24 36
-7 54 14 50 57 -4 40 -30 59 -58 41 -12 -7 -20 -8 -20 -2 0 5 -4 10 -10 10 -6
0 -10 -33 -10 -80z m85 41 c10 -31 -5 -52 -34 -49 -26 3 -38 26 -27 54 8 21
53 18 61 -5z"/>
<path d="M7300 7427 c-65 -34 -90 -88 -90 -192 0 -150 62 -215 205 -215 143 0
205 65 205 215 0 150 -62 215 -205 215 -56 0 -82 -5 -115 -23z m236 -13 c61
-45 69 -67 69 -179 0 -89 -3 -107 -21 -131 -44 -59 -68 -69 -169 -69 -101 0
-125 10 -169 69 -22 29 -34 145 -22 211 8 42 49 93 91 111 47 22 186 15 221
-12z"/>
<path d="M7520 7235 c0 -50 4 -85 10 -85 6 0 10 35 10 85 0 50 -4 85 -10 85
-6 0 -10 -35 -10 -85z"/>
<path d="M7299 7244 c-11 -14 -8 -20 21 -45 35 -28 31 -34 -15 -29 -15 1 -17
-1 -9 -10 19 -19 59 -8 62 17 3 17 -3 26 -22 33 -33 12 -34 30 -1 30 14 0 25
5 25 10 0 16 -46 11 -61 -6z"/>
<path d="M7403 7247 c-21 -26 -23 -50 -7 -74 13 -20 21 -24 45 -19 27 5 29 3
29 -24 0 -17 5 -30 10 -30 6 0 10 33 10 78 l0 79 -39 1 c-21 1 -43 -4 -48 -11z
m67 -37 c0 -16 -24 -50 -35 -50 -2 0 -11 7 -19 16 -20 20 -20 38 0 58 19 20
54 5 54 -24z"/>
<path d="M7790 7427 c-65 -34 -90 -88 -90 -192 0 -104 25 -158 90 -192 42 -22
50 -23 320 -23 270 0 278 1 320 23 65 34 90 88 90 192 0 104 -25 158 -90 192
-42 22 -50 23 -320 23 -270 0 -278 -1 -320 -23z m646 -13 c61 -45 69 -67 69
-179 0 -112 -8 -134 -69 -179 -26 -20 -40 -21 -326 -21 -286 0 -300 1 -326 21
-54 40 -68 70 -72 150 -5 96 3 136 35 175 49 57 60 59 375 56 272 -2 288 -3
314 -23z"/>
<path d="M8102 7235 c0 -92 2 -98 13 -32 5 32 10 38 28 35 18 -2 23 -11 25
-45 4 -56 22 -55 22 1 0 50 -18 71 -54 62 -23 -6 -25 -3 -29 31 -2 21 -4 -2
-5 -52z"/>
<path d="M8030 7276 c0 -8 -6 -17 -12 -20 -10 -5 -10 -7 0 -12 6 -3 12 -23 12
-45 0 -38 21 -62 38 -44 4 4 1 10 -5 12 -7 3 -13 20 -13 38 0 18 6 36 13 39
10 5 10 7 0 12 -7 3 -13 12 -13 20 0 8 -4 14 -10 14 -5 0 -10 -6 -10 -14z"/>
<path d="M7780 7180 c0 -47 4 -80 10 -80 6 0 10 13 10 30 0 27 2 29 28 24 36
-7 54 14 50 57 -4 40 -30 59 -58 41 -12 -7 -20 -8 -20 -2 0 5 -4 10 -10 10 -6
0 -10 -33 -10 -80z m85 41 c10 -31 -5 -52 -34 -49 -26 3 -38 26 -27 54 8 21
53 18 61 -5z"/>
<path d="M7900 7255 c0 -2 9 -27 20 -54 20 -52 18 -81 -6 -81 -8 0 -14 -4 -14
-10 0 -14 26 -12 39 3 16 21 62 147 52 147 -4 0 -16 -19 -25 -42 l-18 -43 -15
43 c-8 23 -19 42 -24 42 -5 0 -9 -2 -9 -5z"/>
<path d="M8233 7248 c-21 -27 -23 -51 -8 -74 17 -26 44 -30 76 -14 22 12 27
68 7 88 -16 16 -63 15 -75 0z m62 -43 c0 -25 -4 -31 -26 -33 -29 -3 -44 18
-33 50 4 14 13 18 32 16 23 -2 27 -8 27 -33z"/>
<path d="M8350 7203 c0 -29 5 -53 10 -53 6 0 10 20 10 45 0 41 2 45 25 45 23
0 25 -4 25 -45 0 -25 5 -45 10 -45 15 0 12 86 -3 98 -7 6 -27 10 -45 10 -32
-1 -32 -1 -32 -55z"/>
<path d="M8690 7427 c-65 -34 -90 -88 -90 -192 0 -104 25 -158 90 -192 l43
-23 512 0 512 0 43 23 c65 34 90 88 90 192 0 104 -25 158 -90 192 l-43 23
-512 0 -512 0 -43 -23z m1116 -13 c61 -45 69 -67 69 -179 0 -112 -8 -134 -69
-179 -27 -21 -38 -21 -561 -21 -523 0 -534 0 -561 21 -54 40 -68 70 -72 150
-5 96 3 136 35 175 51 60 39 59 610 56 509 -2 522 -2 549 -23z"/>
<path d="M9100 7287 c0 -30 -2 -32 -32 -32 -26 0 -35 -6 -46 -28 -12 -24 -11
-31 2 -52 13 -19 24 -24 56 -22 l40 1 0 83 c0 49 -4 83 -10 83 -5 0 -10 -15
-10 -33z m-2 -73 c4 -26 -23 -55 -43 -48 -18 7 -27 32 -19 56 8 27 58 21 62
-8z"/>
<path d="M9450 7300 c0 -5 5 -10 10 -10 6 0 10 5 10 10 0 6 -4 10 -10 10 -5 0
-10 -4 -10 -10z"/>
<path d="M9610 7300 c0 -5 5 -10 10 -10 6 0 10 5 10 10 0 6 -4 10 -10 10 -5 0
-10 -4 -10 -10z"/>
<path d="M9378 7271 c-9 -10 -12 -23 -8 -27 5 -5 10 -27 12 -49 2 -33 7 -41
26 -43 12 -2 22 1 22 7 0 6 -7 11 -15 11 -10 0 -15 11 -15 35 0 24 5 35 15 35
8 0 15 5 15 10 0 6 -6 10 -14 10 -8 0 -16 7 -18 15 -2 13 -6 13 -20 -4z"/>
<path d="M9670 7276 c0 -8 -6 -17 -12 -20 -10 -5 -10 -7 0 -12 6 -3 12 -23 12
-45 0 -42 21 -62 43 -40 8 8 7 11 -6 11 -13 0 -17 9 -17 34 0 29 13 46 35 46
2 0 12 -25 22 -56 17 -54 17 -57 -2 -70 -10 -8 -16 -17 -12 -20 15 -16 35 9
61 75 31 78 28 111 -3 40 l-19 -44 -11 30 c-6 17 -14 36 -16 43 -2 6 -16 12
-30 12 -16 0 -25 6 -25 15 0 8 -4 15 -10 15 -5 0 -10 -6 -10 -14z"/>
<path d="M8680 7180 c0 -47 4 -80 10 -80 6 0 10 13 10 30 0 27 2 29 28 24 36
-7 54 14 50 57 -4 40 -30 59 -58 41 -12 -7 -20 -8 -20 -2 0 5 -4 10 -10 10 -6
0 -10 -33 -10 -80z m85 41 c10 -31 -5 -52 -34 -49 -26 3 -38 26 -27 54 8 21
53 18 61 -5z"/>
<path d="M8810 7205 c0 -65 16 -74 22 -12 5 46 1 67 -13 67 -5 0 -9 -25 -9
-55z"/>
<path d="M8845 7250 c-3 -5 1 -10 9 -10 9 0 16 5 16 10 0 6 -4 10 -9 10 -6 0
-13 -4 -16 -10z"/>
<path d="M8903 7248 c-21 -27 -23 -51 -8 -74 17 -26 44 -30 76 -14 22 12 27
68 7 88 -16 16 -63 15 -75 0z m62 -43 c0 -25 -4 -31 -26 -33 -29 -3 -44 18
-33 50 4 14 13 18 32 16 23 -2 27 -8 27 -33z"/>
<path d="M9150 7216 c0 -51 13 -65 58 -64 32 1 32 1 32 55 0 29 -4 53 -10 53
-5 0 -10 -20 -10 -44 0 -43 -11 -58 -37 -49 -8 3 -13 22 -13 49 0 24 -4 44
-10 44 -5 0 -10 -20 -10 -44z"/>
<path d="M9288 7249 c-21 -12 -24 -69 -6 -87 14 -14 68 -16 68 -3 0 5 -12 9
-26 9 -24 0 -43 15 -44 35 0 16 40 46 55 41 8 -4 15 -1 15 5 0 14 -39 14 -62
0z"/>
<path d="M9450 7205 c0 -30 5 -55 10 -55 6 0 10 25 10 55 0 30 -4 55 -10 55
-5 0 -10 -25 -10 -55z"/>
<path d="M9496 7238 c15 -49 35 -88 44 -88 6 0 10 2 10 5 0 2 9 27 20 55 11
27 16 50 11 50 -4 0 -16 -19 -25 -42 l-18 -43 -15 43 c-15 42 -41 61 -27 20z"/>
<path d="M9610 7205 c0 -30 5 -55 10 -55 6 0 10 25 10 55 0 30 -4 55 -10 55
-5 0 -10 -25 -10 -55z"/>
<path d="M10060 7427 c-65 -34 -90 -88 -90 -192 0 -104 25 -158 90 -192 43
-23 47 -23 400 -23 353 0 357 0 400 23 65 34 90 88 90 192 0 104 -25 158 -90
192 -43 23 -47 23 -400 23 -353 0 -357 0 -400 -23z m806 -13 c61 -45 69 -67
69 -179 0 -112 -8 -134 -69 -179 -27 -20 -39 -21 -406 -21 -367 0 -379 1 -406
21 -54 40 -68 70 -72 150 -5 96 3 136 35 175 50 58 53 59 455 56 353 -2 368
-3 394 -23z"/>
<path d="M10260 7235 c0 -50 4 -85 10 -85 6 0 10 35 10 85 0 50 -4 85 -10 85
-6 0 -10 -35 -10 -85z"/>
<path d="M10327 7293 c-6 -16 -16 -31 -20 -34 -5 -4 -4 -10 2 -13 6 -4 11 -27
11 -52 0 -24 5 -44 10 -44 6 0 10 19 10 41 0 28 6 46 18 55 16 13 16 13 0 14
-22 0 -25 40 -3 40 8 0 15 5 15 10 0 21 -31 9 -43 -17z"/>
<path d="M10470 7235 c0 -87 16 -119 22 -42 3 37 6 42 28 42 22 0 25 -5 28
-42 2 -24 7 -43 13 -43 12 0 12 52 -1 86 -9 23 -15 26 -40 20 -29 -5 -30 -4
-30 29 0 19 -4 35 -10 35 -6 0 -10 -35 -10 -85z"/>
<path d="M10724 7235 c0 -49 1 -71 3 -48 2 23 2 64 0 90 -2 26 -3 8 -3 -42z"/>
<path d="M10057 7253 c-16 -15 -6 -44 18 -53 14 -5 25 -14 25 -20 0 -5 -11
-10 -25 -10 -14 0 -25 -4 -25 -10 0 -14 43 -13 58 2 19 19 14 34 -13 46 -30
14 -33 32 -5 32 11 0 20 5 20 10 0 11 -43 14 -53 3z"/>
<path d="M10157 7242 c-21 -24 -22 -56 -1 -77 19 -19 65 -16 72 4 3 10 0 11
-14 3 -12 -7 -25 -7 -36 -1 -29 15 -21 29 16 29 41 0 51 12 36 40 -13 25 -51
26 -73 2z m58 -12 c4 -6 -7 -10 -25 -10 -18 0 -29 4 -25 10 3 6 15 10 25 10
10 0 22 -4 25 -10z"/>
<path d="M10607 7242 c-21 -24 -22 -56 -1 -77 19 -19 65 -16 72 4 3 10 0 11
-14 3 -12 -7 -25 -7 -36 -1 -29 15 -21 29 16 29 41 0 51 12 36 40 -13 25 -51
26 -73 2z m58 -12 c4 -6 -7 -10 -25 -10 -18 0 -29 4 -25 10 3 6 15 10 25 10
10 0 22 -4 25 -10z"/>
<path d="M10770 7178 c0 -45 4 -78 10 -78 6 0 10 13 10 29 0 24 3 28 23 24 44
-9 71 42 47 88 -8 14 -20 18 -50 17 l-40 -1 0 -79z m75 27 c0 -25 -4 -30 -27
-33 -25 -3 -28 0 -28 26 0 35 8 44 35 40 15 -2 20 -10 20 -33z"/>
<path d="M10393 7213 c9 -2 25 -2 35 0 9 3 1 5 -18 5 -19 0 -27 -2 -17 -5z"/>
<path d="M11110 7427 c-65 -34 -90 -88 -90 -192 0 -104 25 -158 90 -192 42
-22 52 -23 280 -23 228 0 238 1 280 23 65 34 90 88 90 192 0 104 -25 158 -90
192 -42 22 -52 23 -280 23 -228 0 -238 -1 -280 -23z m566 -13 c61 -45 69 -67
69 -179 0 -112 -8 -134 -69 -179 -26 -20 -40 -21 -286 -21 -246 0 -260 1 -286
21 -54 40 -68 70 -72 150 -5 96 3 136 35 175 48 56 63 59 335 56 231 -2 248
-3 274 -23z"/>
<path d="M11110 7235 c0 -87 16 -119 22 -42 2 35 7 43 26 45 20 3 22 -1 22
-42 0 -25 5 -46 10 -46 6 0 10 20 10 44 0 48 -18 71 -50 63 -17 -4 -20 0 -20
29 0 19 -4 34 -10 34 -6 0 -10 -35 -10 -85z"/>
<path d="M11460 7235 c0 -50 4 -85 10 -85 6 0 10 35 10 85 0 50 -4 85 -10 85
-6 0 -10 -35 -10 -85z"/>
<path d="M11590 7235 c0 -87 16 -119 22 -42 2 35 7 43 26 45 20 3 22 -1 22
-42 0 -25 5 -46 10 -46 6 0 10 20 10 44 0 48 -18 71 -50 63 -17 -4 -20 0 -20
29 0 19 -4 34 -10 34 -6 0 -10 -35 -10 -85z"/>
<path d="M11520 7276 c0 -8 -6 -17 -12 -20 -10 -5 -10 -7 0 -12 6 -3 12 -23
12 -45 0 -42 21 -62 43 -40 8 8 7 11 -6 11 -23 0 -23 58 1 76 16 13 16 13 0
14 -10 0 -18 7 -18 15 0 8 -4 15 -10 15 -5 0 -10 -6 -10 -14z"/>
<path d="M11242 7248 c-7 -7 -12 -26 -12 -43 0 -17 5 -36 12 -43 15 -15 54
-16 63 -2 4 6 -7 10 -24 10 -21 0 -31 5 -31 15 0 10 11 15 35 15 27 0 35 4 35
18 0 24 -19 42 -45 42 -12 0 -26 -5 -33 -12z m58 -19 c0 -5 -11 -9 -25 -9 -26
0 -34 15 -12 23 16 5 37 -3 37 -14z"/>
<path d="M11357 7253 c-14 -13 -6 -23 11 -14 11 6 24 6 32 1 17 -10 15 -13
-25 -26 -23 -7 -30 -16 -30 -34 0 -22 4 -25 43 -26 l42 -2 0 42 c0 23 -5 47
-12 54 -13 13 -50 16 -61 5z m50 -68 c-8 -19 -47 -20 -47 -1 0 8 10 16 23 18
28 5 31 3 24 -17z"/>
<path d="M11930 7427 c-65 -34 -90 -88 -90 -192 0 -104 25 -158 90 -192 l43
-23 447 0 447 0 43 23 c65 34 90 88 90 192 0 104 -25 158 -90 192 l-43 23
-447 0 -447 0 -43 -23z m986 -13 c61 -45 69 -67 69 -179 0 -112 -8 -134 -69
-179 -27 -21 -38 -21 -496 -21 -458 0 -469 0 -496 21 -54 40 -68 70 -72 150
-5 96 3 136 35 175 50 59 45 59 545 56 444 -2 457 -3 484 -23z"/>
<path d="M11920 7300 c0 -5 5 -10 10 -10 6 0 10 5 10 10 0 6 -4 10 -10 10 -5
0 -10 -4 -10 -10z"/>
<path d="M12320 7300 c0 -5 5 -10 10 -10 6 0 10 5 10 10 0 6 -4 10 -10 10 -5
0 -10 -4 -10 -10z"/>
<path d="M12640 7300 c0 -5 5 -10 10 -10 6 0 10 5 10 10 0 6 -4 10 -10 10 -5
0 -10 -4 -10 -10z"/>
<path d="M12568 7271 c-9 -10 -12 -23 -8 -27 5 -5 10 -27 12 -49 2 -33 7 -41
26 -43 12 -2 22 1 22 7 0 6 -7 11 -15 11 -10 0 -15 11 -15 35 0 24 5 35 15 35
8 0 15 5 15 10 0 6 -6 10 -14 10 -8 0 -16 7 -18 15 -2 13 -6 13 -20 -4z"/>
<path d="M11920 7205 c0 -30 5 -55 10 -55 6 0 10 25 10 55 0 30 -4 55 -10 55
-5 0 -10 -25 -10 -55z"/>
<path d="M11981 7200 c1 -59 4 -58 14 3 5 32 10 38 28 35 18 -2 23 -11 25 -45
4 -56 22 -55 22 1 0 51 -14 66 -58 63 -32 -2 -32 -2 -31 -57z"/>
<path d="M12107 7253 c-15 -15 -5 -44 18 -55 38 -17 30 -34 -12 -29 -7 1 -13
-3 -13 -9 0 -16 46 -12 61 6 11 14 10 19 -9 34 -12 10 -28 21 -35 23 -17 8 12
27 30 20 7 -3 13 0 13 6 0 12 -42 15 -53 4z"/>
<path d="M12190 7180 c0 -47 4 -80 10 -80 6 0 10 13 10 30 0 27 2 29 28 24 36
-7 54 14 50 57 -4 40 -30 59 -58 41 -12 -7 -20 -8 -20 -2 0 5 -4 10 -10 10 -6
0 -10 -33 -10 -80z m85 41 c10 -31 -5 -52 -34 -49 -26 3 -38 26 -27 54 8 21
53 18 61 -5z"/>
<path d="M12320 7205 c0 -30 5 -55 10 -55 6 0 10 25 10 55 0 30 -4 55 -10 55
-5 0 -10 -25 -10 -55z"/>
<path d="M12380 7203 c0 -29 5 -53 10 -53 6 0 10 18 10 41 0 32 4 42 20 46 30
8 24 22 -10 21 -29 -1 -30 -2 -30 -55z"/>
<path d="M12465 7251 c-4 -7 4 -11 19 -11 35 0 33 -13 -5 -27 -24 -9 -30 -17
-27 -35 2 -19 9 -23 41 -23 l38 -1 -3 51 c-3 46 -5 50 -30 53 -14 2 -29 -2
-33 -7z m45 -65 c0 -19 -26 -27 -39 -12 -13 15 -4 26 21 26 10 0 18 -6 18 -14z"/>
<path d="M12640 7205 c0 -30 5 -55 10 -55 6 0 10 25 10 55 0 30 -4 55 -10 55
-5 0 -10 -25 -10 -55z"/>
<path d="M12706 7244 c-34 -34 -9 -94 39 -94 25 0 55 33 55 61 0 41 -64 63
-94 33z m74 -39 c0 -29 -28 -47 -53 -34 -40 23 -6 90 35 68 10 -5 18 -21 18
-34z"/>
<path d="M12820 7203 c0 -63 18 -71 22 -10 3 37 6 42 28 42 22 0 25 -5 28 -42
2 -24 7 -43 13 -43 12 0 12 52 -1 84 -8 21 -15 25 -50 23 l-40 -1 0 -53z"/>
<path d="M3500 7255 c0 -63 4 -105 10 -105 6 0 10 42 10 105 0 63 -4 105 -10
105 -6 0 -10 -42 -10 -105z"/>
<path d="M2870 7250 c0 -82 3 -100 15 -100 11 0 15 11 15 40 0 37 2 40 28 40
37 0 62 28 62 68 0 38 -22 52 -79 52 l-41 0 0 -100z m94 58 c15 -25 -3 -52
-38 -56 -24 -3 -26 -1 -26 38 0 39 2 41 26 38 15 -2 32 -11 38 -20z"/>
<path d="M3870 7340 c0 -5 11 -10 25 -10 25 0 25 -1 25 -90 0 -73 3 -90 15
-90 12 0 15 17 15 90 0 89 0 90 25 90 14 0 25 5 25 10 0 6 -28 10 -65 10 -37
0 -65 -4 -65 -10z"/>
<path d="M3030 7270 c-41 -41 -12 -120 44 -120 37 0 69 32 69 68 0 64 -69 96
-113 52z m78 -12 c7 -7 12 -24 12 -38 0 -52 -61 -71 -82 -25 -23 51 32 101 70
63z"/>
<path d="M3180 7190 c0 -60 4 -100 10 -100 6 0 10 18 10 40 0 37 1 39 20 28
47 -30 105 30 84 88 -13 39 -37 51 -74 37 -16 -6 -30 -7 -30 -2 0 5 -4 9 -10
9 -6 0 -10 -40 -10 -100z m102 55 c16 -36 -3 -75 -37 -75 -34 0 -53 39 -37 75
8 17 20 25 37 25 17 0 29 -8 37 -25z"/>
<path d="M3340 7236 c0 -68 15 -84 75 -84 l45 1 0 69 c0 54 -3 68 -15 68 -12
0 -15 -13 -15 -55 0 -42 -4 -57 -16 -62 -31 -12 -49 11 -52 66 -4 68 -22 66
-22 -3z"/>
<path d="M3583 7283 c-26 -10 -12 -22 21 -16 24 4 35 1 39 -10 4 -11 -3 -17
-25 -21 -39 -8 -58 -23 -58 -46 0 -30 28 -45 61 -33 16 6 29 7 29 2 0 -5 5 -9
10 -9 17 0 12 107 -6 124 -15 16 -46 20 -71 9z m67 -69 c0 -18 -24 -44 -41
-44 -24 0 -37 29 -18 41 16 10 59 12 59 3z"/>
<path d="M3710 7220 c0 -40 4 -70 10 -70 6 0 10 18 10 41 0 47 14 79 35 79 8
0 15 5 15 10 0 14 -23 13 -38 -2 -9 -9 -12 -9 -12 0 0 7 -4 12 -10 12 -6 0
-10 -30 -10 -70z"/>
<path d="M4013 7283 c-26 -10 -12 -22 21 -16 24 4 35 1 39 -10 4 -11 -3 -17
-25 -21 -39 -8 -58 -23 -58 -46 0 -30 28 -45 61 -33 16 6 29 7 29 2 0 -5 5 -9
10 -9 17 0 12 107 -6 124 -15 16 -46 20 -71 9z m67 -69 c0 -18 -24 -44 -41
-44 -24 0 -37 29 -18 41 16 10 59 12 59 3z"/>
<path d="M4156 7274 c-56 -56 -4 -150 63 -114 25 13 29 -5 8 -34 -10 -14 -23
-17 -50 -14 -23 2 -36 0 -34 -6 2 -6 20 -12 40 -14 60 -5 77 21 77 118 0 47
-4 80 -10 80 -5 0 -10 -5 -10 -12 0 -9 -3 -9 -12 0 -17 17 -54 15 -72 -4z m72
-16 c7 -7 12 -24 12 -38 0 -52 -62 -72 -80 -25 -20 52 32 99 68 63z"/>
<path d="M4312 7278 c-21 -21 -13 -46 24 -67 40 -24 37 -41 -7 -41 -16 0 -29
-4 -29 -10 0 -16 57 -12 74 6 23 23 20 32 -19 55 -45 27 -47 53 -5 47 20 -3
30 0 30 9 0 16 -52 17 -68 1z"/>
<path d="M4420 7275 c0 -9 5 -15 11 -13 6 2 11 8 11 13 0 5 -5 11 -11 13 -6 2
-11 -4 -11 -13z"/>
<path d="M4420 7165 c0 -9 5 -15 11 -13 6 2 11 8 11 13 0 5 -5 11 -11 13 -6 2
-11 -4 -11 -13z"/>
<path d="M5263 6685 c0 -38 2 -53 4 -32 2 20 2 52 0 70 -2 17 -4 1 -4 -38z"/>
<path d="M5053 6680 c0 -36 2 -50 4 -32 2 17 2 47 0 65 -2 17 -4 3 -4 -33z"/>
<path d="M5673 6680 c0 -36 2 -50 4 -32 2 17 2 47 0 65 -2 17 -4 3 -4 -33z"/>
<path d="M6291 6688 c0 -31 2 -59 7 -61 4 -3 6 16 4 41 -5 73 -10 82 -11 20z"/>
<path d="M6503 6685 c0 -33 2 -45 4 -27 2 18 2 45 0 60 -2 15 -4 0 -4 -33z"/>
<path d="M6711 6714 c0 -11 3 -14 6 -6 3 7 2 16 -1 19 -3 4 -6 -2 -5 -13z"/>
<path d="M5641 6704 c0 -11 3 -14 6 -6 3 7 2 16 -1 19 -3 4 -6 -2 -5 -13z"/>
<path d="M6922 6670 c0 -19 2 -27 5 -17 2 9 2 25 0 35 -3 9 -5 1 -5 -18z"/>
<path d="M6710 6661 c0 -17 4 -32 8 -35 4 -2 6 11 4 30 -5 42 -12 45 -12 5z"/>
<path d="M7132 6660 c0 -19 2 -27 5 -17 2 9 2 25 0 35 -3 9 -5 1 -5 -18z"/>
<path d="M5461 6644 c0 -11 3 -14 6 -6 3 7 2 16 -1 19 -3 4 -6 -2 -5 -13z"/>
<path d="M9483 6575 c0 -38 2 -53 4 -32 2 20 2 52 0 70 -2 17 -4 1 -4 -38z"/>
<path d="M13913 6575 c0 -38 2 -53 4 -32 2 20 2 52 0 70 -2 17 -4 1 -4 -38z"/>
<path d="M9873 6575 c0 -33 2 -45 4 -27 2 18 2 45 0 60 -2 15 -4 0 -4 -33z"/>
<path d="M10073 6575 c0 -33 2 -45 4 -27 2 18 2 45 0 60 -2 15 -4 0 -4 -33z"/>
<path d="M10473 6575 c0 -33 2 -45 4 -27 2 18 2 45 0 60 -2 15 -4 0 -4 -33z"/>
<path d="M11073 6575 c0 -33 2 -45 4 -27 2 18 2 45 0 60 -2 15 -4 0 -4 -33z"/>
<path d="M14303 6575 c0 -33 2 -45 4 -27 2 18 2 45 0 60 -2 15 -4 0 -4 -33z"/>
<path d="M14503 6575 c0 -33 2 -45 4 -27 2 18 2 45 0 60 -2 15 -4 0 -4 -33z"/>
<path d="M14903 6575 c0 -33 2 -45 4 -27 2 18 2 45 0 60 -2 15 -4 0 -4 -33z"/>
<path d="M15503 6575 c0 -33 2 -45 4 -27 2 18 2 45 0 60 -2 15 -4 0 -4 -33z"/>
<path d="M9673 6555 c0 -22 2 -30 4 -17 2 12 2 30 0 40 -3 9 -5 -1 -4 -23z"/>
<path d="M11272 6560 c0 -19 2 -27 5 -17 2 9 2 25 0 35 -3 9 -5 1 -5 -18z"/>
<path d="M11472 6560 c0 -19 2 -27 5 -17 2 9 2 25 0 35 -3 9 -5 1 -5 -18z"/>
<path d="M14103 6555 c0 -22 2 -30 4 -17 2 12 2 30 0 40 -3 9 -5 -1 -4 -23z"/>
<path d="M15702 6560 c0 -19 2 -27 5 -17 2 9 2 25 0 35 -3 9 -5 1 -5 -18z"/>
<path d="M15902 6560 c0 -19 2 -27 5 -17 2 9 2 25 0 35 -3 9 -5 1 -5 -18z"/>
<path d="M5773 6520 c0 -36 2 -50 4 -32 2 17 2 47 0 65 -2 17 -4 3 -4 -33z"/>
<path d="M10872 6560 c0 -14 2 -19 5 -12 2 6 2 18 0 25 -3 6 -5 1 -5 -13z"/>
<path d="M15302 6560 c0 -14 2 -19 5 -12 2 6 2 18 0 25 -3 6 -5 1 -5 -13z"/>
<path d="M5363 6515 c0 -33 2 -45 4 -27 2 18 2 45 0 60 -2 15 -4 0 -4 -33z"/>
<path d="M6603 6515 c0 -33 2 -45 4 -27 2 18 2 45 0 60 -2 15 -4 0 -4 -33z"/>
<path d="M4923 6510 c0 -30 2 -43 4 -27 2 15 2 39 0 55 -2 15 -4 2 -4 -28z"/>
<path d="M4953 6510 c0 -30 2 -43 4 -27 2 15 2 39 0 55 -2 15 -4 2 -4 -28z"/>
<path d="M5152 6540 c0 -14 2 -19 5 -12 2 6 2 18 0 25 -3 6 -5 1 -5 -13z"/>
<path d="M5561 6513 c0 -28 2 -54 7 -57 4 -2 6 14 4 37 -5 68 -10 76 -11 20z"/>
<path d="M6813 6510 c0 -30 2 -43 4 -27 2 15 2 39 0 55 -2 15 -4 2 -4 -28z"/>
<path d="M5150 6486 c0 -14 4 -27 8 -30 5 -3 6 8 4 25 -5 35 -12 38 -12 5z"/>
<path d="M7021 6484 c0 -11 3 -14 6 -6 3 7 2 16 -1 19 -3 4 -6 -2 -5 -13z"/>
<path d="M9408 6483 c6 -2 18 -2 25 0 6 3 1 5 -13 5 -14 0 -19 -2 -12 -5z"/>
<path d="M9478 6483 c12 -2 32 -2 45 0 12 2 2 4 -23 4 -25 0 -35 -2 -22 -4z"/>
<path d="M9628 6483 c23 -2 59 -2 80 0 20 2 1 4 -43 4 -44 0 -61 -2 -37 -4z"/>
<path d="M9803 6483 c9 -2 25 -2 35 0 9 3 1 5 -18 5 -19 0 -27 -2 -17 -5z"/>
<path d="M9873 6483 c9 -2 25 -2 35 0 9 3 1 5 -18 5 -19 0 -27 -2 -17 -5z"/>
<path d="M10174 6476 c-3 -8 -4 -25 -2 -38 3 -17 5 -13 9 15 5 38 2 47 -7 23z"/>
<path d="M13838 6483 c6 -2 18 -2 25 0 6 3 1 5 -13 5 -14 0 -19 -2 -12 -5z"/>
<path d="M13908 6483 c12 -2 32 -2 45 0 12 2 2 4 -23 4 -25 0 -35 -2 -22 -4z"/>
<path d="M14058 6483 c23 -2 59 -2 80 0 20 2 1 4 -43 4 -44 0 -61 -2 -37 -4z"/>
<path d="M14233 6483 c9 -2 25 -2 35 0 9 3 1 5 -18 5 -19 0 -27 -2 -17 -5z"/>
<path d="M14303 6483 c9 -2 25 -2 35 0 9 3 1 5 -18 5 -19 0 -27 -2 -17 -5z"/>
<path d="M14604 6476 c-3 -8 -4 -25 -2 -38 3 -17 5 -13 9 15 5 38 2 47 -7 23z"/>
<path d="M9773 6415 c0 -33 2 -45 4 -27 2 18 2 45 0 60 -2 15 -4 0 -4 -33z"/>
<path d="M9973 6415 c0 -33 2 -45 4 -27 2 18 2 45 0 60 -2 15 -4 0 -4 -33z"/>
<path d="M11373 6415 c0 -33 2 -45 4 -27 2 18 2 45 0 60 -2 15 -4 0 -4 -33z"/>
<path d="M14203 6415 c0 -33 2 -45 4 -27 2 18 2 45 0 60 -2 15 -4 0 -4 -33z"/>
<path d="M14403 6415 c0 -33 2 -45 4 -27 2 18 2 45 0 60 -2 15 -4 0 -4 -33z"/>
<path d="M15803 6415 c0 -33 2 -45 4 -27 2 18 2 45 0 60 -2 15 -4 0 -4 -33z"/>
<path d="M11573 6420 c0 -25 2 -35 4 -22 2 12 2 32 0 45 -2 12 -4 2 -4 -23z"/>
<path d="M16003 6420 c0 -25 2 -35 4 -22 2 12 2 32 0 45 -2 12 -4 2 -4 -23z"/>
<path d="M9383 6395 c0 -22 2 -30 4 -17 2 12 2 30 0 40 -3 9 -5 -1 -4 -23z"/>
<path d="M13813 6395 c0 -22 2 -30 4 -17 2 12 2 30 0 40 -3 9 -5 -1 -4 -23z"/>
<path d="M3614 6407 c-8 -21 1 -47 16 -47 19 0 23 31 7 48 -15 14 -17 14 -23
-1z"/>
<path d="M5561 6343 c0 -39 2 -74 7 -76 4 -3 6 18 4 46 -5 92 -9 104 -11 30z"/>
<path d="M5003 6330 c0 -36 2 -50 4 -32 2 17 2 47 0 65 -2 17 -4 3 -4 -33z"/>
<path d="M5252 6310 c0 -19 2 -27 5 -17 2 9 2 25 0 35 -3 9 -5 1 -5 -18z"/>
<path d="M7122 6305 c0 -16 2 -22 5 -12 2 9 2 23 0 30 -3 6 -5 -1 -5 -18z"/>
<path d="M9974 6317 c-3 -8 -4 -45 -2 -83 l3 -69 5 83 c5 82 4 94 -6 69z"/>
<path d="M14404 6317 c-3 -8 -4 -45 -2 -83 l3 -69 5 83 c5 82 4 94 -6 69z"/>
<path d="M8095 6311 c-9 -16 15 -55 27 -43 12 12 7 44 -9 49 -6 2 -14 -1 -18
-6z"/>
<path d="M12525 6311 c-9 -16 15 -55 27 -43 12 12 7 44 -9 49 -6 2 -14 -1 -18
-6z"/>
<path d="M9673 6245 c0 -38 2 -53 4 -32 2 20 2 52 0 70 -2 17 -4 1 -4 -38z"/>
<path d="M9943 6255 c0 -33 2 -45 4 -27 2 18 2 45 0 60 -2 15 -4 0 -4 -33z"/>
<path d="M14103 6245 c0 -38 2 -53 4 -32 2 20 2 52 0 70 -2 17 -4 1 -4 -38z"/>
<path d="M14373 6255 c0 -33 2 -45 4 -27 2 18 2 45 0 60 -2 15 -4 0 -4 -33z"/>
<path d="M11163 6215 c0 -22 2 -30 4 -17 2 12 2 30 0 40 -3 9 -5 -1 -4 -23z"/>
<path d="M15593 6215 c0 -22 2 -30 4 -17 2 12 2 30 0 40 -3 9 -5 -1 -4 -23z"/>
<path d="M3430 4039 c0 -18 -4 -28 -10 -24 -16 10 -47 -4 -52 -23 -3 -10 -1
-28 3 -40 7 -17 15 -22 39 -20 l30 2 0 68 c0 37 -2 68 -5 68 -3 0 -5 -14 -5
-31z m-5 -64 c0 -23 -4 -30 -20 -30 -21 0 -31 25 -21 51 11 28 41 12 41 -21z"/>
<path d="M3225 4035 c-16 -15 -25 -35 -24 -52 1 -26 2 -26 9 7 14 58 69 80
104 41 19 -21 18 -72 -1 -79 -9 -2 -13 8 -13 31 0 31 -3 34 -27 33 -19 -1 -29
-7 -31 -21 -4 -20 -3 -20 11 -1 17 22 41 12 34 -14 -2 -10 -1 -24 4 -31 13
-22 43 3 47 39 7 64 -66 95 -113 47z"/>
<path d="M7908 4003 c-3 -50 -6 -58 -23 -58 -31 0 -34 52 -3 64 14 6 17 10 8
10 -22 1 -40 -19 -40 -45 0 -28 18 -42 53 -42 27 0 27 1 27 64 0 80 -18 85
-22 7z"/>
<path d="M12350 4036 c0 -19 -4 -22 -25 -19 -19 4 -27 0 -36 -20 -17 -37 3
-68 41 -65 30 2 30 3 30 65 0 35 -2 63 -5 63 -3 0 -5 -11 -5 -24z m-5 -61 c0
-23 -5 -31 -21 -33 -26 -4 -38 22 -23 49 16 30 44 20 44 -16z"/>
<path d="M7722 4034 c-12 -8 -22 -23 -21 -32 0 -14 2 -14 6 -2 14 40 63 51 97
23 21 -18 21 -18 2 5 -22 26 -53 28 -84 6z"/>
<path d="M12150 4030 c-28 -28 -27 -84 2 -104 24 -17 64 -21 72 -7 3 4 -5 6
-18 4 -39 -8 -66 13 -66 52 0 39 22 65 53 65 32 0 47 -13 57 -46 7 -24 8 -25
9 -6 1 29 -33 62 -64 62 -14 0 -34 -9 -45 -20z"/>
<path d="M3482 4008 c-7 -7 -12 -24 -12 -39 0 -27 16 -40 48 -38 10 1 7 4 -7
8 -37 10 -38 31 -2 31 19 0 31 5 31 13 0 16 -20 37 -35 37 -6 0 -16 -5 -23
-12z m46 -15 c2 -8 -6 -13 -22 -13 -25 0 -33 10 -19 24 10 10 36 3 41 -11z"/>
<path d="M3571 3970 l2 -45 6 40 c4 26 11 40 21 40 10 0 17 -14 21 -40 l5 -40
5 40 c3 32 8 40 24 40 16 0 21 -9 26 -40 l6 -40 1 35 c2 50 -7 58 -65 57 l-53
-1 1 -46z"/>
<path d="M3720 4001 c-14 -27 -13 -46 5 -61 20 -17 62 -5 70 20 15 48 -51 85
-75 41z m55 -26 c0 -23 -5 -30 -19 -30 -28 0 -43 29 -26 50 21 25 45 14 45
-20z"/>
<path d="M7740 4005 c-14 -17 -9 -58 8 -61 7 -1 8 0 2 3 -14 6 -13 50 2 59 6
4 17 -1 25 -11 12 -18 13 -18 13 1 0 24 -33 29 -50 9z"/>
<path d="M7962 4008 c-27 -27 -7 -78 29 -78 10 0 20 4 23 8 2 4 -7 8 -21 7
-14 0 -28 6 -30 13 -3 8 6 12 26 12 19 0 31 5 31 13 0 16 -20 37 -35 37 -6 0
-16 -5 -23 -12z m46 -15 c2 -8 -6 -13 -22 -13 -19 0 -24 4 -19 15 6 18 34 16
41 -2z"/>
<path d="M8051 3971 l2 -46 6 40 c4 26 11 40 21 40 10 0 17 -14 21 -40 l5 -40
5 40 c3 27 9 41 21 43 13 3 18 -6 21 -40 l4 -43 -1 45 -1 45 -52 1 -53 1 1
-46z"/>
<path d="M8203 4013 c-21 -8 -16 -71 6 -78 42 -13 72 25 51 65 -10 19 -31 24
-57 13z m46 -22 c13 -24 -9 -57 -33 -48 -16 6 -22 47 -9 60 12 13 32 7 42 -12z"/>
<path d="M12170 4006 c-6 -8 -10 -25 -8 -38 2 -19 10 -23 40 -25 21 -1 40 2
43 7 3 6 -1 7 -9 4 -13 -5 -16 2 -17 32 l-2 39 -6 -35 c-7 -43 -41 -56 -41
-16 0 14 8 30 18 35 9 6 12 11 6 11 -6 0 -17 -7 -24 -14z"/>
<path d="M12390 3999 c-9 -16 -9 -28 -1 -45 10 -24 44 -33 55 -15 4 5 -2 7
-12 4 -10 -2 -24 3 -31 11 -12 14 -9 16 18 16 28 0 32 3 29 23 -4 31 -43 35
-58 6z m50 -4 c0 -8 -9 -15 -20 -15 -20 0 -26 11 -13 23 12 13 33 7 33 -8z"/>
<path d="M12481 3971 l2 -46 6 40 c4 26 11 40 21 40 10 0 17 -14 21 -40 l5
-40 5 40 c3 27 9 41 21 43 13 3 18 -6 21 -40 l4 -43 -1 45 -1 45 -52 1 -53 1
1 -46z"/>
<path d="M12630 4006 c-28 -35 11 -93 48 -70 35 22 22 84 -18 84 -10 0 -23 -7
-30 -14z m55 -31 c0 -25 -4 -30 -25 -30 -16 0 -26 6 -28 18 -6 30 6 49 30 45
18 -2 23 -9 23 -33z"/>
<path d="M7821 3990 c-1 -8 -5 -21 -10 -29 -8 -12 -12 -13 -25 -1 -14 11 -16
10 -10 -4 3 -9 12 -16 20 -16 16 0 37 36 30 53 -3 8 -5 6 -5 -3z"/>
<path d="M3240 3961 c0 -10 19 -25 25 -20 1 2 -3 10 -11 17 -8 7 -14 8 -14 3z"/>
<path d="M7700 3954 c0 -30 79 -60 94 -36 2 4 -10 6 -28 4 -26 -3 -37 1 -50
19 -9 13 -16 19 -16 13z"/>
<path d="M3224 3933 c19 -23 69 -32 80 -15 3 5 -8 6 -25 4 -20 -3 -37 2 -52
14 l-22 19 19 -22z"/>
<path d="M8275 3500 c-11 -5 -14 -9 -7 -9 8 -1 12 -21 12 -63 l0 -63 40 -3
c32 -2 42 2 54 21 9 12 13 32 9 45 -6 23 -43 39 -62 27 -7 -4 -11 5 -11 24 0
33 -3 35 -35 21z m73 -92 c-2 -21 -8 -33 -18 -33 -10 0 -16 12 -18 33 -3 27 0
32 18 32 18 0 21 -5 18 -32z"/>
<path d="M8425 3500 c-11 -5 -14 -9 -7 -9 8 -1 12 -20 12 -60 0 -38 -4 -61
-12 -64 -7 -3 5 -5 27 -5 22 0 34 2 28 5 -9 3 -13 28 -13 74 0 71 -1 73 -35
59z"/>
<path d="M13055 3500 c-11 -5 -14 -9 -7 -9 8 -1 12 -20 12 -60 0 -38 -4 -61
-12 -64 -7 -3 5 -5 27 -5 22 0 34 2 28 5 -9 3 -13 28 -13 74 0 71 -1 73 -35
59z"/>
<path d="M3772 3493 c-10 -4 -10 -8 -2 -19 7 -8 10 -38 8 -72 l-3 -58 42 -2
c35 -1 46 3 58 21 8 12 12 32 8 45 -6 23 -43 39 -62 27 -7 -4 -11 7 -11 29 0
35 -8 41 -38 29z m73 -108 c0 -20 -6 -31 -17 -33 -15 -3 -18 4 -18 33 0 29 3
36 18 33 11 -2 17 -13 17 -33z"/>
<path d="M3925 3490 c-11 -5 -14 -9 -7 -9 10 -1 13 -18 10 -71 -3 -69 -3 -70
22 -70 25 0 25 0 22 80 -4 82 -7 87 -47 70z"/>
<path d="M7694 3484 c23 -22 21 -100 -1 -113 -15 -9 -12 -10 17 -11 26 0 31 3
22 12 -7 7 -12 30 -12 51 l0 40 42 -52 c23 -28 45 -51 50 -51 4 0 8 27 8 60 0
46 4 61 18 69 14 9 11 10 -17 11 -28 0 -31 -2 -22 -14 7 -8 11 -29 9 -46 l-3
-32 -34 46 c-27 36 -41 46 -64 46 -26 0 -27 -1 -13 -16z"/>
<path d="M12128 3488 c16 -16 16 -115 0 -121 -7 -3 10 -6 38 -6 64 -1 104 26
104 69 0 43 -40 70 -103 70 -40 0 -48 -3 -39 -12z m92 -17 c25 -47 2 -111 -35
-97 -11 4 -15 21 -15 61 0 48 2 55 20 55 10 0 24 -9 30 -19z"/>
<path d="M12888 3488 c16 -16 16 -115 0 -121 -7 -3 12 -6 43 -6 30 -1 60 4 67
11 19 19 14 49 -8 55 l-21 6 21 14 c16 11 18 18 10 34 -9 15 -22 19 -67 19
-44 0 -54 -3 -45 -12z m77 -23 c0 -11 -8 -21 -17 -23 -14 -3 -18 3 -18 23 0
20 4 26 18 23 9 -2 17 -12 17 -23z m5 -50 c10 -12 10 -18 0 -30 -21 -25 -40
-18 -40 15 0 33 19 40 40 15z"/>
<path d="M7892 3448 c-7 -7 -12 -24 -12 -38 0 -46 44 -66 83 -37 16 11 14 12
-14 12 -18 0 -34 6 -36 13 -3 8 7 12 31 12 39 0 45 10 20 34 -18 19 -55 21
-72 4z m48 -13 c0 -8 -7 -15 -15 -15 -16 0 -20 12 -8 23 11 12 23 8 23 -8z"/>
<path d="M8021 3420 c10 -21 19 -44 19 -50 0 -7 6 -10 13 -7 6 2 11 15 9 28
-2 13 -4 34 -5 47 -2 17 -8 22 -29 22 l-26 0 19 -40z"/>
<path d="M8080 3434 c-13 -32 -13 -44 0 -24 7 12 12 8 21 -17 6 -18 14 -33 19
-33 4 0 17 23 28 50 l21 50 -22 0 c-15 0 -18 -3 -9 -8 9 -6 10 -15 3 -33 l-9
-24 -12 33 c-14 39 -27 41 -40 6z"/>
<path d="M8528 3449 c-25 -14 -24 -65 1 -79 29 -15 56 -12 74 8 22 24 21 45
-1 65 -21 19 -49 21 -74 6z m52 -40 c0 -33 -3 -40 -17 -37 -32 6 -30 78 2 78
11 0 15 -11 15 -41z"/>
<path d="M8660 3445 c-7 -8 -8 -20 -3 -27 10 -17 11 -58 1 -58 -4 0 -8 -7 -8
-15 0 -19 46 -30 79 -19 38 14 35 48 -4 52 -39 5 -58 22 -23 22 27 0 54 23 44
39 -3 5 0 12 6 14 7 3 -8 6 -33 6 -29 1 -51 -4 -59 -14z m50 -15 c0 -11 -4
-20 -10 -20 -5 0 -10 9 -10 20 0 11 5 20 10 20 6 0 10 -9 10 -20z m20 -86 c0
-10 -7 -14 -22 -12 -32 5 -35 28 -4 28 17 0 26 -5 26 -16z"/>
<path d="M12322 3448 c-7 -7 -12 -24 -12 -38 0 -46 44 -66 83 -37 16 11 14 12
-14 12 -18 0 -34 6 -36 13 -3 8 7 12 31 12 39 0 45 10 20 34 -18 19 -55 21
-72 4z m48 -13 c0 -8 -7 -15 -15 -15 -16 0 -20 12 -8 23 11 12 23 8 23 -8z"/>
<path d="M12452 3450 c-4 -3 -7 -24 -7 -48 0 -40 1 -42 30 -42 20 0 26 3 17 9
-20 12 -11 65 12 69 16 3 18 -1 14 -37 -3 -36 -1 -41 17 -41 18 0 20 5 17 40
-3 33 -1 40 13 40 14 0 16 -7 13 -40 -3 -37 -2 -40 22 -40 24 0 26 3 22 38 -2
20 -8 42 -14 48 -9 12 -141 15 -156 4z"/>
<path d="M12677 3442 c-22 -24 -21 -45 1 -65 25 -23 58 -21 82 3 24 24 24 29
4 58 -19 27 -64 29 -87 4z m58 -33 c0 -24 -5 -34 -15 -34 -16 0 -25 37 -16 62
10 26 31 8 31 -28z"/>
<path d="M13158 3449 c-25 -14 -24 -65 1 -79 29 -15 56 -12 74 8 22 24 21 45
-1 65 -21 19 -49 21 -74 6z m52 -40 c0 -33 -3 -40 -17 -37 -32 6 -30 78 2 78
11 0 15 -11 15 -41z"/>
<path d="M13290 3445 c-7 -8 -8 -20 -3 -27 10 -17 11 -58 1 -58 -4 0 -8 -7 -8
-15 0 -19 46 -30 79 -19 38 14 35 48 -4 52 -39 5 -58 22 -23 22 27 0 54 23 44
39 -3 5 0 12 6 14 7 3 -8 6 -33 6 -29 1 -51 -4 -59 -14z m50 -15 c0 -11 -4
-20 -10 -20 -5 0 -10 9 -10 20 0 11 5 20 10 20 6 0 10 -9 10 -20z m20 -86 c0
-10 -7 -14 -22 -12 -32 5 -35 28 -4 28 17 0 26 -5 26 -16z"/>
<path d="M3200 3430 c-9 -5 -9 -9 -1 -14 15 -9 14 -49 -1 -64 -9 -9 -5 -12 18
-12 28 0 29 1 26 40 -4 35 -2 40 17 40 16 0 21 -6 21 -28 0 -15 -5 -33 -12
-40 -9 -9 -3 -12 28 -12 21 0 34 4 27 8 -6 4 -13 25 -15 47 l-3 40 -46 1 c-26
1 -52 -2 -59 -6z"/>
<path d="M3378 3429 c-11 -6 -18 -22 -18 -40 0 -35 34 -55 74 -45 36 9 33 21
-6 21 -17 0 -33 6 -35 13 -3 8 7 12 31 12 23 0 36 5 36 13 0 33 -46 47 -82 26z
m50 -17 c2 -7 -6 -12 -17 -12 -21 0 -27 11 -14 24 9 9 26 2 31 -12z"/>
<path d="M3487 3432 c6 -4 19 -26 28 -50 10 -23 21 -42 26 -42 5 0 15 14 22
32 l13 32 13 -32 c7 -18 17 -32 21 -32 4 0 19 23 32 50 23 46 23 50 7 50 -12
0 -16 -5 -13 -14 3 -8 1 -23 -5 -33 -9 -16 -11 -14 -21 15 -7 17 -16 32 -21
32 -6 0 -16 -15 -24 -32 l-14 -33 -9 25 c-6 17 -6 27 2 32 6 4 -7 8 -29 8 -22
0 -35 -4 -28 -8z"/>
<path d="M4027 3422 c-22 -24 -21 -45 1 -65 36 -33 102 -10 102 35 0 42 -73
63 -103 30z m58 -33 c0 -24 -5 -34 -15 -34 -16 0 -25 37 -16 62 10 26 31 8 31
-28z"/>
<path d="M4175 3426 c-15 -10 -17 -17 -8 -27 11 -15 11 -43 -2 -73 -16 -38 68
-52 100 -16 23 25 12 39 -43 56 -25 8 -30 12 -15 13 35 2 53 12 53 31 0 10 6
21 13 23 6 3 -9 6 -34 6 -25 1 -54 -5 -64 -13z m50 -16 c0 -7 -6 -15 -12 -17
-8 -3 -13 4 -13 17 0 13 5 20 13 18 6 -3 12 -11 12 -18z m18 -76 c11 -11 -5
-34 -23 -34 -22 0 -34 15 -25 30 7 11 38 14 48 4z"/>
<path d="M7770 1567 c-63 -33 -90 -88 -90 -182 0 -94 27 -149 90 -182 41 -22
53 -23 255 -23 202 0 214 1 255 23 63 33 90 88 90 182 0 94 -27 149 -90 182
-41 22 -53 23 -255 23 -202 0 -214 -1 -255 -23z m516 -13 c59 -44 69 -68 69
-169 0 -101 -10 -125 -69 -169 -26 -20 -41 -21 -261 -21 -220 0 -235 1 -261
21 -51 38 -68 70 -72 139 -6 86 3 128 35 166 47 56 65 59 310 56 206 -2 224
-3 249 -23z"/>
<path d="M8012 1385 c0 -38 2 -61 5 -50 2 11 6 30 9 43 8 39 38 23 45 -23 l7
-40 -2 45 c-1 41 -3 45 -26 45 -18 0 -27 7 -31 25 -4 14 -7 -6 -7 -45z"/>
<path d="M7961 1428 c-1 -11 -9 -18 -20 -18 -14 0 -23 -11 -32 -37 -7 -23 -14
-32 -17 -23 -14 42 -23 62 -27 58 -3 -3 1 -24 10 -47 14 -42 12 -71 -8 -71 -6
0 -7 -3 -4 -6 12 -13 36 18 52 67 21 61 45 66 45 9 0 -32 4 -40 18 -39 10 0
12 3 5 6 -7 2 -13 20 -13 39 0 20 5 34 13 34 8 0 9 3 1 8 -6 4 -14 14 -17 22
-4 12 -6 11 -6 -2z"/>
<path d="M7770 1344 c0 -36 4 -64 10 -64 6 0 10 9 10 20 0 13 7 20 18 20 24 0
42 19 42 46 0 28 -18 42 -52 42 -28 0 -28 -1 -28 -64z m65 37 c8 -26 -5 -53
-24 -49 -29 6 -27 68 3 68 8 0 17 -8 21 -19z"/>
<path d="M8109 1389 c-15 -28 3 -69 30 -69 21 0 51 25 51 41 0 46 -60 67 -81
28z m56 -24 c0 -23 -4 -30 -20 -30 -21 0 -31 25 -21 51 11 28 41 12 41 -21z"/>
<path d="M8211 1360 l2 -45 6 40 c4 27 12 41 24 43 14 3 17 -4 17 -37 0 -23 5
-41 10 -41 12 0 13 60 2 78 -5 6 -20 11 -35 10 -25 -2 -27 -5 -26 -48z"/>
<path d="M8500 1567 c-63 -33 -90 -88 -90 -182 0 -94 27 -149 90 -182 l43 -23
462 0 462 0 43 23 c63 33 90 88 90 182 0 94 -27 149 -90 182 l-43 23 -462 0
-462 0 -43 -23z m1016 -13 c59 -44 69 -68 69 -169 0 -101 -10 -125 -69 -169
-27 -21 -38 -21 -511 -21 -473 0 -484 0 -511 21 -51 38 -68 70 -72 139 -6 86
3 128 35 166 50 59 44 59 560 56 459 -2 472 -3 499 -23z"/>
<path d="M8500 1344 c0 -36 4 -64 10 -64 6 0 10 11 10 24 0 18 4 23 18 19 25
-6 44 20 40 54 -3 25 -7 28 -40 30 l-38 1 0 -64z m65 45 c12 -19 -4 -61 -23
-57 -30 6 -28 68 2 68 8 0 18 -5 21 -11z"/>
<path d="M8600 1364 c0 -24 5 -44 10 -44 6 0 10 16 10 35 0 21 6 37 17 43 13
8 11 10 -10 10 -25 0 -27 -4 -27 -44z"/>
<path d="M8670 1396 c-28 -35 11 -93 48 -70 35 22 22 84 -18 84 -10 0 -23 -7
-30 -14z m55 -15 c8 -26 -4 -51 -25 -51 -25 0 -33 16 -26 46 8 29 42 33 51 5z"/>
<path d="M8770 1395 c-6 -8 -10 -26 -8 -42 2 -23 8 -28 31 -28 20 1 27 -4 25
-15 -2 -9 -14 -15 -31 -15 -16 1 -23 -3 -18 -8 5 -5 21 -7 34 -3 27 6 37 30
37 87 0 33 -2 36 -29 37 -16 0 -35 -6 -41 -13z m45 -30 c0 -23 -4 -30 -20 -30
-21 0 -31 25 -21 51 11 28 41 12 41 -21z"/>
<path d="M8860 1365 c0 -25 5 -45 10 -45 6 0 10 16 10 35 0 22 6 38 18 44 14
9 13 10 -10 11 -26 0 -28 -3 -28 -45z"/>
<path d="M8926 1402 c-3 -5 6 -7 19 -4 33 6 32 -14 -1 -22 -37 -10 -30 -51 9
-52 27 -1 28 1 25 40 -2 33 -7 42 -25 44 -11 2 -24 -1 -27 -6z m44 -47 c0 -16
-27 -32 -37 -22 -3 4 -3 13 0 22 8 20 37 20 37 0z"/>
<path d="M9011 1360 l2 -45 6 40 c4 26 11 40 21 40 10 0 17 -14 21 -40 4 -28
7 -32 8 -13 2 38 11 58 27 58 10 0 14 -12 14 -40 0 -22 5 -40 10 -40 12 0 13
59 2 76 -4 7 -30 11 -59 11 l-53 -1 1 -46z"/>
<path d="M9150 1364 c0 -54 18 -59 22 -6 4 53 32 51 37 -3 l5 -40 5 40 c4 26
11 40 21 40 10 0 17 -14 21 -40 l7 -40 -2 45 -1 45 -57 1 -58 1 0 -43z"/>
<path d="M9303 1365 c0 -27 2 -38 4 -22 2 15 2 37 0 50 -2 12 -4 0 -4 -28z"/>
<path d="M9340 1364 c0 -54 18 -59 22 -6 4 52 31 50 39 -3 l7 -40 -2 45 c-1
43 -2 45 -33 47 -33 1 -33 1 -33 -43z"/>
<path d="M9438 1384 c-15 -33 0 -59 36 -59 14 1 26 -2 26 -6 0 -14 -30 -31
-45 -25 -8 3 -15 1 -15 -4 0 -14 44 -12 58 2 7 7 12 35 12 63 0 49 -1 51 -30
53 -24 2 -33 -3 -42 -24z m57 -3 c8 -26 -5 -53 -24 -49 -29 6 -27 68 3 68 8 0
17 -8 21 -19z"/>
<path d="M12200 1567 c-63 -33 -90 -88 -90 -182 0 -94 27 -149 90 -182 42 -23
49 -23 340 -23 291 0 298 0 340 23 63 33 90 88 90 182 0 94 -27 149 -90 182
-42 23 -49 23 -340 23 -291 0 -298 0 -340 -23z m686 -13 c59 -44 69 -68 69
-169 0 -101 -10 -125 -69 -169 -26 -20 -40 -21 -346 -21 -306 0 -320 1 -346
21 -51 38 -68 70 -72 139 -6 86 3 128 35 166 49 58 58 59 395 56 292 -2 308
-3 334 -23z"/>
<path d="M12200 1440 c0 -5 5 -10 10 -10 6 0 10 5 10 10 0 6 -4 10 -10 10 -5
0 -10 -4 -10 -10z"/>
<path d="M12848 1423 c-2 -10 -1 -36 2 -58 4 -30 10 -40 25 -42 11 -2 14 0 8
3 -7 3 -13 21 -13 39 0 18 6 36 13 38 10 4 10 6 0 6 -7 1 -13 8 -13 16 0 21
-17 19 -22 -2z"/>
<path d="M12200 1350 c0 -50 -3 -60 -17 -61 -13 0 -14 -2 -4 -6 8 -3 20 2 28
13 15 21 18 114 3 114 -6 0 -10 -27 -10 -60z"/>
<path d="M12246 1402 c-3 -5 6 -7 19 -4 33 6 32 -14 -1 -22 -37 -10 -30 -51 9
-52 27 -1 28 1 25 40 -2 33 -7 42 -25 44 -11 2 -24 -1 -27 -6z m44 -47 c0 -16
-27 -32 -37 -22 -3 4 -3 13 0 22 8 20 37 20 37 0z"/>
<path d="M12325 1389 c15 -46 25 -69 30 -69 8 0 35 66 34 82 0 7 -8 -5 -18
-27 l-18 -40 -7 32 c-4 18 -12 36 -18 39 -7 4 -8 -2 -3 -17z"/>
<path d="M12416 1402 c-3 -6 2 -8 13 -5 10 3 22 0 25 -6 4 -6 1 -11 -6 -11
-25 0 -49 -25 -42 -43 4 -12 16 -16 36 -15 27 2 29 4 26 43 -2 32 -7 41 -25
43 -11 2 -24 -1 -27 -6z m44 -36 c0 -16 -14 -36 -26 -36 -14 0 -19 22 -7 33 7
8 33 10 33 3z"/>
<path d="M12496 1395 c-3 -9 4 -21 19 -31 28 -18 23 -39 -6 -31 -11 3 -19 1
-19 -5 0 -5 12 -8 27 -6 35 4 45 37 14 45 -28 7 -27 30 2 36 20 4 19 4 -4 6
-16 0 -29 -5 -33 -14z"/>
<path d="M12584 1402 c-36 -25 -20 -83 24 -81 l27 1 -25 7 c-19 5 -25 13 -25
36 0 23 6 31 25 36 20 6 21 7 5 8 -11 0 -25 -3 -31 -7z"/>
<path d="M12652 1360 c1 -40 2 -41 5 -10 2 19 11 40 20 47 13 10 13 12 -6 10
-18 -1 -21 -7 -19 -47z"/>
<path d="M12713 1365 c0 -27 2 -38 4 -22 2 15 2 37 0 50 -2 12 -4 0 -4 -28z"/>
<path d="M12751 1340 c1 -36 4 -53 6 -39 3 21 8 25 28 21 20 -3 27 1 35 23 15
39 -3 66 -40 63 l-30 -2 1 -66z m54 25 c0 -23 -4 -30 -20 -30 -21 0 -31 25
-21 51 11 28 41 12 41 -21z"/>
<path d="M13110 1567 c-63 -33 -90 -88 -90 -182 0 -94 27 -149 90 -182 l43
-23 457 0 457 0 43 23 c63 33 90 88 90 182 0 94 -27 149 -90 182 l-43 23 -457
0 -457 0 -43 -23z m1006 -13 c59 -44 69 -68 69 -169 0 -101 -10 -125 -69 -169
-27 -21 -38 -21 -506 -21 -468 0 -479 0 -506 21 -51 38 -68 70 -72 139 -6 86
3 128 35 166 50 59 44 59 555 56 454 -2 467 -3 494 -23z"/>
<path d="M13900 1440 c0 -5 5 -10 10 -10 6 0 10 5 10 10 0 6 -4 10 -10 10 -5
0 -10 -4 -10 -10z"/>
<path d="M13111 1340 c1 -36 4 -53 6 -39 3 21 8 25 28 21 20 -3 27 1 35 23 15
39 -3 66 -40 63 l-30 -2 1 -66z m54 25 c0 -23 -4 -30 -20 -30 -21 0 -31 25
-21 51 11 28 41 12 41 -21z"/>
<path d="M13212 1360 c1 -40 2 -41 5 -10 2 19 11 40 20 47 13 10 13 12 -6 10
-18 -1 -21 -7 -19 -47z"/>
<path d="M13269 1389 c-15 -28 3 -69 30 -69 21 0 51 25 51 41 0 46 -60 67 -81
28z m56 -24 c0 -23 -4 -30 -20 -30 -21 0 -31 25 -21 51 11 28 41 12 41 -21z"/>
<path d="M13368 1384 c-15 -33 0 -59 36 -59 14 1 26 -2 26 -6 0 -14 -30 -31
-45 -25 -8 3 -15 1 -15 -4 0 -14 44 -12 58 2 7 7 12 35 12 63 0 49 -1 51 -30
53 -24 2 -33 -3 -42 -24z m57 -3 c8 -26 -5 -53 -24 -49 -29 6 -27 68 3 68 8 0
17 -8 21 -19z"/>
<path d="M13472 1360 c1 -40 2 -41 5 -10 2 19 11 40 20 47 13 10 13 12 -6 10
-18 -1 -21 -7 -19 -47z"/>
<path d="M13548 1403 c30 -6 28 -19 -4 -27 -19 -5 -25 -12 -22 -29 2 -17 10
-22 36 -24 30 -1 32 1 32 31 0 37 -16 57 -44 55 -19 -2 -19 -2 2 -6z m22 -47
c0 -8 -5 -18 -11 -22 -14 -8 -33 11 -25 25 10 16 36 13 36 -3z"/>
<path d="M13610 1364 c0 -24 5 -44 10 -44 6 0 10 15 10 34 0 64 38 55 41 -9 2
-26 3 -24 8 10 4 26 11 40 21 40 10 0 17 -14 21 -40 l7 -40 -2 45 -1 45 -57 1
-58 1 0 -43z"/>
<path d="M13761 1360 l2 -45 6 40 c4 26 11 40 21 40 10 0 17 -14 21 -40 4 -28
7 -32 8 -13 2 38 11 58 27 58 10 0 14 -12 14 -40 0 -22 5 -40 10 -40 12 0 13
59 2 76 -4 7 -30 11 -59 11 l-53 -1 1 -46z"/>
<path d="M13900 1365 c0 -25 5 -45 10 -45 6 0 10 20 10 45 0 25 -4 45 -10 45
-5 0 -10 -20 -10 -45z"/>
<path d="M13940 1363 c0 -53 18 -58 22 -5 2 25 8 37 18 37 10 0 16 -12 18 -37
4 -42 22 -52 22 -12 0 42 -17 63 -50 62 -29 -1 -30 -3 -30 -45z"/>
<path d="M14050 1395 c-6 -8 -10 -26 -8 -42 2 -23 8 -28 31 -28 20 1 27 -4 25
-15 -2 -9 -14 -15 -31 -15 -16 1 -23 -3 -18 -8 5 -5 21 -7 34 -3 27 6 37 30
37 87 0 33 -2 36 -29 37 -16 0 -35 -6 -41 -13z m45 -30 c0 -23 -4 -30 -20 -30
-21 0 -31 25 -21 51 11 28 41 12 41 -21z"/>
<path d="M3285 1486 c-37 -16 -92 -77 -101 -111 -3 -14 -4 -62 -3 -108 4 -73
8 -88 31 -119 51 -67 91 -78 288 -78 197 0 237 11 288 78 23 31 27 46 31 119
1 46 0 94 -3 108 -9 35 -65 96 -103 111 -45 19 -385 19 -428 0z m459 -30 c50
-38 66 -79 66 -171 0 -85 -13 -119 -60 -158 -45 -39 -90 -47 -250 -47 -160 0
-205 8 -250 47 -47 39 -60 73 -60 158 0 108 21 150 95 190 25 13 62 15 226 13
l196 -3 37 -29z"/>
<path d="M3282 1290 c0 -41 2 -66 5 -55 2 11 6 30 9 43 8 39 38 23 45 -23 l7
-40 -2 45 c-1 41 -3 45 -26 45 -20 0 -26 6 -31 30 -4 18 -6 0 -7 -45z"/>
<path d="M3560 1290 c0 -40 4 -70 10 -70 6 0 10 30 10 70 0 40 -4 70 -10 70
-6 0 -10 -30 -10 -70z"/>
<path d="M3660 1290 c0 -73 17 -98 22 -33 2 27 8 39 21 41 14 3 17 -4 17 -37
0 -23 5 -41 10 -41 12 0 13 60 1 79 -5 8 -18 12 -30 8 -18 -4 -21 -1 -21 24 0
16 -4 29 -10 29 -6 0 -10 -30 -10 -70z"/>
<path d="M3611 1328 c0 -10 -7 -18 -13 -18 -10 0 -10 -2 -1 -8 6 -4 13 -23 15
-42 2 -26 8 -36 23 -38 18 -2 18 -2 3 8 -11 6 -18 23 -18 40 0 19 6 30 18 33
15 4 15 5 0 6 -9 0 -19 9 -21 19 -4 16 -5 16 -6 0z"/>
<path d="M3379 1289 c-17 -33 3 -69 38 -68 27 1 28 1 4 8 -37 10 -38 31 -2 31
32 0 41 16 19 38 -19 19 -46 14 -59 -9z m55 -4 c4 -11 -1 -15 -19 -15 -24 0
-32 10 -18 23 11 12 31 8 37 -8z"/>
<path d="M3476 1301 c-3 -4 6 -6 19 -3 15 2 25 0 25 -7 0 -6 -6 -11 -13 -11
-24 0 -48 -25 -42 -42 5 -12 17 -17 41 -16 29 1 34 5 34 25 0 13 -5 33 -10 44
-11 19 -44 26 -54 10z m44 -46 c0 -16 -27 -32 -37 -22 -3 4 -3 13 0 22 8 20
37 20 37 0z"/>
<path d="M5053 665 c0 -38 2 -53 4 -32 2 20 2 52 0 70 -2 17 -4 1 -4 -38z"/>
<path d="M9483 665 c0 -38 2 -53 4 -32 2 20 2 52 0 70 -2 17 -4 1 -4 -38z"/>
<path d="M13913 665 c0 -38 2 -53 4 -32 2 20 2 52 0 70 -2 17 -4 1 -4 -38z"/>
<path d="M5443 665 c0 -33 2 -45 4 -27 2 18 2 45 0 60 -2 15 -4 0 -4 -33z"/>
<path d="M5643 665 c0 -33 2 -45 4 -27 2 18 2 45 0 60 -2 15 -4 0 -4 -33z"/>
<path d="M6043 665 c0 -33 2 -45 4 -27 2 18 2 45 0 60 -2 15 -4 0 -4 -33z"/>
<path d="M6643 665 c0 -33 2 -45 4 -27 2 18 2 45 0 60 -2 15 -4 0 -4 -33z"/>
<path d="M9873 665 c0 -33 2 -45 4 -27 2 18 2 45 0 60 -2 15 -4 0 -4 -33z"/>
<path d="M10073 665 c0 -33 2 -45 4 -27 2 18 2 45 0 60 -2 15 -4 0 -4 -33z"/>
<path d="M10473 665 c0 -33 2 -45 4 -27 2 18 2 45 0 60 -2 15 -4 0 -4 -33z"/>
<path d="M11073 665 c0 -33 2 -45 4 -27 2 18 2 45 0 60 -2 15 -4 0 -4 -33z"/>
<path d="M14303 665 c0 -33 2 -45 4 -27 2 18 2 45 0 60 -2 15 -4 0 -4 -33z"/>
<path d="M14503 665 c0 -33 2 -45 4 -27 2 18 2 45 0 60 -2 15 -4 0 -4 -33z"/>
<path d="M14903 665 c0 -33 2 -45 4 -27 2 18 2 45 0 60 -2 15 -4 0 -4 -33z"/>
<path d="M15503 665 c0 -33 2 -45 4 -27 2 18 2 45 0 60 -2 15 -4 0 -4 -33z"/>
<path d="M5243 645 c0 -22 2 -30 4 -17 2 12 2 30 0 40 -3 9 -5 -1 -4 -23z"/>
<path d="M6842 650 c0 -19 2 -27 5 -17 2 9 2 25 0 35 -3 9 -5 1 -5 -18z"/>
<path d="M7042 650 c0 -19 2 -27 5 -17 2 9 2 25 0 35 -3 9 -5 1 -5 -18z"/>
<path d="M9673 645 c0 -22 2 -30 4 -17 2 12 2 30 0 40 -3 9 -5 -1 -4 -23z"/>
<path d="M11272 650 c0 -19 2 -27 5 -17 2 9 2 25 0 35 -3 9 -5 1 -5 -18z"/>
<path d="M11472 650 c0 -19 2 -27 5 -17 2 9 2 25 0 35 -3 9 -5 1 -5 -18z"/>
<path d="M14103 645 c0 -22 2 -30 4 -17 2 12 2 30 0 40 -3 9 -5 -1 -4 -23z"/>
<path d="M15702 650 c0 -19 2 -27 5 -17 2 9 2 25 0 35 -3 9 -5 1 -5 -18z"/>
<path d="M15902 650 c0 -19 2 -27 5 -17 2 9 2 25 0 35 -3 9 -5 1 -5 -18z"/>
<path d="M6442 650 c0 -14 2 -19 5 -12 2 6 2 18 0 25 -3 6 -5 1 -5 -13z"/>
<path d="M10872 650 c0 -14 2 -19 5 -12 2 6 2 18 0 25 -3 6 -5 1 -5 -13z"/>
<path d="M15302 650 c0 -14 2 -19 5 -12 2 6 2 18 0 25 -3 6 -5 1 -5 -13z"/>
<path d="M5744 566 c-3 -8 -4 -27 -2 -43 3 -23 5 -20 9 15 5 43 2 53 -7 28z"/>
<path d="M10174 566 c-3 -8 -4 -27 -2 -43 3 -23 5 -20 9 15 5 43 2 53 -7 28z"/>
<path d="M14604 566 c-3 -8 -4 -27 -2 -43 3 -23 5 -20 9 15 5 43 2 53 -7 28z"/>
<path d="M5343 505 c0 -33 2 -45 4 -27 2 18 2 45 0 60 -2 15 -4 0 -4 -33z"/>
<path d="M5543 500 c0 -36 2 -50 4 -32 2 17 2 47 0 65 -2 17 -4 3 -4 -33z"/>
<path d="M6943 505 c0 -33 2 -45 4 -27 2 18 2 45 0 60 -2 15 -4 0 -4 -33z"/>
<path d="M9773 505 c0 -33 2 -45 4 -27 2 18 2 45 0 60 -2 15 -4 0 -4 -33z"/>
<path d="M9973 500 c0 -36 2 -50 4 -32 2 17 2 47 0 65 -2 17 -4 3 -4 -33z"/>
<path d="M11373 505 c0 -33 2 -45 4 -27 2 18 2 45 0 60 -2 15 -4 0 -4 -33z"/>
<path d="M14203 505 c0 -33 2 -45 4 -27 2 18 2 45 0 60 -2 15 -4 0 -4 -33z"/>
<path d="M14403 500 c0 -36 2 -50 4 -32 2 17 2 47 0 65 -2 17 -4 3 -4 -33z"/>
<path d="M15803 505 c0 -33 2 -45 4 -27 2 18 2 45 0 60 -2 15 -4 0 -4 -33z"/>
<path d="M7143 510 c0 -25 2 -35 4 -22 2 12 2 32 0 45 -2 12 -4 2 -4 -23z"/>
<path d="M11573 510 c0 -25 2 -35 4 -22 2 12 2 32 0 45 -2 12 -4 2 -4 -23z"/>
<path d="M16003 510 c0 -25 2 -35 4 -22 2 12 2 32 0 45 -2 12 -4 2 -4 -23z"/>
<path d="M4953 480 c0 -25 2 -35 4 -22 2 12 2 32 0 45 -2 12 -4 2 -4 -23z"/>
<path d="M9383 480 c0 -25 2 -35 4 -22 2 12 2 32 0 45 -2 12 -4 2 -4 -23z"/>
<path d="M13813 480 c0 -25 2 -35 4 -22 2 12 2 32 0 45 -2 12 -4 2 -4 -23z"/>
<path d="M5543 335 c0 -44 2 -61 4 -37 2 23 2 59 0 80 -2 20 -4 1 -4 -43z"/>
<path d="M9973 335 c0 -44 2 -61 4 -37 2 23 2 59 0 80 -2 20 -4 1 -4 -43z"/>
<path d="M14403 335 c0 -44 2 -61 4 -37 2 23 2 59 0 80 -2 20 -4 1 -4 -43z"/>
<path d="M3664 384 c3 -9 6 -20 6 -25 0 -5 7 -9 15 -9 9 0 15 9 15 25 0 19 -5
25 -21 25 -15 0 -19 -4 -15 -16z"/>
<path d="M5243 335 c0 -38 2 -53 4 -32 2 20 2 52 0 70 -2 17 -4 1 -4 -38z"/>
<path d="M5513 340 c0 -36 2 -50 4 -32 2 17 2 47 0 65 -2 17 -4 3 -4 -33z"/>
<path d="M8094 384 c3 -9 6 -20 6 -25 0 -5 7 -9 15 -9 9 0 15 9 15 25 0 19 -5
25 -21 25 -15 0 -19 -4 -15 -16z"/>
<path d="M9673 335 c0 -38 2 -53 4 -32 2 20 2 52 0 70 -2 17 -4 1 -4 -38z"/>
<path d="M9943 340 c0 -36 2 -50 4 -32 2 17 2 47 0 65 -2 17 -4 3 -4 -33z"/>
<path d="M12524 384 c3 -9 6 -20 6 -25 0 -5 7 -9 15 -9 9 0 15 9 15 25 0 19
-5 25 -21 25 -15 0 -19 -4 -15 -16z"/>
<path d="M14103 335 c0 -38 2 -53 4 -32 2 20 2 52 0 70 -2 17 -4 1 -4 -38z"/>
<path d="M14373 340 c0 -36 2 -50 4 -32 2 17 2 47 0 65 -2 17 -4 3 -4 -33z"/>
<path d="M6733 305 c0 -22 2 -30 4 -17 2 12 2 30 0 40 -3 9 -5 -1 -4 -23z"/>
<path d="M11163 305 c0 -22 2 -30 4 -17 2 12 2 30 0 40 -3 9 -5 -1 -4 -23z"/>
<path d="M15593 305 c0 -22 2 -30 4 -17 2 12 2 30 0 40 -3 9 -5 -1 -4 -23z"/>
<path d="M19050 77 c0 -8 7 -20 15 -27 12 -10 15 -10 15 3 0 8 -7 20 -15 27
-12 10 -15 10 -15 -3z"/>
</g>
</svg>
