<?xml version="1.0" standalone="no"?>
<!DOCTYPE svg PUBLIC "-//W3C//DTD SVG 20010904//EN"
 "http://www.w3.org/TR/2001/REC-SVG-20010904/DTD/svg10.dtd">
<svg version="1.0" xmlns="http://www.w3.org/2000/svg"
 width="1920.000000pt" height="934.000000pt" viewBox="0 0 1920.000000 934.000000"
 preserveAspectRatio="xMidYMid meet">

<g transform="translate(0.000000,934.000000) scale(0.100000,-0.100000)"
fill="#000000" stroke="none">
<path d="M0 9010 l0 -330 9495 0 9495 0 0 330 0 330 -9495 0 -9495 0 0 -330z
m2962 153 c24 -21 23 -74 -2 -155 -33 -106 -24 -125 30 -60 17 20 36 54 42 75
10 35 30 48 42 29 3 -5 -4 -32 -14 -61 -24 -61 -25 -81 -5 -81 22 0 82 88 102
148 14 44 15 57 4 74 -17 27 1 47 25 27 52 -43 -73 -269 -150 -269 -14 0 -29
7 -32 15 -5 13 -8 13 -27 0 -28 -20 -66 -19 -74 1 -3 8 4 48 16 89 24 84 28
165 8 165 -22 0 -37 -22 -37 -53 0 -25 -2 -28 -15 -17 -23 19 -18 46 11 69 32
25 51 26 76 4z m538 -40 c0 -5 -9 -21 -20 -38 -26 -39 -25 -45 5 -45 14 0 25
-4 25 -10 0 -5 -15 -10 -34 -10 -22 0 -36 -6 -40 -16 -7 -18 -8 -84 -2 -84 20
0 42 21 71 66 33 52 70 75 94 59 30 -18 1 -64 -51 -84 -19 -7 -26 -15 -22 -26
10 -24 43 -17 76 15 38 39 48 33 13 -8 -32 -38 -69 -48 -101 -27 -22 14 -27
14 -46 0 -28 -19 -43 -19 -63 1 -12 13 -19 14 -28 5 -14 -14 -50 -14 -63 -1
-6 6 -21 6 -42 -2 -46 -18 -61 -1 -43 48 17 46 0 69 -19 25 -20 -49 -29 -36
-11 17 15 42 30 64 32 45 0 -5 10 -18 22 -31 19 -20 20 -26 9 -54 -24 -66 21
-45 57 25 13 26 30 47 38 47 17 0 16 -20 -2 -44 -20 -26 -19 -66 0 -66 20 0
47 43 49 77 0 16 8 35 16 44 8 9 23 30 32 47 15 28 48 45 48 25z m390 -4 c0
-7 -9 -27 -21 -45 l-21 -34 31 0 c17 0 31 -4 31 -10 0 -5 -16 -10 -35 -10 -39
0 -46 -10 -49 -61 -2 -43 18 -47 54 -11 16 17 30 26 30 20 0 -17 -58 -68 -78
-68 -11 0 -25 6 -31 14 -9 11 -18 12 -41 3 -38 -14 -62 4 -53 42 10 43 33 81
48 81 19 0 19 -19 0 -44 -20 -26 -19 -66 0 -66 21 0 46 43 47 79 1 17 5 31 9
31 4 0 10 9 14 19 13 43 65 90 65 60z m-3390 -16 c0 -4 -12 -20 -27 -35 l-27
-28 67 0 c53 0 67 -3 67 -15 0 -12 -14 -15 -67 -15 l-67 0 27 -28 c29 -31 33
-42 15 -42 -15 0 -88 70 -88 84 0 15 72 86 87 86 7 0 13 -3 13 -7z m2906 -4
c9 -16 -12 -33 -31 -25 -14 5 -15 9 -5 21 15 18 26 19 36 4z m399 -10 c0 -8
-10 -15 -22 -17 -25 -4 -33 22 -10 31 18 8 32 2 32 -14z m-135 -154 c0 -8 -9
-15 -20 -15 -20 0 -26 11 -13 23 12 13 33 7 33 -8z"/>
<path d="M3558 9013 c-25 -30 -33 -47 -17 -38 24 14 49 38 49 47 0 14 -16 9
-32 -9z"/>
<path d="M19072 9307 c-30 -32 -29 -57 1 -29 l23 22 22 -22 c17 -17 22 -19 22
-7 0 9 -10 25 -23 37 l-23 22 -22 -23z"/>
<path d="M11400 6790 c0 -15 5 -20 18 -18 9 2 17 10 17 18 0 8 -8 16 -17 18
-13 2 -18 -3 -18 -18z"/>
<path d="M10770 6660 l0 -140 70 0 c56 0 70 3 70 15 0 12 -13 15 -55 15 l-55
0 0 125 c0 104 -2 125 -15 125 -13 0 -15 -22 -15 -140z"/>
<path d="M10982 6710 c-32 -14 -56 -70 -48 -113 22 -117 186 -93 186 26 0 59
-23 87 -75 93 -22 2 -50 -1 -63 -6z m92 -36 c9 -9 16 -32 16 -54 0 -47 -21
-70 -64 -70 -42 0 -61 22 -61 70 0 21 7 45 14 54 17 20 75 21 95 0z"/>
<path d="M11189 6691 c-24 -24 -29 -38 -29 -76 0 -79 68 -121 129 -78 l24 16
-7 -34 c-9 -46 -31 -61 -89 -57 -32 2 -47 -1 -47 -9 0 -33 110 -27 144 7 18
18 21 35 24 140 3 104 2 120 -12 120 -9 0 -16 -7 -16 -16 0 -14 -2 -14 -22 0
-34 24 -66 19 -99 -13z m103 -18 c22 -20 24 -71 2 -101 -32 -46 -104 -17 -104
42 0 65 58 99 102 59z"/>
<path d="M11400 6620 c0 -82 3 -100 15 -100 12 0 15 18 15 100 0 82 -3 100
-15 100 -12 0 -15 -18 -15 -100z"/>
<path d="M11490 6620 c0 -82 3 -100 15 -100 12 0 15 14 15 63 0 75 18 107 59
107 36 0 41 -13 41 -101 0 -55 3 -69 15 -69 12 0 15 16 15 84 0 76 -2 86 -22
100 -12 9 -32 16 -43 16 -11 0 -31 -7 -43 -16 -20 -14 -22 -14 -22 0 0 9 -7
16 -15 16 -12 0 -15 -18 -15 -100z"/>
<path d="M7320 5938 c-45 -30 -65 -67 -56 -101 5 -21 15 -29 51 -38 53 -13 62
-23 67 -69 l3 -35 53 0 c55 -1 76 -15 67 -45 -17 -59 -16 -69 4 -89 30 -30 59
-26 98 15 53 57 67 91 68 165 0 89 -32 136 -121 180 -89 44 -184 51 -234 17z"/>
<path d="M11590 5880 c0 -40 4 -70 10 -70 6 0 10 30 10 70 0 40 -4 70 -10 70
-6 0 -10 -30 -10 -70z"/>
<path d="M11151 5921 c-30 -30 -29 -94 1 -115 24 -17 73 -21 82 -8 3 5 -8 6
-25 4 -40 -6 -69 21 -69 63 0 54 52 83 95 51 18 -13 26 -68 12 -82 -14 -14
-28 10 -22 37 6 26 4 29 -18 29 -31 0 -50 -22 -45 -52 3 -20 9 -23 48 -23 40
0 46 3 54 28 22 61 -67 114 -113 68z m59 -55 c0 -14 -5 -28 -11 -32 -17 -10
-32 12 -24 35 9 29 35 27 35 -3z"/>
<path d="M10873 5882 c10 -10 17 -22 17 -27 0 -5 -7 -17 -17 -27 -9 -10 -11
-18 -5 -18 6 0 16 8 22 18 10 16 10 16 20 0 6 -10 16 -18 21 -18 6 0 3 10 -5
22 -11 15 -12 26 -5 40 14 25 25 23 37 -9 5 -16 13 -35 17 -44 3 -10 -1 -23
-10 -33 -9 -9 -12 -16 -7 -16 5 0 14 6 19 13 17 21 52 117 44 117 -5 0 -15
-17 -23 -37 l-14 -38 -13 38 c-14 41 -42 50 -61 20 -10 -17 -10 -17 -20 0 -6
9 -16 17 -22 17 -6 0 -4 -8 5 -18z"/>
<path d="M11058 5893 c28 -5 28 -7 -4 -49 l-26 -34 43 1 c30 2 35 3 17 6 -34
5 -34 8 -2 50 l25 33 -38 -1 c-23 -1 -29 -3 -15 -6z"/>
<path d="M11301 5851 c1 -25 3 -37 6 -26 2 11 6 30 9 43 8 40 34 27 34 -18 0
-51 18 -53 22 -2 4 52 31 50 39 -3 l7 -40 -2 45 -1 45 -57 1 -58 1 1 -46z"/>
<path d="M11460 5892 c0 -6 8 -8 19 -5 10 3 22 0 25 -6 4 -7 -1 -11 -12 -11
-25 0 -46 -25 -38 -45 3 -10 16 -15 36 -13 30 2 31 4 28 43 -3 35 -6 40 -30
43 -16 2 -28 -1 -28 -6z m50 -36 c0 -16 -14 -36 -25 -36 -20 0 -30 21 -14 31
15 9 39 12 39 5z"/>
<path d="M11553 5855 c0 -27 2 -38 4 -22 2 15 2 37 0 50 -2 12 -4 0 -4 -28z"/>
<path d="M11682 5888 c-27 -27 -7 -78 29 -78 10 0 20 4 23 8 3 5 -4 8 -16 8
-29 -1 -46 28 -28 49 7 9 22 14 32 12 10 -3 18 -1 18 4 0 13 -44 11 -58 -3z"/>
<path d="M11766 5884 c-19 -18 -20 -28 -6 -55 20 -37 80 -18 80 26 0 42 -44
59 -74 29z m58 -16 c13 -22 -14 -54 -38 -45 -16 6 -22 48 -9 61 11 11 35 3 47
-16z"/>
<path d="M11860 5854 c0 -54 18 -59 22 -6 4 52 31 50 39 -3 4 -28 7 -32 8 -13
2 38 11 58 27 58 10 0 14 -12 14 -40 0 -22 5 -40 11 -40 6 0 9 17 7 43 l-3 42
-62 1 -63 1 0 -43z"/>
<path d="M11630 5820 c0 -5 5 -10 10 -10 6 0 10 5 10 10 0 6 -4 10 -10 10 -5
0 -10 -4 -10 -10z"/>
<path d="M7393 5436 c-34 -8 -92 -30 -129 -48 l-67 -33 -63 -153 c-35 -85 -64
-155 -64 -156 0 -2 43 -11 96 -21 l96 -19 -6 -101 c-9 -133 -32 -338 -58 -510
-18 -124 -20 -172 -15 -425 6 -315 32 -681 51 -692 6 -4 36 -8 66 -8 l55 0 54
418 c30 229 57 428 61 442 6 24 20 -31 168 -645 l48 -200 52 -9 c29 -5 56 -6
60 -2 4 4 7 177 7 384 -1 381 -11 533 -48 713 -11 55 -11 97 4 289 10 124 18
237 18 252 1 23 7 29 41 38 22 6 40 12 40 13 0 35 -63 343 -73 357 -15 22
-110 82 -167 107 -50 21 -155 25 -227 9z"/>
<path d="M10884 4936 c-12 -31 0 -61 25 -61 31 0 50 28 35 53 -14 22 -52 28
-60 8z"/>
<path d="M10994 4936 c-12 -31 0 -61 25 -61 31 0 50 28 35 53 -14 22 -52 28
-60 8z"/>
<path d="M11100 4935 c-26 -32 13 -81 48 -59 34 22 22 74 -18 74 -10 0 -23 -7
-30 -15z"/>
<path d="M11210 4935 c-26 -32 13 -81 48 -59 34 22 22 74 -18 74 -10 0 -23 -7
-30 -15z"/>
<path d="M11320 4935 c-26 -32 13 -81 48 -59 34 22 22 74 -18 74 -10 0 -23 -7
-30 -15z"/>
<path d="M11430 4935 c-26 -32 13 -81 48 -59 34 22 22 74 -18 74 -10 0 -23 -7
-30 -15z"/>
<path d="M11540 4935 c-26 -32 13 -81 48 -59 34 22 22 74 -18 74 -10 0 -23 -7
-30 -15z"/>
<path d="M11652 4938 c-25 -25 -6 -68 30 -68 9 0 22 9 28 20 22 40 -26 80 -58
48z"/>
<path d="M11762 4938 c-25 -25 -6 -68 30 -68 9 0 22 9 28 20 22 40 -26 80 -58
48z"/>
<path d="M11872 4938 c-25 -25 -6 -68 30 -68 9 0 22 9 28 20 22 40 -26 80 -58
48z"/>
<path d="M11982 4938 c-25 -25 -6 -68 30 -68 9 0 22 9 28 20 22 40 -26 80 -58
48z"/>
<path d="M12093 4943 c-21 -8 -16 -61 6 -68 30 -9 51 5 51 35 0 33 -24 47 -57
33z"/>
<path d="M12203 4943 c-21 -8 -16 -61 6 -68 30 -9 51 5 51 35 0 33 -24 47 -57
33z"/>
<path d="M12313 4943 c-21 -8 -16 -61 6 -68 30 -9 51 5 51 35 0 33 -24 47 -57
33z"/>
<path d="M12423 4943 c-21 -8 -16 -61 6 -68 30 -9 51 5 51 35 0 33 -24 47 -57
33z"/>
<path d="M6778 4522 c-63 -38 -73 -125 -20 -174 48 -45 107 -48 151 -7 l22 20
-26 30 c-28 34 -32 74 -10 105 13 19 12 22 -11 33 -35 16 -74 13 -106 -7z"/>
<path d="M12812 4058 c-9 -9 -12 -88 -12 -293 0 -205 3 -284 12 -293 17 -17
1109 -17 1126 0 17 17 17 569 0 586 -17 17 -1109 17 -1126 0z m338 -302 c0
-52 1 -55 28 -59 19 -3 14 -4 -15 -6 l-43 -1 0 60 c0 47 3 60 15 60 11 0 15
-13 15 -54z m160 22 c13 -25 13 -31 0 -55 -31 -56 -110 -36 -110 27 0 63 79
83 110 28z m120 22 c0 -6 -10 -8 -24 -4 -27 6 -56 -17 -56 -46 0 -22 26 -50
46 -50 17 0 19 36 2 43 -7 3 0 6 15 6 25 1 28 -2 25 -26 -2 -24 -8 -29 -36
-31 -61 -6 -95 56 -55 100 17 19 83 26 83 8z m50 -50 c0 -33 -4 -60 -10 -60
-6 0 -10 27 -10 60 0 33 4 60 10 60 6 0 10 -27 10 -60z m83 23 l22 -38 3 38
c2 24 8 37 18 37 11 0 14 -14 14 -60 0 -72 -19 -80 -53 -22 l-22 37 -3 -37
c-2 -25 -8 -38 -18 -38 -11 0 -14 14 -14 60 0 72 19 80 53 23z"/>
<path d="M13228 3775 c-21 -46 18 -95 50 -63 18 18 15 75 -4 82 -26 10 -34 7
-46 -19z"/>
<path d="M13270 3220 c-41 -41 -12 -120 45 -120 14 0 34 9 45 20 41 41 12 120
-45 120 -14 0 -34 -9 -45 -20z m91 -26 c17 -47 -16 -87 -63 -76 -21 4 -33 42
-24 76 10 41 71 41 87 0z"/>
<path d="M13412 3168 c0 -40 3 -58 5 -40 5 41 25 41 53 1 12 -16 25 -28 28
-24 3 3 -4 18 -16 34 -18 24 -19 30 -7 35 18 7 20 37 3 54 -7 7 -25 12 -40 12
l-28 0 2 -72z m54 47 c19 -15 19 -15 0 -30 -11 -8 -24 -15 -28 -15 -12 0 -21
28 -14 45 3 8 9 15 14 15 4 0 17 -7 28 -15z"/>
<path d="M7163 3179 c-33 -10 -73 -51 -73 -75 0 -12 -268 -14 -1686 -14 -1121
0 -1683 -3 -1679 -10 9 -14 5421 -14 5430 0 4 7 -222 10 -669 10 l-676 0 0 51
0 52 -102 -5 c-114 -5 -140 -15 -163 -65 l-16 -33 -79 0 -79 0 -3 48 -3 47
-85 2 c-47 1 -99 -3 -117 -8z"/>
<path d="M12792 2775 c0 -38 2 -61 5 -50 2 11 6 30 9 43 8 39 38 23 45 -23 l7
-40 -2 45 c-1 41 -3 45 -26 45 -18 0 -27 7 -31 25 -4 14 -7 -6 -7 -45z"/>
<path d="M12412 2768 l1 -63 6 50 6 50 30 -47 c17 -27 33 -48 38 -48 4 0 6 28
5 63 l-1 62 -6 -50 -6 -50 -30 47 c-16 27 -33 48 -37 48 -5 0 -7 -28 -6 -62z"/>
<path d="M13120 2821 c0 -5 9 -7 20 -4 21 6 29 -20 10 -32 -5 -3 -10 -13 -10
-22 0 -11 6 -7 21 11 11 15 18 33 15 41 -6 16 -56 21 -56 6z"/>
<path d="M12529 2779 c-16 -31 3 -69 36 -69 14 0 25 4 25 8 0 5 -10 8 -21 8
-12 -1 -24 5 -26 12 -3 8 6 12 26 12 32 0 41 16 19 38 -19 19 -46 14 -59 -9z
m51 -4 c0 -8 -9 -15 -20 -15 -20 0 -26 11 -13 23 12 13 33 7 33 -8z"/>
<path d="M12610 2794 c0 -18 24 -84 31 -84 4 0 10 14 14 31 7 31 20 29 27 -4
6 -32 20 -23 33 21 7 23 9 42 5 42 -4 0 -12 -17 -17 -37 l-10 -38 -8 38 c-9
45 -21 48 -30 7 -7 -32 -25 -32 -25 0 0 10 -4 22 -10 25 -5 3 -10 3 -10 -1z"/>
<path d="M12892 2788 c-15 -15 -16 -50 0 -66 14 -14 44 -16 52 -3 3 4 -5 6
-18 4 -15 -3 -25 1 -29 11 -5 12 0 16 24 16 26 0 30 3 27 23 -3 25 -36 35 -56
15z m46 -15 c2 -8 -6 -13 -22 -13 -19 0 -24 4 -19 15 6 18 34 16 41 -2z"/>
<path d="M12970 2754 c0 -24 5 -44 10 -44 6 0 10 16 10 35 0 21 6 37 17 43 13
8 11 10 -10 10 -25 0 -27 -4 -27 -44z"/>
<path d="M13042 2788 c-27 -27 -7 -78 29 -78 10 0 20 4 23 8 2 4 -7 8 -21 7
-14 0 -28 6 -30 13 -3 8 6 12 26 12 19 0 31 5 31 13 0 16 -20 37 -35 37 -6 0
-16 -5 -23 -12z m46 -15 c2 -8 -6 -13 -22 -13 -19 0 -24 4 -19 15 6 18 34 16
41 -2z"/>
<path d="M19050 26 c0 -9 7 -19 15 -23 25 -9 27 2 5 22 -18 17 -20 17 -20 1z"/>
<path d="M19115 20 c-17 -18 -17 -20 -1 -20 9 0 19 7 23 15 9 25 -2 27 -22 5z"/>
</g>
</svg>
