<?xml version="1.0" standalone="no"?>
<!DOCTYPE svg PUBLIC "-//W3C//DTD SVG 20010904//EN"
 "http://www.w3.org/TR/2001/REC-SVG-20010904/DTD/svg10.dtd">
<svg version="1.0" xmlns="http://www.w3.org/2000/svg"
 width="1920.000000pt" height="946.000000pt" viewBox="0 0 1920.000000 946.000000"
 preserveAspectRatio="xMidYMid meet">

<g transform="translate(0.000000,946.000000) scale(0.100000,-0.100000)"
fill="#000000" stroke="none">
<path d="M0 4730 l0 -4730 330 0 330 0 2 4348 3 4347 35 17 c89 43 56 43 8900
43 8844 0 8811 0 8900 -43 l35 -17 3 -4347 2 -4348 330 0 330 0 0 4730 0 4730
-9600 0 -9600 0 0 -4730z m2962 4513 c24 -21 23 -74 -2 -155 -33 -106 -24
-125 30 -60 17 20 36 54 42 75 10 35 30 48 42 29 3 -5 -4 -32 -14 -61 -24 -61
-25 -81 -5 -81 22 0 82 88 102 148 14 44 15 57 4 74 -17 27 1 47 25 27 52 -43
-73 -269 -150 -269 -14 0 -29 7 -32 15 -5 13 -8 13 -27 0 -28 -20 -66 -19 -74
1 -3 8 4 48 16 89 24 84 28 165 8 165 -22 0 -37 -22 -37 -53 0 -25 -2 -28 -15
-17 -23 19 -18 46 11 69 32 25 51 26 76 4z m538 -40 c0 -5 -9 -21 -20 -38 -26
-39 -25 -45 5 -45 14 0 25 -4 25 -10 0 -5 -15 -10 -34 -10 -22 0 -36 -6 -40
-16 -7 -18 -8 -84 -2 -84 20 0 42 21 71 66 33 52 70 75 94 59 30 -18 1 -64
-51 -84 -19 -7 -26 -15 -22 -26 10 -24 43 -17 76 15 38 39 48 33 13 -8 -32
-38 -69 -48 -101 -27 -22 14 -27 14 -46 0 -28 -19 -43 -19 -63 1 -12 13 -19
14 -28 5 -14 -14 -50 -14 -63 -1 -6 6 -21 6 -42 -2 -46 -18 -61 -1 -43 48 17
46 0 69 -19 25 -20 -49 -29 -36 -11 17 15 42 30 64 32 45 0 -5 10 -18 22 -31
19 -20 20 -26 9 -54 -24 -66 21 -45 57 25 13 26 30 47 38 47 17 0 16 -20 -2
-44 -20 -26 -19 -66 0 -66 20 0 47 43 49 77 0 16 8 35 16 44 8 9 23 30 32 47
15 28 48 45 48 25z m390 -4 c0 -7 -9 -27 -21 -45 l-21 -34 31 0 c17 0 31 -4
31 -10 0 -5 -16 -10 -35 -10 -39 0 -46 -10 -49 -61 -2 -43 18 -47 54 -11 16
17 30 26 30 20 0 -17 -58 -68 -78 -68 -11 0 -25 6 -31 14 -9 11 -18 12 -41 3
-38 -14 -62 4 -53 42 10 43 33 81 48 81 19 0 19 -19 0 -44 -20 -26 -19 -66 0
-66 21 0 46 43 47 79 1 17 5 31 9 31 4 0 10 9 14 19 13 43 65 90 65 60z m-484
-20 c9 -16 -12 -33 -31 -25 -14 5 -15 9 -5 21 15 18 26 19 36 4z m399 -10 c0
-8 -10 -15 -22 -17 -25 -4 -33 22 -10 31 18 8 32 2 32 -14z m-135 -154 c0 -8
-9 -15 -20 -15 -20 0 -26 11 -13 23 12 13 33 7 33 -8z"/>
<path d="M3558 9093 c-25 -30 -33 -47 -17 -38 24 14 49 38 49 47 0 14 -16 9
-32 -9z"/>
<path d="M11410 7880 c0 -15 5 -20 18 -18 9 2 17 10 17 18 0 8 -8 16 -17 18
-13 2 -18 -3 -18 -18z"/>
<path d="M10770 7750 c0 -118 2 -140 15 -140 12 0 15 13 15 60 0 58 1 60 25
60 21 0 33 -12 63 -60 23 -38 44 -60 55 -60 17 0 17 3 -4 38 -12 20 -31 49
-41 64 -18 26 -18 27 7 52 59 59 15 126 -81 126 l-54 0 0 -140z m114 94 c34
-33 3 -84 -50 -84 l-34 0 0 50 0 50 34 0 c19 0 42 -7 50 -16z"/>
<path d="M12250 7751 c0 -119 2 -141 15 -141 12 0 15 20 15 118 l0 117 76
-117 c106 -164 114 -162 114 22 0 116 -2 140 -15 140 -12 0 -15 -22 -17 -117
l-3 -116 -71 114 c-50 81 -77 115 -92 117 -22 3 -22 1 -22 -137z"/>
<path d="M11693 7863 c-7 -3 -13 -16 -13 -29 0 -15 -6 -24 -15 -24 -8 0 -15
-7 -15 -15 0 -8 7 -15 15 -15 12 0 15 -14 15 -69 0 -77 13 -101 56 -101 31 0
32 27 2 32 -21 3 -23 9 -26 71 -3 66 -3 67 23 67 16 0 25 6 25 15 0 9 -9 15
-24 15 -20 0 -25 6 -28 28 -2 18 -8 27 -15 25z"/>
<path d="M10999 7781 c-53 -53 -32 -154 35 -167 39 -7 88 6 94 24 3 9 -9 10
-42 6 -37 -5 -51 -3 -66 11 -38 34 -26 45 50 45 64 0 70 2 70 20 0 29 -26 76
-45 84 -35 13 -67 5 -96 -23z m101 -20 c15 -30 14 -31 -45 -31 -59 0 -64 4
-38 32 22 24 69 24 83 -1z"/>
<path d="M11213 7795 c-28 -19 -46 -77 -38 -115 14 -62 74 -88 123 -54 21 14
22 14 22 -8 0 -13 -7 -34 -16 -47 -14 -19 -23 -22 -65 -19 -48 3 -68 -12 -33
-26 39 -15 86 -6 115 23 29 29 29 31 29 145 0 96 -3 116 -15 116 -8 0 -15 -5
-15 -10 0 -7 -6 -7 -19 0 -28 14 -63 12 -88 -5z m97 -34 c15 -30 12 -82 -7
-103 -24 -27 -69 -23 -89 7 -17 27 -14 76 7 102 18 20 76 17 89 -6z"/>
<path d="M11410 7710 c0 -82 3 -100 15 -100 12 0 15 18 15 100 0 82 -3 100
-15 100 -12 0 -15 -18 -15 -100z"/>
<path d="M11523 7795 c-43 -30 -25 -75 40 -103 17 -7 27 -19 27 -33 0 -19 -5
-21 -45 -17 -36 2 -45 0 -43 -12 4 -22 64 -25 94 -5 38 25 29 64 -21 92 -55
31 -54 57 3 61 28 2 42 7 39 15 -6 19 -69 20 -94 2z"/>
<path d="M11819 7781 c-53 -53 -32 -154 35 -167 39 -7 88 6 94 24 3 9 -9 10
-42 6 -37 -5 -51 -3 -66 11 -38 34 -26 45 50 45 64 0 70 2 70 20 0 29 -26 76
-45 84 -35 13 -67 5 -96 -23z m101 -20 c15 -30 14 -31 -45 -31 -59 0 -64 4
-38 32 22 24 69 24 83 -1z"/>
<path d="M12010 7710 c0 -82 3 -100 15 -100 12 0 15 14 15 66 0 77 12 104 45
104 16 0 25 6 25 15 0 20 -29 19 -52 -2 -17 -15 -18 -15 -18 0 0 10 -7 17 -15
17 -12 0 -15 -18 -15 -100z"/>
<path d="M12572 7800 c-32 -14 -56 -70 -48 -113 22 -117 186 -93 186 26 0 59
-23 87 -75 93 -22 2 -50 -1 -63 -6z m92 -36 c9 -9 16 -32 16 -54 0 -47 -21
-70 -64 -70 -42 0 -61 22 -61 70 0 21 7 45 14 54 17 20 75 21 95 0z"/>
<path d="M12740 7803 c0 -4 12 -49 27 -100 33 -116 52 -123 77 -30 26 96 31
98 51 17 16 -64 35 -93 51 -77 3 3 18 49 34 102 24 80 26 96 12 93 -10 -2 -22
-30 -36 -82 l-22 -79 -11 39 c-6 21 -17 58 -23 82 -17 64 -36 54 -61 -33 -12
-42 -25 -72 -29 -68 -4 4 -15 38 -25 76 -11 41 -23 67 -31 67 -8 0 -14 -3 -14
-7z"/>
<path d="M13035 7640 c-8 -14 3 -30 21 -30 8 0 14 9 14 20 0 21 -24 28 -35 10z"/>
<path d="M13120 7630 c0 -15 5 -20 18 -18 9 2 17 10 17 18 0 8 -8 16 -17 18
-13 2 -18 -3 -18 -18z"/>
<path d="M8535 6696 c-201 -49 -369 -201 -441 -400 l-22 -61 -1413 -5 c-1567
-6 -1443 0 -1502 -69 -42 -50 -47 -105 -47 -506 l0 -375 33 20 c23 14 41 18
65 14 l32 -6 0 379 c0 355 1 381 18 396 17 16 129 17 1408 17 l1390 0 11 -82
c6 -46 21 -109 33 -141 33 -87 112 -198 182 -255 105 -87 189 -120 371 -147
l37 -6 -2 -674 c-3 -632 -4 -675 -21 -692 -17 -17 -100 -18 -1695 -20 -1339
-2 -1682 0 -1702 10 l-25 13 -5 528 -5 527 -62 -56 -63 -57 0 -525 0 -525
-196 184 c-108 101 -222 206 -252 234 l-56 51 22 149 c27 176 88 481 108 536
7 22 16 67 20 102 13 124 -32 237 -138 351 -65 70 -72 74 -198 126 l-131 53 6
61 7 60 -38 25 c-56 37 -87 101 -82 173 6 75 14 82 69 56 70 -34 137 -49 228
-49 l84 0 -5 -45 c-3 -26 -18 -64 -33 -87 -28 -41 -28 -41 -16 -127 7 -47 15
-89 19 -92 11 -9 182 -32 189 -25 4 3 8 30 11 59 3 41 -1 62 -17 92 -26 49
-26 57 0 125 34 90 15 160 -80 288 -33 45 -60 69 -97 88 -49 24 -58 25 -150
19 -121 -8 -170 -20 -210 -50 -36 -27 -114 -177 -114 -219 0 -16 -11 -41 -25
-58 -30 -35 -31 -57 -8 -121 17 -47 17 -50 -2 -80 -10 -18 -29 -52 -42 -76
-12 -24 -30 -49 -38 -55 -14 -10 -15 -30 -7 -158 4 -81 10 -150 13 -152 3 -3
29 3 57 14 29 11 56 20 60 20 7 0 55 -192 78 -308 3 -12 15 -28 28 -33 27 -13
86 -150 86 -200 0 -39 -32 -69 -73 -69 -34 0 -77 29 -77 53 -1 22 -68 -63
-105 -134 -77 -147 -118 -319 -135 -576 -20 -290 6 -648 96 -1301 29 -210 33
-260 23 -294 -13 -49 -5 -101 23 -146 26 -43 40 -49 150 -67 51 -9 107 -19
125 -22 63 -10 116 76 83 137 -5 10 -39 36 -75 59 -35 23 -72 52 -81 66 -9 14
-20 22 -25 19 -13 -8 -13 4 36 521 39 404 49 482 63 493 9 7 16 18 15 23 -2 5
89 9 225 9 125 0 271 3 325 7 64 4 97 3 97 -4 0 -6 -90 -162 -200 -347 -217
-363 -213 -354 -168 -419 43 -61 -140 -57 2378 -57 2012 0 2305 2 2330 15 59
30 96 110 68 143 -8 9 -141 220 -296 467 l-282 451 0 766 0 766 44 6 c24 4 81
25 127 47 114 55 230 171 283 281 72 151 83 303 31 465 -49 154 -169 291 -318
362 -45 22 -106 44 -135 50 -69 14 -213 13 -277 -3z m238 -231 c45 -33 67 -91
67 -178 l0 -77 60 0 c48 0 61 -4 70 -19 6 -11 10 -87 10 -176 0 -89 -4 -165
-10 -176 -10 -18 -24 -19 -288 -19 -203 0 -281 3 -290 12 -8 8 -12 63 -12 183
0 120 4 175 12 183 7 7 38 12 70 12 l58 0 0 83 c0 103 27 155 100 189 28 14
125 3 153 -17z m-1793 -270 c26 -32 -13 -81 -47 -59 -35 22 -23 74 17 74 10 0
23 -7 30 -15z m-2723 -421 c-3 -3 -12 -4 -19 -1 -8 3 -5 6 6 6 11 1 17 -2 13
-5z m190 -1725 c57 -45 101 -85 96 -89 -10 -9 -242 -74 -246 -69 -3 3 18 230
22 237 5 10 37 -9 128 -79z"/>
<path d="M8619 6433 c-40 -25 -59 -74 -59 -153 l0 -70 120 0 120 0 0 65 c0 77
-17 123 -55 153 -33 26 -89 28 -126 5z"/>
<path d="M8430 6015 l0 -155 250 0 250 0 0 155 0 155 -250 0 -250 0 0 -155z
m280 30 c23 -28 -9 -72 -45 -59 -36 14 -24 74 15 74 10 0 23 -7 30 -15z"/>
<path d="M13632 5060 c0 -41 2 -66 5 -55 2 11 6 30 9 43 8 39 38 23 45 -23 l7
-40 -2 45 c-1 41 -3 45 -26 45 -20 0 -26 6 -31 30 -4 18 -6 0 -7 -45z"/>
<path d="M13530 5100 c-25 -25 -26 -72 -2 -93 19 -18 72 -23 72 -8 0 4 -11 6
-24 4 -18 -4 -29 2 -42 22 -16 25 -16 30 -3 54 9 15 27 29 44 32 l30 7 -27 1
c-16 0 -37 -8 -48 -19z"/>
<path d="M15700 5082 c0 -5 10 -18 23 -30 l23 -22 29 30 29 30 -52 0 c-29 0
-52 -4 -52 -8z"/>
<path d="M13743 5072 c-27 -17 -19 -70 12 -78 31 -8 55 10 55 40 0 38 -36 58
-67 38z m52 -21 c9 -29 -5 -52 -29 -49 -37 5 -34 68 3 68 11 0 22 -8 26 -19z"/>
<path d="M13842 5068 c-7 -7 -12 -21 -12 -33 0 -47 62 -63 81 -21 22 47 -33
90 -69 54z m53 -33 c0 -23 -5 -30 -19 -30 -28 0 -43 29 -26 50 21 25 45 14 45
-20z"/>
<path d="M13943 5063 c-4 -11 1 -22 15 -31 28 -18 28 -29 0 -35 l-23 -4 23 -2
c32 -2 41 29 14 47 -28 18 -29 36 -2 29 11 -3 20 -1 20 4 0 16 -40 9 -47 -8z"/>
<path d="M14019 5059 c-17 -33 3 -69 38 -68 27 1 28 1 4 8 -37 10 -38 31 -2
31 32 0 41 16 19 38 -19 19 -46 14 -59 -9z m55 -4 c4 -11 -1 -15 -19 -15 -24
0 -32 10 -18 23 11 12 31 8 37 -8z"/>
<path d="M12682 2288 c-9 -9 -12 -88 -12 -293 0 -205 3 -284 12 -293 17 -17
1359 -17 1376 0 17 17 17 569 0 586 -17 17 -1359 17 -1376 0z m397 -252 c12
-15 5 -46 -11 -46 -5 0 0 -13 12 -30 28 -39 5 -41 -27 -2 l-22 27 -1 -27 c0
-18 -5 -28 -15 -28 -12 0 -15 13 -15 60 l0 60 34 0 c18 0 39 -6 45 -14z m79 7
c-20 -3 -28 -10 -28 -24 0 -14 7 -19 28 -20 l27 -2 -27 -4 c-22 -3 -28 -10
-28 -28 0 -18 6 -25 28 -28 22 -3 20 -4 -10 -6 l-38 -1 0 60 0 60 38 -1 c30
-2 32 -3 10 -6z m142 -3 c0 -6 -11 -8 -25 -4 -32 8 -55 -11 -55 -45 0 -31 16
-51 42 -51 24 0 24 37 1 43 -11 3 -7 5 10 6 25 1 28 -2 25 -26 -2 -23 -9 -29
-33 -31 -16 -2 -39 3 -49 11 -26 19 -26 75 -1 93 22 16 85 19 85 4z m50 -50
c0 -47 -3 -60 -15 -60 -12 0 -15 13 -15 60 0 47 3 60 15 60 12 0 15 -13 15
-60z m100 51 c0 -6 -12 -9 -26 -8 -38 3 -41 -19 -5 -38 33 -17 41 -49 15 -59
-24 -9 -64 -7 -64 3 0 6 12 9 26 8 38 -3 41 19 5 38 -32 16 -42 49 -18 58 21
9 67 7 67 -2z m88 2 c-14 -4 -18 -15 -18 -59 0 -41 -4 -54 -15 -54 -11 0 -15
13 -15 54 0 44 -4 55 -17 59 -10 3 5 5 32 5 28 0 42 -2 33 -5z m80 0 c-36 -5
-40 -42 -5 -44 l22 -2 -22 -4 c-35 -7 -31 -50 5 -56 22 -3 20 -4 -10 -6 l-38
-1 0 60 0 60 38 -1 c30 -2 32 -3 10 -6z m113 -9 c10 -12 10 -20 1 -35 -10 -16
-9 -24 4 -44 14 -21 14 -25 2 -25 -8 0 -21 11 -28 25 -7 14 -17 25 -22 25 -4
0 -8 -11 -8 -25 0 -14 -4 -25 -10 -25 -6 0 -10 27 -10 60 0 59 0 60 29 60 16
0 34 -7 42 -16z"/>
<path d="M13030 2014 c0 -31 23 -28 28 4 2 15 -2 22 -12 22 -11 0 -16 -9 -16
-26z"/>
<path d="M13680 2015 c0 -16 6 -25 15 -25 9 0 15 9 15 25 0 16 -6 25 -15 25
-9 0 -15 -9 -15 -25z"/>
<path d="M12353 1395 c0 -38 2 -53 4 -32 2 20 2 52 0 70 -2 17 -4 1 -4 -38z"/>
<path d="M12680 1440 c0 -13 -7 -20 -18 -20 -24 0 -42 -19 -42 -46 0 -28 18
-42 53 -42 27 0 27 1 27 64 0 36 -4 64 -10 64 -5 0 -10 -9 -10 -20z m-5 -65
c0 -33 -28 -47 -39 -19 -10 25 3 56 22 52 11 -2 17 -13 17 -33z"/>
<path d="M13371 1400 l-1 -66 30 -2 c24 -2 32 3 40 23 14 37 -4 68 -35 62 -20
-3 -25 1 -28 22 -2 14 -5 -3 -6 -39z m54 -25 c0 -23 -4 -30 -20 -30 -21 0 -31
25 -21 51 11 28 41 12 41 -21z"/>
<path d="M12251 1394 c-24 -64 -24 -64 -12 -64 5 0 11 9 14 20 7 29 53 27 60
-2 4 -12 9 -20 12 -16 7 7 -34 118 -44 118 -5 0 -18 -25 -30 -56z m43 10 c9
-23 8 -24 -13 -24 -14 0 -18 5 -14 20 6 24 19 26 27 4z"/>
<path d="M13616 1441 c-4 -5 2 -7 13 -4 25 6 35 -11 16 -27 -8 -7 -15 -19 -15
-28 0 -9 7 -5 21 12 11 15 18 33 15 41 -6 16 -41 20 -50 6z"/>
<path d="M12391 1370 l1 -45 8 39 c4 21 13 42 21 47 10 6 7 8 -9 6 -19 -1 -22
-6 -21 -47z"/>
<path d="M12449 1399 c-16 -31 3 -69 36 -69 14 0 25 4 25 8 0 5 -10 8 -21 8
-12 -1 -24 5 -26 12 -3 8 6 12 26 12 32 0 41 16 19 38 -19 19 -46 14 -59 -9z
m51 -4 c0 -8 -9 -15 -20 -15 -20 0 -26 11 -13 23 12 13 33 7 33 -8z"/>
<path d="M12540 1412 c0 -6 8 -8 19 -5 10 3 22 0 25 -6 4 -7 -1 -11 -12 -11
-25 0 -46 -25 -38 -45 3 -10 16 -15 36 -13 30 2 31 4 28 43 -3 35 -6 40 -30
43 -16 2 -28 -1 -28 -6z m50 -36 c0 -16 -14 -36 -26 -36 -14 0 -19 22 -7 33 7
8 33 10 33 3z"/>
<path d="M12729 1375 c13 -37 14 -49 3 -65 -8 -13 -8 -20 -2 -20 10 0 38 57
55 110 11 36 -8 15 -21 -23 l-11 -32 -12 38 c-7 20 -16 37 -21 37 -4 0 0 -20
9 -45z"/>
<path d="M12856 1412 c-3 -5 6 -7 19 -4 33 6 32 -14 -1 -22 -37 -10 -30 -51 9
-52 27 -1 28 1 25 40 -2 33 -7 42 -25 44 -11 2 -24 -1 -27 -6z m44 -47 c0 -16
-27 -32 -37 -22 -3 4 -3 13 0 22 8 20 37 20 37 0z"/>
<path d="M12991 1370 l2 -45 6 40 c4 26 11 40 21 40 10 0 17 -14 21 -40 4 -28
7 -32 8 -13 2 38 11 58 27 58 10 0 14 -12 14 -40 0 -22 5 -40 10 -40 12 0 13
59 2 76 -4 7 -30 11 -59 11 l-53 -1 1 -46z"/>
<path d="M13142 1408 c-27 -27 -7 -78 29 -78 10 0 20 4 23 8 2 4 -7 8 -21 7
-14 0 -28 6 -30 13 -3 8 6 12 26 12 19 0 31 5 31 13 0 16 -20 37 -35 37 -6 0
-16 -5 -23 -12z m46 -15 c2 -8 -6 -13 -22 -13 -19 0 -24 4 -19 15 6 18 34 16
41 -2z"/>
<path d="M13220 1374 c0 -24 5 -44 10 -44 6 0 10 15 10 34 0 64 38 55 41 -9 2
-26 3 -24 8 10 4 26 11 40 21 40 10 0 17 -14 21 -40 l7 -40 -2 45 -1 45 -57 1
-58 1 0 -43z"/>
<path d="M13469 1399 c-16 -31 3 -69 36 -69 14 0 25 4 25 8 0 5 -10 8 -21 8
-12 -1 -24 5 -26 12 -3 8 6 12 26 12 34 0 36 2 21 31 -14 25 -46 24 -61 -2z
m49 -7 c2 -7 -6 -12 -17 -12 -21 0 -27 11 -14 24 9 9 26 2 31 -12z"/>
<path d="M13562 1370 c1 -40 2 -41 5 -10 2 19 11 40 20 47 13 10 13 12 -6 10
-18 -1 -21 -7 -19 -47z"/>
</g>
</svg>
