<?xml version="1.0" encoding="utf-8"?>
<!-- Generator: Adobe Illustrator 22.1.0, SVG Export Plug-In . SVG Version: 6.00 Build 0)  -->
<svg version="1.1" xmlns="http://www.w3.org/2000/svg" xmlns:xlink="http://www.w3.org/1999/xlink" x="0px" y="0px"
	 viewBox="0 0 1455 1455" style="enable-background:new 0 0 1455 1455;" xml:space="preserve">
<style type="text/css">
	.st0{clip-path:url(#SVGID_2_);fill:#F7941D;}
	.st1{clip-path:url(#SVGID_2_);}
	.st2{fill:#BE1E2D;}
	.st3{fill:#E2ECF1;}
	.st4{fill:#C0D9E6;}
	.st5{fill:#52566C;}
	.st6{fill:#FFFFFF;}
	.st7{fill:#ED1C24;}
	.st8{fill:#20343E;}
	.st9{fill:none;stroke:#000000;stroke-width:5;stroke-linecap:round;stroke-linejoin:round;stroke-miterlimit:10;}
	.st10{fill:none;stroke:#000000;stroke-width:4;stroke-linecap:round;stroke-linejoin:round;stroke-miterlimit:10;}
	.st11{fill:none;stroke:#000000;stroke-width:4;stroke-linecap:round;stroke-miterlimit:10;}
	.st12{clip-path:url(#SVGID_4_);fill:#8DC63F;}
	.st13{clip-path:url(#SVGID_4_);}
	.st14{fill:#1E1B04;}
	.st15{fill:#515838;}
	.st16{fill:#33462D;}
	.st17{fill:#48432D;}
	.st18{fill:none;}
	.st19{fill:#594A42;}
	.st20{fill:#003242;}
	.st21{fill:#939598;}
	.st22{fill:#58595B;}
	.st23{fill:none;stroke:#000000;stroke-width:4;stroke-miterlimit:10;}
	.st24{fill:none;stroke:#FFFFFF;stroke-width:4;stroke-linecap:round;stroke-miterlimit:10;}
	.st25{clip-path:url(#SVGID_6_);fill:#FFF200;}
	.st26{clip-path:url(#SVGID_6_);}
	.st27{fill:#DDEBD4;}
	.st28{fill:#EBD9C5;}
	.st29{fill:#C2B59B;}
	.st30{fill:#E8E2D8;}
	.st31{fill:#B2D39F;}
	.st32{fill:#D3C8B5;}
	.st33{fill:#F7941D;}
	.st34{fill:none;stroke:#A97C50;stroke-width:4;stroke-linecap:round;stroke-miterlimit:10;}
	.st35{fill:none;stroke:#006838;stroke-width:4;stroke-linecap:round;stroke-miterlimit:10;}
	.st36{clip-path:url(#SVGID_8_);fill:#C2B59B;}
	.st37{clip-path:url(#SVGID_8_);}
	.st38{fill:#393437;}
	.st39{fill:#2A2629;}
	.st40{fill:#FFF200;}
	.st41{fill:#0A0000;}
	.st42{fill:#002628;}
	.st43{fill:#2B272A;}
	.st44{fill:#27252D;}
	.st45{clip-path:url(#SVGID_10_);fill:#006838;}
	.st46{clip-path:url(#SVGID_10_);}
	.st47{fill:#39B54A;}
	.st48{fill:#1A863F;}
	.st49{fill:#FFF680;}
	.st50{fill:#FBB040;}
	.st51{clip-path:url(#SVGID_12_);fill:#2B3990;}
	.st52{clip-path:url(#SVGID_12_);}
	.st53{fill:#F15A29;}
	.st54{fill:#F37429;}
	.st55{fill:#F58429;}
	.st56{fill:#FFC907;}
	.st57{fill:#E6E7E8;}
	.st58{fill:#47524C;}
	.st59{fill:#CAAD2D;stroke:#000000;stroke-width:5;stroke-linecap:round;stroke-linejoin:round;stroke-miterlimit:10;}
	.st60{fill:#817B31;stroke:#000000;stroke-width:5;stroke-linecap:round;stroke-linejoin:round;stroke-miterlimit:10;}
	.st61{clip-path:url(#SVGID_14_);fill:#58595B;}
	.st62{clip-path:url(#SVGID_14_);}
	.st63{fill:#D8E2E7;}
	.st64{clip-path:url(#SVGID_16_);fill:#C49A6C;}
	.st65{clip-path:url(#SVGID_16_);}
	.st66{fill:#434B3A;}
	.st67{fill:#4F584D;}
	.st68{fill:#0B2129;}
	.st69{fill:#998A8B;}
</style>
<g id="Layer_2">
</g>
<g id="Details">
</g>
<g id="Lines">
	<g>
		<defs>
			<circle id="SVGID_3_" cx="727.5" cy="727.5" r="616.5"/>
		</defs>
		<clipPath id="SVGID_2_">
			<use xlink:href="#SVGID_3_"  style="overflow:visible;"/>
		</clipPath>
		<circle style="clip-path:url(#SVGID_2_);fill:#8DC63F;" cx="727.5" cy="727.5" r="616.5"/>
		<g class="st1">
			<path class="st14" d="M412.9,1272.2l263.4-12.8c11.1-0.5,22.1,1.1,32.6,4.7l1.9,0.7c18.7,6.5,39.1,6.4,57.8-0.3h0
				c10.7-3.9,22-5.6,33.4-5.1l279.6,13.1c31.3,1.5,59.3,19.8,73.2,47.9l44.4,90H304.6l32.1-83.2
				C349,1295.4,378.9,1273.8,412.9,1272.2z"/>
			<path class="st15" d="M931.3,1060.5H536.9c-61,0-110.4-49.4-110.4-110.4V295.9c0-61,49.4-110.4,110.4-110.4h394.4
				c61,0,110.4,49.4,110.4,110.4v654.2C1041.7,1011.1,992.3,1060.5,931.3,1060.5z"/>
			<path class="st16" d="M1046.1,619.8c-1.5,0-2.9,0.1-4.4,0.3v83.1c1.4,0.1,2.9,0.3,4.4,0.3c23.1,0,41.8-18.7,41.8-41.8
				S1069.2,619.8,1046.1,619.8z"/>
			<path class="st16" d="M426.5,620.1c-1.5-0.2-3-0.3-4.6-0.3c-23.1,0-41.8,18.7-41.8,41.8s18.7,41.8,41.8,41.8
				c1.6,0,3.1-0.1,4.6-0.3V620.1z"/>
			<g>
				<path class="st17" d="M640.2,579c-40.9,0-74.1,33.2-74.1,74.1c0,3.5,0.3,6.8,0.7,10.2l145.6-26.9
					C704.8,603.5,675.4,579,640.2,579z"/>
				<path class="st6" d="M640.2,727.2c40.9,0,74.1-33.2,74.1-74.1c0-5.7-0.7-11.3-1.9-16.7l-145.6,26.9
					C571.7,699.4,602.7,727.2,640.2,727.2z"/>
			</g>
			<g>
				<path class="st17" d="M851.5,579c40.9,0,74.1,33.2,74.1,74.1c0,3.5-0.3,6.8-0.7,10.2l-145.6-26.9
					C786.9,603.5,816.4,579,851.5,579z"/>
				<path class="st6" d="M851.5,727.2c-40.9,0-74.1-33.2-74.1-74.1c0-5.7,0.7-11.3,1.9-16.7l145.6,26.9
					C920,699.4,889,727.2,851.5,727.2z"/>
			</g>
			<path class="st18" d="M738.4,579c0,0,70.4,160.7,46.4,208.4c-6.9,13.7-56,24.9-56,24.9"/>
			<path class="st8" d="M588.1,897.4c0,0,161.4-69,337.6,0H588.1z"/>
			<path class="st18" d="M600.4,560.9c0,0-32,3.5-49.1,36.2"/>
			<path class="st18" d="M934.2,597.1c0,0-3.5-32-36.2-49.1"/>
			<path class="st19" d="M619.6,653.5c-0.8,2.3-1.3,4.9-1.3,7.5c0,12.3,10,22.3,22.3,22.3c12.3,0,22.3-10,22.3-22.3
				c0-5.5-2-10.6-5.4-14.5L619.6,653.5z"/>
			<path class="st19" d="M835.4,646.7c-3.2,3.9-5.2,8.8-5.2,14.3c0,12.3,10,22.3,22.3,22.3c12.3,0,22.3-10,22.3-22.3
				c0-2.5-0.4-5-1.2-7.2L835.4,646.7z"/>
			<path class="st16" d="M708.9,1264.1l1.9,0.7c18.7,6.5,39.1,6.4,57.8-0.3v0c5.3-1.9,10.7-3.3,16.2-4.1v-199.8h-92.9v199.6
				C697.7,1260.9,703.4,1262.2,708.9,1264.1z"/>
			<path class="st20" d="M909.7,185.5H558.6c-72.9,0-132,59.1-132,132.1v71.8l47,107.9L522.6,324l44.2,86.7l21.3-96.5l51.1,160.2
				l23.6-170l51.5,78.5l24.1-94.8l62.2,215.8l29.7-227.3l30,113.6L898,276.6l26.9,158.6l37.5-166.8l39.2,173.3l40.1-124.1
				C1041.7,244.7,982.6,185.5,909.7,185.5z"/>
			<rect x="631.8" y="1130.5" class="st21" width="60.1" height="29.3"/>
			<rect x="601.3" y="1109.4" class="st22" width="30.5" height="71.5"/>
			
				<rect x="784.9" y="1130.5" transform="matrix(-1 -4.497703e-11 4.497703e-11 -1 1629.951 2290.2639)" class="st21" width="60.1" height="29.3"/>
			
				<rect x="845" y="1109.4" transform="matrix(-1 -4.474300e-11 4.474300e-11 -1 1720.5397 2290.2639)" class="st22" width="30.5" height="71.5"/>
			<path class="st9" d="M412.9,1272.2l263.4-12.8c11.1-0.5,22.1,1.1,32.6,4.7l1.9,0.7c18.7,6.5,39.1,6.4,57.8-0.3h0
				c10.7-3.9,22-5.6,33.4-5.1l279.6,13.1c31.3,1.5,59.3,19.8,73.2,47.9l44.4,90H304.6l32.1-83.2
				C349,1295.4,378.9,1273.8,412.9,1272.2z"/>
			<path class="st9" d="M931.3,1060.5H536.9c-61,0-110.4-49.4-110.4-110.4V295.9c0-61,49.4-110.4,110.4-110.4h394.4
				c61,0,110.4,49.4,110.4,110.4v654.2C1041.7,1011.1,992.3,1060.5,931.3,1060.5z"/>
			<path class="st9" d="M1046.1,619.8c-1.5,0-2.9,0.1-4.4,0.3v83.1c1.4,0.1,2.9,0.3,4.4,0.3c23.1,0,41.8-18.7,41.8-41.8
				S1069.2,619.8,1046.1,619.8z"/>
			<path class="st9" d="M426.5,620.1c-1.5-0.2-3-0.3-4.6-0.3c-23.1,0-41.8,18.7-41.8,41.8s18.7,41.8,41.8,41.8
				c1.6,0,3.1-0.1,4.6-0.3V620.1z"/>
			<g>
				<path class="st9" d="M640.2,579c-40.9,0-74.1,33.2-74.1,74.1c0,3.5,0.3,6.8,0.7,10.2l145.6-26.9
					C704.8,603.5,675.4,579,640.2,579z"/>
				<path class="st9" d="M640.2,727.2c40.9,0,74.1-33.2,74.1-74.1c0-5.7-0.7-11.3-1.9-16.7l-145.6,26.9
					C571.7,699.4,602.7,727.2,640.2,727.2z"/>
			</g>
			<g>
				<path class="st9" d="M851.5,579c40.9,0,74.1,33.2,74.1,74.1c0,3.5-0.3,6.8-0.7,10.2l-145.6-26.9
					C786.9,603.5,816.4,579,851.5,579z"/>
				<path class="st9" d="M851.5,727.2c-40.9,0-74.1-33.2-74.1-74.1c0-5.7,0.7-11.3,1.9-16.7l145.6,26.9
					C920,699.4,889,727.2,851.5,727.2z"/>
			</g>
			<path class="st9" d="M738.4,579c0,0,70.4,160.7,46.4,208.4c-6.9,13.7-56,24.9-56,24.9"/>
			<path class="st9" d="M588.1,897.4c0,0,161.4-69,337.6,0H588.1z"/>
			<path class="st9" d="M600.4,560.9c0,0-32,3.5-49.1,36.2"/>
			<path class="st9" d="M934.2,597.1c0,0-3.5-32-36.2-49.1"/>
			<path class="st9" d="M619.6,653.5c-0.8,2.3-1.3,4.9-1.3,7.5c0,12.3,10,22.3,22.3,22.3c12.3,0,22.3-10,22.3-22.3
				c0-5.5-2-10.6-5.4-14.5L619.6,653.5z"/>
			<path class="st9" d="M835.4,646.7c-3.2,3.9-5.2,8.8-5.2,14.3c0,12.3,10,22.3,22.3,22.3c12.3,0,22.3-10,22.3-22.3
				c0-2.5-0.4-5-1.2-7.2L835.4,646.7z"/>
			<g>
				<rect x="631.8" y="1130.5" class="st9" width="60.1" height="29.3"/>
				<rect x="601.3" y="1109.4" class="st9" width="30.5" height="71.5"/>
			</g>
			<g>
				
					<rect x="784.9" y="1130.5" transform="matrix(-1 -4.497703e-11 4.497703e-11 -1 1629.951 2290.2639)" class="st9" width="60.1" height="29.3"/>
				
					<rect x="845" y="1109.4" transform="matrix(-1 -4.474300e-11 4.474300e-11 -1 1720.5397 2290.2639)" class="st9" width="30.5" height="71.5"/>
			</g>
			<path class="st9" d="M708.9,1264.1l1.9,0.7c18.7,6.5,39.1,6.4,57.8-0.3v0c5.3-1.9,10.7-3.3,16.2-4.1v-199.8h-92.9v199.6
				C697.7,1260.9,703.4,1262.2,708.9,1264.1z"/>
			<path class="st9" d="M909.7,185.5H558.6c-72.9,0-132,59.1-132,132.1v71.8l47,107.9L522.6,324l44.2,86.7l21.3-96.5l51.1,160.2
				l23.6-170l51.5,78.5l24.1-94.8l62.2,215.8l29.7-227.3l30,113.6L898,276.6l26.9,158.6l37.5-166.8l39.2,173.3l40.1-124.1
				C1041.7,244.7,982.6,185.5,909.7,185.5z"/>
			<path class="st23" d="M865.1,1119.1c1.8,8.6,2.6,17.4,2.5,26.2"/>
			<path class="st23" d="M609.5,1153.5c-2.6,7.1-0.8,15.6,4.6,21"/>
			<path class="st23" d="M928.8,877.7c6.1,4.2,12.3,8.5,16.1,14.9c3.8,6.3,4.4,15.1-0.5,20.6"/>
			<path class="st23" d="M583.7,873.5c-6,5.9-11.9,11.8-17.9,17.6c-3.6,3.6-7.4,7.5-8.2,12.6c-0.7,5,3.6,11,8.5,9.7"/>
			<path class="st24" d="M1012.1,264.1c5.2,21.2,5.7,43.6,1.6,65.1"/>
			<path class="st24" d="M933,304.9c-3,22.9-6,45.7-9,68.6"/>
			<path class="st24" d="M806.1,317.1c-8,38.5-13.2,77.6-15.8,116.9"/>
			<path class="st24" d="M637.7,312.9c-1.4,21.8-5.1,43.5-10.8,64.5"/>
			<path class="st24" d="M441.1,335.1c1.3,22.4,4.1,44.6,8.2,66.7"/>
		</g>
	</g>
</g>
</svg>
