<svg xmlns="http://www.w3.org/2000/svg" xmlns:xlink="http://www.w3.org/1999/xlink" x="0" y="0" version="1.1" viewBox="0 0 1455 1455" xml:space="preserve" style="enable-background:new 0 0 1455 1455"><style type="text/css">.st1{clip-path:url(#SVGID_2_)}.st8{fill:#20343e}.st11,.st9{fill:none;stroke:#000;stroke-linecap:round;stroke-miterlimit:10}.st9{stroke-width:5;stroke-linejoin:round}.st11{stroke-width:4}.st63{fill:#d8e2e7}</style><g id="Lines"><g><defs><circle id="SVGID_13_" cx="727.5" cy="727.5" r="616.5"/></defs><clipPath id="SVGID_2_"><use xlink:href="#SVGID_13_" style="overflow:visible"/></clipPath><circle style="clip-path:url(#SVGID_2_);fill:#58595b" cx="727.5" cy="727.5" r="616.5"/><g class="st1"><path d="M284.2,1292.2c37.4-72.1,43.2-154.4,48.4-234.4c6.4-98.6,12.8-197.2,19.2-295.8 c8.7-134.5,18.6-273.1,82.1-394S629,147,772.4,157.3c121.8,8.7,222.4,91.9,299,181c18.6,21.6,36.5,44,49.2,69.1 c14.4,28.4,21.7,59.4,26,90.6c17.9,128.2-12.7,257.8-14.3,387.1c-1.2,98,14.3,195.7,12.4,293.7c-1.6,87-16.9,174.8-0.4,260.4 c16.1,83.7,62.2,166.3,43.2,249.5c-81.4-0.6-161.1-43.2-202.9-108.7c-10.8-16.9-19.3-35.2-32.4-50.6 c-29.9-35.2-79.3-50.3-126.7-57.4c-62.4-9.4-126.7-8.1-188.7,3.8c-72.9,14-142.5,42.4-216.3,51.4c-56,6.8-160.9,1.6-191.4-54.1 C197.3,1414.8,258.8,1341.3,284.2,1292.2z" class="st63"/><path d="M762.3,822.7c12.8,92.5-34,184.5-30.4,277.5c0.5,13,2.1,26.3,9.9,37.9c7.8,11.6,22.9,21.1,40.1,21.3 c15.4,0.1,29.5-7.2,38.8-16.4c17.7-17.4,21.2-40.5,24.1-62.3c4.8-36.2,9.7-72.3,14.5-108.5c2-14.9,4-29.9,2.2-44.8 c-1.5-12.8-5.7-25.4-8.3-38.1c-3.8-19.1-3.7-38.6,0.2-57.6c4.3-20.9,13.2-41.4,13.6-62.6c0.6-32.9-40.7-79.3-89.1-51.8 C741.2,737.9,758.4,794.5,762.3,822.7z" class="st8"/><path d="M452.2,693.9c-5.2,29.8,3.7,66.7,32.1,77.2c33.9,12.6,66.5-19.2,100.6-31.4c15.4-5.5,31.9-7,47.2-12.8 c30.8-11.8,52.8-40.1,64.6-70.8c11.9-30.7,14.9-64,17.8-96.8c7.1-80.1-48.7-192.7-114.6-88.9 C554.6,542.1,467.2,607.4,452.2,693.9z" class="st8"/><path d="M876.5,586c2.4,41.4,6.2,83.5,22.2,121.7c16,38.2,46.1,72.6,86,84.1c14.5,4.2,30.7,5.1,44.4-1.5 c10.8-5.2,19.1-14.8,24.7-25.5c15.3-29.4,9.5-68.3-13.6-92c-8.7-8.9-19.5-15.8-27.4-25.5c-13.2-16.4-16-38.7-17.3-59.7 c-1.7-26.6-1.9-53.8-9.6-79.3c-7.8-25.5-24.8-49.9-49.9-58.9C839.9,415.4,873.8,539.1,876.5,586z" class="st8"/><path d="M284.2,1292.2c37.4-72.1,43.2-154.4,48.4-234.4c6.4-98.6,12.8-197.2,19.2-295.8 c8.7-134.5,18.6-273.1,82.1-394S629,147,772.4,157.3c121.8,8.7,222.4,91.9,299,181c18.6,21.6,36.5,44,49.2,69.1 c14.4,28.4,21.7,59.4,26,90.6c17.9,128.2-12.7,257.8-14.3,387.1c-1.2,98,14.3,195.7,12.4,293.7c-1.6,87-16.9,174.8-0.4,260.4 c16.1,83.7,62.2,166.3,43.2,249.5c-81.4-0.6-161.1-43.2-202.9-108.7c-10.8-16.9-19.3-35.2-32.4-50.6 c-29.9-35.2-79.3-50.3-126.7-57.4c-62.4-9.4-126.7-8.1-188.7,3.8c-72.9,14-142.5,42.4-216.3,51.4c-56,6.8-160.9,1.6-191.4-54.1 C197.3,1414.8,258.8,1341.3,284.2,1292.2z" class="st9"/><path d="M762.3,822.7c12.8,92.5-34,184.5-30.4,277.5c0.5,13,2.1,26.3,9.9,37.9c7.8,11.6,22.9,21.1,40.1,21.3 c15.4,0.1,29.5-7.2,38.8-16.4c17.7-17.4,21.2-40.5,24.1-62.3c4.8-36.2,9.7-72.3,14.5-108.5c2-14.9,4-29.9,2.2-44.8 c-1.5-12.8-5.7-25.4-8.3-38.1c-3.8-19.1-3.7-38.6,0.2-57.6c4.3-20.9,13.2-41.4,13.6-62.6c0.6-32.9-40.7-79.3-89.1-51.8 C741.2,737.9,758.4,794.5,762.3,822.7z" class="st9"/><path d="M452.2,693.9c-5.2,29.8,3.7,66.7,32.1,77.2c33.9,12.6,66.5-19.2,100.6-31.4c15.4-5.5,31.9-7,47.2-12.8 c30.8-11.8,52.8-40.1,64.6-70.8c11.9-30.7,14.9-64,17.8-96.8c7.1-80.1-48.7-192.7-114.6-88.9 C554.6,542.1,467.2,607.4,452.2,693.9z" class="st9"/><path d="M876.5,586c2.4,41.4,6.2,83.5,22.2,121.7c16,38.2,46.1,72.6,86,84.1c14.5,4.2,30.7,5.1,44.4-1.5 c10.8-5.2,19.1-14.8,24.7-25.5c15.3-29.4,9.5-68.3-13.6-92c-8.7-8.9-19.5-15.8-27.4-25.5c-13.2-16.4-16-38.7-17.3-59.7 c-1.7-26.6-1.9-53.8-9.6-79.3c-7.8-25.5-24.8-49.9-49.9-58.9C839.9,415.4,873.8,539.1,876.5,586z" class="st9"/><path d="M872.9,797.5c-5.2,14-10.5,28.6-9.7,43.5c0.6,11.7,4.9,22.8,7.3,34.2c9.1,41.6-5.3,86.1,6.3,127" class="st11"/><path d="M1083.8,719.9c-7.6,21.5,4.2,47.6-7.6,67c-6.6,10.9-20.4,16.8-32.8,14.3" class="st11"/><path d="M905.9,413.8c15.6,2,30.3,7.9,44.9,13.7c7.2,2.9,14.6,5.9,20,11.4c10.2,10.4,10.9,26.8,18.9,39" class="st11"/><path d="M1012.1,542.3c-3.1,12.6-6.3,25.3-6.2,38.2c0.2,20.3,8.8,40.4,23.4,54.5" class="st11"/><path d="M472,598.4c21.7-24.3,43.4-48.7,65.1-73c15.5-17.4,31.2-35,43-55.2c12.4-21.2,22.3-46.9,45-56.4" class="st11"/><path d="M728.8,566.2c0,28.7-4,57.4-11.7,85.1c-2.6,9.3-5.6,18.5-9.6,27.3c-9.6,21.3-25.1,40.3-45.6,51.6 c-31.2,17.2-73.2,16.6-96,44" class="st11"/><path d="M737.4,748.2c3.5-24.2,24.8-44.6,49.1-47.1" class="st11"/><path d="M725.8,1006.9c-6.9,38.7-12.2,77.6-15.9,116.7c-1.2,12.7-1.6,27.2,7.3,36.3c3.3,3.4,7.6,5.6,11.9,7.6 c27.1,12.9,60,20,86.3,5.7" class="st11"/><path d="M841.3,705.1c15.7,6.5,29.6,17.5,39.4,31.3" class="st11"/><path d="M746,849.1c1.6,28.4-0.3,57-5.9,84.8" class="st11"/><path d="M435.7,681.8c-12.2,16.8-11.7,39.4-9.7,60c0.9,9.2,2,18.5,5.8,27c4.9,10.9,14.2,19.7,25.3,24" class="st11"/><path d="M686.3,413.5c18.8,27.5,31.5,59.3,36.8,92.2" class="st11"/></g></g></g></svg>