<?xml version="1.0" encoding="utf-8"?>
<!-- Generator: Adobe Illustrator 22.1.0, SVG Export Plug-In . SVG Version: 6.00 Build 0)  -->
<svg version="1.1" xmlns="http://www.w3.org/2000/svg" xmlns:xlink="http://www.w3.org/1999/xlink" x="0px" y="0px"
	 viewBox="0 0 1455 1455" style="enable-background:new 0 0 1455 1455;" xml:space="preserve">
<style type="text/css">
	.st0{clip-path:url(#SVGID_2_);fill:#F7941D;}
	.st1{clip-path:url(#SVGID_2_);}
	.st2{fill:#BE1E2D;}
	.st3{fill:#E2ECF1;}
	.st4{fill:#C0D9E6;}
	.st5{fill:#52566C;}
	.st6{fill:#FFFFFF;}
	.st7{fill:#ED1C24;}
	.st8{fill:#20343E;}
	.st9{fill:none;stroke:#000000;stroke-width:5;stroke-linecap:round;stroke-linejoin:round;stroke-miterlimit:10;}
	.st10{fill:none;stroke:#000000;stroke-width:4;stroke-linecap:round;stroke-linejoin:round;stroke-miterlimit:10;}
	.st11{fill:none;stroke:#000000;stroke-width:4;stroke-linecap:round;stroke-miterlimit:10;}
	.st12{clip-path:url(#SVGID_4_);fill:#8DC63F;}
	.st13{clip-path:url(#SVGID_4_);}
	.st14{fill:#1E1B04;}
	.st15{fill:#515838;}
	.st16{fill:#33462D;}
	.st17{fill:#48432D;}
	.st18{fill:none;}
	.st19{fill:#594A42;}
	.st20{fill:#003242;}
	.st21{fill:#939598;}
	.st22{fill:#58595B;}
	.st23{fill:none;stroke:#000000;stroke-width:4;stroke-miterlimit:10;}
	.st24{fill:none;stroke:#FFFFFF;stroke-width:4;stroke-linecap:round;stroke-miterlimit:10;}
	.st25{clip-path:url(#SVGID_6_);fill:#FFF200;}
	.st26{clip-path:url(#SVGID_6_);}
	.st27{fill:#DDEBD4;}
	.st28{fill:#EBD9C5;}
	.st29{fill:#C2B59B;}
	.st30{fill:#E8E2D8;}
	.st31{fill:#B2D39F;}
	.st32{fill:#D3C8B5;}
	.st33{fill:#F7941D;}
	.st34{fill:none;stroke:#A97C50;stroke-width:4;stroke-linecap:round;stroke-miterlimit:10;}
	.st35{fill:none;stroke:#006838;stroke-width:4;stroke-linecap:round;stroke-miterlimit:10;}
	.st36{clip-path:url(#SVGID_8_);fill:#C2B59B;}
	.st37{clip-path:url(#SVGID_8_);}
	.st38{fill:#393437;}
	.st39{fill:#2A2629;}
	.st40{fill:#FFF200;}
	.st41{fill:#0A0000;}
	.st42{fill:#002628;}
	.st43{fill:#2B272A;}
	.st44{fill:#27252D;}
	.st45{clip-path:url(#SVGID_10_);fill:#006838;}
	.st46{clip-path:url(#SVGID_10_);}
	.st47{fill:#39B54A;}
	.st48{fill:#1A863F;}
	.st49{fill:#FFF680;}
	.st50{fill:#FBB040;}
	.st51{clip-path:url(#SVGID_12_);fill:#2B3990;}
	.st52{clip-path:url(#SVGID_12_);}
	.st53{fill:#F15A29;}
	.st54{fill:#F37429;}
	.st55{fill:#F58429;}
	.st56{fill:#FFC907;}
	.st57{fill:#E6E7E8;}
	.st58{fill:#47524C;}
	.st59{fill:#CAAD2D;stroke:#000000;stroke-width:5;stroke-linecap:round;stroke-linejoin:round;stroke-miterlimit:10;}
	.st60{fill:#817B31;stroke:#000000;stroke-width:5;stroke-linecap:round;stroke-linejoin:round;stroke-miterlimit:10;}
	.st61{clip-path:url(#SVGID_14_);fill:#58595B;}
	.st62{clip-path:url(#SVGID_14_);}
	.st63{fill:#D8E2E7;}
	.st64{clip-path:url(#SVGID_16_);fill:#C49A6C;}
	.st65{clip-path:url(#SVGID_16_);}
	.st66{fill:#434B3A;}
	.st67{fill:#4F584D;}
	.st68{fill:#0B2129;}
	.st69{fill:#998A8B;}
</style>
<g id="Layer_2">
</g>
<g id="Details">
</g>
<g id="Lines">
	<g>
		<defs>
			<circle id="SVGID_5_" cx="727.5" cy="727.5" r="616.5"/>
		</defs>
		<clipPath id="SVGID_2_">
			<use xlink:href="#SVGID_5_"  style="overflow:visible;"/>
		</clipPath>
		<circle style="clip-path:url(#SVGID_2_);fill:#FFF200;" cx="727.5" cy="727.5" r="616.5"/>
		<g class="st1">
			<ellipse class="st18" cx="738.4" cy="653.5" rx="392.6" ry="378.7"/>
			<path class="st18" d="M738.4,1032.1c-15.7,0-31.2-1-46.4-2.7v245.5h92.9v-245.5C769.6,1031.2,754.1,1032.1,738.4,1032.1z"/>
			<path class="st18" d="M345.7,653.5c0-10.9,0.5-21.7,1.4-32.4c-3.3-0.8-6.7-1.3-10.2-1.3c-23.1,0-41.8,18.7-41.8,41.8
				s18.7,41.8,41.8,41.8c4.1,0,8.1-0.6,11.9-1.7C346.8,685.9,345.7,669.8,345.7,653.5z"/>
			<path class="st18" d="M412.9,1272.2l263.4-12.8c11.1-0.5,22.1,1.1,32.6,4.7l1.9,0.7c18.7,6.5,39.1,6.4,57.8-0.3h0
				c10.7-3.9,22-5.6,33.4-5.1l279.6,13.1c31.3,1.5,59.3,19.8,73.2,47.9l44.4,90H304.6l32.1-83.2
				C349,1295.4,378.9,1273.8,412.9,1272.2z"/>
			<path class="st18" d="M1128,700.4C1128,700.2,1128.1,700.2,1128,700.4L1128,700.4z"/>
			<path class="st18" d="M1128,700.9c0-0.1,0-0.3,0.1-0.4C1128,700.6,1128,700.7,1128,700.9z"/>
			<path class="st18" d="M1137.3,703.3c-2.2-0.2-4.3-0.5-6.4-1C1133,702.8,1135.1,703.1,1137.3,703.3z"/>
			<path class="st18" d="M1127.9,701.5C1127.9,701.5,1127.9,701.4,1127.9,701.5C1127.9,701.4,1127.9,701.4,1127.9,701.5z"/>
			<polygon class="st18" points="784.8,1177.2 784.8,1175.2 771.5,1175.8 			"/>
			<path class="st27" d="M1129.6,621.3C1129.6,621.3,1129.6,621.3,1129.6,621.3c-0.5-6.2-1.2-12.3-2.1-18.3L399.3,462.5
				c-24,39.6-40.8,83.7-48.6,130.7l779.1,31.3C1129.7,623.4,1129.7,622.4,1129.6,621.3z"/>
			<path class="st18" d="M1108.5,780l-733.9,16.2c0,0.1,0.1,0.2,0.2,0.4l733.6-16.2C1108.4,780.2,1108.4,780.1,1108.5,780z"/>
			<path class="st18" d="M353.5,728.6c0,0.1,0,0.1,0,0.2l3.1-0.1L353.5,728.6z"/>
			<polygon class="st18" points="1199.3,1410.4 1197.2,1406.2 1197.2,1410.4 			"/>
			<path class="st18" d="M455.7,916.2H1021c0.2-0.2,0.4-0.4,0.6-0.6H455.1C455.3,915.9,455.5,916,455.7,916.2z"/>
			<polygon class="st18" points="691.9,1235.8 691.9,1237.7 704.8,1237.1 			"/>
			<path class="st18" d="M1162.1,625.8c-6.3-3.8-13.7-6-21.5-6c-2.9,0-5.6,0.3-8.3,0.8c-0.9,0.2-1.8,0.4-2.7,0.6
				c0.1,1.1,0.2,2.1,0.2,3.2L1162.1,625.8z"/>
			<path class="st28" d="M1109.8,530.5c-9.4-26.4-21.7-51.5-36.6-74.8H721.8L1109.8,530.5z"/>
			<path class="st29" d="M1072.6,454.7c-15.5-24.2-33.8-46.6-54.4-66.8H458.5c-4.8,4.7-14.2,14.7-14.2,14.7
				c-15.1,16.5-28.8,34.2-40.8,53.1h318.3h58.8h292.6C1073,455.4,1072.8,455,1072.6,454.7z"/>
			<path class="st18" d="M721.8,455.7h-2.1L1110,531c-0.1-0.1-0.1-0.3-0.2-0.4L721.8,455.7z"/>
			<path class="st29" d="M1131,653.5c0,13-0.7,25.8-2,38.4l38.7,1.6c9-7.7,14.7-19.1,14.7-31.8c0-15.2-8.1-28.5-20.3-35.8l-32.3-1.3
				C1130.6,634.1,1131,643.7,1131,653.5z"/>
			<path class="st29" d="M1126.4,711.8c0.6-3.4,1.1-6.9,1.5-10.3c0.4-3,0.7-6.1,1.1-9.1l-833.7-33.5c-0.1,0.9-0.1,1.8-0.1,2.8
				c0,23.1,18.7,41.8,41.8,41.8c4.1,0,8.1-0.6,11.9-1.7c-0.4-2.8-0.4-2.8,0,0.1c1.2,9,2.7,18,4.6,26.8l3.1,0.1L1126.4,711.8z"/>
			<path class="st18" d="M1127.9,701.4c0-0.2,0-0.3,0.1-0.5C1127.9,701.1,1127.9,701.3,1127.9,701.4z"/>
			<path class="st18" d="M1137.3,703.3c1.1,0.1,2.2,0.1,3.3,0.1c10.1,0,19.4-3.6,26.6-9.6l-38.3-1.5c-0.3,3.1-0.7,6.1-1.1,9.1
				c0,0,0-0.1,0-0.1c0-0.1,0-0.3,0.1-0.5c0-0.2,0-0.3,0.1-0.4c0,0,0-0.1,0-0.1c0-0.2,0-0.2,0,0c0,0,0,0.1,0,0.1c0,0.1,0,0.3-0.1,0.4
				c0,0.1,0,0.3-0.1,0.5c0,0.1,0,0.1,0,0.1c1,0.3,2,0.6,3.1,0.8C1133,702.8,1135.1,703.1,1137.3,703.3z"/>
			<path class="st18" d="M1128,700.5C1128,700.5,1128,700.4,1128,700.5C1128,700.4,1128,700.5,1128,700.5z"/>
			<path class="st18" d="M295.3,658.4c0,0.1,0,0.3,0,0.4l833.7,33.5c0-0.1,0-0.3,0-0.4L295.3,658.4z"/>
			<path class="st18" d="M1167.7,693.5l-38.7-1.6c0,0.1,0,0.3,0,0.4l38.3,1.5C1167.4,693.7,1167.5,693.6,1167.7,693.5z"/>
			<path class="st30" d="M1126.4,711.8c-2.6,16.2-6.3,32-10.9,47.4c-2.1,7-4.4,14-6.9,20.8l-733.9,16.2
				c-9.1-21.5-16.2-44.1-21.1-67.4l3.1-0.1L1126.4,711.8z"/>
			<path class="st28" d="M1075.3,847.9c13.2-21.2,24.3-43.8,33.1-67.5l-733.6,16.2c7.6,17.8,16.5,35,26.6,51.4H1075.3z"/>
			<path class="st29" d="M411.6,863.5c12.9,18.6,27.5,36.1,43.5,52.2h566.4c20.1-20.2,38-42.6,53.1-66.8L411.6,863.5z"/>
			<path class="st30" d="M401.4,847.9c3.3,5.3,6.7,10.5,10.3,15.6l663-14.6c0.2-0.3,0.4-0.7,0.6-1H401.4z"/>
			<path class="st28" d="M546.8,984h383.1c33.7-18.2,64.4-41.1,91.1-67.8H455.7C482.3,942.9,513,965.8,546.8,984z"/>
			<path class="st30" d="M691.9,1049l92.9-4.8v-14.8c52.2-5.9,101.2-21.8,145.1-45.5H546.8c43.9,23.7,93,39.5,145.2,45.5V1049z"/>
			<polygon class="st29" points="691.9,1112.1 784.8,1107.3 784.8,1051.8 691.9,1051.8 			"/>
			<polygon class="st18" points="691.9,1051.8 784.8,1051.8 784.8,1044.2 691.9,1049 			"/>
			<polygon class="st28" points="691.9,1116.9 691.9,1167.6 771.5,1175.8 784.8,1175.2 784.8,1112.1 			"/>
			<polygon class="st18" points="691.9,1116.9 784.8,1112.1 784.8,1107.3 691.9,1112.1 			"/>
			<polygon class="st29" points="691.9,1179.9 691.9,1235.8 704.8,1237.1 784.8,1233 784.8,1177.2 771.5,1175.8 			"/>
			<polygon class="st30" points="771.5,1175.8 691.9,1167.6 691.9,1179.9 			"/>
			<path class="st28" d="M676.3,1259.4l-263.4,12.8c-20.6,1-39.6,9.3-54.1,22.6l751.5-15.8l-92-9.5L802,1259.4
				c-5.8-0.3-11.5,0-17.2,0.9v-15l-80-8.3l-12.8,0.7v22.3C686.8,1259.4,681.5,1259.2,676.3,1259.4z"/>
			<polygon class="st18" points="784.8,1233 704.8,1237.1 784.8,1245.4 			"/>
			<path class="st18" d="M1110.8,1279.1c-9.1-3.8-18.9-6.1-29.1-6.5l-63.3-3l92,9.5L1110.8,1279.1z"/>
			<path class="st30" d="M358.8,1294.8c-8.7,8-15.8,17.8-20.7,29l781.9-40.2c-2.9-1.7-6-3.1-9.1-4.5l-0.7-0.1L358.8,1294.8z"/>
			<path class="st18" d="M1110.9,1279.1c-0.1,0-0.1-0.1-0.2-0.1l-0.5,0L1110.9,1279.1z"/>
			<polygon class="st28" points="322.8,1363.4 304.6,1410.4 1197.2,1410.4 1197.2,1406.2 1167.4,1345.7 			"/>
			<path class="st29" d="M1167.4,1345.7l-844.6,17.7l6.9-17.9l7-18.3c0.4-1.2,0.9-2.3,1.4-3.4l781.9-40.2
				c14.8,8.4,27,21.1,34.8,36.9l12.4,25L1167.4,1345.7z"/>
			<path class="st30" d="M924.7,320.1H552c-14.9,7.8-29.2,16.4-42.9,25.9c-18.1,12.6-35,26.6-50.6,41.9h267.6h292.1
				C990.8,361,959.4,338.1,924.7,320.1z"/>
			<path class="st29" d="M738.4,274.8c-67.4,0-130.9,16.4-186.4,45.3h372.7C869.3,291.2,805.8,274.8,738.4,274.8z"/>
			<g>
				<g>
					<path class="st31" d="M630.7,501.2c37.2,17,53.6,61,36.6,98.2c-1.4,3.1-3.1,6.1-4.9,9l-121.2-85
						C561.7,496.7,598.7,486.6,630.7,501.2z"/>
					<path class="st32" d="M569,636c-37.2-17-53.6-61-36.6-98.2c2.4-5.2,5.3-10,8.7-14.4l121.2,85C642.8,639.2,603.1,651.6,569,636z
						"/>
				</g>
				<path class="st33" d="M587.8,556.1c-4.5,2.2-8.4,5.9-10.7,10.8c-5.1,11.2-0.2,24.4,11,29.5c11.2,5.1,24.4,0.2,29.5-11
					c1.1-2.3,1.7-4.7,1.9-7.1L587.8,556.1z"/>
			</g>
			<path class="st30" d="M630.7,501.2c5.2,2.4,10,5.3,14.4,8.7l482.5,93.1c-3.4-24.9-9.4-48.9-17.6-72l-390.3-75.3H403.5
				c-1.4,2.3-2.9,4.5-4.3,6.8l180.5,34.8C596.1,492.7,614,493.6,630.7,501.2z"/>
			<path class="st30" d="M1129.8,624.5l-465.9-18.7c-0.5,0.9-1,1.7-1.6,2.6c-19.5,30.8-59.3,43.2-93.3,27.6
				c-16.5-7.5-28.8-20.3-36.1-35.5l-182.2-7.3c-1.5,9.2-2.7,18.5-3.5,27.9c0,0,0,0,0,0c-3.3-0.8-6.7-1.3-10.2-1.3
				c-22,0-40,17-41.7,38.6l833.7,33.5c1.3-12.6,2-25.5,2-38.4C1131,643.7,1130.6,634.1,1129.8,624.5z"/>
			<ellipse class="st9" cx="738.4" cy="653.5" rx="392.6" ry="378.7"/>
			<path class="st9" d="M345.7,653.5c0-10.9,0.5-21.7,1.4-32.4c-3.3-0.8-6.7-1.3-10.2-1.3c-23.1,0-41.8,18.7-41.8,41.8
				s18.7,41.8,41.8,41.8c4.1,0,8.1-0.6,11.9-1.7C346.8,685.9,345.7,669.8,345.7,653.5z"/>
			<g>
				<path class="st9" d="M1132.2,620.7c2.7-0.5,5.5-0.8,8.3-0.8C1137.7,619.8,1134.9,620.1,1132.2,620.7z"/>
				<path class="st9" d="M1128,700.4C1128,700.2,1128.1,700.2,1128,700.4L1128,700.4z"/>
				<path class="st9" d="M1128,700.9c0-0.1,0-0.3,0.1-0.4C1128,700.6,1128,700.7,1128,700.9z"/>
				<path class="st9" d="M1137.3,703.3c-2.2-0.2-4.3-0.5-6.4-1C1133,702.8,1135.1,703.1,1137.3,703.3z"/>
				<path class="st9" d="M1127.9,701.5C1127.9,701.5,1127.9,701.4,1127.9,701.5C1127.9,701.4,1127.9,701.4,1127.9,701.5z"/>
				<polygon class="st9" points="784.8,1177.2 784.8,1175.2 771.5,1175.8 				"/>
				<path class="st9" d="M1108.5,780l-733.9,16.2c0,0.1,0.1,0.2,0.2,0.4l733.6-16.2C1108.4,780.2,1108.4,780.1,1108.5,780z"/>
				<path class="st9" d="M353.5,728.6c0,0.1,0,0.1,0,0.2l3.1-0.1L353.5,728.6z"/>
				<polygon class="st9" points="1199.3,1410.4 1197.2,1406.2 1197.2,1410.4 				"/>
				<path class="st9" d="M455.7,916.2H1021c0.2-0.2,0.4-0.4,0.6-0.6H455.1C455.3,915.9,455.5,916,455.7,916.2z"/>
				<polygon class="st9" points="691.9,1235.8 691.9,1237.7 704.8,1237.1 				"/>
				<path class="st9" d="M1162.1,625.8c-6.3-3.8-13.7-6-21.5-6c-2.9,0-5.6,0.3-8.3,0.8c-0.9,0.2-1.8,0.4-2.7,0.6
					c0.1,1.1,0.2,2.1,0.2,3.2L1162.1,625.8z"/>
				<path class="st9" d="M1109.8,530.5c-9.4-26.4-21.7-51.5-36.6-74.8H721.8L1109.8,530.5z"/>
				<path class="st9" d="M1072.6,454.7c-15.5-24.2-33.8-46.6-54.4-66.8H458.5c-4.8,4.7-14.2,14.7-14.2,14.7
					c-15.1,16.5-28.8,34.2-40.8,53.1h318.3h58.8h292.6C1073,455.4,1072.8,455,1072.6,454.7z"/>
				<path class="st9" d="M721.8,455.7h-2.1L1110,531c-0.1-0.1-0.1-0.3-0.2-0.4L721.8,455.7z"/>
				<path class="st9" d="M1131,653.5c0,13-0.7,25.8-2,38.4l38.7,1.6c9-7.7,14.7-19.1,14.7-31.8c0-15.2-8.1-28.5-20.3-35.8l-32.3-1.3
					C1130.6,634.1,1131,643.7,1131,653.5z"/>
				<path class="st9" d="M1126.4,711.8c0.6-3.4,1.1-6.9,1.5-10.3c0.4-3,0.7-6.1,1.1-9.1l-833.7-33.5c-0.1,0.9-0.1,1.8-0.1,2.8
					c0,23.1,18.7,41.8,41.8,41.8c4.1,0,8.1-0.6,11.9-1.7c-0.4-2.8-0.4-2.8,0,0.1c1.2,9,2.7,18,4.6,26.8l3.1,0.1L1126.4,711.8z"/>
				<path class="st9" d="M1127.9,701.4c0-0.2,0-0.3,0.1-0.5C1127.9,701.1,1127.9,701.3,1127.9,701.4z"/>
				<path class="st9" d="M1137.3,703.3c1.1,0.1,2.2,0.1,3.3,0.1c10.1,0,19.4-3.6,26.6-9.6l-38.3-1.5c-0.3,3.1-0.7,6.1-1.1,9.1
					c0,0,0-0.1,0-0.1c0-0.1,0-0.3,0.1-0.5c0-0.2,0-0.3,0.1-0.4c0,0,0-0.1,0-0.1c0-0.2,0-0.2,0,0c0,0,0,0.1,0,0.1
					c0,0.1,0,0.3-0.1,0.4c0,0.1,0,0.3-0.1,0.5c0,0.1,0,0.1,0,0.1c1,0.3,2,0.6,3.1,0.8C1133,702.8,1135.1,703.1,1137.3,703.3z"/>
				<path class="st9" d="M1128,700.5C1128,700.5,1128,700.4,1128,700.5C1128,700.4,1128,700.5,1128,700.5z"/>
				<path class="st9" d="M295.3,658.4c0,0.1,0,0.3,0,0.4l833.7,33.5c0-0.1,0-0.3,0-0.4L295.3,658.4z"/>
				<path class="st9" d="M1167.7,693.5l-38.7-1.6c0,0.1,0,0.3,0,0.4l38.3,1.5C1167.4,693.7,1167.5,693.6,1167.7,693.5z"/>
				<path class="st9" d="M1126.4,711.8c-2.6,16.2-6.3,32-10.9,47.4c-2.1,7-4.4,14-6.9,20.8l-733.9,16.2
					c-9.1-21.5-16.2-44.1-21.1-67.4l3.1-0.1L1126.4,711.8z"/>
				<path class="st9" d="M1075.3,847.9c13.2-21.2,24.3-43.8,33.1-67.5l-733.6,16.2c7.6,17.8,16.5,35,26.6,51.4H1075.3z"/>
				<path class="st9" d="M411.6,863.5c12.9,18.6,27.5,36.1,43.5,52.2h566.4c20.1-20.2,38-42.6,53.1-66.8L411.6,863.5z"/>
				<path class="st9" d="M401.4,847.9c3.3,5.3,6.7,10.5,10.3,15.6l663-14.6c0.2-0.3,0.4-0.7,0.6-1H401.4z"/>
				<path class="st9" d="M546.8,984h383.1c33.7-18.2,64.4-41.1,91.1-67.8H455.7C482.3,942.9,513,965.8,546.8,984z"/>
				<path class="st9" d="M691.9,1049l92.9-4.8v-14.8c52.2-5.9,101.2-21.8,145.1-45.5H546.8c43.9,23.7,93,39.5,145.2,45.5V1049z"/>
				<polygon class="st9" points="691.9,1112.1 784.8,1107.3 784.8,1051.8 691.9,1051.8 				"/>
				<polygon class="st9" points="691.9,1051.8 784.8,1051.8 784.8,1044.2 691.9,1049 				"/>
				<polygon class="st9" points="691.9,1116.9 691.9,1167.6 771.5,1175.8 784.8,1175.2 784.8,1112.1 				"/>
				<polygon class="st9" points="691.9,1116.9 784.8,1112.1 784.8,1107.3 691.9,1112.1 				"/>
				<polygon class="st9" points="691.9,1179.9 691.9,1235.8 704.8,1237.1 784.8,1233 784.8,1177.2 771.5,1175.8 				"/>
				<polygon class="st9" points="771.5,1175.8 691.9,1167.6 691.9,1179.9 				"/>
				<path class="st9" d="M676.3,1259.4l-263.4,12.8c-20.6,1-39.6,9.3-54.1,22.6l751.5-15.8l-92-9.5L802,1259.4
					c-5.8-0.3-11.5,0-17.2,0.9v-15l-80-8.3l-12.8,0.7v22.3C686.8,1259.4,681.5,1259.2,676.3,1259.4z"/>
				<polygon class="st9" points="784.8,1233 704.8,1237.1 784.8,1245.4 				"/>
				<path class="st9" d="M1110.8,1279.1c-9.1-3.8-18.9-6.1-29.1-6.5l-63.3-3l92,9.5L1110.8,1279.1z"/>
				<path class="st9" d="M358.8,1294.8c-8.7,8-15.8,17.8-20.7,29l781.9-40.2c-2.9-1.7-6-3.1-9.1-4.5l-0.7-0.1L358.8,1294.8z"/>
				<path class="st9" d="M1110.9,1279.1c-0.1,0-0.1-0.1-0.2-0.1l-0.5,0L1110.9,1279.1z"/>
				<polygon class="st9" points="322.8,1363.4 304.6,1410.4 1197.2,1410.4 1197.2,1406.2 1167.4,1345.7 				"/>
				<path class="st9" d="M1167.4,1345.7l-844.6,17.7l6.9-17.9l7-18.3c0.4-1.2,0.9-2.3,1.4-3.4l781.9-40.2
					c14.8,8.4,27,21.1,34.8,36.9l12.4,25L1167.4,1345.7z"/>
				<path class="st9" d="M924.7,320.1H552c-14.9,7.8-29.2,16.4-42.9,25.9c-18.1,12.6-35,26.6-50.6,41.9h267.6h292.1
					C990.8,361,959.4,338.1,924.7,320.1z"/>
				<path class="st9" d="M738.4,274.8c-67.4,0-130.9,16.4-186.4,45.3h372.7C869.3,291.2,805.8,274.8,738.4,274.8z"/>
			</g>
			<g>
				<g>
					<path class="st9" d="M630.7,501.2c37.2,17,53.6,61,36.6,98.2c-1.4,3.1-3.1,6.1-4.9,9l-121.2-85
						C561.7,496.7,598.7,486.6,630.7,501.2z"/>
					<path class="st9" d="M569,636c-37.2-17-53.6-61-36.6-98.2c2.4-5.2,5.3-10,8.7-14.4l121.2,85C642.8,639.2,603.1,651.6,569,636z"
						/>
				</g>
				<path class="st9" d="M587.8,556.1c-4.5,2.2-8.4,5.9-10.7,10.8c-5.1,11.2-0.2,24.4,11,29.5c11.2,5.1,24.4,0.2,29.5-11
					c1.1-2.3,1.7-4.7,1.9-7.1L587.8,556.1z"/>
			</g>
			<path class="st9" d="M630.7,501.2c5.2,2.4,10,5.3,14.4,8.7l482.5,93.1c-3.4-24.9-9.4-48.9-17.6-72l-390.3-75.3H403.5
				c-1.4,2.3-2.9,4.5-4.3,6.8l180.5,34.8C596.1,492.7,614,493.6,630.7,501.2z"/>
			<path class="st9" d="M1129.8,624.5l-465.9-18.7c-0.5,0.9-1,1.7-1.6,2.6c-19.5,30.8-59.3,43.2-93.3,27.6
				c-16.5-7.5-28.8-20.3-36.1-35.5l-182.2-7.3c-1.5,9.2-2.7,18.5-3.5,27.9c0,0,0,0,0,0c-3.3-0.8-6.7-1.3-10.2-1.3
				c-22,0-40,17-41.7,38.6l833.7,33.5c1.3-12.6,2-25.5,2-38.4C1131,643.7,1130.6,634.1,1129.8,624.5z"/>
			<path class="st9" d="M708.9,1264.1l1.9,0.7c18.7,6.5,39.1,6.4,57.8-0.3v0c5.3-1.9,10.7-3.3,16.2-4.1v-230.9
				c-15.2,1.8-30.7,2.7-46.4,2.7s-31.2-1-46.4-2.7v230.7C697.7,1260.9,703.4,1262.2,708.9,1264.1z"/>
			<path class="st34" d="M1059.8,468.1c10.2,17.1,15.6,37,15.3,56.9"/>
			<path class="st34" d="M1092,739.4c-5.5,8-10.9,16.1-16.4,24.1"/>
			<path class="st34" d="M370.2,683.2c21.8,5.1,44.4,6.9,66.8,5.3"/>
			<path class="st34" d="M449.9,889.1c4.2,13.3,12.8,25.1,24.2,33"/>
			<path class="st34" d="M802.8,1007.4c11.5,2.3,23.6,1.2,34.5-3.1"/>
			<path class="st34" d="M928.1,957.8c16-5.2,30.8-14.4,42.5-26.5"/>
			<path class="st34" d="M639.1,646.4c17.7-3.4,33-17.3,38-34.7"/>
			<path class="st34" d="M524,468.8c29.1-2.9,59.1,6.2,81.8,24.6"/>
			<path class="st34" d="M1157,652.1c3,9.4-0.8,20.6-9,26.1"/>
			<path class="st34" d="M517.8,365.3c36.5-10.3,73.7-18.3,111.2-24"/>
			<path class="st34" d="M677.7,301.8c33.7-7.4,68.7-8.8,102.9-4"/>
			<path class="st34" d="M700.4,1064.2c4.4,11.6,4.8,24.7,1.2,36.6"/>
			<path class="st34" d="M762.5,1189.7c-1,10.8-0.7,21.7,0.8,32.4"/>
			<path class="st34" d="M348.4,1335.4c-4.2,5.8-6.8,12.8-7.4,19.9"/>
			<path class="st35" d="M1106.8,1295.9c14.5,15.7,25.3,34.9,31.1,55.5"/>
		</g>
	</g>
</g>
</svg>
