<?xml version="1.0" encoding="utf-8"?>
<!-- Generator: Adobe Illustrator 22.1.0, SVG Export Plug-In . SVG Version: 6.00 Build 0)  -->
<svg version="1.1" xmlns="http://www.w3.org/2000/svg" xmlns:xlink="http://www.w3.org/1999/xlink" x="0px" y="0px"
	 viewBox="0 0 1455 1455" style="enable-background:new 0 0 1455 1455;" xml:space="preserve">
<style type="text/css">
	.st0{clip-path:url(#SVGID_2_);fill:#F7941D;}
	.st1{clip-path:url(#SVGID_2_);}
	.st2{fill:#BE1E2D;}
	.st3{fill:#E2ECF1;}
	.st4{fill:#C0D9E6;}
	.st5{fill:#52566C;}
	.st6{fill:#FFFFFF;}
	.st7{fill:#ED1C24;}
	.st8{fill:#20343E;}
	.st9{fill:none;stroke:#000000;stroke-width:5;stroke-linecap:round;stroke-linejoin:round;stroke-miterlimit:10;}
	.st10{fill:none;stroke:#000000;stroke-width:4;stroke-linecap:round;stroke-linejoin:round;stroke-miterlimit:10;}
	.st11{fill:none;stroke:#000000;stroke-width:4;stroke-linecap:round;stroke-miterlimit:10;}
	.st12{clip-path:url(#SVGID_4_);fill:#8DC63F;}
	.st13{clip-path:url(#SVGID_4_);}
	.st14{fill:#1E1B04;}
	.st15{fill:#515838;}
	.st16{fill:#33462D;}
	.st17{fill:#48432D;}
	.st18{fill:none;}
	.st19{fill:#594A42;}
	.st20{fill:#003242;}
	.st21{fill:#939598;}
	.st22{fill:#58595B;}
	.st23{fill:none;stroke:#000000;stroke-width:4;stroke-miterlimit:10;}
	.st24{fill:none;stroke:#FFFFFF;stroke-width:4;stroke-linecap:round;stroke-miterlimit:10;}
	.st25{clip-path:url(#SVGID_6_);fill:#FFF200;}
	.st26{clip-path:url(#SVGID_6_);}
	.st27{fill:#DDEBD4;}
	.st28{fill:#EBD9C5;}
	.st29{fill:#C2B59B;}
	.st30{fill:#E8E2D8;}
	.st31{fill:#B2D39F;}
	.st32{fill:#D3C8B5;}
	.st33{fill:#F7941D;}
	.st34{fill:none;stroke:#A97C50;stroke-width:4;stroke-linecap:round;stroke-miterlimit:10;}
	.st35{fill:none;stroke:#006838;stroke-width:4;stroke-linecap:round;stroke-miterlimit:10;}
	.st36{clip-path:url(#SVGID_8_);fill:#C2B59B;}
	.st37{clip-path:url(#SVGID_8_);}
	.st38{fill:#393437;}
	.st39{fill:#2A2629;}
	.st40{fill:#FFF200;}
	.st41{fill:#0A0000;}
	.st42{fill:#002628;}
	.st43{fill:#2B272A;}
	.st44{fill:#27252D;}
	.st45{clip-path:url(#SVGID_10_);fill:#006838;}
	.st46{clip-path:url(#SVGID_10_);}
	.st47{fill:#39B54A;}
	.st48{fill:#1A863F;}
	.st49{fill:#FFF680;}
	.st50{fill:#FBB040;}
	.st51{clip-path:url(#SVGID_12_);fill:#2B3990;}
	.st52{clip-path:url(#SVGID_12_);}
	.st53{fill:#F15A29;}
	.st54{fill:#F37429;}
	.st55{fill:#F58429;}
	.st56{fill:#FFC907;}
	.st57{fill:#E6E7E8;}
	.st58{fill:#47524C;}
	.st59{fill:#CAAD2D;stroke:#000000;stroke-width:5;stroke-linecap:round;stroke-linejoin:round;stroke-miterlimit:10;}
	.st60{fill:#817B31;stroke:#000000;stroke-width:5;stroke-linecap:round;stroke-linejoin:round;stroke-miterlimit:10;}
	.st61{clip-path:url(#SVGID_14_);fill:#58595B;}
	.st62{clip-path:url(#SVGID_14_);}
	.st63{fill:#D8E2E7;}
	.st64{clip-path:url(#SVGID_16_);fill:#C49A6C;}
	.st65{clip-path:url(#SVGID_16_);}
	.st66{fill:#434B3A;}
	.st67{fill:#4F584D;}
	.st68{fill:#0B2129;}
	.st69{fill:#998A8B;}
</style>
<g id="Layer_2">
</g>
<g id="Details">
</g>
<g id="Lines">
	<g>
		<defs>
			<path id="SVGID_9_" d="M727.5,46.7C387,46.7,111,322.7,111,663.2c0,206.9,102,390.1,258.4,501.9l-0.2,0.3
				c-2.3,4.5-4.7,8.9-7.2,13c-14.5,24.2-33.3,31.9-55.1,40.9c-7.1,2.9-14.4,5.9-22.2,9.7c-27.4,13.4-38.6,39.1-31.8,54.8
				c6,13.9,23.6,16.8,47,7.8c45-17.2,86.2-44.9,119.1-80.2c7.9,13.8,10.4,37.9-16.7,77.5l-0.1,0.1c-17.4,25.4-37.1,54.3-27.7,83.8
				c4.6,14.5,16,25.6,32.1,31.3c7.7,2.7,16,4.1,24.2,4.1c14.1,0,28.1-3.9,39.4-11.2c32.8-21.6,46.7-61.6,55.1-94.1
				c0.6-2.3,1.2-4.6,1.8-6.9c3.9-15.2,7.8-30.9,14.4-44.7l0.1-0.3c58.6,18.5,121,28.5,185.8,28.5c22.7,0,45.1-1.2,67.2-3.6
				c21.1-2.3,41.8-5.6,62.2-10c32.6-7,64.2-16.5,94.7-28.4c28.3-11,55.6-24.1,81.6-39c38.7-22.2,74.8-48.4,107.7-78.2
				c12.2-11,23.9-22.5,35.2-34.5C1280.2,975.6,1344,826.8,1344,663.2C1344,322.7,1068,46.7,727.5,46.7z"/>
		</defs>
		<clipPath id="SVGID_2_">
			<use xlink:href="#SVGID_9_"  style="overflow:visible;"/>
		</clipPath>
		<circle style="clip-path:url(#SVGID_2_);fill:#006838;" cx="727.5" cy="663.2" r="616.5"/>
		<g class="st1">
			<path class="st47" d="M398.3,850.9c-10.9-127.9-29.6-259.9,9.7-382.1c24.4-75.9,71-144.5,132.6-195.2
				c56.4-46.4,127.2-78,200.2-77.2c58.5,0.7,114.7,21.7,168.8,44.1c26.7,11,54,22.9,74.5,43.3c76.5,76,22.5,222.2,94.9,302.1
				c42.4,46.7,34.5,156.2,38.3,214.6c1.9,30.2,8.9,60,11.5,88.8c3,34-0.5,62.9,9.8,97.1c10.5,35,26.4,68.2,38.9,102.5
				c10.1,27.9,17.9,56.6,23.3,85.8c6.2,33.5,6.5,74.3-21,94.4c-2.2,1.6-4.6,3.1-7.3,3.7c-7.8,1.9-15.5-3.7-20.4-10.1
				c-19.6-25.6-12.3-61.6-10-93.7c2.3-32.3-1.4-64.9-10.9-95.8c-4.8-15.6-11.6-31.5-24.4-41.7c-19.2-15.2-50.9-17.4-59.2-40.5
				c-4.7-12.9-4.5-33.5-18.3-33.2c-4,0.1-7.5,2.5-10.6,5.1c-39.9,33.4-14.7,95.9-5.8,138.2c20.3,96.4,40.5,192.9,60.8,289.3
				c5.5,26.2,11,53.2,6.4,79.7c-4.6,26.4-21.9,52.4-47.9,59.1c-11.8-50.2-19.1-101.4-21.8-152.9c-0.9-16.5-1.3-33.3-6.6-49
				c-6.9-20.6-21.6-37.6-33.7-55.7c-14.9-22.4-26.3-47.9-28.4-74.7c-4-53.1,27.2-112.8-3.8-156.1c-52.7,25.5-71.9,90.6-77.7,148.9
				c-10.9,109.6,5.9,221.9,48.5,323.6c9.7,23.2,20.1,51.7,4.5,71.4c-18,22.7-57.6,11.5-73-13.1c-15.4-24.5-14.3-55.5-14.7-84.4
				c-1.1-73-14.9-145.2-28.7-216.9c-1.9-10.1-4.1-20.6-10.4-28.7c-8.8-11.1-23.6-15.1-37.5-18.3c-25.4-5.8-50.9-11-76.6-15.5
				c-39.7-7-85.8-10.5-115.1,17.2c-20.7,19.6-26.9,49.5-34,77.1c-9.2,35.5-23.5,72.6-54.1,92.7s-81,12.1-92.1-22.8
				c-9-28.5,10.6-57.2,27.5-81.9c16.9-24.7,31.9-58.1,15.1-82.8c-33.1,36.1-74.6,64.3-120.3,81.8c-58.3,22.3-58.7-36.2-13.3-58.3
				c32.1-15.6,58.6-18.8,78.2-51.5C418.7,1088.5,406.9,951.7,398.3,850.9z"/>
			<path class="st8" d="M667.7,762.8c8.7,17.9,37.1,12.9,50.5-1.9c13.3-14.7,19.1-35.2,33.1-49.4c18.3-18.7,49.9-22.3,72-8.3
				c11.5,7.3,24,19.2,36.4,13.6c9.4-4.2,11.9-15.9,14.3-25.9c5.9-24.5,17.6-47.7,33.8-66.9c8.2-9.7,18.3-18.8,30.7-21
				c12.5-2.2,27.3,5.3,28.9,17.9c2.7,20.7-28.6,32.8-28.5,53.7c0,7.8,4.6,14.8,8,21.8c19,39.1-1.4,92.2-41.6,108.6
				c-17.2,7-36.3,7.8-54,13.3c-29.4,9.2-52.9,30.8-78,48.7c-25.1,17.9-55.6,33-85.7,26.2c-29.6-6.6-50.6-32.6-66.9-58.1
				c-3.3-5.1-6.5-11.2-4.5-16.9c1.6-4.4,5.9-7,8.7-10.7c7-9.1,3.8-22.2-0.9-32.6c-4.8-10.4-11.1-21.1-9.5-32.5
				c1.6-11.4,20.7-23.6,31.7-21.2C668.6,726,660.3,747.7,667.7,762.8z"/>
			<g>
				<path class="st48" d="M587.1,528.6c-40.9,0-74.1,33.2-74.1,74.1c0,3.5,0.3,6.8,0.7,10.2L659.3,586
					C651.8,553.1,622.3,528.6,587.1,528.6z"/>
				<path class="st49" d="M587.1,676.8c40.9,0,74.1-33.2,74.1-74.1c0-5.7-0.7-11.3-1.9-16.7l-145.6,26.9
					C518.7,649,549.7,676.8,587.1,676.8z"/>
			</g>
			<g>
				<path class="st48" d="M871.9,463.2c40.9,0,74.1,33.2,74.1,74.1c0,3.5-0.3,6.8-0.7,10.2l-145.6-26.9
					C807.3,487.8,836.7,463.2,871.9,463.2z"/>
				<path class="st49" d="M871.9,611.5c-40.9,0-74.1-33.2-74.1-74.1c0-5.7,0.7-11.3,1.9-16.7l145.6,26.9
					C940.4,583.6,909.4,611.5,871.9,611.5z"/>
			</g>
			<path class="st50" d="M566.6,603.1c-0.8,2.3-1.3,4.9-1.3,7.5c0,12.3,10,22.3,22.3,22.3c12.3,0,22.3-10,22.3-22.3
				c0-5.5-2-10.6-5.4-14.5L566.6,603.1z"/>
			<path class="st50" d="M855.8,531c-3.2,3.9-5.2,8.8-5.2,14.3c0,12.3,10,22.3,22.3,22.3c12.3,0,22.3-10,22.3-22.3
				c0-2.5-0.4-5-1.2-7.2L855.8,531z"/>
			<path class="st33" d="M846.2,820.1c-16.2-7.8-35.5-12.3-56.1-12.3c-58,0-105,35.7-105,79.8c0,1.8,0.1,3.5,0.2,5.2
				c0.8,0.2,1.5,0.4,2.3,0.6c30.1,6.7,60.6-8.3,85.7-26.2C796.9,850.3,819.2,830.1,846.2,820.1z"/>
			<path class="st9" d="M398.3,850.9c-10.9-127.9-29.6-259.9,9.7-382.1c24.4-75.9,71-144.5,132.6-195.2
				c56.4-46.4,127.2-78,200.2-77.2c58.5,0.7,114.7,21.7,168.8,44.1c26.7,11,54,22.9,74.5,43.3c76.5,76,22.5,222.2,94.9,302.1
				c42.4,46.7,34.5,156.2,38.3,214.6c1.9,30.2,8.9,60,11.5,88.8c3,34-0.5,62.9,9.8,97.1c10.5,35,26.4,68.2,38.9,102.5
				c10.1,27.9,17.9,56.6,23.3,85.8c6.2,33.5,6.5,74.3-21,94.4c-2.2,1.6-4.6,3.1-7.3,3.7c-7.8,1.9-15.5-3.7-20.4-10.1
				c-19.6-25.6-12.3-61.6-10-93.7c2.3-32.3-1.4-64.9-10.9-95.8c-4.8-15.6-11.6-31.5-24.4-41.7c-19.2-15.2-50.9-17.4-59.2-40.5
				c-4.7-12.9-4.5-33.5-18.3-33.2c-4,0.1-7.5,2.5-10.6,5.1c-39.9,33.4-14.7,95.9-5.8,138.2c20.3,96.4,40.5,192.9,60.8,289.3
				c5.5,26.2,11,53.2,6.4,79.7c-4.6,26.4-21.9,52.4-47.9,59.1c-11.8-50.2-19.1-101.4-21.8-152.9c-0.9-16.5-1.3-33.3-6.6-49
				c-6.9-20.6-21.6-37.6-33.7-55.7c-14.9-22.4-26.3-47.9-28.4-74.7c-4-53.1,27.2-112.8-3.8-156.1c-52.7,25.5-71.9,90.6-77.7,148.9
				c-10.9,109.6,5.9,221.9,48.5,323.6c9.7,23.2,20.1,51.7,4.5,71.4c-18,22.7-57.6,11.5-73-13.1c-15.4-24.5-14.3-55.5-14.7-84.4
				c-1.1-73-14.9-145.2-28.7-216.9c-1.9-10.1-4.1-20.6-10.4-28.7c-8.8-11.1-23.6-15.1-37.5-18.3c-25.4-5.8-50.9-11-76.6-15.5
				c-39.7-7-85.8-10.5-115.1,17.2c-20.7,19.6-26.9,49.5-34,77.1c-9.2,35.5-23.5,72.6-54.1,92.7s-81,12.1-92.1-22.8
				c-9-28.5,10.6-57.2,27.5-81.9c16.9-24.7,31.9-58.1,15.1-82.8c-33.1,36.1-74.6,64.3-120.3,81.8c-58.3,22.3-58.7-36.2-13.3-58.3
				c32.1-15.6,58.6-18.8,78.2-51.5C418.7,1088.5,406.9,951.7,398.3,850.9z"/>
			<path class="st9" d="M667.7,762.8c8.7,17.9,37.1,12.9,50.5-1.9c13.3-14.7,19.1-35.2,33.1-49.4c18.3-18.7,49.9-22.3,72-8.3
				c11.5,7.3,24,19.2,36.4,13.6c9.4-4.2,11.9-15.9,14.3-25.9c5.9-24.5,17.6-47.7,33.8-66.9c8.2-9.7,18.3-18.8,30.7-21
				c12.5-2.2,27.3,5.3,28.9,17.9c2.7,20.7-28.6,32.8-28.5,53.7c0,7.8,4.6,14.8,8,21.8c19,39.1-1.4,92.2-41.6,108.6
				c-17.2,7-36.3,7.8-54,13.3c-29.4,9.2-52.9,30.8-78,48.7c-25.1,17.9-55.6,33-85.7,26.2c-29.6-6.6-50.6-32.6-66.9-58.1
				c-3.3-5.1-6.5-11.2-4.5-16.9c1.6-4.4,5.9-7,8.7-10.7c7-9.1,3.8-22.2-0.9-32.6c-4.8-10.4-11.1-21.1-9.5-32.5
				c1.6-11.4,20.7-23.6,31.7-21.2C668.6,726,660.3,747.7,667.7,762.8z"/>
			<g>
				<path class="st9" d="M587.1,528.6c-40.9,0-74.1,33.2-74.1,74.1c0,3.5,0.3,6.8,0.7,10.2L659.3,586
					C651.8,553.1,622.3,528.6,587.1,528.6z"/>
				<path class="st9" d="M587.1,676.8c40.9,0,74.1-33.2,74.1-74.1c0-5.7-0.7-11.3-1.9-16.7l-145.6,26.9
					C518.7,649,549.7,676.8,587.1,676.8z"/>
			</g>
			<g>
				<path class="st9" d="M871.9,463.2c40.9,0,74.1,33.2,74.1,74.1c0,3.5-0.3,6.8-0.7,10.2l-145.6-26.9
					C807.3,487.8,836.7,463.2,871.9,463.2z"/>
				<path class="st9" d="M871.9,611.5c-40.9,0-74.1-33.2-74.1-74.1c0-5.7,0.7-11.3,1.9-16.7l145.6,26.9
					C940.4,583.6,909.4,611.5,871.9,611.5z"/>
			</g>
			<path class="st9" d="M566.6,603.1c-0.8,2.3-1.3,4.9-1.3,7.5c0,12.3,10,22.3,22.3,22.3c12.3,0,22.3-10,22.3-22.3
				c0-5.5-2-10.6-5.4-14.5L566.6,603.1z"/>
			<path class="st9" d="M855.8,531c-3.2,3.9-5.2,8.8-5.2,14.3c0,12.3,10,22.3,22.3,22.3c12.3,0,22.3-10,22.3-22.3
				c0-2.5-0.4-5-1.2-7.2L855.8,531z"/>
			<path class="st9" d="M846.2,820.1c-16.2-7.8-35.5-12.3-56.1-12.3c-58,0-105,35.7-105,79.8c0,1.8,0.1,3.5,0.2,5.2
				c0.8,0.2,1.5,0.4,2.3,0.6c30.1,6.7,60.6-8.3,85.7-26.2C796.9,850.3,819.2,830.1,846.2,820.1z"/>
			<path class="st11" d="M1047.6,1497.8c11.9-10,13-27.6,13.1-43.2c0.2-28.7,0.4-57.5,0.7-86.2"/>
			<path class="st11" d="M1161.3,1089.4c9.2,5.4,11.6,17.4,13,28c3.4,25.3,6.7,50.7,10.1,76c0.8,5.9,1.6,11.8,1.7,17.8
				c0.4,14.8-3.3,29.7-10.6,42.7c-2.1,3.7-7,7.7-10,4.6c-1.6-3.8-3.1-7.7-4.7-11.5"/>
			<path class="st11" d="M278.1,1251.9c-10.7,2.5-17.6,16.2-12.3,25.8c5.3,9.7,21.8,10.5,27.2,0.9"/>
			<path class="st11" d="M398.2,1329.3c-13.3,14.6-11.6,40.3,3.6,53c1.9,1.6,4.1,3,6.5,3.5c2.7,0.5,5.5-0.2,8.1-1
				c21.8-6.5,42.7-16.1,61.8-28.4c5.9-3.8,11.8-8.1,15.4-14.1c2.9-5,4-10.9,5-16.6c4.8-26.9,9.6-53.8,14.3-80.7"/>
			<path class="st11" d="M1030.3,1446.8c-2.8,12.5-3.9,25.4-3.3,38.2c0.3,6.5,1.2,13.5,5.6,18.3c4.4,4.8,13.3,6,17,0.6"/>
			<path class="st11" d="M663.6,232c27.6-12.9,58.8-26,87.4-15.7c14.9,5.4,28.2,16.9,44,16.5"/>
			<path class="st11" d="M1018.2,496.3c6.3,7.2,5,18,4.8,27.6c-0.5,16.3,3.1,32.7,10.4,47.3c6,12.1,14.4,22.9,19.3,35.5
				c2.7,6.9,4.3,14.3,8.3,20.5c3.1,4.6,7.3,8.3,10.9,12.6c9.7,11.6,13.5,27,17,41.7"/>
			<path class="st11" d="M406.8,758.1c1.5,22.6,9.5,44.3,12.4,66.8c1.5,11.6,1.6,23.4,1.6,35.1c0.2,33.7,0.5,67.5,0.7,101.2
				c0.1,16,0.2,32.1-2.5,47.8"/>
			<path class="st11" d="M969.8,403.8c11.3-12.8,5.7-32.6-0.5-48.5c-3-7.8-6.1-15.6-9.1-23.4c-3.5-9-8.8-19.1-18.8-18.9
				C948.3,343.5,963.9,372.1,969.8,403.8z"/>
			<path class="st11" d="M451.7,410.3c-7,6.7-14.1,13.6-19,22c-10.2,17.6-9.3,39.1-8.2,59.4C446.1,458,472,422.3,487,385.3
				C473,386,461.4,401,451.7,410.3z"/>
			<path class="st11" d="M502.5,560.4c10.3-18.7,29-32.6,49.9-36.9"/>
			<path class="st11" d="M903.5,443.6c17.3,9.4,36.5,21.2,40.1,40.5"/>
			<path class="st11" d="M635.1,678.7c20.8-7.8,36.4-27.8,39-49.8"/>
			<path class="st11" d="M791.2,586.4c8,4.7,6.9,17.8,14.5,23.1c5.3,3.7,12.7,2.1,18.5,4.8c3.6,1.7,6.5,5.1,10.3,6.2
				c4.6,1.3,9.7-0.8,14.3,0.7c3.8,1.2,6.4,4.7,9.4,7.2s7.8,4.3,10.9,1.7"/>
			<path class="st11" d="M965.6,707.5c-1,11.7,0.2,23.5,3.3,34.7c0.8,3,1.8,6.1,1.9,9.3c0,2.7-0.7,5.3-1.4,7.9
				c-2.9,11-5.8,22-8.7,32.9c-1.4,5.3-3.1,11-7.6,14.1c-6.6,4.4-15.5,1.1-23.2,2.7c-15.2,3.2-21.1,23.7-35.9,28.4
				c-10.2,3.2-23.9-1.1-30.1,7.5"/>
			<path class="st11" d="M609.6,865c4.9,15.3,10.7,31.8,24.2,40.4c6.4,4.1,14.6,6,21.9,3.8c2.4-0.7,4.9-1.9,7.4-1.7
				c6.3,0.4,9,8,10.1,14.2"/>
			<path class="st11" d="M439.9,1193.1c3.6-1.6,7.9,0.8,9.8,4.2c1.9,3.4,1.9,7.5,1.9,11.4c-0.1,11.7-0.1,23.4-0.2,35.1
				c0,3.5,0,7-0.8,10.4c-1.2,5.4-4.2,10.3-7.1,15.1c-6.6,10.8-13.2,21.5-19.8,32.3"/>
			<path class="st11" d="M776.9,1209.4c10-1.1,18.6,8.1,21.2,17.8c2.6,9.7,1.2,20,1.4,30.1c0.2,10.4,2.3,20.7,4.5,30.9
				c10.7,51.2,22.3,102.2,34.8,153.1"/>
		</g>
	</g>
</g>
</svg>
