<svg xmlns="http://www.w3.org/2000/svg" xmlns:xlink="http://www.w3.org/1999/xlink" x="0" y="0" version="1.1" viewBox="0 0 1455 1455" xml:space="preserve" style="enable-background:new 0 0 1455 1455"><style type="text/css">.st0{fill:#f7941d}.st0,.st1{clip-path:url(#SVGID_2_)}.st2{fill:#be1e2d}.st3{fill:#e2ecf1}.st4{fill:#c0d9e6}.st5{fill:#52566c}.st6{fill:#fff}.st7{fill:#ed1c24}.st8{fill:#20343e}.st9{fill:none;stroke:#000;stroke-width:5;stroke-linecap:round;stroke-miterlimit:10}.st10,.st9{stroke-linejoin:round}.st10,.st11{fill:none;stroke:#000;stroke-width:4;stroke-linecap:round;stroke-miterlimit:10}</style><g id="Lines"><g><defs><circle id="SVGID_1_" cx="727.5" cy="727.5" r="616.5"/></defs><clipPath id="SVGID_2_"><use xlink:href="#SVGID_1_" style="overflow:visible"/></clipPath><circle cx="727.5" cy="727.5" r="616.5" class="st0"/><g class="st1"><path d="M851,1259.3c0,0,107.8-154.5,160-168c0,0-94-80.8-269.3-70.7c-175.3-10.1-269.3,70.7-269.3,70.7 c52.2,13.5,160,168,160,168H851z" class="st2"/><ellipse cx="738.4" cy="653.5" class="st3" rx="392.6" ry="378.7"/><path d="M345.7,653.5c0-10.9,0.5-21.7,1.4-32.4c-3.3-0.8-6.7-1.3-10.2-1.3c-23.1,0-41.8,18.7-41.8,41.8 s18.7,41.8,41.8,41.8c4.1,0,8.1-0.6,11.9-1.7C346.8,685.9,345.7,669.8,345.7,653.5z" class="st4"/><path d="M1140.6,619.8c-3.8,0-7.5,0.5-11,1.5c0.9,10.6,1.4,21.3,1.4,32.2c0,16.3-1.1,32.3-3.1,48c4,1.3,8.3,2,12.7,2 c23.1,0,41.8-18.7,41.8-41.8S1163.7,619.8,1140.6,619.8z" class="st4"/><path d="M412.9,1236.3l263.4-12.8c11.1-0.5,22.1,1.1,32.6,4.7l1.9,0.7c18.7,6.5,39.1,6.4,57.8-0.3h0c10.7-3.9,22-5.6,33.4-5.1 l279.6,13.1c31.3,1.5,59.3,19.8,73.2,47.9l44.4,90H304.6l32.1-83.2C349,1259.5,378.9,1238,412.9,1236.3z"/><g><path d="M731.2,544.3c-28.9-28.9-75.9-28.9-104.8,0c-2.4,2.4-4.7,5-6.7,7.7l122,84 C759.5,607.3,756,569.2,731.2,544.3z" class="st5"/><path d="M626.4,649.1c28.9,28.9,75.9,28.9,104.8,0c4.1-4.1,7.5-8.5,10.5-13.2l-122-84 C597.6,581,599.9,622.6,626.4,649.1z" class="st6"/></g><path d="M663.9,582.4c-2.3,1.1-4.4,2.5-6.2,4.4c-8.7,8.7-8.7,22.8,0,31.5c8.7,8.7,22.8,8.7,31.5,0 c3.9-3.9,6.1-8.9,6.4-14L663.9,582.4z" class="st7"/><g><g><path d="M908.8,530.4c-38.1,14.9-57,57.9-42.1,96c1.3,3.2,2.7,6.3,4.4,9.2l125.8-78 C977.9,529.7,941.6,517.6,908.8,530.4z" class="st5"/><path d="M962.8,668.5c38.1-14.9,57-57.9,42.1-96c-2.1-5.4-4.8-10.3-7.9-14.9l-125.8,78 C888.9,667.5,927.8,682.1,962.8,668.5z" class="st6"/></g><path d="M908.4,612.1c0.1,2.5,0.5,5,1.5,7.5c4.5,11.5,17.4,17.1,28.9,12.6c11.5-4.5,17.1-17.4,12.6-28.8 c-2-5.2-5.7-9.1-10.3-11.5L908.4,612.1z" class="st7"/></g><path d="M557.6,747.9l-26.7,57.8c51.3,108.8,217.2,129.7,325,83l-6.6-51.7C701,831.1,606.7,782.6,557.6,747.9z" class="st8"/><path d="M516.1,712.6c-2.7,31.2,1.2,58.5,10.2,82.1l10.3-63C522.7,720.3,516.1,712.6,516.1,712.6z" class="st8"/><path d="M927.4,836.2c-18.3,1.1-35.9,1.5-52.9,1.4l-6.7,45.6C892,871.1,912.6,855.4,927.4,836.2z" class="st8"/><path d="M536.5,731.8l-10.3,63l-5.3,32.7l10-21.7l26.7-57.8C549.3,742,542.3,736.6,536.5,731.8z" class="st6"/><path d="M849.4,837l6.6,51.7l5.1,40.6l6.7-46.2l6.7-45.6C865.9,837.5,857.6,837.3,849.4,837z" class="st6"/><path d="M802,1223.5c-11.4-0.5-22.7,1.2-33.4,5.1v0c-18.6,6.8-39.1,6.9-57.8,0.3l-1.9-0.7 c-10.5-3.7-21.5-5.3-32.6-4.7l-13.5,0.7l75.5,150.4l85.1-150L802,1223.5z" class="st6"/><path d="M708.9,1228.2l1.9,0.7c18.7,6.5,39.1,6.4,57.8-0.3v0c5.3-1.9,10.7-3.3,16.2-4.1v-195 c-15.2,1.8-30.7,2.7-46.4,2.7c-15.7,0-31.2-1-46.4-2.7v194.8C697.7,1225,703.4,1226.3,708.9,1228.2z" class="st4"/><path d="M738.4,274.8c-216.8,0-392.6,169.5-392.6,378.7c0,21.2,1.8,41.9,5.3,62.2l10.1-3v-66l47-3.4 c-6.4-21.7-9.9-44.7-9.9-68.7c0-125.4,95.3-227,212.8-227c85.4,0,159,53.7,192.9,131.1c17.2-70.8,65.7-128.2,128.7-154.4 C875.4,292.8,809.1,274.8,738.4,274.8z" class="st8"/><path d="M412.9,1236.3l263.4-12.8c11.1-0.5,22.1,1.1,32.6,4.7l1.9,0.7c18.7,6.5,39.1,6.4,57.8-0.3h0 c10.7-3.9,22-5.6,33.4-5.1l279.6,13.1c31.3,1.5,59.3,19.8,73.2,47.9l44.4,90H304.6l32.1-83.2C349,1259.5,378.9,1238,412.9,1236.3 z" class="st9"/><path d="M802,1223.5c-11.4-0.5-22.7,1.2-33.4,5.1v0c-18.6,6.8-39.1,6.9-57.8,0.3l-1.9-0.7 c-10.5-3.7-21.5-5.3-32.6-4.7l-13.5,0.7l75.5,150.4l85.1-150L802,1223.5z" class="st9"/><path d="M708.9,1228.2l1.9,0.7c18.7,6.5,39.1,6.4,57.8-0.3v0c5.3-1.9,10.7-3.3,16.2-4.1v-195 c-15.2,1.8-30.7,2.7-46.4,2.7c-15.7,0-31.2-1-46.4-2.7v194.8C697.7,1225,703.4,1226.3,708.9,1228.2z" class="st9"/><ellipse cx="738.4" cy="653.5" class="st9" rx="392.6" ry="378.7"/><path d="M345.7,653.5c0-10.9,0.5-21.7,1.4-32.4c-3.3-0.8-6.7-1.3-10.2-1.3c-23.1,0-41.8,18.7-41.8,41.8 s18.7,41.8,41.8,41.8c4.1,0,8.1-0.6,11.9-1.7C346.8,685.9,345.7,669.8,345.7,653.5z" class="st9"/><path d="M1140.6,619.8c-3.8,0-7.5,0.5-11,1.5c0.9,10.6,1.4,21.3,1.4,32.2c0,16.3-1.1,32.3-3.1,48c4,1.3,8.3,2,12.7,2 c23.1,0,41.8-18.7,41.8-41.8S1163.7,619.8,1140.6,619.8z" class="st9"/><path d="M412.9,1236.3l263.4-12.8c11.1-0.5,22.1,1.1,32.6,4.7l1.9,0.7c18.7,6.5,39.1,6.4,57.8-0.3h0 c10.7-3.9,22-5.6,33.4-5.1l279.6,13.1c31.3,1.5,59.3,19.8,73.2,47.9l44.4,90H304.6l32.1-83.2C349,1259.5,378.9,1238,412.9,1236.3 z" class="st9"/><polyline points="805.9 507.3 823.8 737.9 784.8 737.9" class="st9"/><line x1="702.2" x2="755.4" y1="480.7" y2="533.9" class="st9"/><line x1="914.8" x2="861.7" y1="480.7" y2="533.9" class="st9"/><g><path d="M731.2,544.3c-28.9-28.9-75.9-28.9-104.8,0c-2.4,2.4-4.7,5-6.7,7.7l122,84 C759.5,607.3,756,569.2,731.2,544.3z" class="st9"/><path d="M626.4,649.1c28.9,28.9,75.9,28.9,104.8,0c4.1-4.1,7.5-8.5,10.5-13.2l-122-84 C597.6,581,599.9,622.6,626.4,649.1z" class="st9"/></g><path d="M663.9,582.4c-2.3,1.1-4.4,2.5-6.2,4.4c-8.7,8.7-8.7,22.8,0,31.5c8.7,8.7,22.8,8.7,31.5,0 c3.9-3.9,6.1-8.9,6.4-14L663.9,582.4z" class="st9"/><g><g><path d="M908.8,530.4c-38.1,14.9-57,57.9-42.1,96c1.3,3.2,2.7,6.3,4.4,9.2l125.8-78 C977.9,529.7,941.6,517.6,908.8,530.4z" class="st9"/><path d="M962.8,668.5c38.1-14.9,57-57.9,42.1-96c-2.1-5.4-4.8-10.3-7.9-14.9l-125.8,78 C888.9,667.5,927.8,682.1,962.8,668.5z" class="st9"/></g><path d="M908.4,612.1c0.1,2.5,0.5,5,1.5,7.5c4.5,11.5,17.4,17.1,28.9,12.6c11.5-4.5,17.1-17.4,12.6-28.8 c-2-5.2-5.7-9.1-10.3-11.5L908.4,612.1z" class="st9"/></g><g><path d="M557.6,747.9l-26.7,57.8c51.3,108.8,217.2,129.7,325,83l-6.6-51.7C701,831.1,606.7,782.6,557.6,747.9z" class="st9"/><path d="M516.1,712.6c-2.7,31.2,1.2,58.5,10.2,82.1l10.3-63C522.7,720.3,516.1,712.6,516.1,712.6z" class="st9"/><path d="M927.4,836.2c-18.3,1.1-35.9,1.5-52.9,1.4l-6.7,45.6C892,871.1,912.6,855.4,927.4,836.2z" class="st9"/><path d="M536.5,731.8l-10.3,63l-5.3,32.7l10-21.7l26.7-57.8C549.3,742,542.3,736.6,536.5,731.8z" class="st9"/><path d="M849.4,837l6.6,51.7l5.1,40.6l6.7-46.2l6.7-45.6C865.9,837.5,857.6,837.3,849.4,837z" class="st9"/></g><path d="M738.4,1032.1c-29.3,0-57.8-3.1-85.2-9c-118.2,14.3-180.8,68.1-180.8,68.1c36.9,9.5,101.5,89.4,136.2,135.5 l67.8-3.3c11.1-0.5,22.1,1.1,32.6,4.7l1.9,0.7c18.7,6.5,39.1,6.4,57.8-0.3v0c10.7-3.9,22-5.6,33.4-5.1l72.6,3.4 c34.7-46.1,99.4-126.1,136.3-135.6c0,0-64.1-55.1-185-68.6C797.8,1028.9,768.5,1032.1,738.4,1032.1z" class="st9"/><path d="M888.5,1155.7c18.5-30.8,49.6-53.8,84.5-62.3" class="st10"/><path d="M548.2,1084.1c24.8,7,37.5,33.7,47.2,57.5c8.9,21.9,17.8,43.7,26.6,65.6" class="st10"/><path d="M628.2,1063c14.4,29.6,23.4,61.8,26.3,94.5" class="st10"/><path d="M836.3,1058.8c-19.2,34.7-31.8,73.1-36.9,112.4" class="st10"/><path d="M885.7,1078.3c-33,33.1-57.5,74.5-70.8,119.3" class="st10"/><path d="M490.3,725.2c3.2-7.7,7.3-15.1,12.3-21.8c1.6-2.1,3.6-4.4,6.2-4.5c6.4-0.4,9.1,11,15.4,9.8" class="st11"/></g></g></g></svg>