<?xml version="1.0" encoding="utf-8"?>
<!-- Generator: Adobe Illustrator 22.1.0, SVG Export Plug-In . SVG Version: 6.00 Build 0)  -->
<svg version="1.1" xmlns="http://www.w3.org/2000/svg" xmlns:xlink="http://www.w3.org/1999/xlink" x="0px" y="0px"
	 viewBox="0 0 1455 1455" style="enable-background:new 0 0 1455 1455;" xml:space="preserve">
<style type="text/css">
	.st0{clip-path:url(#SVGID_2_);fill:#F7941D;}
	.st1{clip-path:url(#SVGID_2_);}
	.st2{fill:#BE1E2D;}
	.st3{fill:#E2ECF1;}
	.st4{fill:#C0D9E6;}
	.st5{fill:#52566C;}
	.st6{fill:#FFFFFF;}
	.st7{fill:#ED1C24;}
	.st8{fill:#20343E;}
	.st9{fill:none;stroke:#000000;stroke-width:5;stroke-linecap:round;stroke-linejoin:round;stroke-miterlimit:10;}
	.st10{fill:none;stroke:#000000;stroke-width:4;stroke-linecap:round;stroke-linejoin:round;stroke-miterlimit:10;}
	.st11{fill:none;stroke:#000000;stroke-width:4;stroke-linecap:round;stroke-miterlimit:10;}
	.st12{clip-path:url(#SVGID_4_);fill:#8DC63F;}
	.st13{clip-path:url(#SVGID_4_);}
	.st14{fill:#1E1B04;}
	.st15{fill:#515838;}
	.st16{fill:#33462D;}
	.st17{fill:#48432D;}
	.st18{fill:none;}
	.st19{fill:#594A42;}
	.st20{fill:#003242;}
	.st21{fill:#939598;}
	.st22{fill:#58595B;}
	.st23{fill:none;stroke:#000000;stroke-width:4;stroke-miterlimit:10;}
	.st24{fill:none;stroke:#FFFFFF;stroke-width:4;stroke-linecap:round;stroke-miterlimit:10;}
	.st25{clip-path:url(#SVGID_6_);fill:#FFF200;}
	.st26{clip-path:url(#SVGID_6_);}
	.st27{fill:#DDEBD4;}
	.st28{fill:#EBD9C5;}
	.st29{fill:#C2B59B;}
	.st30{fill:#E8E2D8;}
	.st31{fill:#B2D39F;}
	.st32{fill:#D3C8B5;}
	.st33{fill:#F7941D;}
	.st34{fill:none;stroke:#A97C50;stroke-width:4;stroke-linecap:round;stroke-miterlimit:10;}
	.st35{fill:none;stroke:#006838;stroke-width:4;stroke-linecap:round;stroke-miterlimit:10;}
	.st36{clip-path:url(#SVGID_8_);fill:#C2B59B;}
	.st37{clip-path:url(#SVGID_8_);}
	.st38{fill:#393437;}
	.st39{fill:#2A2629;}
	.st40{fill:#FFF200;}
	.st41{fill:#0A0000;}
	.st42{fill:#002628;}
	.st43{fill:#2B272A;}
	.st44{fill:#27252D;}
	.st45{clip-path:url(#SVGID_10_);fill:#006838;}
	.st46{clip-path:url(#SVGID_10_);}
	.st47{fill:#39B54A;}
	.st48{fill:#1A863F;}
	.st49{fill:#FFF680;}
	.st50{fill:#FBB040;}
	.st51{clip-path:url(#SVGID_12_);fill:#2B3990;}
	.st52{clip-path:url(#SVGID_12_);}
	.st53{fill:#F15A29;}
	.st54{fill:#F37429;}
	.st55{fill:#F58429;}
	.st56{fill:#FFC907;}
	.st57{fill:#E6E7E8;}
	.st58{fill:#47524C;}
	.st59{fill:#CAAD2D;stroke:#000000;stroke-width:5;stroke-linecap:round;stroke-linejoin:round;stroke-miterlimit:10;}
	.st60{fill:#817B31;stroke:#000000;stroke-width:5;stroke-linecap:round;stroke-linejoin:round;stroke-miterlimit:10;}
	.st61{clip-path:url(#SVGID_14_);fill:#58595B;}
	.st62{clip-path:url(#SVGID_14_);}
	.st63{fill:#D8E2E7;}
	.st64{clip-path:url(#SVGID_16_);fill:#C49A6C;}
	.st65{clip-path:url(#SVGID_16_);}
	.st66{fill:#434B3A;}
	.st67{fill:#4F584D;}
	.st68{fill:#0B2129;}
	.st69{fill:#998A8B;}
</style>
<g id="Layer_2">
</g>
<g id="Details">
</g>
<g id="Lines">
	<g>
		<defs>
			<circle id="SVGID_7_" cx="727.5" cy="727.5" r="616.5"/>
		</defs>
		<clipPath id="SVGID_2_">
			<use xlink:href="#SVGID_7_"  style="overflow:visible;"/>
		</clipPath>
		<circle style="clip-path:url(#SVGID_2_);fill:#C2B59B;" cx="727.5" cy="727.5" r="616.5"/>
		<g class="st1">
			<path class="st38" d="M1060,779.3c-1.4-40.1-14.8-79.7-38-112.4c15.3-18.3,5.5-45.9-4.8-67.4c-9.6-19.9-20.3-38.6-31-57.8
				c-8.8-15.8-5.7-25.4-0.6-40.9c-3-3-6-6-9-8.9c-1.4,2.2-2.5,4.5-3.4,7.2c-3.1,9.4-1.3,19.6-2.1,29.4c-0.7,9.8-5.3,20.9-14.9,23.3
				c-6.3,1.6-12.9-1.1-19.2-2.8c-15.7-4.4-32.2-3.1-48.4-1.8c-12.4,1-24.7,2-37.1,2.9c-16.2,1.3-32.6,2.6-47.6,8.7
				c-7.7,3.1-15.5,8.2-17.8,16.2c-2.3,8,4.3,18.3,12.4,16.5c-13.2,6.7-28,15.7-29.5,30.5c-0.6,5.9,1.2,11.7,2.2,17.5
				c2.4,13.5,0.8,27.7-4.6,40.3c-25.9-5.7-50.7-16.1-72.9-30.5c-2.4-1.6-5.3-3.3-8.1-2.4c-1.9,0.6-3.2,2.3-4.5,3.8
				c-9.3,10.8-25.9,14.6-39,8.9c11.1-16.5,22.5-38,12.1-55c-5.8-9.5-17.2-14.4-28.2-15.7c-11.1-1.3-22.2,0.3-33.4,0.6
				c-20.5,0.7-50.9-5.2-58.6-27.4c9.2-13.5-23.5-62.9-31.9-76.6c-3.5-5.6-7.2-11.2-11.7-16.1c-7.4,5.9-14.6,12-21.5,18.4
				c5.4,16.7,9.2,26.4,0,42.8c-10.7,19.2-21.4,37.9-31,57.8c-10.4,21.5-20.1,49.1-4.8,67.4c-23.2,32.7-36.6,72.3-38,112.4
				c9.1-12.8,18.3-25.5,27.4-38.3c-19,51-38.3,106-25,158.8c2.4-15.4,9.3-30,19.7-41.6c-2,26.1-4,52.5-4.8,78.7
				c37.8,58.3,92.9,105.2,158.4,133.8c8.9-20.8,21.2-40.6,34.2-57.9l1.3,0.1c1,4.6,2.9,9,5.7,13.1c6.9,10.1,17.9,16.1,30.2,16.4
				l160.4,3.9c0.3,0,0.6,0,0.9,0c11.2,0,21.7-4.9,28.9-13.5c1.5-1.8,2.8-3.7,3.9-5.7c11.8,11.9,23.2,28,31.1,45.1
				c68.4-29.2,125.7-78.1,164.2-139.2c-3.7-26.8-7.9-53.2-9.8-77.4c10.4,11.6,23.6,19.5,25.9,34.9c13.3-52.8,4-87.2-15.1-138.3
				C1041.7,753.8,1050.8,766.6,1060,779.3z"/>
			<g>
				<g>
					<path class="st39" d="M615.7,652.5c34.4,15.7,49.6,56.4,33.9,90.9c-1.3,2.9-2.8,5.7-4.5,8.3l-112.2-78.6
						C551.9,648.3,586.1,639,615.7,652.5z"/>
					<path class="st6" d="M558.6,777.3c-34.4-15.7-49.6-56.4-33.9-90.9c2.2-4.8,4.9-9.3,8-13.3L645,751.7
						C627,780.2,590.2,791.7,558.6,777.3z"/>
				</g>
				<path class="st40" d="M576,703.3c-4.2,2-7.8,5.4-9.9,10c-4.7,10.4-0.2,22.6,10.2,27.3c10.4,4.7,22.6,0.2,27.3-10.2
					c1-2.1,1.5-4.4,1.8-6.6L576,703.3z"/>
			</g>
			<g>
				<g>
					<path class="st39" d="M824.3,652.5c-34.4,15.7-49.6,56.4-33.9,90.9c1.3,2.9,2.8,5.7,4.5,8.3l112.2-78.6
						C888.1,648.3,853.9,639,824.3,652.5z"/>
					<path class="st6" d="M881.3,777.3c34.4-15.7,49.6-56.4,33.9-90.9c-2.2-4.8-4.9-9.3-8-13.3l-112.2,78.6
						C813,780.2,849.8,791.7,881.3,777.3z"/>
				</g>
				<path class="st40" d="M863.9,703.3c4.2,2,7.8,5.4,9.9,10c4.7,10.4,0.2,22.6-10.2,27.3c-10.4,4.7-22.6,0.2-27.3-10.2
					c-1-2.1-1.5-4.4-1.8-6.6L863.9,703.3z"/>
			</g>
			<path class="st41" d="M655.5,872.8c-12.3-0.6-25.3-8.8-26.8-21.1c-1.4-11.1,7.1-21.6,17.4-26.1c10.2-4.6,21.8-4.6,33-4.6
				c38,0.1,75.9,0.2,113.9,0.3c6.1,0,12.4,0.1,17.8,2.9c13.3,7,12.8,28.3,1.7,38.4s-28.2,10.6-42.7,6.6c-6.6-1.8-15.2-3.8-19,1.8
				c-2.4,3.5-1.4,8.2-1.4,12.5c-0.2,16.4-19.7,28.3-35.4,23.5c-16.9-5.1-15-18.2-24.5-29.2C677.4,863.7,673.9,873.7,655.5,872.8z"/>
			<path class="st41" d="M437.9,588.4c-10.4,21.5-20.1,49.1-4.8,67.4c-23.2,32.7-36.6,72.3-38,112.4c9.1-12.8,18.3-25.5,27.4-38.3
				c-19,51-38.3,106-25,158.8c2.4-15.4,9.3-30,19.7-41.6c-5,64.6-9.9,130.2,3.3,193.7c-14.8-32-35.9-61.1-61.6-85.2
				c-21,21.3-42,42.7-63,64c14.9-46,31-91.6,48.1-136.8c-32.7,22.6-75.8,21.4-115.5,19.2c34.4-29.6,62-67.1,80.1-108.7
				c-22,18.1-52.8,25.1-80.4,18.1c50.7-23.4,89-72.2,99.6-127.1c-23.2,12.9-47.5,23.8-72.7,32.3c54.7-28.3,98.9-76.3,122.5-133.2
				c-16.3,9.2-35.2,13.7-53.8,12.8c26.8-17,53.9-34.2,76.7-56.3c19.6-19,39.7-48.2,67.8-54.6c5.8,18.1,10.3,27.9,0.8,45.1
				C458.2,549.8,447.5,568.5,437.9,588.4z"/>
			<path class="st41" d="M1017.1,599.5c10.4,21.5,20.1,49.1,4.8,67.4c23.2,32.7,36.6,72.3,38,112.4c-9.1-12.8-18.3-25.5-27.4-38.3
				c19,51,28.4,85.4,15.1,138.3c-2.4-15.4-15.5-23.3-25.9-34.9c5,64.6,26.1,144.1,12.9,207.6c14.8-32,35.9-61.1,61.6-85.2
				c21,21.3,42,42.7,63,64c-14.9-46-31-91.6-48.1-136.8c32.7,22.6,75.8,21.4,115.5,19.2c-34.4-29.6-62-67.1-80.1-108.7
				c22,18.1,52.8,25.1,80.4,18.1c-50.7-23.4-89-72.2-99.6-127.1c23.2,12.9,47.5,23.8,72.7,32.3c-54.7-28.3-98.9-76.3-122.5-133.2
				c16.3,9.2,35.2,13.7,53.8,12.8c-26.8-17-53.9-34.2-76.7-56.3c-19.6-19-39.7-48.2-67.8-54.6c-5.8,18.1-10.3,27.9-0.8,45.1
				C996.8,560.9,1007.5,579.5,1017.1,599.5z"/>
			<path class="st41" d="M502.1,485.5c-4.9-7.9-10.3-15.8-17.7-21.6c-12.5-9.7-29-12-44.6-14c22.4-9.4,44-20.7,64.5-33.7
				c10.3-6.6,20.9-14.3,25.2-25.7c3.2-8.6,2.5-18.1,1.4-27.2c-2.1-17.8-5-35.6-8.7-53.2c6.1,16.6,30,19.9,45.2,10.8
				c15.2-9.1,23.6-26,31.2-41.9c11.1,25.8,22.2,51.7,33.2,77.5c43.5-40.4,99-67.7,157.5-77.6c2.6,10.1-10.7,16.8-14.3,26.5
				c-3,8.1,1.6,17.5,8.6,22.5s15.9,6.6,24.5,7.5c38.7,3.8,78.9-4.2,116.1,7.2c7.5,2.3,16.4,9.3,12.5,16.2c-1.4,2.6-4.3,3.9-6.9,5.1
				c-14.9,6.5-30.7,10.8-45.2,18s-19.8,4.5-26.2,19.4c40.9-11.2,75.1-2.9,117.5-1.6c14.2,0.4,30.1,2.4,39.1,13.4
				c-10.9,2.9-21.9,5.8-32.8,8.7c17.2,6.6,33.7,14.7,49.6,24.1c2.9,1.7,6.1,4.1,5.9,7.4c-0.1,3.1-3.1,5.2-5.9,6.6
				c-21.4,11.1-50.8,15.9-58.4,38.9c-3.1,9.4-1.3,19.6-2.1,29.4c-0.7,9.8-5.3,20.9-14.9,23.3c-6.3,1.6-12.9-1.1-19.2-2.8
				c-15.7-4.4-32.2-3.1-48.4-1.8c-12.4,1-24.7,2-37.1,2.9c-16.2,1.3-32.6,2.6-47.6,8.7c-7.7,3.1-15.5,8.2-17.8,16.2
				c-2.3,8,4.3,18.3,12.4,16.5c-13.2,6.7-28,15.7-29.5,30.5c-0.6,5.9,1.2,11.7,2.2,17.5c2.4,13.5,0.8,27.7-4.6,40.3
				c-25.9-5.7-50.7-16.1-72.9-30.5c-2.4-1.6-5.3-3.3-8.1-2.4c-1.9,0.6-3.2,2.3-4.5,3.8c-9.3,10.8-25.9,14.6-39,8.9
				c11.1-16.5,22.5-38,12.1-55c-5.8-9.5-17.2-14.4-28.2-15.7c-11.1-1.3-22.2,0.3-33.4,0.6c-20.5,0.7-50.9-5.2-58.6-27.4
				C543.2,548.7,510.5,499.2,502.1,485.5z"/>
			<g>
				<path class="st42" d="M820.8,950.9L820.8,950.9c3.1-1.3,5.7-2.8,7.8-4.4L820.8,950.9z"/>
				<path class="st42" d="M720.6,946c-66.9,14.6-90.8,7.2-90.8,7.2L618,984.7c-6.2,17.1,6.2,35.2,24.3,35.6l160.4,3.9
					c17.1,0.4,30.1-15.2,26.6-32l-8.6-41.3C804.9,957.4,774.6,957.8,720.6,946z"/>
			</g>
			<path class="st43" d="M1031.5,460.2c-19,9.9-44.2,14.8-55,31.7c3.1,2.9,6.1,5.9,9,8.9c0.4-1.3,0.9-2.7,1.4-4.2
				c28.1,6.4,48.1,35.5,67.8,54.6c0.2,0.2,0.3,0.3,0.5,0.4c25.3-33.5,32.8-78.6,33-121.1c0.2-47.4-7.1-95-0.9-142
				c-30.8,12.4-55.7,35.6-79.8,58.4c-18,16.9-36.1,34.1-52.1,52.9c6.8-0.1,13.6-0.1,20.3,0.1c14.2,0.4,30.1,2.4,39.1,13.4
				c-10.9,2.9-21.9,5.8-32.8,8.7c17.2,6.6,33.7,14.7,49.6,24.1c2.9,1.7,6.1,4.1,5.9,7.4C1037.3,456.6,1034.3,458.7,1031.5,460.2z"/>
			<path class="st43" d="M506.5,414.8c-18.5-24.8-41.5-46.5-64.1-67.9c-24.1-22.7-49.1-46-79.8-58.4c6.2,47-1.1,94.6-0.9,142
				c0.2,41,7.2,84.3,30.3,117.4c2.9-2.5,5.7-5.1,8.4-7.8c19.6-19,39.7-48.2,67.8-54.6c0.3,0.8,0.5,1.5,0.7,2.3
				c6.9-6.4,14-12.5,21.5-18.4c-1.8-2-3.8-3.8-5.9-5.5c-12.5-9.7-29-12-44.6-14c22.4-9.4,44-20.7,64.5-33.7
				C504.9,415.8,505.7,415.3,506.5,414.8z"/>
			<path class="st41" d="M877.8,1100.4c-1.3-29.5-20.8-63.5-41.6-84.4l0,0c-1.1,2-2.4,3.9-3.9,5.7c-7.2,8.6-17.7,13.5-28.9,13.5
				c-0.3,0-0.6,0-0.9,0l-160.4-3.9c-12.3-0.3-23.2-6.3-30.2-16.4c-2.8-4.1-4.7-8.5-5.7-13.1l-1.3-0.1
				c-27.1,36.2-51.5,82.7-46.9,127.7c12.8-23.8,27.1-20.9,47.5-38.6c9.9,36,22.8,47.6,32.7,83.6c2.7-33.7,13.6-43.5,35.3-69.4
				c30.3,40.8,12.8,38.1,47.1,98c15.8-43.2,21.2-64.4,43-104.9c21.8,24.1,36,39.8,57.8,63.8c-6.5-28.8-0.6-42.2-7.1-71
				C838.6,1101.7,851.7,1094.7,877.8,1100.4z"/>
			<path class="st38" d="M693.3,1239.2l1.8,0.6c17.3,6.1,36.2,5.9,53.5-0.3v0c4.9-1.8,9.9-3,15-3.8v-137.6c0,0,0,0,0,0
				c-21.7,40.5-27.1,61.8-43,104.9c-32.7-56.9-18.4-57.3-43-92.3v124.7C682.9,1236.1,688.2,1237.4,693.3,1239.2z"/>
			<path class="st43" d="M419.4,1246.6l243.7-11.8c10.2-0.5,20.5,1,30.2,4.4l1.8,0.6c17.3,6.1,36.2,5.9,53.5-0.3l0,0
				c9.9-3.6,20.4-5.2,30.9-4.7l258.8,12.1c29,1.4,54.9,18.3,67.8,44.3l41.1,83.3H319.2l29.7-77
				C360.2,1268.1,387.9,1248.2,419.4,1246.6z"/>
			<path class="st6" d="M641,955.1c-2.1,6.7-3.7,15.9-0.6,23.9l16.3-23.7C650.8,955.5,645.6,955.4,641,955.1z"/>
			<path class="st6" d="M789.4,955.4l16.2,23.6c3.2-8.2,1.4-17.6-0.8-24.4C800.3,955.2,795.2,955.5,789.4,955.4z"/>
			<path class="st44" d="M410.3,529.8c10.6-11.5,21.8-24.2,34.5-33.3c-11.7-13.8-26.1-32.5-35.1-41.4c5.3,18.2,4.2,40.9,9.5,59.1
				c-14.3-8.4-21.9-21.6-35.8-30.7c9.8,15,17.4,31.3,22.6,48.4L410.3,529.8z"/>
			<path class="st44" d="M1050.5,547c-0.5-17.6-2.5-41.2-5.9-54.9c-1.4,11.6-4.7,22.9-10,33.4c3.1-17.2-5.2-35.9-20-45.2
				c-4.6,5.1-12.4,13.4-17.2,19.9C1018.3,509.5,1034.7,530.8,1050.5,547z"/>
			<g>
				<g>
					<path class="st9" d="M615.7,652.5c34.4,15.7,49.6,56.4,33.9,90.9c-1.3,2.9-2.8,5.7-4.5,8.3l-112.2-78.6
						C551.9,648.3,586.1,639,615.7,652.5z"/>
					<path class="st9" d="M558.6,777.3c-34.4-15.7-49.6-56.4-33.9-90.9c2.2-4.8,4.9-9.3,8-13.3L645,751.7
						C627,780.2,590.2,791.7,558.6,777.3z"/>
				</g>
				<path class="st9" d="M576,703.3c-4.2,2-7.8,5.4-9.9,10c-4.7,10.4-0.2,22.6,10.2,27.3c10.4,4.7,22.6,0.2,27.3-10.2
					c1-2.1,1.5-4.4,1.8-6.6L576,703.3z"/>
			</g>
			<g>
				<g>
					<path class="st9" d="M824.3,652.5c-34.4,15.7-49.6,56.4-33.9,90.9c1.3,2.9,2.8,5.7,4.5,8.3l112.2-78.6
						C888.1,648.3,853.9,639,824.3,652.5z"/>
					<path class="st9" d="M881.3,777.3c34.4-15.7,49.6-56.4,33.9-90.9c-2.2-4.8-4.9-9.3-8-13.3l-112.2,78.6
						C813,780.2,849.8,791.7,881.3,777.3z"/>
				</g>
				<path class="st9" d="M863.9,703.3c4.2,2,7.8,5.4,9.9,10c4.7,10.4,0.2,22.6-10.2,27.3c-10.4,4.7-22.6,0.2-27.3-10.2
					c-1-2.1-1.5-4.4-1.8-6.6L863.9,703.3z"/>
			</g>
			<path class="st9" d="M677.3,730.8c7.8-5.5,15.7-11.1,24.6-14.5c8.9-3.5,19-4.7,28-1.5c5.1,1.8,9.6,5,14.3,7.6
				c8.1,4.4,17.2,7,26.3,7.6"/>
			<path class="st9" d="M673.4,778.8c6-2.8,12-5.6,18.1-8.4c10.8-5,24-9.9,33.9-3.4c4.5,3,7.4,7.8,11.3,11.5
				c10.1,9.4,25.5,9.6,39.3,9.3"/>
			<path class="st9" d="M655.5,872.8c-12.3-0.6-25.3-8.8-26.8-21.1c-1.4-11.1,7.1-21.6,17.4-26.1c10.2-4.6,21.8-4.6,33-4.6
				c38,0.1,75.9,0.2,113.9,0.3c6.1,0,12.4,0.1,17.8,2.9c13.3,7,12.8,28.3,1.7,38.4s-28.2,10.6-42.7,6.6c-6.6-1.8-15.2-3.8-19,1.8
				c-2.4,3.5-1.4,8.2-1.4,12.5c-0.2,16.4-19.7,28.3-35.4,23.5c-16.9-5.1-15-18.2-24.5-29.2C677.4,863.7,673.9,873.7,655.5,872.8z"/>
			<path class="st9" d="M720.6,908c0,7.5,0,38,0,38"/>
			<path class="st9" d="M814.2,885c0,0,89.8,101.2-93.7,61c-183.5,40.2-93.7-61-93.7-61"/>
			<path class="st9" d="M830.5,945.3l9.7,44.6c2.4,11.3-0.5,22.9-7.9,31.8c-7.2,8.6-17.7,13.5-28.9,13.5c-0.3,0-0.6,0-0.9,0
				l-160.4-3.9c-12.3-0.3-23.2-6.3-30.2-16.4c-6.9-10.1-8.5-22.5-4.3-34l10.6-29.3"/>
			<path class="st9" d="M628.6,955.4L618,984.7c-6.2,17.1,6.2,35.2,24.3,35.6l160.4,3.9c17.1,0.4,30.1-15.2,26.6-32l-8.6-41.3"/>
			<line class="st9" x1="584.9" y1="589.5" x2="669.8" y2="693.8"/>
			<line class="st9" x1="764.9" y1="693.8" x2="849.8" y2="589.5"/>
			<path class="st9" d="M437.9,588.4c-10.4,21.5-20.1,49.1-4.8,67.4c-23.2,32.7-36.6,72.3-38,112.4c9.1-12.8,18.3-25.5,27.4-38.3
				c-19,51-38.3,106-25,158.8c2.4-15.4,9.3-30,19.7-41.6c-5,64.6-9.9,130.2,3.3,193.7c-14.8-32-35.9-61.1-61.6-85.2
				c-21,21.3-42,42.7-63,64c14.9-46,31-91.6,48.1-136.8c-32.7,22.6-75.8,21.4-115.5,19.2c34.4-29.6,62-67.1,80.1-108.7
				c-22,18.1-52.8,25.1-80.4,18.1c50.7-23.4,89-72.2,99.6-127.1c-23.2,12.9-47.5,23.8-72.7,32.3c54.7-28.3,98.9-76.3,122.5-133.2
				c-16.3,9.2-35.2,13.7-53.8,12.8c26.8-17,53.9-34.2,76.7-56.3c19.6-19,39.7-48.2,67.8-54.6c5.8,18.1,10.3,27.9,0.8,45.1
				C458.2,549.8,447.5,568.5,437.9,588.4z"/>
			<path class="st9" d="M1017.1,599.5c10.4,21.5,20.1,49.1,4.8,67.4c23.2,32.7,36.6,72.3,38,112.4c-9.1-12.8-18.3-25.5-27.4-38.3
				c19,51,28.4,85.4,15.1,138.3c-2.4-15.4-15.5-23.3-25.9-34.9c5,64.6,26.1,144.1,12.9,207.6c14.8-32,35.9-61.1,61.6-85.2
				c21,21.3,42,42.7,63,64c-14.9-46-31-91.6-48.1-136.8c32.7,22.6,75.8,21.4,115.5,19.2c-34.4-29.6-62-67.1-80.1-108.7
				c22,18.1,52.8,25.1,80.4,18.1c-50.7-23.4-89-72.2-99.6-127.1c23.2,12.9,47.5,23.8,72.7,32.3c-54.7-28.3-98.9-76.3-122.5-133.2
				c16.3,9.2,35.2,13.7,53.8,12.8c-26.8-17-53.9-34.2-76.7-56.3c-19.6-19-39.7-48.2-67.8-54.6c-5.8,18.1-10.3,27.9-0.8,45.1
				C996.8,560.9,1007.5,579.5,1017.1,599.5z"/>
			<path class="st9" d="M502.1,485.5c-4.9-7.9-10.3-15.8-17.7-21.6c-12.5-9.7-29-12-44.6-14c22.4-9.4,44-20.7,64.5-33.7
				c10.3-6.6,20.9-14.3,25.2-25.7c3.2-8.6,2.5-18.1,1.4-27.2c-2.1-17.8-5-35.6-8.7-53.2c6.1,16.6,30,19.9,45.2,10.8
				c15.2-9.1,23.6-26,31.2-41.9c11.1,25.8,22.2,51.7,33.2,77.5c43.5-40.4,99-67.7,157.5-77.6c2.6,10.1-10.7,16.8-14.3,26.5
				c-3,8.1,1.6,17.5,8.6,22.5s15.9,6.6,24.5,7.5c38.7,3.8,78.9-4.2,116.1,7.2c7.5,2.3,16.4,9.3,12.5,16.2c-1.4,2.6-4.3,3.9-6.9,5.1
				c-14.9,6.5-30.7,10.8-45.2,18s-19.8,4.5-26.2,19.4c40.9-11.2,75.1-2.9,117.5-1.6c14.2,0.4,30.1,2.4,39.1,13.4
				c-10.9,2.9-21.9,5.8-32.8,8.7c17.2,6.6,33.7,14.7,49.6,24.1c2.9,1.7,6.1,4.1,5.9,7.4c-0.1,3.1-3.1,5.2-5.9,6.6
				c-21.4,11.1-50.8,15.9-58.4,38.9c-3.1,9.4-1.3,19.6-2.1,29.4c-0.7,9.8-5.3,20.9-14.9,23.3c-6.3,1.6-12.9-1.1-19.2-2.8
				c-15.7-4.4-32.2-3.1-48.4-1.8c-12.4,1-24.7,2-37.1,2.9c-16.2,1.3-32.6,2.6-47.6,8.7c-7.7,3.1-15.5,8.2-17.8,16.2
				c-2.3,8,4.3,18.3,12.4,16.5c-13.2,6.7-28,15.7-29.5,30.5c-0.6,5.9,1.2,11.7,2.2,17.5c2.4,13.5,0.8,27.7-4.6,40.3
				c-25.9-5.7-50.7-16.1-72.9-30.5c-2.4-1.6-5.3-3.3-8.1-2.4c-1.9,0.6-3.2,2.3-4.5,3.8c-9.3,10.8-25.9,14.6-39,8.9
				c11.1-16.5,22.5-38,12.1-55c-5.8-9.5-17.2-14.4-28.2-15.7c-11.1-1.3-22.2,0.3-33.4,0.6c-20.5,0.7-50.9-5.2-58.6-27.4
				C543.2,548.7,510.5,499.2,502.1,485.5z"/>
			<path class="st9" d="M1031.5,460.2c-19,9.9-44.2,14.8-55,31.7c3.1,2.9,6.1,5.9,9,8.9c0.4-1.3,0.9-2.7,1.4-4.2
				c28.1,6.4,48.1,35.5,67.8,54.6c0.2,0.2,0.3,0.3,0.5,0.4c25.3-33.5,32.8-78.6,33-121.1c0.2-47.4-7.1-95-0.9-142
				c-30.8,12.4-55.7,35.6-79.8,58.4c-18,16.9-36.1,34.1-52.1,52.9c6.8-0.1,13.6-0.1,20.3,0.1c14.2,0.4,30.1,2.4,39.1,13.4
				c-10.9,2.9-21.9,5.8-32.8,8.7c17.2,6.6,33.7,14.7,49.6,24.1c2.9,1.7,6.1,4.1,5.9,7.4C1037.3,456.6,1034.3,458.7,1031.5,460.2z"/>
			<path class="st9" d="M506.5,414.8c-18.5-24.8-41.5-46.5-64.1-67.9c-24.1-22.7-49.1-46-79.8-58.4c6.2,47-1.1,94.6-0.9,142
				c0.2,41,7.2,84.3,30.3,117.4c2.9-2.5,5.7-5.1,8.4-7.8c19.6-19,39.7-48.2,67.8-54.6c0.3,0.8,0.5,1.5,0.7,2.3
				c6.9-6.4,14-12.5,21.5-18.4c-1.8-2-3.8-3.8-5.9-5.5c-12.5-9.7-29-12-44.6-14c22.4-9.4,44-20.7,64.5-33.7
				C504.9,415.8,505.7,415.3,506.5,414.8z"/>
			<path class="st9" d="M1060,779.3c-1.4-40.1-14.8-79.7-38-112.4c15.3-18.3,5.5-45.9-4.8-67.4c-9.6-19.9-20.3-38.6-31-57.8
				c-8.8-15.8-5.7-25.4-0.6-40.9c-3-3-6-6-9-8.9c-1.4,2.2-2.5,4.5-3.4,7.2c-3.1,9.4-1.3,19.6-2.1,29.4c-0.7,9.8-5.3,20.9-14.9,23.3
				c-6.3,1.6-12.9-1.1-19.2-2.8c-15.7-4.4-32.2-3.1-48.4-1.8c-12.4,1-24.7,2-37.1,2.9c-16.2,1.3-32.6,2.6-47.6,8.7
				c-7.7,3.1-15.5,8.2-17.8,16.2c-2.3,8,4.3,18.3,12.4,16.5c-13.2,6.7-28,15.7-29.5,30.5c-0.6,5.9,1.2,11.7,2.2,17.5
				c2.4,13.5,0.8,27.7-4.6,40.3c-25.9-5.7-50.7-16.1-72.9-30.5c-2.4-1.6-5.3-3.3-8.1-2.4c-1.9,0.6-3.2,2.3-4.5,3.8
				c-9.3,10.8-25.9,14.6-39,8.9c11.1-16.5,22.5-38,12.1-55c-5.8-9.5-17.2-14.4-28.2-15.7c-11.1-1.3-22.2,0.3-33.4,0.6
				c-20.5,0.7-50.9-5.2-58.6-27.4c9.2-13.5-23.5-62.9-31.9-76.6c-3.5-5.6-7.2-11.2-11.7-16.1c-7.4,5.9-14.6,12-21.5,18.4
				c5.4,16.7,9.2,26.4,0,42.8c-10.7,19.2-21.4,37.9-31,57.8c-10.4,21.5-20.1,49.1-4.8,67.4c-23.2,32.7-36.6,72.3-38,112.4
				c9.1-12.8,18.3-25.5,27.4-38.3c-19,51-38.3,106-25,158.8c2.4-15.4,9.3-30,19.7-41.6c-2,26.1-4,52.5-4.8,78.7
				c37.8,58.3,92.9,105.2,158.4,133.8c8.9-20.8,21.2-40.6,34.2-57.9l1.3,0.1c1,4.6,2.9,9,5.7,13.1c6.9,10.1,17.9,16.1,30.2,16.4
				l160.4,3.9c0.3,0,0.6,0,0.9,0c11.2,0,21.7-4.9,28.9-13.5c1.5-1.8,2.8-3.7,3.9-5.7c11.8,11.9,23.2,28,31.1,45.1
				c68.4-29.2,125.7-78.1,164.2-139.2c-3.7-26.8-7.9-53.2-9.8-77.4c10.4,11.6,23.6,19.5,25.9,34.9c13.3-52.8,4-87.2-15.1-138.3
				C1041.7,753.8,1050.8,766.6,1060,779.3z"/>
			<path class="st9" d="M877.8,1100.4c-1.3-29.5-20.8-63.5-41.6-84.4l0,0c-1.1,2-2.4,3.9-3.9,5.7c-7.2,8.6-17.7,13.5-28.9,13.5
				c-0.3,0-0.6,0-0.9,0l-160.4-3.9c-12.3-0.3-23.2-6.3-30.2-16.4c-2.8-4.1-4.7-8.5-5.7-13.1l-1.3-0.1
				c-27.1,36.2-51.5,82.7-46.9,127.7c12.8-23.8,27.1-20.9,47.5-38.6c9.9,36,22.8,47.6,32.7,83.6c2.7-33.7,13.6-43.5,35.3-69.4
				c30.3,40.8,12.8,38.1,47.1,98c15.8-43.2,21.2-64.4,43-104.9c21.8,24.1,36,39.8,57.8,63.8c-6.5-28.8-0.6-42.2-7.1-71
				C838.6,1101.7,851.7,1094.7,877.8,1100.4z"/>
			<path class="st9" d="M693.3,1239.2l1.8,0.6c17.3,6.1,36.2,5.9,53.5-0.3v0c4.9-1.8,9.9-3,15-3.8v-137.6c0,0,0,0,0,0
				c-21.7,40.5-27.1,61.8-43,104.9c-32.7-56.9-18.4-57.3-43-92.3v124.7C682.9,1236.1,688.2,1237.4,693.3,1239.2z"/>
			<path class="st9" d="M419.4,1246.6l243.7-11.8c10.2-0.5,20.5,1,30.2,4.4l1.8,0.6c17.3,6.1,36.2,5.9,53.5-0.3l0,0
				c9.9-3.6,20.4-5.2,30.9-4.7l258.8,12.1c29,1.4,54.9,18.3,67.8,44.3l41.1,83.3H319.2l29.7-77
				C360.2,1268.1,387.9,1248.2,419.4,1246.6z"/>
			<path class="st9" d="M641,955.1c-2.1,6.7-3.7,15.9-0.6,23.9l16.3-23.7C650.8,955.5,645.6,955.4,641,955.1z"/>
			<path class="st9" d="M789.4,955.4l16.2,23.6c3.2-8.2,1.4-17.6-0.8-24.4C800.3,955.2,795.2,955.5,789.4,955.4z"/>
			<path class="st9" d="M377.9,329.5c9.4,11.9,22.9,19.6,35.6,27.9c27.5,18,54.6,43.2,57.5,76"/>
			<path class="st9" d="M993.1,397.2c25.2-24.4,50.7-48.7,76.2-72.8"/>
			<path class="st9" d="M410.3,529.8c10.6-11.5,21.8-24.2,34.5-33.3c-11.7-13.8-26.1-32.5-35.1-41.4c5.3,18.2,4.2,40.9,9.5,59.1
				c-14.3-8.4-21.9-21.6-35.8-30.7c9.8,15,17.4,31.3,22.6,48.4L410.3,529.8z"/>
			<path class="st9" d="M1050.5,547c-0.5-17.6-2.5-41.2-5.9-54.9c-1.4,11.6-4.7,22.9-10,33.4c3.1-17.2-5.2-35.9-20-45.2
				c-4.6,5.1-12.4,13.4-17.2,19.9C1018.3,509.5,1034.7,530.8,1050.5,547z"/>
		</g>
	</g>
</g>
</svg>
