<svg xmlns="http://www.w3.org/2000/svg" xmlns:xlink="http://www.w3.org/1999/xlink" x="0" y="0" version="1.1" viewBox="0 0 1455 1455" xml:space="preserve" style="enable-background:new 0 0 1455 1455"><style type="text/css">.st1{clip-path:url(#SVGID_2_)}.st8{fill:#20343e}.st11,.st9{stroke:#000;stroke-linecap:round;stroke-miterlimit:10}.st9{fill:none;stroke-width:5;stroke-linejoin:round}.st11{stroke-width:4}.st11,.st18{fill:none}.st33{fill:#f7941d}.st35{fill:none;stroke:#006838;stroke-width:4;stroke-linecap:round;stroke-miterlimit:10}.st40{fill:#fff200}.st66{fill:#434b3a}.st67{fill:#4f584d}.st68{fill:#0b2129}.st69{fill:#998a8b}</style><g id="Lines"><g><defs><circle id="SVGID_15_" cx="727.5" cy="727.5" r="616.5"/></defs><clipPath id="SVGID_2_"><use xlink:href="#SVGID_15_" style="overflow:visible"/></clipPath><circle style="clip-path:url(#SVGID_2_);fill:#c49a6c" cx="727.5" cy="727.5" r="616.5"/><g class="st1"><path d="M345.7,653.5c0-10.9,0.5-21.7,1.4-32.4c-3.3-0.8-6.7-1.3-10.2-1.3c-23.1,0-41.8,18.7-41.8,41.8 s18.7,41.8,41.8,41.8c4.1,0,8.1-0.6,11.9-1.7C346.8,685.9,345.7,669.8,345.7,653.5z" class="st66"/><path d="M1140.6,619.8c-3.8,0-7.5,0.5-11,1.5c0.9,10.6,1.4,21.3,1.4,32.2c0,16.3-1.1,32.3-3.1,48 c4,1.3,8.3,2,12.7,2c23.1,0,41.8-18.7,41.8-41.8S1163.7,619.8,1140.6,619.8z" class="st66"/><path d="M412.9,1224.4l263.4-12.8c11.1-0.5,22.1,1.1,32.6,4.7l1.9,0.7c18.7,6.5,39.1,6.4,57.8-0.3h0 c10.7-3.9,22-5.6,33.4-5.1l279.6,13.1c31.3,1.5,59.3,19.8,73.2,47.9l44.4,90H304.6l32.1-83.2C349,1247.6,378.9,1226,412.9,1224.4 z" class="st67"/><path d="M738.4,274.8c-216.8,0-392.6,169.5-392.6,378.7c0,79.4,25.3,153,68.6,213.9c1.2-6.8,2.4-13.6,3.4-20.4 c3.9-26.7,5-53.9,3.1-80.8L479,780c2.2,25.7,0.8,51.7-4.3,77c-3.6,17.7-8.9,35.4-7.6,53.4c0.4,5.8,1.3,12.1,1.3,18 c70.4,64.3,165.4,103.8,270,103.8c216.8,0,392.6-169.5,392.6-378.7S955.2,274.8,738.4,274.8z" class="st67"/><path d="M793.9,745c-4.6,12.4-23.8,13.4-32.9,3.9s-9.3-24.8-5-37.3c4.3-12.5,12.4-23.2,18.6-34.9 c6.2-11.6,10.6-25.3,6.8-38c18.8,31.7,35.1,64.9,48.7,99.2c2.5,6.2,4.6,14,0,18.8c-5.5,5.9-15.5,2-21.5-3.5 c-6-5.4-12-12.6-20.1-12.4" class="st8"/><path d="M793.7,301.9c29.3-49.8,88.2-80.6,145.8-76.4" class="st18"/><path d="M899.9,327.4c58-14.1,123.3,8.9,159.7,56.2" class="st18"/><path d="M594.2,316.5c0.2-43.5-24.5-86.4-62.3-108" class="st18"/><path d="M455.3,412.5c-1.4-6.5-9.5-8.5-16.1-9.1c-63.3-5.5-127.9,4.8-186.3,29.7" class="st18"/><g><path d="M894.3,513.1c40.9,0,74.1,33.2,74.1,74.1c0,3.5-0.3,6.8-0.7,10.2l-145.6-26.9 C829.7,537.6,859.2,513.1,894.3,513.1z" class="st66"/><path d="M894.3,661.3c-40.9,0-74.1-33.2-74.1-74.1c0-5.7,0.7-11.3,1.9-16.7l145.6,26.9 C962.8,633.5,931.8,661.3,894.3,661.3z" class="st40"/></g><path d="M878.2,580.8c-3.2,3.9-5.2,8.8-5.2,14.3c0,12.3,10,22.3,22.3,22.3c12.3,0,22.3-10,22.3-22.3 c0-2.5-0.4-5-1.2-7.2L878.2,580.8z" class="st33"/><path d="M600.7,534.4c-2.1,0-4.3,0.1-6.3,0.3c0.2,0,0.4,0,0.6,0c37.8,3.8,65.4,37.5,61.6,75.3 c-3.3,33.3-29.9,58.7-62.1,61.6c2.1,0.2,4.2,0.3,6.3,0.3c38,0,68.8-30.8,68.8-68.8C669.5,565.2,638.7,534.4,600.7,534.4z" class="st8"/><path d="M600.7,534.4c-38,0-68.8,30.8-68.8,68.8c0,27.5,16.1,51.1,39.3,62.2c2.5-7.9,8.5-19.3,12.8-5.1 c1,3.1,0.5,6.4,0.1,9.7c5.3,1.3,10.8,2,16.5,2c38,0,68.8-30.8,68.8-68.8C669.5,565.2,638.7,534.4,600.7,534.4z" class="st68"/><path d="M570.2,777.7c4.2-2.7,8.7-5,13.5-6.8c5-20.4,9.8-41.1,6.3-61.6c-2.1-12.3-7.2-24.3-6.1-36.7 c0.4-4.1,1.4-8.4,0.2-12.4c-5.3-17.6-13.3,3.9-13.9,9.7c-1.3,12.6-1,25.4-0.9,38C569.6,731.3,569.9,754.5,570.2,777.7z" class="st69"/><g><g><path d="M609.9,766.1c-40.9,0-74.1,33.2-74.1,74.1c0,3.5,0.3,6.8,0.7,10.2l145.6-26.9 C674.6,790.7,645.1,766.1,609.9,766.1z" class="st66"/><path d="M609.9,914.4c40.9,0,74.1-33.2,74.1-74.1c0-5.7-0.7-11.3-1.9-16.7l-145.6,26.9 C541.5,886.5,572.5,914.4,609.9,914.4z" class="st40"/></g><path d="M589.3,840.7c-0.8,2.3-1.3,4.9-1.3,7.5c0,12.3,10,22.3,22.3,22.3c12.3,0,22.3-10,22.3-22.3 c0-5.5-2-10.6-5.4-14.5L589.3,840.7z" class="st33"/></g><path d="M708.3,941.7c0,0-17.5-128.1,90.4-138.9c0,0,101.2-10.7,109.2,100.5C907.9,903.3,787.9,856.7,708.3,941.7z" class="st68"/><path d="M708.9,1216.3l1.9,0.7c18.7,6.5,39.1,6.4,57.8-0.3l0,0c5.3-1.9,10.7-3.3,16.2-4.1v-183.1 c-15.2,1.8-30.7,2.7-46.4,2.7c-15.7,0-31.2-1-46.4-2.7v182.8C697.7,1213,703.4,1214.4,708.9,1216.3z" class="st66"/><path d="M420.9,766.1c1.9,26.9,0.9,54.1-3.1,80.8c-2.5,17.1-6.2,33.9-8.5,51c-6.4,47.9-1.6,97.4,15.7,142.5 c5.2-24.1,10.3-48.1,15.5-72.2c0.9-4.4,2-9.1,5.1-12.3c4.1-4.4,10.8-5.2,15.5-9c10.2-8,6.9-23.7,5.9-36.6 c-1.3-18,4.1-35.7,7.6-53.4c5.1-25.3,6.5-51.3,4.3-77" class="st66"/><path d="M345.7,653.5c0-10.9,0.5-21.7,1.4-32.4c-3.3-0.8-6.7-1.3-10.2-1.3c-23.1,0-41.8,18.7-41.8,41.8 s18.7,41.8,41.8,41.8c4.1,0,8.1-0.6,11.9-1.7C346.8,685.9,345.7,669.8,345.7,653.5z" class="st9"/><path d="M1140.6,619.8c-3.8,0-7.5,0.5-11,1.5c0.9,10.6,1.4,21.3,1.4,32.2c0,16.3-1.1,32.3-3.1,48c4,1.3,8.3,2,12.7,2 c23.1,0,41.8-18.7,41.8-41.8S1163.7,619.8,1140.6,619.8z" class="st9"/><path d="M793.9,745c-4.6,12.4-23.8,13.4-32.9,3.9s-9.3-24.8-5-37.3c4.3-12.5,12.4-23.2,18.6-34.9 c6.2-11.6,10.6-25.3,6.8-38c18.8,31.7,35.1,64.9,48.7,99.2c2.5,6.2,4.6,14,0,18.8c-5.5,5.9-15.5,2-21.5-3.5 c-6-5.4-12-12.6-20.1-12.4" class="st9"/><path d="M793.7,301.9c29.3-49.8,88.2-80.6,145.8-76.4" class="st9"/><path d="M899.9,327.4c58-14.1,123.3,8.9,159.7,56.2" class="st9"/><path d="M594.2,316.5c0.2-43.5-24.5-86.4-62.3-108" class="st9"/><path d="M455.3,412.5c-1.4-6.5-9.5-8.5-16.1-9.1c-63.3-5.5-127.9,4.8-186.3,29.7" class="st9"/><g><path d="M894.3,513.1c40.9,0,74.1,33.2,74.1,74.1c0,3.5-0.3,6.8-0.7,10.2l-145.6-26.9 C829.7,537.6,859.2,513.1,894.3,513.1z" class="st9"/><path d="M894.3,661.3c-40.9,0-74.1-33.2-74.1-74.1c0-5.7,0.7-11.3,1.9-16.7l145.6,26.9 C962.8,633.5,931.8,661.3,894.3,661.3z" class="st9"/></g><path d="M878.2,580.8c-3.2,3.9-5.2,8.8-5.2,14.3c0,12.3,10,22.3,22.3,22.3c12.3,0,22.3-10,22.3-22.3 c0-2.5-0.4-5-1.2-7.2L878.2,580.8z" class="st9"/><path d="M600.7,534.4c-2.1,0-4.3,0.1-6.3,0.3c0.2,0,0.4,0,0.6,0c37.8,3.8,65.4,37.5,61.6,75.3 c-3.3,33.3-29.9,58.7-62.1,61.6c2.1,0.2,4.2,0.3,6.3,0.3c38,0,68.8-30.8,68.8-68.8C669.5,565.2,638.7,534.4,600.7,534.4z" class="st9"/><path d="M600.7,534.4c-38,0-68.8,30.8-68.8,68.8c0,27.5,16.1,51.1,39.3,62.2c2.5-7.9,8.5-19.3,12.8-5.1 c1,3.1,0.5,6.4,0.1,9.7c5.3,1.3,10.8,2,16.5,2c38,0,68.8-30.8,68.8-68.8C669.5,565.2,638.7,534.4,600.7,534.4z" class="st9"/><path d="M570.2,777.7c4.2-2.7,8.7-5,13.5-6.8c5-20.4,9.8-41.1,6.3-61.6c-2.1-12.3-7.2-24.3-6.1-36.7 c0.4-4.1,1.4-8.4,0.2-12.4c-5.3-17.6-13.3,3.9-13.9,9.7c-1.3,12.6-1,25.4-0.9,38C569.6,731.3,569.9,754.5,570.2,777.7z" class="st9"/><g><g><path d="M609.9,766.1c-40.9,0-74.1,33.2-74.1,74.1c0,3.5,0.3,6.8,0.7,10.2l145.6-26.9 C674.6,790.7,645.1,766.1,609.9,766.1z" class="st9"/><path d="M609.9,914.4c40.9,0,74.1-33.2,74.1-74.1c0-5.7-0.7-11.3-1.9-16.7l-145.6,26.9 C541.5,886.5,572.5,914.4,609.9,914.4z" class="st9"/></g><path d="M589.3,840.7c-0.8,2.3-1.3,4.9-1.3,7.5c0,12.3,10,22.3,22.3,22.3c12.3,0,22.3-10,22.3-22.3 c0-5.5-2-10.6-5.4-14.5L589.3,840.7z" class="st9"/></g><path d="M708.3,941.7c0,0-17.5-128.1,90.4-138.9c0,0,101.2-10.7,109.2,100.5C907.9,903.3,787.9,856.7,708.3,941.7z" class="st9"/><path d="M412.9,1224.4l263.4-12.8c11.1-0.5,22.1,1.1,32.6,4.7l1.9,0.7c18.7,6.5,39.1,6.4,57.8-0.3h0 c10.7-3.9,22-5.6,33.4-5.1l279.6,13.1c31.3,1.5,59.3,19.8,73.2,47.9l44.4,90H304.6l32.1-83.2C349,1247.6,378.9,1226,412.9,1224.4 z" class="st9"/><path d="M708.9,1216.3l1.9,0.7c18.7,6.5,39.1,6.4,57.8-0.3l0,0c5.3-1.9,10.7-3.3,16.2-4.1v-183.1 c-15.2,1.8-30.7,2.7-46.4,2.7c-15.7,0-31.2-1-46.4-2.7v182.8C697.7,1213,703.4,1214.4,708.9,1216.3z" class="st9"/><path d="M479,780c2.2,25.7,0.8,51.7-4.3,77c-3.6,17.7-8.9,35.4-7.6,53.4c0.4,5.8,1.3,12.1,1.3,18 c70.4,64.3,165.4,103.8,270,103.8c216.8,0,392.6-169.5,392.6-378.7S955.2,274.8,738.4,274.8c-216.8,0-392.6,169.5-392.6,378.7 c0,79.4,25.3,153,68.6,213.9c1.2-6.8,2.4-13.6,3.4-20.4c3.9-26.7,5-53.9,3.1-80.8" class="st9"/><path d="M420.9,766.1c1.9,26.9,0.9,54.1-3.1,80.8c-2.5,17.1-6.2,33.9-8.5,51c-6.4,47.9-1.6,97.4,15.7,142.5 c5.2-24.1,10.3-48.1,15.5-72.2c0.9-4.4,2-9.1,5.1-12.3c4.1-4.4,10.8-5.2,15.5-9c10.2-8,6.9-23.7,5.9-36.6 c-1.3-18,4.1-35.7,7.6-53.4c5.1-25.3,6.5-51.3,4.3-77" class="st9"/><path d="M936,666.4c21.9-11.7,39.4-31.6,48.3-54.8" class="st35"/><path d="M919.4,691.2c11.6-1.6,23.5,1.3,35.1,0.1c16.5-1.8,31.8-12.5,39-27.5" class="st35"/><path d="M1115,658.1c0.6,20.9-0.7,41.9-4,62.5" class="st35"/><path d="M361.3,611.9c-7,33.2-7.1,67.8-0.2,101" class="st35"/><path d="M794.8,682.5c0.6,7.1,1.2,14.2,3.2,21c4.7,16.4,17.2,30.6,17.7,47.6" class="st11"/><path d="M760.4,740.6c9.1,6.7,21.5,8.5,32.2,4.7" class="st11"/><path d="M554.8,810c-3.4,8.8-1.7,19.5,4.3,26.8" class="st11"/><path d="M652.9,789.6c4,6.8,6.9,14.3,8.4,22.1" class="st11"/><path d="M843.8,556.4c6.8-11.6,18.5-20.2,31.6-23.1" class="st11"/><path d="M948.7,555.3c1.4,10.9,4.2,21.6,8.2,31.9" class="st11"/><path d="M778.3,937c25.9-17.2,57.9-24.8,88.8-21" class="st11"/><path d="M518.8,554.5c11.2-17.3,28.1-30.8,47.4-37.9" class="st11"/><path d="M625.7,386.7c9.5,9.3,19.1,18.7,28.6,28c5.3,5.2,11.9,10.9,19.3,9.4" class="st11"/><path d="M921.3,355.4c10.2,16.8,20.3,33.6,30.5,50.4" class="st11"/><path d="M1060.3,494.8c8.8,28.6,4.2,61-12.2,86" class="st11"/><path d="M1065.8,793.6c-5.3,29.6-22.7,56.9-47.4,74.2" class="st11"/><path d="M376.8,751.5c6.4,24.2,22.1,45.8,43.2,59.2" class="st11"/><path d="M393.9,518.9c3.1,13.9,3.3,28.4,0.6,42.3" class="st11"/><path d="M442.9,937c5-5.7,8.6-12.7,10.2-20.2" class="st11"/><path d="M465,789c4.1,14.6,4,30.3-0.1,44.9" class="st11"/><path d="M418.8,973.4c-1.3,13.6,0,27.4,3.7,40.5" class="st11"/><path d="M774.3,1046.1c0,20.2,0,40.4,0,60.6" class="st11"/><path d="M710,1143.3c-9.7,17.9-4.8,42.4,11.1,55.1" class="st11"/><path d="M824.6,1224.3c14.3,7.4,30.5,11.1,46.6,10.5" class="st11"/><path d="M1049,1234.8c15.6,1.4,30.6,9.2,40.7,21.1" class="st11"/><path d="M605,1221.1c14.8,9.1,30.9,15.9,47.8,20" class="st11"/><path d="M729.7,1254.3c9.5,13.4,26.2,21.2,42.5,19.9" class="st11"/><path d="M408.1,1286c11.8-11.6,25.8-21,41.1-27.5" class="st11"/><path d="M519.7,1250.1c11.5,0.9,23.1,0.2,34.3-2" class="st11"/></g></g></g></svg>